<svg id="Layer_1" data-name="Layer 1" xmlns="http://www.w3.org/2000/svg" viewBox="0 0 120.5 38.38"><defs><style>.cls-1{fill:#fff;}.cls-2{fill:#0c67c1;}.cls-3{fill:none;}</style></defs><title>blogovsg5</title><rect class="cls-1" width="120.5" height="38.38"/><path class="cls-1" d="M56.7,13.5c-.2,1.3-.5,2.7-.7,4.1s-.6,2.9-.8,4.3h2.9c-.3-1.3-.6-2.6-.8-4S56.8,15.1,56.7,13.5Z"/><path class="cls-1" d="M43.4,20.4a4.18,4.18,0,0,0-2.5-.6h-.5l-.1,4.8h.6a4.4,4.4,0,0,0,2.5-.6,2.2,2.2,0,0,0,.8-1.8A2,2,0,0,0,43.4,20.4Z"/><path class="cls-1" d="M89.6,13.1a2.74,2.74,0,0,0-2.5,1.4,8.63,8.63,0,0,0-.8,4.4,9.85,9.85,0,0,0,.8,4.4,3,3,0,0,0,5-.1,8.45,8.45,0,0,0,.8-4.3,9.85,9.85,0,0,0-.8-4.4A2.66,2.66,0,0,0,89.6,13.1Z"/><path class="cls-1" d="M43.3,16.8a2,2,0,0,0,.8-1.7,2.2,2.2,0,0,0-.8-1.8,4.18,4.18,0,0,0-2.5-.6h-.4l-.1,4.6h.5A5.21,5.21,0,0,0,43.3,16.8Z"/><path class="cls-2" d="M45.5,18.6a5.67,5.67,0,0,0,2.1-1.5,3.61,3.61,0,0,0,.7-2.4A4,4,0,0,0,46.5,11c-1.2-.7-3.2-1.1-6.1-1.1H36.1V28h4.1a21.21,21.21,0,0,0,4.2-.3,6,6,0,0,0,2.3-1A4,4,0,0,0,48.2,25a5.09,5.09,0,0,0,.5-2.2,4.55,4.55,0,0,0-.8-2.7A4.16,4.16,0,0,0,45.5,18.6Zm-5.1-5.9h.4a4.18,4.18,0,0,1,2.5.6,2.2,2.2,0,0,1,.8,1.8,2,2,0,0,1-.8,1.7,5.21,5.21,0,0,1-2.5.5h-.5Zm3,11.3a4.4,4.4,0,0,1-2.5.6h-.6l.1-4.8h.5a4.18,4.18,0,0,1,2.5.6,2,2,0,0,1,.8,1.8A2.2,2.2,0,0,1,43.4,24Z"/><path class="cls-2" d="M54.4,9.9l-5.1,18h4.4l.7-3.2h4.4l.7,3.2h4.4L59,9.9Zm.8,12c.2-1.4.5-2.8.8-4.3s.5-2.8.7-4.1c.1,1.6.4,3,.6,4.4s.5,2.7.8,4Z"/><polygon class="cls-2" points="74.7 16.5 69.8 16.5 69.8 9.9 65.5 9.9 65.5 27.8 69.8 27.8 69.8 20 74.7 20 74.7 27.8 79.1 27.8 79.1 9.8 74.7 9.8 74.7 16.5"/><path class="cls-2" d="M89.8,9.6a7.26,7.26,0,0,0-5.7,2.5A10.06,10.06,0,0,0,82,18.9c0,2.9.6,5.2,2,6.8a7.85,7.85,0,0,0,11.3,0,9.86,9.86,0,0,0,2.1-6.6,11.88,11.88,0,0,0-1.9-7A7,7,0,0,0,89.8,9.6Zm2.3,13.6a3,3,0,0,1-5,.1,9.85,9.85,0,0,1-.8-4.4,8.63,8.63,0,0,1,.8-4.4,2.74,2.74,0,0,1,2.5-1.4,2.66,2.66,0,0,1,2.5,1.4,9.85,9.85,0,0,1,.8,4.4A8.45,8.45,0,0,1,92.1,23.2Z"/><path class="cls-2" d="M109.7,16.7c0,.9.1,1.9.2,3s.3,2.2.5,3.5c-.3-.9-.6-1.7-.8-2.3a11.43,11.43,0,0,1-.6-1.4l-4.5-9.6h-4.4v18l4.1-.1V20.2c0-1.2-.1-2.2-.1-3.1a16.59,16.59,0,0,0-.2-2.4c.1.3.2.7.4,1.2a11,11,0,0,0,.6,1.8l4.8,10.1h4.1V9.8h-4.1Z"/><path class="cls-2" d="M9.57,27.8h1.36c.17,0,.23,0,.23.22,0,.4,0,.79,0,1.19a1,1,0,0,1-1.08,1.12,11.23,11.23,0,0,1-1.35,0,.84.84,0,0,1-.68-.49A.63.63,0,0,1,8,29.53C8,29,8,28.5,8,28c0-.15.06-.19.2-.19Z"/><path class="cls-2" d="M22.19,27.8h1.46c.15,0,.23,0,.23.2s0,.43,0,.64a1.56,1.56,0,0,1-1.24,1.57,2.57,2.57,0,0,1-1.52-.12,1,1,0,0,1-.64-1c0-.37,0-.75,0-1.12,0-.17.06-.22.22-.22Z"/><path class="cls-3" d="M25,8.72A1,1,0,0,0,24.74,8a1.44,1.44,0,0,0-1.14-.4H9.15a1.33,1.33,0,0,0-1.4,1.44c0,2.17,0,4.35,0,6.52a1.21,1.21,0,0,0,1.09,1.2l.4,0H23.51l.52,0a1.05,1.05,0,0,0,1-.88,4.06,4.06,0,0,0,0-.66Q25,12,25,8.72Z"/><path class="cls-3" d="M13.39,5.45h6.19c.33,0,.43-.11.41-.42,0-.12,0-.28,0-.33s-.23,0-.35,0H13.5a.5.5,0,0,0-.19,0c-.09,0-.21.09-.23.16a4.08,4.08,0,0,0-.08.6h.39Z"/><path class="cls-2" d="M30.29,9.74A.67.67,0,0,0,30,9.19a.54.54,0,0,1-.22-.31,1.73,1.73,0,0,0-1.05-1.42A4.73,4.73,0,0,0,26.55,7c-.2,0-.27-.07-.27-.27s0-.68,0-1a3.75,3.75,0,0,0-.51-1.91,1.77,1.77,0,0,0-1.64-1H8.61A1.32,1.32,0,0,0,8,2.93,2.44,2.44,0,0,0,6.66,5.39c0,.43,0,.86,0,1.29s0,.3-.3.3a5.08,5.08,0,0,0-1.84.28,1.79,1.79,0,0,0-1.3,1.43,2.8,2.8,0,0,1-.06.37.45.45,0,0,1-.13.24.62.62,0,0,0-.29.55c0,.59,0,1.18.05,1.77a1.81,1.81,0,0,0,.66,1.26c.24.2.54.14.81.24s.18,0,.2-.13a3.06,3.06,0,0,0,0-.45c0-.92,0-1.83,0-2.75,0-.11,0-.17-.14-.19s-.21-.21-.19-.36a.28.28,0,0,1,.28-.27c.18,0,.36,0,.53-.07s.57-.11.86-.13.41,0,.41.41q0,4.94,0,9.88c0,.32.08.4.4.42H25.49c.47,0,.5,0,.5-.49q0-5,0-10c0-.26.07-.35.3-.35a3.26,3.26,0,0,1,2.11.61c.17.14.18.46,0,.55a.7.7,0,0,0-.38.71c0,.86,0,1.72,0,2.58a1.06,1.06,0,0,0,.23.7.45.45,0,0,0,.33.16A1.47,1.47,0,0,0,29.91,13a3.64,3.64,0,0,0,.19-.74c.09-.54.18-1.08.23-1.62A8.82,8.82,0,0,0,30.29,9.74ZM12.82,3.83a2.28,2.28,0,0,1,.59-.09h6.78a.55.55,0,0,1,.53.6c0,.36,0,.72,0,1.08a.57.57,0,0,1-.61.55H13a.51.51,0,0,1-.57-.46,7.24,7.24,0,0,1-.12-.94A.72.72,0,0,1,12.82,3.83ZM25,15.89a1.05,1.05,0,0,1-1,.88l-.52,0H9.24l-.4,0a1.21,1.21,0,0,1-1.09-1.2c0-2.17,0-4.35,0-6.52a1.33,1.33,0,0,1,1.4-1.44H23.6a1.44,1.44,0,0,1,1.14.4,1,1,0,0,1,.28.69q0,3.26,0,6.52A4.06,4.06,0,0,1,25,15.89Z"/><path class="cls-1" d="M16.52,6h0Z"/><path class="cls-3" d="M19,22.84h0Z"/><path class="cls-3" d="M14.44,23.83A.71.71,0,0,0,15,24c.62,0,1.24,0,1.85,0A1.64,1.64,0,0,0,18,23.61H14.19C14.29,23.7,14.38,23.76,14.44,23.83Z"/><path class="cls-2" d="M25.86,24.17c0-.31,0-.61,0-.92,0-.82,0-1.65,0-2.47,0-.28-.16-.3-.43-.3H6.48c-.11,0-.17,0-.17.15s0,.21,0,.31q0,1.45,0,2.9c0,.51,0,1,0,1.54a1.45,1.45,0,0,0,.9,1.36,7,7,0,0,0,2.39.15l2.81,0c3.69,0,7.39-.06,11.08-.06a2.55,2.55,0,0,0,1.59-.26,1.68,1.68,0,0,0,.6-.93A5.57,5.57,0,0,0,25.86,24.17Zm-15.29-.64a.52.52,0,0,1-.5.27.87.87,0,0,1-.17,0,4.45,4.45,0,0,1-1.86-1A1,1,0,0,1,7.76,22a.44.44,0,0,1,.7-.37c.48.3,1,.59,1.44.9a3,3,0,0,1,.54.48A.41.41,0,0,1,10.57,23.52Zm8.24,1.18a3.71,3.71,0,0,1-2.22.24c-.89-.08-1.81.06-2.69-.08s-1.12-.78-1.5-1.53c-.14-.28,0-.45.3-.49a5.06,5.06,0,0,1,.52,0H19a1,1,0,0,1,.31,0,.34.34,0,0,1,.26.35,1.84,1.84,0,0,1-.5,1.32A1.28,1.28,0,0,1,18.81,24.7ZM24,22.62a4.21,4.21,0,0,1-2,1.18,1.18,1.18,0,0,1-.21,0,.6.6,0,0,1-.61-.35.61.61,0,0,1,.14-.69,5,5,0,0,1,1.81-1.29.75.75,0,0,1,.9,1.13Z"/><path class="cls-2" d="M13,5.45a4.08,4.08,0,0,1,.08-.6c0-.07.15-.12.23-.16a.5.5,0,0,1,.19,0h6.09c.12,0,.27,0,.35,0s0,.22,0,.33c0,.31-.08.42-.41.42H13Z"/><path class="cls-2" d="M18,23.61c-.36.29-.7.74-1.16.71-.61,0-1.23,0-1.85,0-.23,0-.43-.31-.59-.48s-.15-.13-.25-.22Z"/></svg>