<?xml version="1.0" encoding="utf-8"?>
<!-- Generator: Adobe Illustrator 21.0.0, SVG Export Plug-In . SVG Version: 6.00 Build 0)  -->
<svg version="1.1" id="Layer_1" xmlns="http://www.w3.org/2000/svg" xmlns:xlink="http://www.w3.org/1999/xlink" x="0px" y="0px"
	 viewBox="0 0 127 78.8" style="enable-background:new 0 0 127 78.8;" xml:space="preserve">
<style type="text/css">
	.st0{fill:#FFFFFF;}
	.st1{fill:#0C67C1;}
</style>
<g>
	<path class="st0" d="M27.7,38.2c0-0.4,0-0.8,0-1.2C27.7,37.4,27.7,37.8,27.7,38.2z"/>
	<path class="st0" d="M20.4,39.4c-0.2,0-0.4,0-0.6,0c-0.2,0-0.5,0-0.7,0c-0.1,0-0.3,0-0.4,0c-0.1,0-0.1,0-0.2,0c-0.4,0-0.9,0-1.3,0
		c-0.1,0-0.3,0-0.4,0c-0.3,0-0.6,0-0.9,0c-0.4,0-0.7,0-1,0c-0.3,0-0.5,0-0.5,0.3c0,0.2,0.1,0.3,0.2,0.5c0.1,0.1,0.1,0.3,0.2,0.4
		c0.2,0.3,0.3,0.6,0.7,0.7c0.3,0.1,0.7,0,1,0c0.4,0,0.7,0,1,0c0.4,0,0.7,0,1.1,0c0.4,0.1,0.7,0.1,1,0.1c0.3,0.1,0.7,0.1,1,0
		c0.2-0.1,0.4-0.3,0.5-0.5c0.1-0.2,0.2-0.4,0.3-0.6c0.1-0.1,0.1-0.1,0.1-0.2c0-0.2,0-0.3,0-0.5c-0.1-0.1-0.2-0.2-0.4-0.2
		C20.9,39.4,20.6,39.4,20.4,39.4z M15.4,40.8C15.4,40.8,15.4,40.8,15.4,40.8C15.4,40.8,15.4,40.8,15.4,40.8
		C15.5,40.8,15.5,40.8,15.4,40.8C15.5,40.8,15.5,40.8,15.4,40.8z M15.5,40.8c0.8,0,1.6,0,2.3,0C17.1,40.8,16.3,40.8,15.5,40.8z
		 M19.4,40.6h-2.7l-0.6-0.5h4.1L19.4,40.6z M20.5,40.7C20.5,40.7,20.5,40.7,20.5,40.7C20.5,40.7,20.5,40.8,20.5,40.7
		C20.5,40.8,20.5,40.8,20.5,40.7C20.5,40.8,20.5,40.8,20.5,40.7C20.5,40.8,20.5,40.8,20.5,40.7C20.5,40.8,20.5,40.8,20.5,40.7
		C20.4,40.8,20.4,40.8,20.5,40.7C20.4,40.8,20.4,40.8,20.5,40.7C20.4,40.8,20.4,40.8,20.5,40.7C20.4,40.8,20.4,40.8,20.5,40.7
		C20.5,40.8,20.5,40.8,20.5,40.7C20.5,40.8,20.5,40.8,20.5,40.7C20.5,40.8,20.5,40.8,20.5,40.7C20.5,40.8,20.5,40.8,20.5,40.7
		C20.5,40.8,20.5,40.7,20.5,40.7C20.5,40.7,20.5,40.7,20.5,40.7C20.5,40.7,20.6,40.7,20.5,40.7C20.6,40.7,20.5,40.7,20.5,40.7z
		 M20.7,41.2C20.7,41.3,20.7,41.3,20.7,41.2C20.7,41.3,20.7,41.3,20.7,41.2C20.8,41.2,20.8,41.2,20.7,41.2
		C20.8,41.2,20.8,41.2,20.7,41.2z M20.9,40.8C20.9,40.8,20.9,40.7,20.9,40.8C20.9,40.7,20.9,40.8,20.9,40.8z"/>
	<path class="st0" d="M8.4,25.4c-0.1-0.1-0.1-0.1-0.2-0.1c0,3.2,0,6.4,0,9.6c0,0,0,0.1,0,0.1c0,0.1,0,0.1,0,0.2c0,0,0,0,0,0
		c0,0,0.1,0,0.2,0c0-3.1,0-6.4,0-9.5C8.4,25.5,8.4,25.5,8.4,25.4z"/>
	<path class="st0" d="M25.2,38c-0.5,0.2-1,0.5-1.4,0.8c-0.3,0.3-1,0.8-0.6,1.3c0.5,0.7,2.2-0.4,2.6-0.8c0.1-0.1,0.2-0.2,0.3-0.4
		c0-0.1,0-0.1,0-0.2C26.1,38.2,25.6,37.9,25.2,38z"/>
	<path class="st0" d="M14.9,22.5c0.9,0,1.7,0,2.6,0c0,0,0.1,0,0.2,0h0.1c0.7,0,1.5,0,2.2,0s1.4,0,2.1,0c0.4,0,0.6-0.3,0.6-0.6
		c0-0.3,0-0.6,0-0.9s-0.1-0.6-0.4-0.7c-0.1,0-0.3,0-0.4,0c-0.9,0-1.7,0-2.6,0c-0.1,0-0.1,0-0.2,0c-0.7,0-1.5,0-2.2,0
		c-0.4,0-0.7,0-1.1,0c-0.3,0-0.7,0-1,0.1c-0.3,0.1-0.5,0.4-0.5,0.7s0,0.6,0.1,0.8C14.4,22.2,14.6,22.5,14.9,22.5z M18,21.1
		c-0.4,0-0.7,0-1.1,0C17.3,21.1,17.6,21.1,18,21.1z M15.3,21.2c0.7,0,1.3,0,2,0c1.4,0,2.8,0,4.2,0c0-0.1-0.1-0.1-0.1-0.1
		c0.1,0,0.1,0,0.1,0.1c0.1,0,0.1,0,0.2,0c0.1,0,0.2-0.1,0.3,0v0.1c0,0,0,0.1,0,0.2c0.1,0.2,0,0.5-0.3,0.5c-0.1,0-0.3,0-0.4,0
		c-0.5,0-1,0-1.5,0c-1.5,0-2.9,0-4.4,0c0,0-0.1,0-0.2,0c0,0-0.1,0-0.1,0.1C15,22,15,21.9,15,21.8C15,21.6,15,21.2,15.3,21.2z
		 M14.8,22c-0.1,0-0.1,0-0.2,0C14.7,22,14.7,22,14.8,22z"/>
	<path class="st0" d="M11.5,38.7c-0.2-0.1-0.6-0.4-0.9-0.5c0,0,0,0,0,0c0,0,0,0,0,0c-0.2-0.1-0.3-0.1-0.4,0c-0.1,0-0.2,0.1-0.2,0.1
		c0,0,0,0.1-0.1,0.1c0,0,0,0.1,0,0.1c0,0,0,0.1,0,0.1c0,0.2,0.1,0.4,0.2,0.6c0.1,0.1,0.1,0.1,0.2,0.2c-0.1-0.1-0.1-0.1-0.2-0.2
		c0.1,0.1,0.2,0.2,0.3,0.3c0.3,0.2,0.6,0.4,0.9,0.5c0.3,0.1,0.6,0.3,0.9,0.3c0.2,0,0.4-0.1,0.5-0.3c0-0.2-0.2-0.5-0.2-0.6
		C12.2,39.1,11.8,38.9,11.5,38.7z"/>
	<polygon class="st0" points="9.9,38.3 9.9,38.3 9.9,38.3 	"/>
	<path class="st0" d="M27,29.4c0-1.3,0-2.7,0-4c0-0.2,0-0.4-0.1-0.6c-0.3-0.4-0.6-0.6-1.1-0.6c-1.7,0-3.3,0-4.9,0
		c-3.2,0-6.5,0-9.8,0c-0.3,0-0.5,0.1-0.7,0.2C10,24.6,9.8,25,9.8,25.5c0,2.2,0,4.4,0,6.6c0,0.3,0.1,0.6,0.3,0.8
		c0.2,0.3,0.5,0.4,0.9,0.4c2.5,0,4.9,0,7.4,0s4.9,0,7.4,0c0.2,0,0.4,0,0.6-0.1c0.4-0.2,0.7-0.7,0.6-1.2C27,31.1,27,30.3,27,29.4z"/>
	<path class="st0" d="M10,38.2c0,0,0.1-0.1,0.1-0.1C10,38.2,10,38.2,10,38.2z"/>
	<path class="st0" d="M9.9,38.3C9.9,38.3,9.9,38.3,9.9,38.3C9.9,38.3,9.9,38.3,9.9,38.3z"/>
	<path class="st0" d="M58.7,30c-0.2,1.3-0.5,2.7-0.7,4.1c-0.3,1.5-0.6,2.9-0.8,4.3h2.9c-0.3-1.3-0.6-2.6-0.8-4
		C59.1,33,58.8,31.6,58.7,30z"/>
	<path class="st0" d="M45.4,36.9c-0.5-0.4-1.4-0.6-2.5-0.6h-0.5l-0.1,4.8c0.1,0,0.2,0,0.3,0c0.1,0,0.2,0,0.3,0
		c1.1,0,1.9-0.2,2.5-0.6c0.5-0.4,0.8-1,0.8-1.8C46.2,37.8,45.9,37.2,45.4,36.9z"/>
	<path class="st0" d="M91.6,29.6c-1.1,0-2,0.5-2.5,1.4c-0.6,1-0.8,2.4-0.8,4.4s0.3,3.4,0.8,4.4c0.6,0.9,1.4,1.3,2.5,1.3
		c1.1,0,2-0.5,2.5-1.4c0.6-1,0.8-2.4,0.8-4.3c0-2-0.3-3.4-0.8-4.4C93.5,30,92.7,29.6,91.6,29.6z"/>
	<path class="st0" d="M45.3,33.3c0.5-0.4,0.8-0.9,0.8-1.7s-0.3-1.4-0.8-1.8s-1.4-0.6-2.5-0.6h-0.4l-0.1,4.6h0.5
		C43.9,33.8,44.8,33.6,45.3,33.3z"/>
	<path class="st1" d="M47.5,35.1c0.9-0.4,1.6-0.9,2.1-1.5c0.5-0.6,0.7-1.4,0.7-2.4c0-1.7-0.6-3-1.8-3.7s-3.2-1.1-6.1-1.1h-4.3v18
		v0.1h4.1c1.9,0,3.3-0.1,4.2-0.3c0.9-0.2,1.6-0.5,2.3-1s1.2-1,1.5-1.7c0.3-0.6,0.5-1.4,0.5-2.2c0-1.1-0.3-2-0.8-2.7
		S48.6,35.4,47.5,35.1z M42.4,29.2h0.4c1.1,0,2,0.2,2.5,0.6s0.8,1,0.8,1.8s-0.3,1.3-0.8,1.7c-0.5,0.3-1.4,0.5-2.5,0.5h-0.5
		L42.4,29.2z M45.4,40.5c-0.6,0.4-1.4,0.6-2.5,0.6c-0.1,0-0.2,0-0.3,0c-0.1,0-0.2,0-0.3,0l0.1-4.8h0.5c1.1,0,2,0.2,2.5,0.6
		c0.5,0.3,0.8,0.9,0.8,1.8C46.2,39.5,45.9,40.1,45.4,40.5z"/>
	<path class="st1" d="M56.4,26.4l-5.1,18h4.4l0.7-3.2h4.4l0.7,3.2h4.4l-4.9-18H56.4z M57.2,38.4c0.2-1.4,0.5-2.8,0.8-4.3
		c0.2-1.4,0.5-2.8,0.7-4.1c0.1,1.6,0.4,3,0.6,4.4c0.2,1.4,0.5,2.7,0.8,4H57.2z"/>
	<polygon class="st1" points="76.7,33 71.8,33 71.8,26.4 67.5,26.4 67.5,44.3 71.8,44.3 71.8,36.5 76.7,36.5 76.7,44.3 81.1,44.3 
		81.1,26.3 76.7,26.3 	"/>
	<path class="st1" d="M91.8,26.1c-2.4,0-4.3,0.9-5.7,2.5c-1.4,1.6-2.1,3.9-2.1,6.8c0,2.9,0.6,5.2,2,6.8c1.4,1.6,3.3,2.4,5.7,2.4
		c2.3,0,4.2-0.8,5.6-2.4c1.4-1.7,2.1-3.8,2.1-6.6c0-3-0.7-5.3-1.9-7C96.1,26.9,94.2,26.1,91.8,26.1z M94.1,39.7
		c-0.5,0.9-1.4,1.4-2.5,1.4c-1.1,0-1.9-0.4-2.5-1.3c-0.5-1-0.8-2.4-0.8-4.4s0.2-3.4,0.8-4.4c0.5-0.9,1.4-1.4,2.5-1.4
		c1.1,0,1.9,0.4,2.5,1.4c0.5,1,0.8,2.4,0.8,4.4C94.9,37.3,94.7,38.7,94.1,39.7z"/>
	<path class="st1" d="M111.7,33.2c0,0.9,0.1,1.9,0.2,3c0.1,1.1,0.3,2.2,0.5,3.5c-0.3-0.9-0.6-1.7-0.8-2.3c-0.3-0.6-0.5-1.1-0.6-1.4
		l-4.5-9.6h-4.4v18l4.1-0.1v-7.6c0-1.2-0.1-2.2-0.1-3.1c0-0.9-0.1-1.7-0.2-2.4c0.1,0.3,0.2,0.7,0.4,1.2c0.3,1,0.5,1.7,0.6,1.8
		l4.8,10.1h4.1v-18h-4.1V33.2z"/>
	<path class="st1" d="M10.2,38.1C10.1,38.1,10.1,38.1,10.2,38.1c-0.1,0-0.2,0.1-0.2,0.1c0,0,0,0,0,0c0,0,0,0,0,0
		C10,38.2,10.1,38.2,10.2,38.1z"/>
	<path class="st1" d="M9.9,38.3C9.9,38.3,9.9,38.3,9.9,38.3C9.9,38.3,9.9,38.3,9.9,38.3C9.9,38.3,9.9,38.3,9.9,38.3
		c-0.1,0.1-0.1,0.1-0.1,0.1C9.9,38.3,9.9,38.3,9.9,38.3z"/>
	<path class="st1" d="M9.8,38.6C9.8,38.6,9.8,38.6,9.8,38.6C9.8,38.6,9.8,38.6,9.8,38.6C9.8,38.5,9.8,38.6,9.8,38.6z"/>
	<path class="st1" d="M8.1,35.1c0,0.1,0,0.1,0.1,0.1c0,0,0,0,0,0C8.2,35.2,8.1,35.1,8.1,35.1z"/>
	<path class="st1" d="M8.2,35.2C8.2,35.2,8.2,35.2,8.2,35.2C8.2,35.2,8.2,35.2,8.2,35.2C8.2,35.2,8.2,35.2,8.2,35.2z"/>
	<path class="st1" d="M8.4,35.2c-0.1,0-0.1,0-0.2,0C8.3,35.2,8.3,35.2,8.4,35.2z"/>
	<path class="st1" d="M21.4,21.1c0,0,0,0,0.1,0.1c0,0,0,0,0,0C21.5,21.1,21.5,21.1,21.4,21.1z"/>
	<path class="st1" d="M10.6,38.2C10.6,38.2,10.6,38.2,10.6,38.2C10.6,38.2,10.6,38.2,10.6,38.2C10.6,38.2,10.6,38.2,10.6,38.2z"/>
	<path class="st1" d="M4.7,25.3C4.7,25.3,4.7,25.4,4.7,25.3c0-0.1,0-0.3,0.1-0.5C4.7,25,4.7,25.2,4.7,25.3z"/>
	<path class="st1" d="M13,44.3C13,44.3,12.9,44.3,13,44.3c-0.2,0-0.3,0-0.4,0c-0.8,0-1.6,0-2.5,0c0,0.5,0,1,0,1.5v0.1v-0.1
		c-0.1-0.5-0.1-1,0-1.5c0,0-0.1,0-0.1,0c0,0,0,1.8,0,1.9c0.2,0.6,0.8,0.7,1.3,0.7s1.3,0.1,1.7-0.4c0.3-0.4,0.2-0.9,0.2-1.3
		c0-0.1,0-0.9,0-0.9C13.2,44.3,13.1,44.3,13,44.3z"/>
	<path class="st1" d="M10.1,45.8c0-0.5,0-1,0-1.5C10,44.8,10,45.3,10.1,45.8z"/>
	<path class="st1" d="M22.7,44.3c-0.2,0-0.2,0-0.2,0.2c0,0.4,0,0.8,0,1.2c0,1.1,1.3,1.2,2.1,1.1c0.5-0.1,0.9-0.4,1.1-0.8
		c0.1-0.1,0.2-0.2,0.2-0.3c0.1-0.4,0-0.9,0-1.4C25.9,44.3,23,44.3,22.7,44.3z"/>
	<path class="st1" d="M27.7,37c0,0,0,0-0.1,0c0,0,0,0,0,0C27.6,37,27.7,37,27.7,37z"/>
	<path class="st1" d="M10.6,38.2c-0.1-0.1-0.1-0.1-0.2-0.1h-0.1c0,0-0.1,0-0.1,0C10.3,38.1,10.4,38.1,10.6,38.2z"/>
	<path class="st1" d="M27.7,38.2c0,1.1,0,2.1,0,3.2c0,0,0,0.1,0,0.1c0,0,0,0.1,0,0.1c0,0,0,0,0,0.1c0,0.1,0,0.2,0,0.2s0-0.1,0-0.2
		c0-0.1,0-0.1,0-0.1c0,0,0,0,0-0.1c0,0,0-0.1,0-0.1C27.7,40.3,27.7,39.3,27.7,38.2c0-0.4,0-0.8,0-1.2c0,0-0.1,0-0.1,0c0,0,0,0-0.1,0
		c-0.4,0-0.8,0.1-1.2,0c0,0-0.1,0-0.1,0s-0.1,0-0.1,0S26,37,26,37c0,0,0.1,0,0.1,0s0.1,0,0.1,0s0.1,0,0.1,0c0.1,0,0.1,0,0.1,0
		c0.4,0,0.8,0,1.1,0c0,0,0.1,0,0.1,0c0,0,0,0,0,0c-0.5,0-2.3,0-2.5,0c0.2,0,0.4,0,0.6,0c0,0,0.1,0,0.1,0c0,0,0.1,0,0.1,0
		c0,0-0.1,0-0.1,0c0,0,0,0-0.1,0c-0.2,0-0.4,0-0.6,0c-0.9,0-1.8,0-2.7,0c0,0-0.1,0-0.1,0s-0.1,0-0.1,0c-0.1,0-0.1,0.1-0.2,0
		c-0.1,0-0.2,0-0.3,0s-0.2,0-0.3,0c-0.1,0-0.3,0-0.4,0c-0.3,0-0.7,0-1,0c-0.1,0-0.1,0-0.2,0c-1.8,0-3.7,0-5.5,0c-0.1,0-0.1,0-0.2,0
		c-0.3,0-0.5,0-0.8,0c0,0-0.1,0-0.1,0c0,0-0.1,0-0.1,0c0,0-0.1,0-0.1,0c-0.2,0-0.5,0-0.9,0c0,0-0.1,0-0.1,0h-0.1c-0.1,0-0.2,0-0.3,0
		c-1,0-2,0-3.1,0c-0.1,0-0.1,0-0.2,0c0,0.6,0,1.2,0,1.8c0,1,0,2.1,0,3.1c0,0.5,0.4,1.2,0.9,1.4c0.2,0.1,0.4,0.1,0.6,0.1
		c3.9,0.2,7.8,0,11.6,0c1.5,0,2.9,0,4.4,0c0.4,0,0.9,0.1,1.2-0.1c0.5-0.4,0.7-1.1,0.8-1.6c0.1-0.6,0-1.2,0-1.8
		C27.8,39.3,27.7,38.8,27.7,38.2z M12.2,39.1c0.2,0.1,0.3,0.2,0.3,0.3C12.4,39.3,12.3,39.2,12.2,39.1c-0.5-0.4-1-0.7-1.6-1
		C11.2,38.4,11.8,38.7,12.2,39.1z M11.3,40.1c0.1,0,0.3,0.1,0.5,0.2C11.6,40.2,11.4,40.1,11.3,40.1z M12.6,40
		c-0.1,0.3-0.3,0.3-0.5,0.3c-0.3,0-0.6-0.2-0.9-0.3c-0.3-0.1-0.6-0.3-0.9-0.5c-0.1-0.1-0.2-0.2-0.3-0.3c-0.1-0.1-0.2-0.3-0.2-0.5
		c0,0.2,0.1,0.4,0.2,0.5c-0.1-0.2-0.2-0.4-0.2-0.6c0,0,0,0,0,0.1c0-0.1,0-0.3,0.1-0.4c0,0,0,0,0,0c0,0,0,0,0,0c0,0,0,0,0,0
		c0,0,0,0,0,0c0,0,0.1-0.1,0.1-0.1c0.1,0,0.1,0,0.2,0h0.1c0.1,0,0.2,0,0.2,0.1c0.3,0.1,0.7,0.4,0.9,0.5c0.3,0.2,0.7,0.4,0.9,0.7
		C12.4,39.5,12.6,39.8,12.6,40C12.6,40,12.6,40,12.6,40C12.6,40,12.6,40,12.6,40c0.1,0,0.1-0.1,0.1-0.2C12.7,39.9,12.7,40,12.6,40z
		 M14.3,39.8c0,0,0.1,0.1,0.1,0.2C14.4,39.9,14.3,39.8,14.3,39.8z M15,41.1c0-0.1,0-0.1-0.1-0.1c0,0,0-0.1,0-0.1c0,0,0,0-0.1-0.1
		c0,0,0,0,0-0.1c0,0,0,0,0,0s0,0,0,0c0,0,0-0.1-0.1-0.1c0,0,0,0,0,0c0,0,0,0,0,0c-0.1-0.1-0.1-0.2-0.2-0.3c0.1,0.1,0.2,0.2,0.2,0.3
		c0.1,0.1,0.1,0.1,0.1,0.1c0,0,0,0-0.1,0h0c0,0,0,0,0.1,0c0.1,0.1,0.1,0.2,0.1,0.3C15,41,15,41,15,41.1C15,41.1,15,41.1,15,41.1
		C15.1,41.1,15.1,41.1,15,41.1C15.1,41.2,15.1,41.2,15,41.1C15.1,41.2,15.1,41.2,15,41.1C15.1,41.2,15.1,41.2,15,41.1
		c0.1,0.1,0.1,0.1,0.1,0.1c0.1,0,0.1,0,0.1,0s0,0-0.1,0L15,41.1z M15.2,41.3C15.1,41.3,15.1,41.2,15.2,41.3L15.2,41.3z M21.5,40.1
		c0,0.1,0,0.1-0.1,0.2c-0.1,0.2-0.2,0.4-0.3,0.6c-0.1,0.2-0.3,0.4-0.5,0.5c-0.3,0.1-0.7,0.1-1,0c-0.3,0-0.6,0-1-0.1
		c-0.4,0-0.7,0-1.1,0c-0.3,0-0.6,0-1,0c-0.3,0-0.7,0.1-1,0c-0.4-0.1-0.5-0.4-0.7-0.7c-0.1-0.1-0.1-0.3-0.2-0.4
		c-0.1-0.2-0.2-0.3-0.2-0.5c0-0.3,0.2-0.3,0.5-0.3c0,0-0.1,0-0.1,0c0,0,0.1,0,0.1,0c0.3,0,0.6,0,1,0c0.3,0,0.6,0,0.9,0
		c0.1,0,0.3,0,0.4,0c0.4,0,0.9,0,1.3,0c0.1,0,0.1,0,0.2,0c0.1,0,0.3,0,0.4,0c0.2,0,0.5,0,0.7,0c0.2,0,0.4,0,0.6,0c0.2,0,0.5,0,0.7,0
		c0,0,0,0,0.1,0c0,0,0,0,0,0s-0.1,0,0,0c0,0,0,0-0.1,0c0.2,0,0.3,0.1,0.4,0.2C21.5,39.8,21.5,39.9,21.5,40.1z M21.3,39.4
		c0.2,0,0.3,0.2,0.3,0.4C21.6,39.6,21.5,39.5,21.3,39.4z M26.1,38.9c-0.1,0.2-0.2,0.3-0.3,0.4c-0.4,0.4-2.1,1.5-2.6,0.8
		c-0.4-0.5,0.3-1,0.6-1.3c0.4-0.3,0.9-0.6,1.4-0.8c0.4-0.1,0.9,0.2,0.9,0.7C26.1,38.8,26.1,38.8,26.1,38.9z"/>
	<path class="st1" d="M15,41.1C15,41.1,15,41,15,41.1C15,41.1,15,41.1,15,41.1C15,41.1,15,41.1,15,41.1C15,41.1,15,41.1,15,41.1z"/>
	<path class="st1" d="M15.2,41.3C15.1,41.2,15.1,41.3,15.2,41.3L15.2,41.3z"/>
	<polygon class="st1" points="15.1,41.2 15.1,41.2 15.1,41.2 	"/>
	<path class="st1" d="M9.9,38.4c0,0,0,0.1,0,0.1C9.8,38.5,9.8,38.4,9.9,38.4z"/>
	<path class="st1" d="M12.2,39.1c0.1,0.1,0.2,0.2,0.3,0.3C12.5,39.3,12.4,39.2,12.2,39.1z"/>
	<path class="st1" d="M14.7,40.6c0-0.1-0.1-0.2-0.2-0.3C14.6,40.4,14.6,40.5,14.7,40.6z"/>
	<path class="st1" d="M14.8,40.7C14.8,40.7,14.8,40.7,14.8,40.7C14.7,40.6,14.7,40.6,14.8,40.7C14.8,40.7,14.8,40.7,14.8,40.7z"/>
	<path class="st1" d="M9.9,38.3C9.9,38.3,9.9,38.3,9.9,38.3C9.9,38.3,9.9,38.3,9.9,38.3z"/>
	<path class="st1" d="M10.3,38.1c-0.1,0-0.2,0-0.2,0c0,0,0.1,0,0.1,0C10.2,38.1,10.3,38.1,10.3,38.1z"/>
	<path class="st1" d="M9.9,38.3C9.9,38.2,10,38.2,9.9,38.3C10,38.2,9.9,38.2,9.9,38.3z"/>
	<path class="st1" d="M9.8,38.5c0,0,0-0.1,0-0.1c0,0,0-0.1,0-0.1c-0.1,0.1-0.1,0.2-0.1,0.4c0,0,0,0,0-0.1
		C9.8,38.6,9.8,38.6,9.8,38.5C9.8,38.6,9.8,38.5,9.8,38.5z"/>
	<path class="st1" d="M21.3,39.4c0.2,0.1,0.3,0.2,0.3,0.4C21.6,39.6,21.5,39.4,21.3,39.4z"/>
	<path class="st1" d="M10.6,38.1c0.6,0.3,1.1,0.6,1.6,1C11.8,38.7,11.2,38.4,10.6,38.1z"/>
	<path class="st1" d="M10.6,38.2c0-0.1-0.1-0.1-0.2-0.1C10.5,38.1,10.5,38.1,10.6,38.2C10.6,38.2,10.6,38.2,10.6,38.2z"/>
	<path class="st1" d="M22.2,37c-0.1,0-0.1,0-0.2,0c0,0,0,0,0,0C22.1,37.1,22.1,37,22.2,37z"/>
	<path class="st1" d="M26.3,37c0.4,0.1,0.8,0,1.2,0C27.1,37,26.8,37,26.3,37C26.4,37,26.4,37,26.3,37z"/>
	<path class="st1" d="M14.8,40.7c0,0.1,0.1,0.1,0.1,0.2c0,0,0,0,0,0.1C14.9,40.9,14.9,40.8,14.8,40.7z"/>
	<polygon class="st1" points="15.1,41.2 15.1,41.2 15.1,41.2 	"/>
	<polygon class="st1" points="15,41.1 15.1,41.2 15.1,41.2 	"/>
	<path class="st1" d="M15.1,41.1C15,41.1,15,41.1,15.1,41.1C15,41.1,15,41.1,15.1,41.1C15.1,41.1,15.1,41.1,15.1,41.1z"/>
	<path class="st1" d="M15,41C15,41,15,41.1,15,41C15,41,15,41,15,41C14.9,41,14.9,41,15,41C15,41,15,41,15,41z"/>
	<path class="st1" d="M14.9,41C14.9,41,14.9,40.9,14.9,41C14.9,40.9,14.9,41,14.9,41z"/>
	<path class="st1" d="M14.9,41C14.9,40.9,14.9,40.9,14.9,41C14.9,40.9,14.9,40.9,14.9,41C14.9,41,14.9,41,14.9,41z"/>
	<polygon class="st1" points="15.1,41.2 15.1,41.2 15.1,41.2 	"/>
	<path class="st1" d="M14.8,40.7C14.8,40.7,14.8,40.7,14.8,40.7C14.8,40.7,14.8,40.7,14.8,40.7C14.8,40.7,14.8,40.7,14.8,40.7
		C14.8,40.7,14.8,40.7,14.8,40.7z"/>
	<path class="st1" d="M14.8,40.7C14.8,40.7,14.8,40.7,14.8,40.7C14.8,40.8,14.8,40.8,14.8,40.7C14.8,40.8,14.8,40.7,14.8,40.7
		C14.8,40.7,14.8,40.7,14.8,40.7z"/>
	<path class="st1" d="M14.7,40.6C14.7,40.7,14.7,40.7,14.7,40.6L14.7,40.6C14.7,40.7,14.7,40.7,14.7,40.6z"/>
	<path class="st1" d="M14.7,40.6C14.7,40.6,14.7,40.6,14.7,40.6C14.7,40.7,14.7,40.7,14.7,40.6C14.7,40.6,14.7,40.6,14.7,40.6z"/>
	<path class="st1" d="M15.1,41.2C15.1,41.2,15.1,41.2,15.1,41.2C15.1,41.2,15.1,41.2,15.1,41.2L15.1,41.2z"/>
	<path class="st1" d="M15.1,41.1C15,41.1,15,41.1,15.1,41.1L15.1,41.1C15.1,41.2,15.1,41.2,15.1,41.1z"/>
	<path class="st1" d="M15.1,41.2C15.1,41.2,15.1,41.2,15.1,41.2C15.1,41.1,15.1,41.1,15.1,41.2C15.1,41.2,15.1,41.2,15.1,41.2
		L15.1,41.2z"/>
	<path class="st1" d="M15.1,41.2L15.1,41.2C15.1,41.2,15.1,41.2,15.1,41.2C15.1,41.1,15.1,41.1,15.1,41.2
		C15.1,41.2,15.1,41.2,15.1,41.2z"/>
	<path class="st1" d="M14.9,41c0,0,0.1,0.1,0.1,0.1C15,41.1,15,41,14.9,41C15,41,15,41,14.9,41z"/>
	<path class="st1" d="M15,41C15,41,15,41.1,15,41C15,41.1,15,41.1,15,41C15,41,15,41,15,41z"/>
	<path class="st1" d="M14.9,41C14.9,40.9,14.9,40.9,14.9,41C14.9,40.9,14.9,41,14.9,41C15,41,15,41,14.9,41C15,41,15,41,14.9,41z"/>
	<path class="st1" d="M15,41C15,41,15,41,15,41C15,41,15,41,15,41C15,41,15,41,15,41z"/>
	<path class="st1" d="M14.8,40.8C14.9,40.8,14.9,40.9,14.8,40.8c0.1,0,0,0,0-0.1C14.8,40.7,14.8,40.8,14.8,40.8z"/>
	<path class="st1" d="M14.9,40.9C14.9,40.9,14.9,40.8,14.9,40.9C14.9,40.9,14.9,40.9,14.9,40.9z"/>
	<path class="st1" d="M12.1,40.3c0.2,0,0.4,0,0.5-0.3C12.5,40.2,12.3,40.3,12.1,40.3z"/>
	<path class="st1" d="M6,25.7C5.9,25.7,5.9,25.7,6,25.7C6,25.8,6,25.8,6,25.7C6,25.8,6,25.8,6,25.7C5.9,25.7,5.9,25.7,6,25.7
		C5.9,25.7,6,25.8,6,25.7C6,25.8,6,25.8,6,25.7z"/>
	<path class="st1" d="M32.3,26.2c0-0.2-0.1-0.4-0.3-0.5c-0.1-0.1-0.2-0.2-0.2-0.3c0-0.3-0.1-0.5-0.2-0.7c-0.3-0.4-0.7-0.7-1.2-0.9
		c-0.6-0.2-1.2-0.3-1.8-0.3c-0.3,0-0.3,0-0.3-0.3c0-0.4,0-0.8,0-1.2c0-0.9-0.7-2.4-1.4-2.5c-0.4-0.2-0.6-0.2-0.9-0.2
		c-3.4,0-6.7,0-10.1,0c-1.8,0-3.5,0-5.3,0c-0.7,0-1.5,0.7-1.8,1.5c-0.1,0.3-0.2,1-0.1,1.3c0,0.4,0,0.8,0,1.2c0,0.1,0,0.1,0,0.1
		c0,0.1-0.1,0.1-0.1,0.1c-0.1,0-0.2,0-0.4,0c-0.7,0-1.4,0.1-2.1,0.5c-0.7,0.4-0.8,0.9-0.9,1.6v0.1l-0.1,0.1
		c-0.2,0.1-0.3,0.3-0.3,0.4c-0.1,0.5,0,1,0,1.5s0.1,1,0.4,1.4c0.2,0.3,0.5,0.5,0.8,0.5c0,0,0,0,0,0c0,0-0.1,0-0.1,0s0,0,0.1,0
		c0,0,0,0,0,0c0.2,0,0.4,0.1,0.5,0.1c0.1-0.4,0.1-0.9,0.1-1.3c0-0.8,0-1.5,0-2.3c-0.1,0-0.3,0-0.3-0.1c-0.1-0.2,0-0.5,0.2-0.5
		c0,0,0,0,0.1,0h0.1c0,0,0,0,0.1,0c0.4-0.1,0.8-0.2,1.2-0.2c0.1,0,0.1,0,0.2,0c0-0.1,0-0.3,0-0.4c0-0.2,0-0.3,0-0.3
		c-0.1-0.1-0.2-0.1-0.4-0.1c-0.4,0.1-0.8,0.1-1.2,0.2c0,0,0,0-0.1,0c0,0.1,0,0.1-0.1,0.1c0,0.1,0,0.1,0,0c0,0,0,0-0.1,0c0,0,0,0,0,0
		c0,0,0,0,0,0c0,0.1-0.1,0.1-0.1,0.1c0,0-0.1,0-0.1,0.1c0,0,0,0-0.1,0c0,0-0.1,0-0.1,0c0,0,0.1,0,0.1,0s0,0-0.1,0c0,0,0,0,0.2-0.3
		h0.1c0.1,0,0.1,0,0.1,0h0.1c0.1,0,0.1,0,0.1,0c0.4-0.2,0.8-0.2,1.2-0.2c0.3,0,0.4,0,0.4,0.1c0,0,0,0.1,0,0.3c0,0.1,0,0.3,0,0.4
		c0.1,0,0.1,0,0.2,0.1c0,0.1,0,0.1,0,0.3c0,3.1,0,6.4,0,9.5c1.2,0,2.5,0,3.8,0c4.9,0,9.8,0,14.6,0c0.2,0,0.5,0,0.7,0
		c0,0,0.1,0,0.1,0c0,0,0,0,0,0c0,0,0,0,0,0c0,0,0,0,0,0c0,0,0,0,0,0c0,0,0-0.1,0-0.1c0-0.1,0-0.1,0-0.2c0-3.2,0-6.4,0-9.6
		c0-0.2,0-0.4,0-0.6c0-0.1,0.1-0.2,0.2-0.2c0.4,0,0.7,0,1.1,0.1c0.3,0.1,0.6,0.2,0.9,0.4C30,25,30,25,30.1,25c-0.1,0-0.2,0-0.2-0.1
		c-0.3-0.1-0.6-0.2-0.9-0.4c-0.4-0.1-0.7-0.1-1.1-0.1c-0.1,0-0.2,0.1-0.2,0.2c0,0.2,0,0.4,0,0.6c0,3.2,0,6.4,0,9.6
		c0,0.1,0,0.1,0,0.2c0,0,0,0.1,0,0.1c0,0,0,0,0,0c0,0,0,0,0,0c0,0,0,0,0,0c0,0,0,0,0,0c0,0-0.1,0-0.1,0c-0.2,0-0.5,0-0.7,0
		c-4.8,0-9.7,0-14.6,0c-1.3,0-2.6,0-3.8,0c0,0.2,0,0.3,0,0.5c0,0.1,0,0.2,0,0.2S8.5,36,8.7,36c1.3,0,2.6,0,3.8,0c4.9,0,9.7,0,14.6,0
		c0.2,0,0.5,0,0.7,0c0.1,0,0.2,0,0.2-0.2c0-0.1,0-0.1,0-0.2c0-3.2,0-6.4,0-9.6c0-0.2,0-0.4,0-0.6c0-0.1,0.1-0.2,0.2-0.2
		c0.4,0,0.7,0,1.1,0.1c0.3,0.1,0.6,0.1,0.9,0.4c0.1,0,0.1,0.1,0.2,0.1c0.1,0.1,0.1,0.2,0.1,0.3s0,0.2-0.1,0.2
		C30,26.5,30,26.8,30,27.1c0,0.8,0,1.5,0,2.3c0,0.1,0,0.2,0,0.2c0.1,0.1,0.2,0.1,0.3,0.1c0.9-0.1,1.4-0.7,1.5-1.6
		c0-0.3,0.1-0.6,0.1-0.8c0-0.3,0-0.6-0.1-0.9c0.1,0.3,0.1,0.6,0.1,0.9c0,0.3,0,0.6-0.1,0.8c-0.1,0.9-0.6,1.5-1.5,1.6
		c-0.1,0-0.2,0-0.3-0.1c0,0.2,0,0.4,0.2,0.7c0.1,0.2,0.2,0.2,0.4,0.2c0.9-0.1,1.4-0.7,1.5-1.6c0.3-1.4,0.3-1.9,0.2-2.5
		C32.3,26.3,32.3,26.3,32.3,26.2z M6.5,29.6C6.5,29.6,6.4,29.6,6.5,29.6C6.4,29.6,6.5,29.6,6.5,29.6z M6.6,25
		C6.6,24.9,6.6,25,6.6,25C6.6,25,6.6,24.9,6.6,25z M6.4,25.1C6.4,25.1,6.4,25.1,6.4,25.1C6.4,25.1,6.4,25.1,6.4,25.1z M6,25.7
		C6,25.7,6,25.6,6,25.7C6,25.6,6,25.6,6,25.7C6,25.6,6,25.6,6,25.7C6,25.6,6,25.7,6,25.7C5.9,25.6,5.9,25.5,6,25.7z M6.1,25.9
		C6.1,25.9,6,25.8,6.1,25.9C6,25.8,6.1,25.9,6.1,25.9C6,25.8,6,25.8,6.1,25.9C6,25.8,6,25.8,6.1,25.9C6.1,25.9,6.1,25.8,6.1,25.9
		C6.1,25.8,6.1,25.9,6.1,25.9z M6,25.8C6,25.8,6.1,25.8,6,25.8C6.1,25.8,6.1,25.8,6,25.8C6.1,25.8,6.1,25.8,6,25.8
		C6.1,25.8,6.1,25.8,6,25.8C6.1,25.8,6.1,25.8,6,25.8C6.1,25.8,6.1,25.8,6,25.8C6.1,25.8,6.1,25.8,6,25.8C6.1,25.8,6,25.8,6,25.8
		C6.1,25.8,6,25.8,6,25.8c-0.2-0.1-0.2-0.1-0.3-0.2c0,0,0,0,0,0c0,0,0,0,0,0c0-0.1,0-0.1,0.1-0.3c0-0.1,0.1-0.1,0,0c0,0,0,0,0,0
		c0,0,0,0,0,0s0,0,0,0c0,0,0,0,0.1-0.1c0,0-0.1,0-0.1,0s0,0,0.1,0c0,0-0.1,0.1-0.1,0.1c0,0,0,0,0,0c0,0,0.1,0,0,0c0,0,0,0,0,0
		c0,0.1,0.1,0.1,0.1,0.2c0,0.1,0,0.1,0,0.1c0,0,0,0,0,0.1C6,25.7,6,25.7,6,25.8C6,25.7,6,25.7,5.9,25.7C5.9,25.7,6,25.7,6,25.8
		C6,25.7,6,25.8,6,25.8C6,25.8,6,25.7,6,25.8C6,25.7,6,25.8,6,25.8C6,25.8,6.1,25.8,6,25.8z M14.8,20.4c0.3-0.1,0.7-0.1,1-0.1
		c0.4,0,0.7,0,1.1,0c0.7,0,1.5,0,2.2,0c0.1,0,0.1,0,0.2,0c0.9,0,1.7,0,2.6,0c0.1,0,0.3,0,0.4,0c0.3,0.1,0.4,0.4,0.4,0.7s0,0.6,0,0.9
		c0,0.3-0.2,0.6-0.6,0.6c-0.7,0-1.4,0-2.1,0s-1.5,0-2.2,0h-0.1c-0.1,0-0.2,0-0.2,0c-0.9,0-1.7,0-2.6,0c-0.3,0-0.5-0.3-0.5-0.6
		c-0.1-0.2-0.1-0.5-0.1-0.8S14.5,20.5,14.8,20.4z M26.4,33.2c-0.2,0.1-0.4,0.1-0.6,0.1c-2.5,0-4.9,0-7.4,0s-4.9,0-7.4,0
		c-0.4,0-0.7-0.1-0.9-0.4c-0.2-0.2-0.3-0.5-0.3-0.8c0-2.2,0-4.4,0-6.6c0-0.5,0.2-0.9,0.6-1.1c0.2-0.1,0.4-0.2,0.7-0.2
		c3.3,0,6.6,0,9.8,0c1.6,0,3.2,0,4.9,0c0.5,0,0.8,0.2,1.1,0.6C27,25,27,25.2,27,25.4c0,1.3,0,2.7,0,4c0,0.9,0,1.7,0,2.6
		C27.1,32.5,26.8,33,26.4,33.2z"/>
	<path class="st1" d="M6.4,24.8C6.4,24.8,6.5,24.7,6.4,24.8C6.5,24.7,6.4,24.8,6.4,24.8C6.5,24.8,6.5,24.8,6.4,24.8l-0.1,0
		C6.3,24.8,6.4,24.8,6.4,24.8z"/>
	<path class="st1" d="M6.1,24.9L6.1,24.9C6.1,25,6.1,25,6.1,24.9C6.1,25,6.1,25,6.1,24.9L6,25C6,25,6.1,25,6.1,24.9
		C6.1,25,6.1,25,6.1,24.9C6.2,25,6.2,25,6.1,24.9C6.1,25,6.1,25,6.1,24.9z"/>
	<path class="st1" d="M31.9,27.3c0,0.3,0,0.5-0.1,0.8C31.9,27.8,31.9,27.6,31.9,27.3z"/>
	<path class="st1" d="M31.8,26.4c0,0.3,0.1,0.6,0.1,0.9C31.9,27,31.9,26.7,31.8,26.4z"/>
	<path class="st1" d="M5.8,25.3C5.9,25.2,5.8,25.2,5.8,25.3L5.8,25.3z"/>
	<path class="st1" d="M29,24.5c0.3,0.2,0.6,0.3,0.9,0.4C29.6,24.7,29.3,24.6,29,24.5z"/>
	<path class="st1" d="M30.1,25c-0.1,0-0.1,0-0.2-0.1C29.9,25,30,25,30.1,25z"/>
	<path class="st1" d="M27.7,35.1c0,0,0-0.1,0-0.1C27.7,35,27.7,35.1,27.7,35.1z"/>
	<path class="st1" d="M27.7,35.1C27.7,35.1,27.7,35.1,27.7,35.1C27.7,35.1,27.7,35.1,27.7,35.1z"/>
	<path class="st1" d="M27.5,35.2c0,0,0.1,0,0.1,0C27.6,35.2,27.5,35.2,27.5,35.2z"/>
	<path class="st1" d="M27.6,35.2C27.6,35.2,27.6,35.2,27.6,35.2C27.6,35.2,27.6,35.2,27.6,35.2z"/>
	<path class="st1" d="M27.7,35.2C27.6,35.2,27.6,35.2,27.7,35.2C27.6,35.2,27.6,35.2,27.7,35.2z"/>
	<path class="st1" d="M27.7,35.1C27.7,35.1,27.7,35.1,27.7,35.1C27.7,35.1,27.7,35.1,27.7,35.1z"/>
	<path class="st1" d="M6.4,24.8C6.4,24.8,6.4,24.8,6.4,24.8C6.4,24.8,6.4,24.8,6.4,24.8C6.4,24.8,6.4,24.8,6.4,24.8z"/>
	<path class="st1" d="M6.4,24.8C6.4,24.8,6.4,24.8,6.4,24.8C6.4,24.8,6.4,24.8,6.4,24.8C6.5,24.8,6.5,24.8,6.4,24.8
		C6.5,24.8,6.5,24.8,6.4,24.8z"/>
	<path class="st1" d="M7.8,24.5c-0.4,0-0.8,0-1.2,0.2C7,24.6,7.4,24.6,7.8,24.5z"/>
	<path class="st1" d="M6.1,25L6.1,25C6.1,24.9,6.1,24.9,6.1,25C6.1,24.9,6.1,25,6.1,25C6.1,24.9,6.1,24.9,6.1,25z"/>
	<path class="st1" d="M6.1,24.9C6.1,25,6.1,24.9,6.1,24.9C6,24.9,6,25,6.1,24.9C6,25,6.1,24.9,6.1,24.9C6.1,24.9,6,25,6.1,24.9
		C6,25,6,25,6.1,24.9L6.1,24.9C6.1,24.9,6.1,24.9,6.1,24.9z"/>
	<path class="st1" d="M6.2,25C6.2,25,6.2,25,6.2,25C6.2,25,6.2,24.9,6.2,25C6.2,24.9,6.2,25,6.2,25z"/>
	<path class="st1" d="M6.1,25C6.1,25,6,25,6.1,25C6,25,6.1,25,6.1,25z"/>
	<path class="st1" d="M6.1,25C6.1,25,6.1,25,6.1,25C6.1,25,6.1,25,6.1,25z"/>
	<path class="st1" d="M6.3,24.7L6.3,24.7C6,25,6,25,6,25c0,0,0,0,0,0c0,0,0,0,0.1-0.1C6.2,24.9,6.2,24.9,6.3,24.7
		C6.4,24.8,6.4,24.7,6.3,24.7C6.4,24.7,6.4,24.8,6.3,24.7h0.2H6.4C6.4,24.7,6.4,24.7,6.3,24.7z"/>
	<path class="st1" d="M6.4,24.8C6.4,24.8,6.4,24.8,6.4,24.8c0,0-0.1,0-0.1,0C6.3,24.8,6.4,24.8,6.4,24.8c0,0-0.1,0-0.1,0
		C6.3,24.8,6.3,24.8,6.4,24.8C6.3,24.8,6.4,24.8,6.4,24.8z"/>
	<path class="st1" d="M7.8,24.5c0.2,0,0.3,0,0.4,0.1C8.2,24.5,8.1,24.5,7.8,24.5z"/>
	<path class="st1" d="M6,25.7C5.9,25.5,5.9,25.6,6,25.7L6,25.7z"/>
	<path class="st1" d="M5.8,25.6c0-0.1,0-0.1,0-0.2C5.7,25.6,5.8,25.6,5.8,25.6c0.1,0.1,0.1,0.1,0.1,0.1c0-0.1,0-0.1,0-0.1
		c0,0,0-0.1,0-0.1c0-0.1-0.1-0.1-0.1-0.2c0,0,0,0.1,0,0.1C5.8,25.5,5.8,25.5,5.8,25.6z"/>
	<path class="st1" d="M5.8,25.6C5.8,25.6,5.8,25.6,5.8,25.6C5.8,25.6,5.8,25.6,5.8,25.6z"/>
	<path class="st1" d="M5.8,25.4C5.8,25.4,5.8,25.3,5.8,25.4c-0.1,0.1-0.1,0.1-0.1,0.2C5.7,25.5,5.8,25.5,5.8,25.4z"/>
	<path class="st1" d="M6,25.7C6,25.7,6,25.7,6,25.7C6,25.7,5.9,25.7,6,25.7C5.9,25.7,5.9,25.7,6,25.7z"/>
	<path class="st1" d="M5.8,25.6C5.8,25.6,5.8,25.6,5.8,25.6C5.8,25.6,5.8,25.6,5.8,25.6z"/>
	<path class="st1" d="M6,25.7C6,25.7,6,25.7,6,25.7C6,25.8,6,25.8,6,25.7C6,25.8,6,25.7,6,25.7z"/>
	<path class="st1" d="M5.8,25.6c0,0,0.1,0.1,0.2,0.2C6,25.8,5.9,25.7,5.8,25.6C5.8,25.7,5.8,25.7,5.8,25.6z"/>
	<path class="st1" d="M5.8,25.4c0,0.1-0.1,0.1-0.1,0.2c0,0,0,0,0,0c0,0,0,0,0,0c0,0,0.1,0,0.1,0C5.8,25.6,5.7,25.6,5.8,25.4z"/>
	<path class="st1" d="M6,25.7C6,25.7,6,25.7,6,25.7C6,25.7,6,25.7,6,25.7z"/>
	<path class="st1" d="M6.2,25C6.2,24.9,6.2,24.9,6.2,25L6.2,25C6.1,25,6.1,25,6.2,25z"/>
	<path class="st1" d="M6.3,24.8c0,0,0,0.1-0.1,0.1C6.2,24.9,6.3,24.9,6.3,24.8z"/>
	<path class="st1" d="M6.1,24.9L6.1,24.9C6.2,24.9,6.2,24.9,6.1,24.9c0.1,0,0.1,0,0.1,0c0,0,0-0.1,0.1-0.1
		C6.2,24.9,6.2,24.9,6.1,24.9C6.1,24.9,6.1,24.9,6.1,24.9z"/>
	<path class="st1" d="M6.4,24.8C6.4,24.8,6.3,24.8,6.4,24.8C6.3,24.8,6.3,24.8,6.4,24.8z"/>
	<path class="st1" d="M6.4,24.8C6.4,24.8,6.4,24.8,6.4,24.8C6.4,24.9,6.5,24.9,6.4,24.8z"/>
	<path class="st1" d="M6.3,24.8C6.3,24.8,6.4,24.8,6.3,24.8C6.4,24.8,6.4,24.8,6.3,24.8C6.4,24.8,6.3,24.8,6.3,24.8z"/>
	<path class="st1" d="M6.4,24.8C6.4,24.8,6.4,24.8,6.4,24.8C6.4,24.8,6.4,24.8,6.4,24.8C6.4,24.8,6.4,24.8,6.4,24.8z"/>
	<path class="st1" d="M21.5,21.8c0,0.1-0.1,0.2-0.2,0.2c0.1,0,0.3,0,0.4,0c0.3,0,0.4-0.3,0.3-0.5c0-0.1,0-0.2,0-0.2v-0.1
		c-0.1-0.1-0.2,0-0.3,0c-0.1,0-0.1,0-0.2,0c0,0,0,0.1,0,0.1C21.5,21.5,21.5,21.7,21.5,21.8z"/>
	<path class="st1" d="M15.2,22c0.1,0,0.2,0,0.2,0c1.5,0,2.9,0,4.4,0c0.5,0,1,0,1.5,0c0.1,0,0.2-0.1,0.2-0.2s0-0.3,0-0.5
		c0,0,0-0.1,0-0.1c-1.4,0-2.7,0-4.2,0c-0.7,0-1.3,0-2,0c-0.3,0-0.3,0.4-0.3,0.6c0,0.1,0,0.2,0.1,0.3C15.1,22,15.2,22,15.2,22z"/>
	<path class="st1" d="M21.5,21.2C21.5,21.2,21.5,21.2,21.5,21.2C21.5,21.2,21.5,21.3,21.5,21.2C21.5,21.3,21.5,21.2,21.5,21.2z"/>
	<polygon class="st1" points="16.7,40.6 19.4,40.6 20.2,40.1 16.1,40.1 	"/>
</g>
</svg>
