<?xml version="1.0" encoding="utf-8"?>
<!-- Generator: Adobe Illustrator 21.0.0, SVG Export Plug-In . SVG Version: 6.00 Build 0)  -->
<svg version="1.1" id="Layer_1" xmlns="http://www.w3.org/2000/svg" xmlns:xlink="http://www.w3.org/1999/xlink" x="0px" y="0px"
	 viewBox="0 0 232.2 462" style="enable-background:new 0 0 232.2 462;" xml:space="preserve">
<style type="text/css">
	.st0{fill:url(#SVGID_1_);}
	.st1{clip-path:url(#SVGID_3_);}
	.st2{clip-path:url(#SVGID_5_);}
	.st3{clip-path:url(#SVGID_7_);}
	.st4{clip-path:url(#SVGID_9_);}
	.st5{clip-path:url(#SVGID_11_);}
	.st6{clip-path:url(#SVGID_15_);}
	.st7{clip-path:url(#SVGID_17_);fill:#5B5B5B;}
	.st8{clip-path:url(#SVGID_19_);}
	.st9{clip-path:url(#SVGID_21_);fill:#5B5B5B;}
	.st10{clip-path:url(#SVGID_23_);}
	.st11{clip-path:url(#SVGID_25_);fill:#EBCEB5;}
	.st12{clip-path:url(#SVGID_27_);}
	.st13{clip-path:url(#SVGID_29_);fill:#EBCEB5;}
	.st14{clip-path:url(#SVGID_31_);}
	.st15{clip-path:url(#SVGID_33_);fill:#EBCEB5;}
	.st16{clip-path:url(#SVGID_35_);}
	.st17{clip-path:url(#SVGID_37_);fill:#EBCEB5;}
	.st18{clip-path:url(#SVGID_39_);}
	.st19{clip-path:url(#SVGID_41_);fill:#FCE9D8;}
	.st20{fill:#FFFFFF;}
	.st21{fill:#1675D8;}
	.st22{font-family:'Roboto-Bold';}
	.st23{font-size:11px;}
	.st24{fill:none;}
	.st25{font-size:13px;}
	.st26{font-size:8px;}
	.st27{font-family:'Roboto-Regular';}
	.st28{opacity:0.54;fill:#E5E5E5;}
	.st29{fill:#1976D2;}
	.st30{fill:#1798CC;}
	.st31{fill:#1998CC;}
	.st32{fill:#FAFDFD;}
	.st33{fill:url(#SVGID_42_);}
	.st34{fill:#0F50AA;}
</style>
<linearGradient id="SVGID_1_" gradientUnits="userSpaceOnUse" x1="119.8792" y1="6.9616" x2="112.9329" y2="466.26">
	<stop  offset="3.603817e-03" style="stop-color:#0F4FA9"/>
	<stop  offset="0.9685" style="stop-color:#208FEB"/>
</linearGradient>
<path class="st0" d="M187.4,452H45.7c-21.4,0-38.8-17.4-38.8-38.8v-369c0-21.4,17.4-38.8,38.8-38.8h141.8
	c21.4,0,38.8,17.4,38.8,38.8v369C226.2,434.6,208.9,452,187.4,452z"/>
<g>
	<g>
		<g>
			<defs>
				<rect id="SVGID_2_" x="6.6" y="5.3" width="221.1" height="451.2"/>
			</defs>
			<clipPath id="SVGID_3_">
				<use xlink:href="#SVGID_2_"  style="overflow:visible;"/>
			</clipPath>
			<g class="st1">
				<defs>
					<path id="SVGID_4_" d="M216.2,427.2c0,10.2-8.3,18.4-18.4,18.4h-161c-10.2,0-18.4-8.3-18.4-18.4V35.7
						c0-10.2,8.3-18.4,18.4-18.4h24v5c0,5.7,4.7,10.4,10.4,10.4h92.2c5.7,0,10.4-4.7,10.4-10.4v-5h23.9c10.2,0,18.4,8.3,18.4,18.4
						v391.5H216.2z M102.5,20.9h26.8c1,0,1.9,0.8,1.9,1.9s-0.9,1.9-1.9,1.9h-26.8c-1,0-1.9-0.8-1.9-1.9S101.5,20.9,102.5,20.9z
						 M143.7,20c1.6,0,2.8,1.2,2.8,2.8s-1.2,2.8-2.8,2.8s-2.8-1.2-2.8-2.8S142.2,20,143.7,20z M196.4,5.8H37.9
						C20.8,5.8,6.8,19.7,6.8,36.9v388.5c0,17.2,13.9,31.1,31.1,31.1h158.5c17.2,0,31.1-13.9,31.1-31.1V36.9
						C227.6,19.7,213.6,5.8,196.4,5.8z"/>
				</defs>
				<clipPath id="SVGID_5_">
					<use xlink:href="#SVGID_4_"  style="overflow:visible;"/>
				</clipPath>
				<rect x="2.1" y="3.5" class="st2" width="230.1" height="455.7"/>
			</g>
		</g>
	</g>
</g>
<g>
	<g>
		<g>
			<defs>
				<rect id="SVGID_6_" x="18.3" y="17" width="198.7" height="428.8"/>
			</defs>
			<clipPath id="SVGID_7_">
				<use xlink:href="#SVGID_6_"  style="overflow:visible;"/>
			</clipPath>
			<g class="st3">
				<defs>
					<path id="SVGID_8_" d="M197.7,17.2h-23.9v5c0,5.7-4.7,10.4-10.4,10.4H71.3c-5.7,0-10.4-4.7-10.4-10.4v-5H36.8
						c-10.2,0-18.4,8.3-18.4,18.4v391.5c0,10.2,8.3,18.4,18.4,18.4h160.8c10.2,0,18.4-8.3,18.4-18.4V35.7
						C216.2,25.5,207.9,17.2,197.7,17.2z"/>
				</defs>
				<clipPath id="SVGID_9_">
					<use xlink:href="#SVGID_8_"  style="overflow:visible;"/>
				</clipPath>
				<g class="st4">
					<defs>
						<rect id="SVGID_10_" x="2.1" y="3.5" width="230.1" height="455.7"/>
					</defs>
					<clipPath id="SVGID_11_">
						<use xlink:href="#SVGID_10_"  style="overflow:visible;"/>
					</clipPath>
					<g class="st5">
						<defs>
							<rect id="SVGID_12_" x="18.4" y="15.6" width="197.8" height="440.4"/>
						</defs>
						<clipPath id="SVGID_13_">
							<use xlink:href="#SVGID_12_"  style="overflow:visible;"/>
						</clipPath>
					</g>
				</g>
			</g>
		</g>
	</g>
</g>
<g>
	<g>
		<g>
			<defs>
				<rect id="SVGID_14_" x="100.1" y="20.6" width="31.5" height="4.5"/>
			</defs>
			<clipPath id="SVGID_15_">
				<use xlink:href="#SVGID_14_"  style="overflow:visible;"/>
			</clipPath>
			<g class="st6">
				<defs>
					<path id="SVGID_16_" d="M129.3,20.9h-26.8c-1,0-1.9,0.8-1.9,1.9s0.9,1.9,1.9,1.9h26.8c1,0,1.9-0.8,1.9-1.9
						S130.3,20.9,129.3,20.9z"/>
				</defs>
				<clipPath id="SVGID_17_">
					<use xlink:href="#SVGID_16_"  style="overflow:visible;"/>
				</clipPath>
				<rect x="2.1" y="3.5" class="st7" width="230.1" height="455.7"/>
			</g>
		</g>
	</g>
</g>
<g>
	<g>
		<g>
			<defs>
				<rect id="SVGID_18_" x="140.6" y="19.7" width="6.3" height="6.3"/>
			</defs>
			<clipPath id="SVGID_19_">
				<use xlink:href="#SVGID_18_"  style="overflow:visible;"/>
			</clipPath>
			<g class="st8">
				<defs>
					<circle id="SVGID_20_" cx="143.7" cy="22.8" r="2.8"/>
				</defs>
				<clipPath id="SVGID_21_">
					<use xlink:href="#SVGID_20_"  style="overflow:visible;"/>
				</clipPath>
				<rect x="2.1" y="3.5" class="st9" width="230.1" height="455.7"/>
			</g>
		</g>
	</g>
</g>
<g>
	<g>
		<g>
			<defs>
				<rect id="SVGID_22_" x="2.1" y="63.8" width="2.7" height="18.9"/>
			</defs>
			<clipPath id="SVGID_23_">
				<use xlink:href="#SVGID_22_"  style="overflow:visible;"/>
			</clipPath>
			<g class="st10">
				<defs>
					<path id="SVGID_24_" d="M2.1,66.1V80c0,1.3,1.1,2.5,2.5,2.5V63.8C3.2,63.8,2.1,64.8,2.1,66.1z"/>
				</defs>
				<clipPath id="SVGID_25_">
					<use xlink:href="#SVGID_24_"  style="overflow:visible;"/>
				</clipPath>
				<rect x="2.1" y="3.5" class="st11" width="230.1" height="455.7"/>
			</g>
		</g>
	</g>
</g>
<g>
	<g>
		<g>
			<defs>
				<rect id="SVGID_26_" x="2.1" y="96.1" width="2.7" height="34.2"/>
			</defs>
			<clipPath id="SVGID_27_">
				<use xlink:href="#SVGID_26_"  style="overflow:visible;"/>
			</clipPath>
			<g class="st12">
				<defs>
					<path id="SVGID_28_" d="M2.1,98.8v29c0,1.3,1.1,2.5,2.5,2.5V96.4C3.2,96.4,2.1,97.4,2.1,98.8z"/>
				</defs>
				<clipPath id="SVGID_29_">
					<use xlink:href="#SVGID_28_"  style="overflow:visible;"/>
				</clipPath>
				<rect x="2.1" y="3.5" class="st13" width="230.1" height="455.7"/>
			</g>
		</g>
	</g>
</g>
<g>
	<g>
		<g>
			<defs>
				<rect id="SVGID_30_" x="2.1" y="137.5" width="2.7" height="34.2"/>
			</defs>
			<clipPath id="SVGID_31_">
				<use xlink:href="#SVGID_30_"  style="overflow:visible;"/>
			</clipPath>
			<g class="st14">
				<defs>
					<path id="SVGID_32_" d="M2.1,140.1v29c0,1.3,1.1,2.5,2.5,2.5v-33.9C3.2,137.6,2.1,138.7,2.1,140.1z"/>
				</defs>
				<clipPath id="SVGID_33_">
					<use xlink:href="#SVGID_32_"  style="overflow:visible;"/>
				</clipPath>
				<rect x="2.1" y="3.5" class="st15" width="230.1" height="455.7"/>
			</g>
		</g>
	</g>
</g>
<g>
	<g>
		<g>
			<defs>
				<rect id="SVGID_34_" x="229.5" y="106.9" width="2.7" height="55.7"/>
			</defs>
			<clipPath id="SVGID_35_">
				<use xlink:href="#SVGID_34_"  style="overflow:visible;"/>
			</clipPath>
			<g class="st16">
				<defs>
					<path id="SVGID_36_" d="M229.8,107.6v54.3c1.3,0,2.5-1.1,2.5-2.5v-49.4C232.2,108.7,231.1,107.6,229.8,107.6z"/>
				</defs>
				<clipPath id="SVGID_37_">
					<use xlink:href="#SVGID_36_"  style="overflow:visible;"/>
				</clipPath>
				<rect x="2.1" y="3.5" class="st17" width="230.1" height="455.7"/>
			</g>
		</g>
	</g>
</g>
<g>
	<g>
		<g>
			<defs>
				<rect id="SVGID_38_" x="3.9" y="3.5" width="226.5" height="455.7"/>
			</defs>
			<clipPath id="SVGID_39_">
				<use xlink:href="#SVGID_38_"  style="overflow:visible;"/>
			</clipPath>
			<g class="st18">
				<defs>
					<path id="SVGID_40_" d="M227.6,107.6v317.9c0,17.2-13.9,31.1-31.1,31.1H37.9c-17.2,0-31.1-13.9-31.1-31.1V37
						c0-17.3,13.9-31.2,31.1-31.2h158.5c17.2,0,31.1,13.9,31.1,31.1V107.6z M229.8,107.6V36.9c0-2.3-0.2-4.6-0.7-6.7
						c-0.2-1.1-0.4-2.1-0.8-3.2c-0.4-1.6-1.1-3.1-1.8-4.6c-0.4-1-1-1.9-1.6-2.8c-0.6-0.9-1.1-1.8-1.8-2.7c-1-1.3-2-2.5-3.1-3.7
						c-0.8-0.8-1.6-1.5-2.3-2.1c-5.8-4.8-13.2-7.6-21.2-7.6H37.9c-8,0-15.5,2.9-21.2,7.6c-0.8,0.7-1.6,1.5-2.3,2.1
						c-1.1,1.1-2.2,2.3-3.1,3.7c-0.7,0.9-1.2,1.8-1.8,2.7c-0.6,0.9-1.1,1.9-1.6,2.8c-0.8,1.6-1.3,3-1.9,4.6
						c-0.3,1.1-0.6,2.1-0.8,3.2c-0.4,2.1-0.7,4.5-0.7,6.7v388.5c0,18.4,14.9,33.4,33.4,33.4h158.5c18.4,0,33.4-14.9,33.4-33.4V107.6
						z"/>
				</defs>
				<clipPath id="SVGID_41_">
					<use xlink:href="#SVGID_40_"  style="overflow:visible;"/>
				</clipPath>
				<rect x="2.1" y="3.5" class="st19" width="230.1" height="455.7"/>
			</g>
		</g>
	</g>
</g>
<path class="st20" d="M148.5,339.8h-64c-7.2,0-13-5.8-13-13v0c0-7.2,5.8-13,13-13h64c7.2,0,13,5.8,13,13v0
	C161.5,333.9,155.7,339.8,148.5,339.8z"/>
<text transform="matrix(1 0 0 1 89.2765 331.2511)" class="st21 st22 st23">Get Started</text>
<rect x="62.3" y="184.4" class="st24" width="119.3" height="18.7"/>
<text transform="matrix(1 0 0 1 62.2802 194.1678)" class="st20 st22 st25">Welcome to Bahon</text>
<rect x="49.2" y="211" class="st24" width="145.6" height="13.3"/>
<text transform="matrix(1 0 0 1 49.1554 217.002)" class="st20 st22 st26">Effortless Navigation at Your Fingertips</text>
<rect x="44" y="227.3" class="st24" width="154.7" height="13.3"/>
<text transform="matrix(1 0 0 1 43.9887 233.3353)" class="st20 st27 st26">Join Us and Make Your Commute Smarter!</text>
<rect x="27.1" y="252.4" class="st24" width="182.3" height="38"/>
<text transform="matrix(1 0 0 1 27.63 258.4179)"><tspan x="0" y="0" class="st20 st27 st26">With Bahon, seamlessly connect to smart transport </tspan><tspan x="2.7" y="9.6" class="st20 st27 st26">systems. Receive instant alerts, track your vehicle </tspan><tspan x="0.1" y="19.2" class="st20 st27 st26">in real-time, and manage your travel preferences-all </tspan><tspan x="62.7" y="28.8" class="st20 st27 st26">while on the go.</tspan></text>
<path class="st28" d="M170.4,440.8H63.7c-1.1,0-2-0.9-2-2l0,0c0-1.1,0.9-2,2-2h106.7c1.1,0,2,0.9,2,2l0,0
	C172.4,439.9,171.5,440.8,170.4,440.8z"/>
<g>
	<path class="st29" d="M70.2,107.4c-2.5,0-4.9,0-7.4,0c-0.4,0-0.7-0.1-0.9-0.4c-0.2-0.2-0.3-0.5-0.3-0.8c0-2.2,0-4.4,0-6.6
		c0-0.5,0.2-0.9,0.6-1.1c-0.3,0.2-0.6,0.6-0.6,1.1c0,2.2,0,4.4,0,6.6c0,0.3,0.1,0.6,0.3,0.8c0.3,0.3,0.6,0.4,0.9,0.4
		C65.2,107.4,67.7,107.4,70.2,107.4c2.5,0,4.9,0,7.4,0c0.2,0,0.4-0.1,0.6-0.1c-0.2,0.1-0.4,0.1-0.5,0.1
		C75.1,107.4,72.6,107.4,70.2,107.4z"/>
	<path class="st29" d="M67.2,95.2c-0.6,0-0.6-0.1-0.6,0.3C66.6,95.1,66.7,95.2,67.2,95.2z"/>
	<path class="st29" d="M72.6,114.9L72.6,114.9L72.6,114.9L72.6,114.9z"/>
	<path class="st29" d="M84,102.2c-0.1,0.9-0.6,1.5-1.5,1.6c-0.2,0-0.3,0-0.4-0.2c0,0,0,0,0,0c0.1,0.2,0.2,0.2,0.4,0.2
		C83.4,103.7,83.9,103.1,84,102.2c0.1-0.5,0.1-1.1,0-1.7C84,101.1,84.1,101.7,84,102.2z"/>
	<path class="st29" d="M67.6,114.9C67.6,114.9,67.6,114.9,67.6,114.9C67.6,114.9,67.6,114.9,67.6,114.9z"/>
	<path class="st29" d="M64.9,113.9c0,0.1,0,0.2-0.1,0.2C64.8,114.1,64.9,114,64.9,113.9z"/>
	<path class="st29" d="M73,115.2c0-0.1,0-0.1,0-0.2C73,115.1,73,115.1,73,115.2L73,115.2z"/>
	<path class="st29" d="M79.6,117.1C79.6,117.1,79.6,117.1,79.6,117.1L79.6,117.1C79.5,117.1,79.5,117.1,79.6,117.1
		c-0.1,0.1-0.2,0.2-0.3,0.3c0,0,0,0,0,0c0,0,0,0,0,0l0,0c0,0,0,0-0.1,0c0,0,0,0,0,0c-0.1,0-0.2,0.1-0.3,0.1c-0.1,0-0.3,0-0.4,0.1
		c0,0-0.1,0-0.1,0c-0.2,0-0.5,0-0.7,0s-0.5,0-0.7,0c-0.4,0-0.9,0-1.3,0c-0.1,0-0.2,0-0.3,0c-0.1,0-0.2,0-0.3,0c-0.2,0-0.4,0-0.6,0
		c-0.2,0-0.3,0-0.5,0c-0.1,0-0.2,0-0.3,0c-3.1,0-6.2,0-9.3,0c-0.1,0-0.2,0-0.3,0c-0.1,0-0.2,0-0.4,0c0,0,0,0-0.1,0s0,0-0.1,0
		c-0.2,0-0.4,0-0.6,0c-0.5,0-0.9,0-1.4,0c0,0,0,0-0.1,0c0,0,0,0,0,0c0,0,0.1,0,0.1,0.1c0,0-0.1,0-0.1,0c0.2,0,0.5,0,0.7,0
		c0.2,0,0.4,0,0.6,0c0,0,0,0,0,0c0.2,0,0.4,0,0.6,0c0,0,0,0,0.1,0c0,0,0,0,0,0c0,0,0,0,0,0s0,0,0,0s0,0,0,0c0.1,0,0.2,0,0.3,0
		c0,0,0.1,0,0.1,0c0,0,0,0-0.1,0c0.1,0,0.2,0,0.3,0c3.1,0,6.2,0,9.3,0c0.1,0,0.1,0,0.2,0c0,0,0,0,0,0c0.2,0,0.3,0,0.5,0c0,0,0,0,0,0
		c0.2,0,0.4,0,0.6,0c0.1,0,0.2,0,0.3,0c-0.1,0-0.2,0-0.3,0c0.1,0,0.2,0,0.3,0c0.1,0,0.2,0,0.2,0c0,0,0,0,0,0c0.4,0,0.9,0,1.3,0
		c0.1,0,0.1,0.1,0.2,0.1c0,0,0,0,0,0c-0.1,0-0.1,0-0.2-0.1c0,0,0,0,0,0c0.2,0,0.4,0,0.7,0h0c0,0,0,0,0,0c0.2,0,0.4,0,0.7,0
		c0,0,0.1,0,0.1,0l0,0l0,0c0.1-0.1,0.3-0.1,0.4-0.1l0,0l0,0c0.1-0.1,0.2-0.1,0.3-0.1c0,0,0,0,0,0c0,0,0,0,0.1,0l0,0l0,0l0,0l0,0
		c0,0,0,0,0,0c0,0,0,0,0,0l0,0C79.4,117.4,79.5,117.3,79.6,117.1C79.6,117.2,79.6,117.1,79.6,117.1L79.6,117.1
		c0.2-0.3,0.3-0.6,0.3-1C79.9,116.5,79.8,116.8,79.6,117.1L79.6,117.1z M79.5,117.2C79.5,117.2,79.5,117.2,79.5,117.2
		C79.6,117.1,79.6,117.1,79.5,117.2L79.5,117.2C79.6,117.1,79.6,117.1,79.5,117.2C79.6,117.1,79.6,117.1,79.5,117.2
		C79.6,117.1,79.6,117.1,79.5,117.2C79.6,117.2,79.6,117.2,79.5,117.2z"/>
	<path class="st29" d="M72.7,114.9C72.7,114.9,72.7,114.9,72.7,114.9C72.7,114.9,72.7,114.9,72.7,114.9S72.7,114.9,72.7,114.9
		C72.7,114.9,72.7,114.9,72.7,114.9C72.7,114.8,72.7,114.8,72.7,114.9L72.7,114.9C72.7,114.8,72.7,114.8,72.7,114.9
		C72.7,114.8,72.7,114.8,72.7,114.9C72.7,114.8,72.7,114.9,72.7,114.9z"/>
	<path class="st29" d="M67.8,115.4c1,0,2,0,3,0c0.7,0,1.4,0,2.2-0.1l0,0l0,0l0,0c-0.7,0.1-1.4,0.1-2.2,0.1
		C69.8,115.4,68.8,115.4,67.8,115.4c-0.2,0-0.4,0-0.5-0.1c0,0,0,0,0,0c-0.1-0.2-0.1-0.3,0-0.3c-0.1,0,0,0.1,0,0.3c0,0,0,0,0,0l0,0
		c0,0,0,0,0,0c0,0,0,0,0,0l0,0v0l0,0C67.5,115.4,67.7,115.4,67.8,115.4z"/>
	<path class="st29" d="M77,121C77,121,77,121,77,121C77,121,77,121,77,121C77,121,77,121,77,121z"/>
	<path class="st29" d="M58,99.4L58,99.4C58,99.4,58,99.4,58,99.4L58,99.4C58,99.4,58,99.5,58,99.4c0,0.1,0,0.2,0,0.3
		C58,99.6,58,99.5,58,99.4L58,99.4C58,99.4,58,99.4,58,99.4C58,99.4,58,99.4,58,99.4C58,99.3,58,99.4,58,99.4
		C58,99.4,58,99.4,58,99.4z"/>
	<path class="st29" d="M73.6,111.1C73.5,111.1,73.5,111.1,73.6,111.1C73.5,111.1,73.5,111.1,73.6,111.1L73.6,111.1z"/>
	<path class="st29" d="M64.7,113.5c-0.1-0.1-0.2-0.2-0.3-0.3C64.5,113.3,64.6,113.4,64.7,113.5z"/>
	<path class="st29" d="M66.6,114.2c0-0.1-0.1-0.2-0.1-0.2C66.5,114,66.5,114.1,66.6,114.2z"/>
	<path class="st29" d="M73,115.3L73,115.3L73,115.3L73,115.3z"/>
	<path class="st29" d="M66.9,114.8c-0.1-0.1-0.1-0.2-0.2-0.3C66.8,114.6,66.8,114.7,66.9,114.8c0,0,0,0.1,0.1,0.1l0,0
		C66.9,114.8,66.9,114.8,66.9,114.8z"/>
	<path class="st29" d="M62.5,112.2c-0.3,0-0.6,0.3-0.5,0.6l0,0l0,0C61.9,112.5,62.1,112.2,62.5,112.2z"/>
	<path class="st29" d="M77.6,112.2c-0.3,0.1-0.5,0.2-0.7,0.4c-0.4,0.2-0.8,0.5-1.2,0.8c-0.1,0.1-0.2,0.2-0.3,0.4c0,0.1,0,0.1,0,0.2
		c0,0,0-0.1,0-0.1c0-0.2,0.1-0.3,0.3-0.4c0.4-0.3,0.7-0.6,1.2-0.8C77.1,112.5,77.3,112.3,77.6,112.2c0.4-0.1,0.7,0.2,0.7,0.6
		c0,0,0,0,0,0C78.3,112.4,78,112.1,77.6,112.2z"/>
	<path class="st29" d="M82.1,99.1c-0.3-0.2-0.6-0.3-0.9-0.4c-0.4-0.1-0.7-0.1-1.1-0.1c-0.1,0-0.2,0.1-0.2,0.2c0,0.2,0,0.4,0,0.6
		c0,3.2,0,6.4,0,9.6c0,0.1,0,0.1,0,0.2c0,0.1,0,0.2-0.2,0.2c-0.2,0-0.5,0-0.7,0c-4.8,0-9.7,0-14.6,0c-1.3,0-2.6,0-3.8,0
		c-0.2,0-0.2,0-0.3-0.1c0,0.1,0.1,0.1,0.3,0.1c1.3,0,2.6,0,3.8,0c4.8,0,9.7,0,14.6,0c0.2,0,0.5,0,0.7,0c0.1,0,0.2,0,0.2-0.2
		c0-0.1,0-0.1,0-0.2c0-3.2,0-6.4,0-9.6c0-0.2,0-0.4,0-0.6c0-0.1,0.1-0.2,0.2-0.2c0.4,0,0.7,0,1.1,0.1C81.5,98.8,81.8,98.9,82.1,99.1
		c0.1,0.1,0.1,0.1,0.2,0.1C82.2,99.2,82.1,99.1,82.1,99.1z"/>
	<path class="st29" d="M73,115.2L73,115.2L73,115.2c0,0,0,0.1,0,0.1c0,0,0,0,0,0l0,0v0c0,0,0,0,0,0c0,0,0,0,0,0c0,0,0,0,0,0.1
		c0,0-0.1,0-0.1,0.1c0,0,0,0-0.1,0c0,0,0,0,0,0c-0.1,0-0.2,0-0.3,0c-0.9,0-1.7,0-2.6,0c-0.7,0-1.4,0-2.2,0c0,0-0.1,0-0.1,0l0,0l0,0
		l0,0c0,0-0.1,0-0.1,0c0,0,0,0-0.1,0c0,0-0.1,0-0.1-0.1c0,0,0,0,0,0l0,0c0,0,0,0,0,0c0,0,0,0,0,0l0,0l0,0c0,0,0,0,0,0.1
		c0,0,0.1,0.1,0.1,0.1c0,0,0,0,0.1,0c0,0,0.1,0,0.1,0c0,0,0.1,0,0.1,0c0.7,0,1.4,0,2.2,0c0.9,0,1.7,0,2.6,0c0.1,0,0.2,0,0.3,0
		c0.1,0,0.1,0,0.2-0.1c0,0,0,0,0-0.1c0,0,0,0,0,0C73,115.3,73,115.3,73,115.2L73,115.2C73,115.2,73,115.2,73,115.2z"/>
	<path class="st29" d="M73,115.3L73,115.3L73,115.3L73,115.3z"/>
	<path class="st29" d="M73.4,113.5c0.2,0.1,0.3,0.2,0.3,0.4C73.8,113.7,73.6,113.6,73.4,113.5z"/>
	<path class="st29" d="M66.8,94.6c2.2,0,4.4,0,6.6,0c0.1,0,0.2,0,0.3,0c0.4,0.1,0.5,0.3,0.5,0.7c0,0.3,0,0.6,0,0.9
		c0,0.2,0,0.3-0.1,0.4c0.1-0.1,0.1-0.2,0.1-0.4c0-0.3,0-0.6,0-0.9c0-0.4-0.2-0.6-0.5-0.7c-0.1,0-0.2,0-0.3,0
		C71.2,94.6,69,94.6,66.8,94.6c-0.1,0-0.2,0-0.3,0c-0.1,0-0.2,0.1-0.3,0.2c0.1-0.1,0.2-0.1,0.3-0.1C66.6,94.6,66.7,94.6,66.8,94.6z"
		/>
	<path class="st29" d="M67.6,114.9C67.6,114.9,67.6,114.9,67.6,114.9C67.6,115,67.7,115,67.6,114.9c0.1,0.1,0.1,0.1,0.1,0.1
		c0,0.1,0.1,0.1,0.2,0.1c0.3-0.1,0.6,0,1,0c1.2,0,2.3,0,3.5,0c0.1,0,0.2,0,0.2-0.1c0,0,0,0,0.1-0.1l0,0c0,0,0,0,0,0c0,0,0,0,0,0
		c0,0,0,0,0,0s0,0,0,0l0,0l0,0l0,0l0,0l0,0h0c0,0,0,0,0,0l0,0l0,0l0,0c0,0,0,0,0,0c0,0,0,0,0,0l0,0c0,0,0,0,0,0c0,0,0,0,0,0h0
		c0,0,0,0,0,0c0,0,0,0,0,0c0,0,0,0,0,0c0,0,0,0,0,0h0c-0.1,0.1-0.1,0.1-0.2,0.1c-1.2-0.1-2.3,0-3.5,0c-0.3,0-0.6,0-1,0
		c-0.1,0-0.2,0-0.2-0.1C67.7,114.9,67.7,114.9,67.6,114.9C67.6,114.9,67.6,114.9,67.6,114.9L67.6,114.9
		C67.6,114.9,67.6,114.9,67.6,114.9L67.6,114.9L67.6,114.9c-0.1-0.2-0.2-0.3-0.3-0.5c0,0,0-0.1,0-0.1c0-0.1,0-0.1-0.1-0.2
		c0,0,0,0,0,0c0,0.1,0,0.1,0.1,0.2c0,0,0,0.1,0,0.1C67.4,114.6,67.5,114.7,67.6,114.9L67.6,114.9L67.6,114.9z M67.7,115
		C67.7,115,67.7,114.9,67.7,115C67.7,114.9,67.7,114.9,67.7,115z"/>
	<path class="st29" d="M63.4,114.2c-0.4-0.2-0.7-0.4-1.1-0.6C62.7,113.8,63,114,63.4,114.2z"/>
	<path class="st29" d="M70.1,95.2c-0.4,0-0.7,0-1.1,0C69.4,95.2,69.8,95.2,70.1,95.2L70.1,95.2z"/>
	<path class="st29" d="M73.6,95.4c0,0.2,0,0.4,0,0.5c0,0.1-0.1,0.2-0.2,0.2c0.1,0,0.2-0.1,0.2-0.2C73.6,95.8,73.6,95.6,73.6,95.4
		c0-0.1,0-0.2-0.1-0.2C73.6,95.2,73.6,95.3,73.6,95.4z"/>
	<path class="st29" d="M78.1,118.5c-0.4,0-0.7,0-1.1,0h0C77.3,118.5,77.7,118.5,78.1,118.5C78.1,118.5,78.1,118.5,78.1,118.5
		c0,0.5,0,1,0,1.4c0,0.3-0.1,0.5-0.2,0.7c0.1-0.2,0.2-0.5,0.2-0.7C78.1,119.4,78.1,119,78.1,118.5C78.1,118.5,78.1,118.5,78.1,118.5
		z"/>
	<path class="st29" d="M60,98.7c-0.4,0-0.8,0-1.2,0.2c0,0,0,0-0.1,0c0,0-0.1,0-0.1,0c0,0,0,0,0,0c0,0,0,0,0,0c0,0,0,0-0.1,0
		c0,0,0,0,0,0c0,0,0,0,0,0c0,0-0.1,0-0.1,0c0,0,0,0,0,0c0,0,0,0,0,0c0,0,0,0,0,0c0,0,0,0,0,0c0,0,0,0,0,0c0,0,0,0-0.1,0.1
		c0,0,0,0,0,0l0,0l0,0l0,0l0,0c0,0,0,0,0,0c0,0,0,0,0,0s0,0,0,0c0,0,0,0,0,0c0,0,0,0,0,0c0,0,0,0,0,0c0,0,0,0,0,0c0,0,0,0,0,0
		c0,0,0,0,0,0c0.1,0,0.2,0,0.3-0.2c0,0,0,0,0,0c0.1,0,0.2,0,0.2-0.1c0,0,0,0,0.1,0C59.2,98.7,59.6,98.7,60,98.7c0.2,0,0.3,0,0.4,0.1
		C60.3,98.7,60.3,98.7,60,98.7z M58.2,99.2C58.2,99.2,58.2,99.1,58.2,99.2C58.2,99.1,58.3,99.1,58.2,99.2c0.1-0.1,0.1-0.1,0.1-0.1
		c0,0,0,0,0,0c0,0,0.1,0,0.1,0c0,0-0.1,0-0.1,0c0,0,0.1,0,0.1,0c0,0,0,0,0,0C58.4,99.1,58.3,99.2,58.2,99.2z M58.5,99
		C58.5,99,58.5,98.9,58.5,99c0.1-0.1,0.1-0.1,0.1-0.1c0,0,0,0,0,0c0,0,0.1,0,0.1,0C58.7,99,58.6,99,58.5,99z"/>
	<path class="st29" d="M79.2,117.5C79.2,117.5,79.2,117.5,79.2,117.5L79.2,117.5C79.2,117.5,79.2,117.5,79.2,117.5z"/>
	<path class="st29" d="M62.8,112.3c0.6,0.3,1.1,0.6,1.6,1C63.9,112.8,63.4,112.5,62.8,112.3z"/>
	<path class="st29" d="M62.6,112.2c0.1,0,0.1,0,0.2,0.1C62.7,112.3,62.7,112.2,62.6,112.2z"/>
	<path class="st29" d="M72.9,114.5c0,0-0.1,0.1-0.1,0.1c0,0,0,0,0,0c0,0,0,0,0,0h0c0,0,0,0,0-0.1C72.8,114.6,72.9,114.6,72.9,114.5
		c0,0,0.1-0.1,0.1-0.1c0-0.1,0.1-0.1,0.1-0.2l0,0c0,0.1,0,0.2-0.1,0.2C73,114.4,72.9,114.4,72.9,114.5z M72.9,114.5
		c0,0,0.1-0.1,0.1-0.1C73,114.4,72.9,114.4,72.9,114.5z"/>
	<path class="st29" d="M57,99c-0.1,0.2-0.1,0.4-0.1,0.6c0,0.1,0,0.1,0,0.1c0,0,0-0.1,0-0.2C56.8,99.3,56.9,99.2,57,99z"/>
	<path class="st29" d="M58.2,99.9L58.2,99.9L58.2,99.9L58.2,99.9L58.2,99.9C58.2,99.9,58.2,99.9,58.2,99.9c0,0,0-0.1,0-0.1
		C58.2,99.8,58.2,99.9,58.2,99.9L58.2,99.9z"/>
	<path class="st29" d="M58.1,103.8C58.1,103.8,58.1,103.8,58.1,103.8C58.1,103.8,58.1,103.8,58.1,103.8L58.1,103.8
		c-0.6,0.1-1-0.1-1.4-0.5c-0.3-0.4-0.4-0.9-0.4-1.4c0-0.4,0-0.9,0-1.3c0-0.1,0-0.2,0-0.3c0-0.1,0-0.1,0.1-0.2c0,0.1-0.1,0.1-0.1,0.2
		c0,0.1,0,0.2,0,0.3c0,0.4,0,0.9,0,1.3c0,0.5,0.1,1,0.4,1.4C57,103.7,57.5,103.9,58.1,103.8L58.1,103.8
		C58.1,103.8,58.1,103.8,58.1,103.8C58.1,103.8,58.1,103.8,58.1,103.8C58.1,103.8,58.1,103.8,58.1,103.8L58.1,103.8z"/>
	<path class="st29" d="M78.2,111.1L78.2,111.1C78.2,111.1,78.2,111.1,78.2,111.1C78.2,111.1,78.2,111.1,78.2,111.1L78.2,111.1z"/>
	<path class="st29" d="M79.7,111.1C79.8,111.1,79.8,111.1,79.7,111.1C79.8,111.1,79.7,111.1,79.7,111.1L79.7,111.1L79.7,111.1z"/>
	<path class="st29" d="M57.5,105.6C57.5,105.6,57.5,105.6,57.5,105.6C57.5,105.6,57.5,105.6,57.5,105.6L57.5,105.6
		C57.5,105.6,57.5,105.6,57.5,105.6C57.5,105.6,57.5,105.6,57.5,105.6C57.5,105.6,57.5,105.6,57.5,105.6
		C57.5,105.6,57.5,105.6,57.5,105.6z"/>
	<path class="st29" d="M64.5,121c0.2,0,0.3,0,0.5-0.1C64.9,121,64.7,121,64.5,121L64.5,121z"/>
	<path class="st29" d="M72.6,114.9L72.6,114.9C72.6,114.9,72.6,114.9,72.6,114.9L72.6,114.9z"/>
	<path class="st29" d="M72.6,114.9L72.6,114.9C72.6,114.9,72.6,114.9,72.6,114.9C72.6,114.9,72.6,114.9,72.6,114.9z"/>
	<path class="st29" d="M79.2,117.5L79.2,117.5C79.2,117.5,79.2,117.5,79.2,117.5L79.2,117.5C79.2,117.5,79.2,117.5,79.2,117.5z"/>
	<path class="st29" d="M79.2,117.5C79.2,117.5,79.2,117.5,79.2,117.5C79.2,117.5,79.2,117.5,79.2,117.5
		C79.2,117.5,79.2,117.5,79.2,117.5z"/>
	<path class="st29" d="M65.6,118.5c-0.1-0.2-0.2-0.1-0.4-0.1C65.4,118.3,65.5,118.3,65.6,118.5z"/>
	<path class="st29" d="M58.1,103.7C58.1,103.7,58.1,103.8,58.1,103.7C58.1,103.8,58.1,103.8,58.1,103.7
		C58.1,103.8,58.1,103.8,58.1,103.7C58.1,103.8,58.2,103.8,58.1,103.7L58.1,103.7L58.1,103.7L58.1,103.7
		C58.2,103.7,58.2,103.7,58.1,103.7z"/>
	<path class="st29" d="M61.7,117.7C61.7,117.7,61.7,117.7,61.7,117.7c-0.1,0-0.1,0-0.1,0c0,0-0.1,0-0.1,0c0,0,0,0,0,0
		c0,0-0.1,0-0.1,0l0,0c-0.2-0.1-0.4-0.3-0.6-0.5c-0.3-0.3-0.4-0.6-0.4-1c0-1,0-2.1,0-3.1c0-0.6,0-1.2,0-1.8c0,0,0,0,0,0
		c0,0.6,0,1.2,0,1.9c0,1,0,2.1,0,3.1c0,0.4,0.1,0.7,0.4,1c0.2,0.2,0.4,0.3,0.6,0.5l0,0c0,0.1,0,0.1,0.1,0.1c0,0,0,0,0-0.1
		c0,0,0.1,0,0.1,0c0,0,0,0-0.1,0c0,0,0,0,0.1,0c0,0,0,0,0,0c0,0,0,0,0,0c0,0,0.1,0,0.1,0C61.6,117.8,61.7,117.8,61.7,117.7
		C61.7,117.8,61.7,117.8,61.7,117.7c0,0-0.1,0-0.1,0C61.7,117.8,61.7,117.8,61.7,117.7C61.7,117.8,61.7,117.8,61.7,117.7
		C61.7,117.8,61.7,117.8,61.7,117.7L61.7,117.7C61.8,117.8,61.8,117.8,61.7,117.7C61.7,117.8,61.7,117.8,61.7,117.7z"/>
	<path class="st29" d="M60.4,96.2c0-0.3,0-0.6,0.1-0.9C60.4,95.6,60.4,95.9,60.4,96.2c0,0.4,0,0.8,0,1.2c0,0,0,0.1,0,0.1
		c0,0,0-0.1,0-0.1C60.4,97,60.4,96.6,60.4,96.2z"/>
	<path class="st29" d="M62.5,118.4c-0.1,0-0.1,0-0.2,0C62.4,118.4,62.5,118.4,62.5,118.4z"/>
	<path class="st29" d="M72.8,114.7L72.8,114.7C72.8,114.7,72.8,114.7,72.8,114.7C72.8,114.7,72.8,114.7,72.8,114.7z"/>
	<path class="st29" d="M58.3,99.1L58.3,99.1C58.3,99.1,58.3,99.1,58.3,99.1C58.3,99.1,58.3,99.1,58.3,99.1z"/>
	<path class="st29" d="M73,114.3c0,0-0.1,0.1-0.1,0.1C72.9,114.4,73,114.4,73,114.3z"/>
	<path class="st29" d="M58.2,99.9L58.2,99.9L58.2,99.9L58.2,99.9z"/>
	<path class="st29" d="M67.7,115C67.7,114.9,67.7,114.9,67.7,115C67.7,114.9,67.7,115,67.7,115z"/>
	<path class="st29" d="M70.8,115.4c0.7,0,1.4,0,2.2-0.1l-5.1,0.1C68.8,115.4,69.8,115.4,70.8,115.4z"/>
	<path class="st29" d="M67,114.9L67,114.9C67,114.9,67,114.9,67,114.9C67,114.9,67,114.9,67,114.9z"/>
	<path class="st29" d="M67.3,115.4C67.3,115.4,67.3,115.4,67.3,115.4L67.3,115.4C67.3,115.4,67.3,115.4,67.3,115.4z"/>
	<path class="st29" d="M73,115.3C73,115.3,73,115.3,73,115.3C73,115.3,73,115.3,73,115.3z"/>
	<path class="st29" d="M74.3,95.3c0-0.4-0.2-0.6-0.5-0.7c-0.1,0-0.2,0-0.3,0c-2.2,0-4.4,0-6.6,0c-0.1,0-0.2,0-0.4,0
		c-0.1,0-0.2,0.1-0.3,0.1C66.1,94.9,66,95,66,95.2c0,0.3,0,0.6,0,1c0,0.3,0.2,0.5,0.5,0.6c0.1,0,0.2,0,0.3,0c1.1,0,2.2,0,3.3,0
		c1.1,0,2.2,0,3.4,0c0.1,0,0.2,0,0.3,0c0.2,0,0.3-0.1,0.4-0.2c0.1-0.1,0.1-0.2,0.1-0.4C74.3,95.9,74.3,95.6,74.3,95.3z M73.6,96
		c0,0.2-0.1,0.2-0.2,0.2c-0.1,0-0.2,0-0.2,0c-2.1,0-4.1,0-6.2,0l0,0c-0.1,0-0.1,0-0.2,0c-0.2,0-0.2-0.1-0.2-0.2c0-0.2,0-0.3,0-0.4
		c0-0.4,0.1-0.3,0.6-0.3c0.2,0,0.5,0,0.7,0c0.4,0,0.7,0,1.1,0c0.4,0,0.7,0,1.1,0c1,0,2.1,0,3.1,0c0.1,0,0.2,0,0.2,0c0,0,0,0,0,0
		c0.1,0,0.1,0.1,0.1,0.2C73.6,95.6,73.6,95.8,73.6,96z"/>
	<path class="st29" d="M75.2,117.8c0.1,0,0.2,0,0.3,0C75.4,117.8,75.3,117.8,75.2,117.8z"/>
	<path class="st29" d="M79.6,117.1L79.6,117.1C79.6,117.1,79.6,117.1,79.6,117.1z"/>
	<path class="st29" d="M58.2,99.9L58.2,99.9C58.2,99.9,58.2,99.9,58.2,99.9C58.2,99.9,58.2,99.9,58.2,99.9z"/>
	<path class="st29" d="M56.6,99.8c0.1,0,0.1,0,0.1-0.1C56.8,99.8,56.7,99.8,56.6,99.8c-0.1,0-0.2,0.1-0.3,0.2
		C56.4,99.9,56.5,99.9,56.6,99.8z"/>
	<path class="st29" d="M57.8,98.1c0.6-0.4,1.4-0.5,2.1-0.5c0.1,0,0.2,0,0.4,0c0.1,0,0.1,0,0.1-0.1c0,0-0.1,0.1-0.1,0.1
		c-0.1,0-0.2,0-0.4,0C59.1,97.6,58.4,97.7,57.8,98.1c-0.4,0.2-0.7,0.5-0.8,0.9C57.1,98.6,57.4,98.3,57.8,98.1z"/>
	<path class="st29" d="M58.3,100L58.3,100L58.3,100c0,0.8,0,1.6,0,2.4c0,0.4,0,0.9-0.1,1.3l0,0c0.1-0.4,0.1-0.9,0.1-1.3
		C58.3,101.6,58.3,100.8,58.3,100L58.3,100L58.3,100C58.3,100,58.3,100,58.3,100L58.3,100C58.3,100,58.3,100,58.3,100z"/>
	<path class="st29" d="M62.3,94.2c1.8,0,3.5,0,5.3,0c3.4,0,6.7,0,10.1,0c0.3,0,0.5,0,0.8,0.1c0.7,0.1,1.5,1,1.4,1.8
		c0,0.4,0,0.8,0,1.2c0,0.3,0,0.3,0.3,0.3c0.6,0,1.2,0.1,1.8,0.3c0.5,0.2,0.9,0.5,1.2,0.9c0.1,0.2,0.2,0.5,0.2,0.7
		c0,0.1,0.1,0.2,0.2,0.3c0.2,0.1,0.3,0.3,0.3,0.5c0,0.1,0,0.1,0,0.2c0-0.1,0-0.2,0-0.2c0-0.2-0.1-0.4-0.3-0.5
		c-0.1-0.1-0.2-0.1-0.2-0.3c0-0.3-0.1-0.5-0.2-0.7c-0.3-0.5-0.7-0.7-1.2-0.9c-0.6-0.2-1.2-0.3-1.8-0.3c-0.3,0-0.3,0-0.3-0.3
		c0-0.4,0-0.8,0-1.2c0-0.9-0.7-1.7-1.4-1.8c-0.2,0-0.5-0.1-0.8-0.1c-3.4,0-6.7,0-10.1,0C65.8,94.2,64.1,94.2,62.3,94.2
		c-0.7,0-1.5,0.4-1.8,1.2C60.8,94.6,61.6,94.2,62.3,94.2z"/>
	<path class="st29" d="M58,99.3L58,99.3L58,99.3L58,99.3z"/>
	<path class="st29" d="M58.1,103.8L58.1,103.8L58.1,103.8L58.1,103.8z"/>
	<path class="st29" d="M82,100.4c0-0.3,0-0.5,0.3-0.7c0.1,0,0.1-0.1,0.1-0.2c0-0.1-0.1-0.2-0.1-0.3c0.1,0.1,0.1,0.2,0.1,0.3
		c0,0.1,0,0.2-0.1,0.2C82,99.9,82,100.1,82,100.4c0,0.7,0,1.5,0,2.3c0,0.3,0,0.6,0.2,0.9c0,0,0,0,0,0c-0.1-0.3-0.2-0.6-0.2-0.9
		C82,102,82,101.2,82,100.4z"/>
	<path class="st29" d="M60.4,99.1c0-0.2,0-0.3,0-0.3C60.4,98.8,60.4,98.9,60.4,99.1c0,3.3,0,6.7,0,10c0,0.1,0,0.2,0,0.3
		c0,0,0-0.1,0-0.2C60.4,105.8,60.4,102.4,60.4,99.1z"/>
	<path class="st29" d="M58.3,99.1C58.2,99.1,58.2,99.1,58.3,99.1C58.2,99.1,58.3,99.1,58.3,99.1z"/>
	<path class="st29" d="M58.1,103.8L58.1,103.8C58.1,103.8,58.1,103.8,58.1,103.8z"/>
	<path class="st29" d="M58.1,99.3C58.1,99.3,58.1,99.3,58.1,99.3C58.1,99.3,58.1,99.3,58.1,99.3C58.1,99.3,58.1,99.3,58.1,99.3
		L58.1,99.3z"/>
	<path class="st29" d="M58,99.3C58,99.3,58,99.4,58,99.3C58,99.4,58,99.3,58,99.3z"/>
	<path class="st29" d="M78.7,103.6c0-1.3,0-2.7,0-4c0-0.2,0-0.4-0.1-0.6c-0.3-0.4-0.6-0.6-1.1-0.6c-1.6,0-3.2,0-4.9,0
		c-3.3,0-6.6,0-9.8,0c-0.2,0-0.5,0.1-0.7,0.2c0.2-0.1,0.4-0.2,0.6-0.2c3.3,0,6.6,0,9.8,0c1.6,0,3.2,0,4.9,0c0.5,0,0.8,0.2,1.1,0.6
		c0.1,0.2,0.1,0.4,0.1,0.6C78.7,101,78.7,102.3,78.7,103.6c0,0.9,0,1.7,0,2.6c0,0.5-0.3,0.9-0.6,1.1c0.4-0.2,0.7-0.6,0.7-1.1
		C78.7,105.3,78.7,104.5,78.7,103.6z"/>
	<path class="st29" d="M72.2,111.1c0.3,0.1,0.6,0,0.8,0c0.2,0,0.3,0,0.5,0c-0.2,0-0.3,0-0.5,0C72.7,111.1,72.5,111.2,72.2,111.1
		C72.2,111.1,72.2,111.1,72.2,111.1C72.2,111.1,72.2,111.1,72.2,111.1C72.2,111.1,72.2,111.1,72.2,111.1z"/>
	<path class="st29" d="M73.6,111.1C73.6,111.1,73.6,111.1,73.6,111.1C73.6,111.1,73.6,111.1,73.6,111.1
		C73.6,111.1,73.6,111.1,73.6,111.1C73.6,111.1,73.6,111.1,73.6,111.1L73.6,111.1z"/>
	<path class="st29" d="M79.9,111.1C79.9,111.1,79.9,111.1,79.9,111.1C79.9,111.1,79.9,111.1,79.9,111.1L79.9,111.1z"/>
	<path class="st29" d="M74.2,111.1c0.1,0.1,0.1,0,0.2,0c1.2,0,2.4,0,3.5,0c0.1,0,0.1,0,0.2,0c0,0-0.1,0-0.1,0c-1.2,0-2.4,0-3.5,0
		C74.4,111.1,74.3,111.2,74.2,111.1C74.2,111.1,74.2,111.1,74.2,111.1S74.2,111.1,74.2,111.1C74.2,111.1,74.2,111.1,74.2,111.1z"/>
	<path class="st29" d="M65.5,111.1C65.5,111.1,65.5,111.1,65.5,111.1c0.2,0.1,0.4,0.1,0.7,0c0,0,0,0,0,0l0,0c0,0,0,0,0,0
		c0,0,0,0,0,0C65.9,111.2,65.7,111.2,65.5,111.1C65.5,111.1,65.5,111.1,65.5,111.1C65.5,111.1,65.5,111.1,65.5,111.1
		C65.5,111.1,65.5,111.1,65.5,111.1z"/>
	<path class="st29" d="M78.2,111.1L78.2,111.1C78.2,111.1,78.2,111.1,78.2,111.1C78.2,111.1,78.2,111.1,78.2,111.1z"/>
	<path class="st29" d="M63.8,111.1c0.1,0,0.2,0,0.3,0c0,0,0,0,0,0l0,0c0,0,0.1,0,0.1,0c0,0-0.1,0-0.1,0
		C64,111.2,63.9,111.1,63.8,111.1c-1,0-2,0-3.1,0c-0.1,0-0.2,0-0.3,0c0,0,0,0,0,0c0.1,0,0.2,0,0.3,0
		C61.7,111.1,62.7,111.1,63.8,111.1z"/>
	<path class="st29" d="M79.9,111.1C79.9,111.1,79.9,111.1,79.9,111.1L79.9,111.1L79.9,111.1L79.9,111.1c0,1.5,0,3,0,4.5
		c0,0.1,0,0.1,0,0.2c0,0.1,0,0.2,0,0.2c0-0.1,0-0.2,0-0.3c0,0,0-0.1,0-0.2C79.9,114.1,79.9,112.7,79.9,111.1L79.9,111.1L79.9,111.1z
		"/>
	<path class="st29" d="M61.8,117.8C61.8,117.8,61.8,117.8,61.8,117.8L61.8,117.8C61.8,117.8,61.8,117.8,61.8,117.8z"/>
	<path class="st29" d="M78.5,111.1L78.5,111.1C78.5,111.1,78.5,111.1,78.5,111.1C78.5,111.1,78.5,111.1,78.5,111.1
		c0.4,0.1,0.8,0,1.2,0l0,0C79.3,111.1,78.9,111.2,78.5,111.1L78.5,111.1L78.5,111.1L78.5,111.1z"/>
	<path class="st29" d="M79.9,111.1L79.9,111.1c-0.1,0-0.1,0-0.2,0l0,0h0h0l0,0C79.8,111.1,79.8,111.1,79.9,111.1z"/>
	<path class="st29" d="M67.1,115.1c0-0.1-0.1-0.1-0.1-0.2c0,0,0,0,0,0c0.1,0.1,0.1,0.2,0.2,0.4C67.2,115.2,67.1,115.1,67.1,115.1
		C67.1,115.1,67.1,115.1,67.1,115.1z"/>
	<path class="st29" d="M65.6,119.5c0-0.3,0-0.7,0-1C65.6,118.8,65.6,119.2,65.6,119.5z"/>
	<path class="st29" d="M62.2,118.5c0,0.5,0,1,0,1.5c0,0,0,0.1,0,0.1c0,0,0-0.1,0-0.1C62.2,119.4,62.2,118.9,62.2,118.5z"/>
	<path class="st20" d="M65.1,118.5c-1,0-1.9,0-2.9,0c0,0.5,0,1,0,1.5c0,0,0,0.1,0,0.1c0,0.1,0,0.2,0,0.2c0,0.1,0.1,0.2,0.1,0.3
		c0.2,0.3,0.6,0.5,0.9,0.5c0.2,0,0.4,0,0.6,0c0.2,0,0.4,0,0.6,0c0.2,0,0.3,0,0.5-0.1c0,0,0.1,0,0.1-0.1c0.1-0.1,0.3-0.2,0.3-0.4
		c0-0.1,0.1-0.1,0.1-0.2c0-0.1,0-0.2,0-0.4c0-0.1,0-0.2,0-0.4c0-0.4,0-0.7,0-1C65.4,118.5,65.3,118.5,65.1,118.5z"/>
	<path class="st29" d="M62.2,120.3c0-0.1,0-0.2,0-0.2C62.2,120.1,62.2,120.2,62.2,120.3z"/>
	<path class="st29" d="M77,121c0.3,0,0.6-0.1,0.8-0.4C77.6,120.9,77.3,121,77,121z"/>
	<path class="st29" d="M77,121L77,121c-0.1,0-0.2,0-0.3,0C76.8,121,76.9,121,77,121z"/>
	<path class="st29" d="M74.6,119.9c0-0.4,0-0.8,0-1.2c0-0.2,0-0.2,0.2-0.2c0.7,0,1.4,0,2.1,0c-0.7,0-1.4,0-2.1,0
		c-0.2,0-0.2,0-0.2,0.2C74.6,119.1,74.6,119.5,74.6,119.9c0,0.7,0.4,1.1,1.1,1.1c0.1,0,0.2,0,0.3,0c-0.1,0-0.2,0-0.3,0
		C75,121,74.7,120.6,74.6,119.9z"/>
	<path class="st20" d="M78.1,119.9c0-0.4,0-0.9,0-1.3c0,0,0,0,0-0.1c-0.4,0-0.7,0-1.1,0c-0.7,0-1.4,0-2.1,0c-0.2,0-0.2,0-0.2,0.2
		c0,0.4,0,0.8,0,1.2c0,0.7,0.4,1.1,1.1,1.1c0.1,0,0.2,0,0.3,0c0.2,0,0.4,0,0.6,0c0.1,0,0.2,0,0.3,0c0,0,0,0,0,0
		c0.3,0,0.6-0.1,0.8-0.4c0,0,0,0,0-0.1c0,0,0,0,0,0C78,120.4,78.1,120.1,78.1,119.9z"/>
	<path class="st30" d="M57.5,105.7L57.5,105.7C57.5,105.7,57.5,105.7,57.5,105.7C57.5,105.6,57.5,105.6,57.5,105.7
		C57.5,105.6,57.5,105.6,57.5,105.7C57.5,105.7,57.5,105.7,57.5,105.7z"/>
	<path class="st30" d="M57.5,105.6C57.5,105.6,57.5,105.6,57.5,105.6C57.5,105.6,57.5,105.6,57.5,105.6
		C57.5,105.7,57.5,105.7,57.5,105.6C57.5,105.6,57.5,105.6,57.5,105.6C57.5,105.6,57.5,105.6,57.5,105.6z"/>
	<path class="st29" d="M58.2,99.8c0,0,0-0.1-0.1-0.1c0,0,0,0,0,0C58.1,99.7,58.1,99.7,58.2,99.8C58.1,99.8,58.2,99.8,58.2,99.8z"/>
	<path class="st29" d="M58.1,99.8C58.1,99.9,58.1,99.9,58.1,99.8L58.1,99.8L58.1,99.8c0.1,0.1,0.1,0.1,0.1,0.1
		C58.2,99.9,58.2,99.9,58.1,99.8c0-0.1,0-0.1,0-0.1c0,0,0,0,0-0.1c0-0.1-0.1-0.1-0.1-0.2C57.9,99.7,57.9,99.7,58.1,99.8z"/>
	<path class="st29" d="M58.2,99.9L58.2,99.9L58.2,99.9C58.2,99.9,58.2,99.9,58.2,99.9z"/>
	<path class="st29" d="M58.2,99.9L58.2,99.9C58.2,99.9,58.2,99.9,58.2,99.9L58.2,99.9C58.2,99.9,58.2,99.9,58.2,99.9
		C58.2,99.9,58.2,99.9,58.2,99.9z"/>
	<path class="st29" d="M58.2,99.9L58.2,99.9C58.1,99.9,58.1,99.9,58.2,99.9c-0.2-0.2-0.3-0.2-0.2-0.4c0,0,0,0,0,0
		C57.9,99.7,57.9,99.7,58.2,99.9C58.1,99.9,58.1,99.9,58.2,99.9C58.2,99.9,58.2,99.9,58.2,99.9L58.2,99.9L58.2,99.9
		C58.2,99.9,58.2,99.9,58.2,99.9z"/>
	<path class="st31" d="M58.3,99.1C58.3,99.1,58.3,99.1,58.3,99.1C58.3,99.1,58.3,99.1,58.3,99.1C58.3,99.1,58.2,99.1,58.3,99.1
		c-0.1,0.1-0.1,0.1-0.1,0.1c0.1,0,0.2,0,0.3-0.2c0,0,0,0,0,0C58.4,99,58.3,99,58.3,99.1z"/>
	<path class="st31" d="M58.3,99.1L58.3,99.1C58.3,99.1,58.3,99.1,58.3,99.1z"/>
	<path class="st31" d="M58.3,99.1L58.3,99.1C58.3,99.1,58.3,99.1,58.3,99.1z"/>
	<path class="st31" d="M58.6,98.9C58.6,98.9,58.6,98.9,58.6,98.9c-0.1,0-0.1,0.1-0.1,0.1c0.1,0,0.2,0,0.2-0.1
		C58.7,98.9,58.7,98.9,58.6,98.9C58.6,98.9,58.6,98.9,58.6,98.9z"/>
	<path class="st31" d="M58.6,98.9C58.6,98.9,58.6,98.9,58.6,98.9C58.6,98.9,58.6,98.9,58.6,98.9z"/>
	<path class="st31" d="M58.1,99.2C58.1,99.2,58.1,99.2,58.1,99.2L58.1,99.2L58.1,99.2C58.1,99.2,58.1,99.2,58.1,99.2L58.1,99.2
		L58.1,99.2z"/>
	<path class="st31" d="M58.1,99.3L58.1,99.3C58.1,99.3,58.1,99.3,58.1,99.3C58.1,99.3,58.1,99.3,58.1,99.3
		C58.1,99.3,58.1,99.3,58.1,99.3C58.1,99.3,58.1,99.3,58.1,99.3z"/>
	<path class="st31" d="M58.1,99.3C58,99.3,58,99.3,58.1,99.3C58.1,99.3,58.1,99.3,58.1,99.3z"/>
	<path class="st31" d="M58,99.3C58,99.3,58,99.4,58,99.3C58,99.4,58,99.4,58,99.3C58,99.4,58,99.4,58,99.3C58,99.4,58,99.4,58,99.3
		C58,99.3,58,99.3,58,99.3z"/>
	<path class="st31" d="M58.1,103.8C58,103.8,58,103.8,58.1,103.8C58,103.8,58,103.8,58.1,103.8C58.1,103.8,58.1,103.8,58.1,103.8
		C58.1,103.8,58.1,103.8,58.1,103.8z"/>
	<path class="st31" d="M58,103.8C58,103.8,58,103.8,58,103.8C58,103.8,58,103.8,58,103.8z"/>
	<path class="st31" d="M58.1,103.7C58.1,103.7,58.1,103.7,58.1,103.7C58.1,103.7,58.1,103.7,58.1,103.7z"/>
	<path class="st31" d="M58.2,103.7C58.1,103.7,58.1,103.7,58.2,103.7C58.1,103.7,58.1,103.7,58.2,103.7
		C58.1,103.7,58.1,103.7,58.2,103.7z"/>
	<path class="st31" d="M58.1,103.7C58.1,103.7,58.1,103.7,58.1,103.7C58.1,103.7,58.1,103.7,58.1,103.7z"/>
	<path class="st31" d="M58.3,100C58.3,100,58.3,100,58.3,100C58.2,100,58.2,100,58.3,100C58.2,100,58.2,100,58.3,100
		C58.2,100,58.2,100,58.3,100z"/>
	<path class="st31" d="M58.2,99.9L58.2,99.9C58.2,99.9,58.2,99.9,58.2,99.9C58.2,99.9,58.2,99.9,58.2,99.9L58.2,99.9z"/>
	<path class="st31" d="M58.3,100L58.3,100C58.3,100,58.3,100,58.3,100L58.3,100C58.3,100,58.3,100,58.3,100L58.3,100z"/>
	<path class="st31" d="M58.3,100L58.3,100C58.3,100,58.3,100,58.3,100C58.3,100,58.3,100,58.3,100z"/>
	<path class="st31" d="M58.2,99.9L58.2,99.9L58.2,99.9C58.2,99.9,58.2,99.9,58.2,99.9C58.2,99.9,58.2,99.9,58.2,99.9z"/>
	<path class="st31" d="M58.2,100L58.2,100C58.2,100,58.2,100,58.2,100L58.2,100C58.2,100,58.2,100,58.2,100z"/>
	<path class="st31" d="M58.2,99.9C58.2,99.9,58.2,100,58.2,99.9L58.2,99.9C58.2,100,58.2,100,58.2,99.9
		C58.2,100,58.2,99.9,58.2,99.9L58.2,99.9L58.2,99.9L58.2,99.9z"/>
	<path class="st31" d="M58.3,100C58.3,100,58.3,100,58.3,100L58.3,100L58.3,100z"/>
	<path class="st31" d="M58.3,100C58.2,100,58.2,100,58.3,100C58.2,100,58.2,100,58.3,100C58.3,100,58.3,100,58.3,100
		C58.3,100,58.3,100,58.3,100z"/>
	<path class="st31" d="M58.2,99.9C58.2,99.9,58.2,99.9,58.2,99.9C58.2,99.9,58.2,99.9,58.2,99.9L58.2,99.9z"/>
	<path class="st31" d="M58.2,100L58.2,100C58.2,100,58.2,100,58.2,100L58.2,100C58.2,100,58.2,100,58.2,100
		C58.2,100,58.2,100,58.2,100z"/>
	<path class="st31" d="M58.3,100C58.3,100,58.3,100,58.3,100L58.3,100C58.3,100,58.3,100,58.3,100z"/>
	<path class="st31" d="M58.3,100L58.3,100L58.3,100C58.3,100,58.3,100,58.3,100C58.3,100,58.3,100,58.3,100z"/>
	<path class="st31" d="M58.3,100C58.3,100,58.3,100,58.3,100C58.3,100,58.3,100,58.3,100C58.2,100,58.2,100,58.3,100L58.3,100z"/>
	<path class="st31" d="M58.3,100L58.3,100C58.2,100,58.2,100,58.3,100C58.2,100,58.2,100,58.3,100C58.2,100,58.2,100,58.3,100z"/>
	<path class="st31" d="M58.2,100C58.2,100,58.2,100,58.2,100C58.2,100,58.2,100,58.2,100z"/>
	<path class="st29" d="M67.3,115.4C67.3,115.4,67.3,115.4,67.3,115.4C67.3,115.4,67.3,115.4,67.3,115.4L67.3,115.4z"/>
	<path class="st29" d="M67.3,115.4c0,0-0.1-0.1-0.1-0.1C67.2,115.3,67.3,115.3,67.3,115.4C67.3,115.4,67.3,115.4,67.3,115.4
		L67.3,115.4z"/>
	<path class="st29" d="M73.4,113.5C73.4,113.5,73.4,113.5,73.4,113.5c-0.1,0-0.1,0-0.2,0c-0.4,0-0.9,0-1.3,0s-0.9,0-1.3,0
		s-0.9,0-1.3,0c-0.4,0-0.9,0-1.3,0c-0.4,0-0.7,0-1.1,0c-0.3,0-0.5,0.2-0.4,0.4c0,0.1,0,0.2,0.1,0.2c0.1,0.1,0.1,0.2,0.2,0.3
		c0.1,0.1,0.1,0.2,0.2,0.3c0,0,0,0.1,0.1,0.1c0,0,0-0.1-0.1-0.1c0.1,0.1,0.1,0.2,0.2,0.3c0,0,0,0,0,0c0.1,0.1,0.1,0.2,0.2,0.3l0,0
		c0,0,0,0,0,0c0,0,0,0,0,0v0l0,0l0,0c0,0,0,0,0,0c-0.1-0.2-0.1-0.3,0-0.3c0,0,0.1-0.1,0.2-0.1c-0.1-0.2-0.2-0.3-0.3-0.5
		c0,0,0-0.1,0-0.1c0-0.1-0.1-0.1-0.1-0.2c0,0,0,0,0,0c0,0,0,0,0,0l0,0v0v0c2,0,3.9,0,5.9,0c0,0,0,0,0,0l0,0c0,0.1,0,0.2-0.1,0.2
		c0,0-0.1,0.1-0.1,0.1c0,0-0.1,0.1-0.1,0.1c0,0,0,0,0,0.1c0.1,0,0.1,0.1,0.2,0.1c0,0,0,0,0,0c0,0,0,0,0,0.1c0,0,0,0,0,0.1
		c0,0,0,0.1,0,0.2c0,0,0,0,0,0c0,0,0,0,0,0l0,0c0,0,0,0,0,0l0,0l0,0c0.3-0.3,0.5-0.7,0.6-1c0-0.1,0.1-0.2,0.1-0.2
		C73.8,113.7,73.6,113.6,73.4,113.5z M73,114.9C73,114.9,73,114.9,73,114.9C73,114.9,73,114.9,73,114.9z"/>
	<path class="st29" d="M73.3,113.5C73.4,113.5,73.4,113.5,73.3,113.5C73.4,113.5,73.4,113.5,73.3,113.5z"/>
	<path class="st29" d="M72.9,114.8C72.9,114.8,73,114.8,72.9,114.8c0,0,0,0-0.1-0.1l0,0C72.8,114.7,72.9,114.7,72.9,114.8z"/>
	<path class="st29" d="M73,114.9C73,114.9,73,114.9,73,114.9C73,114.9,73,114.9,73,114.9z"/>
	<path class="st29" d="M67.3,115.4c-0.1-0.1-0.1-0.2-0.2-0.3c0,0.1,0.1,0.1,0.1,0.2C67.2,115.3,67.3,115.3,67.3,115.4z"/>
	<path class="st29" d="M67.1,115.1c-0.1-0.1-0.1-0.2-0.2-0.3c0,0,0,0.1,0.1,0.1c0,0,0,0,0,0C67,114.9,67,115,67.1,115.1z"/>
	<path class="st29" d="M67.1,115.1C67.1,115.1,67.1,115.1,67.1,115.1C67.1,115.1,67.1,115.1,67.1,115.1z"/>
	<path class="st29" d="M67.3,115.4C67.3,115.4,67.3,115.4,67.3,115.4C67.3,115.4,67.3,115.4,67.3,115.4L67.3,115.4z"/>
	<path class="st29" d="M70.7,113.5c-0.4,0-0.9,0-1.3,0C69.8,113.5,70.2,113.5,70.7,113.5z"/>
	<path class="st29" d="M72,113.5c-0.4,0-0.9,0-1.3,0C71.1,113.5,71.5,113.5,72,113.5z"/>
	<path class="st29" d="M66.9,113.5c0.4,0,0.7,0,1.1,0C67.7,113.5,67.3,113.5,66.9,113.5z"/>
	<path class="st29" d="M73.3,113.5C73.3,113.5,73.3,113.5,73.3,113.5c-0.5,0-0.9,0-1.4,0C72.4,113.5,72.8,113.5,73.3,113.5
		C73.3,113.5,73.3,113.5,73.3,113.5z"/>
	<path class="st29" d="M73,115.2C73,115.2,73,115.2,73,115.2L73,115.2c0.3-0.3,0.5-0.6,0.6-1c0-0.1,0.1-0.2,0.1-0.3
		c0,0.1,0,0.2-0.1,0.2C73.5,114.5,73.3,114.9,73,115.2z"/>
	<path class="st29" d="M67.2,115.2c0,0,0.1,0.1,0.1,0.1C67.3,115.3,67.2,115.3,67.2,115.2L67.2,115.2z"/>
	<path class="st29" d="M66.9,113.5c-0.3,0-0.5,0.2-0.4,0.4C66.5,113.7,66.7,113.5,66.9,113.5z"/>
	<path class="st29" d="M67.1,115.1L67.1,115.1c0,0.1,0.1,0.1,0.1,0.2l0,0C67.2,115.2,67.1,115.1,67.1,115.1z"/>
	<path class="st29" d="M67.1,115.1L67.1,115.1c0-0.1-0.1-0.1-0.1-0.2C67,114.9,67,115,67.1,115.1z"/>
	<path class="st29" d="M67.1,115.1L67.1,115.1C67.1,115.1,67.1,115.1,67.1,115.1L67.1,115.1C67.1,115.1,67.1,115.1,67.1,115.1z"/>
	<path class="st20" d="M78,113.4c-0.5,0.5-1.1,0.7-1.8,1c-0.1,0-0.2,0-0.3,0.1c-0.4,0-0.6-0.2-0.6-0.6c0,0.3,0.2,0.6,0.6,0.6
		c0.1,0,0.2,0,0.3-0.1C76.9,114.2,77.5,113.9,78,113.4c0.2-0.1,0.3-0.4,0.3-0.6v0C78.3,113.1,78.2,113.3,78,113.4z"/>
	<path class="st20" d="M79.9,115.9c0-0.1,0-0.1,0-0.2c0-1.5,0-3,0-4.5l0,0v0c-0.1,0-0.1,0-0.2,0c-0.4,0-0.8,0.1-1.2,0c0,0,0,0,0,0
		c0,0,0,0,0,0h0c0,0,0,0,0,0c0,0,0,0-0.1,0c0,0,0,0,0,0c0,0,0,0,0,0h0c0,0-0.1,0-0.1,0c0,0,0,0-0.1,0c-0.1,0-0.1,0-0.2,0
		c-1.2,0-2.4,0-3.5,0c-0.1,0-0.2,0-0.2,0c-0.2,0.1-0.4,0.1-0.6,0c0,0,0,0,0,0c0,0,0,0-0.1,0c-0.2,0.1-0.3,0-0.5,0
		c-0.3,0-0.6,0.1-0.8,0c-0.1,0.1-0.2,0-0.2,0c-1.8,0-3.7,0-5.5,0c-0.1,0-0.2,0-0.3,0c0,0,0,0,0,0c-0.2,0.1-0.4,0.1-0.7,0
		c0,0,0,0,0,0l0,0h0c0,0,0,0,0,0c0,0-0.1,0-0.1,0l0,0h0h0c0,0-0.1,0-0.1,0c-0.4,0-0.7,0.1-1.1,0c0,0,0,0,0,0c-0.1,0.1-0.2,0-0.3,0
		c-1,0-2.1,0-3.1,0c-0.1,0-0.2,0-0.3,0c0,0.6,0,1.2,0,1.8c0,1,0,2.1,0,3.1c0,0.4,0.1,0.7,0.4,1c0.2,0.2,0.4,0.3,0.6,0.5l0,0
		c0,0,0.1,0,0.1,0c0,0,0,0,0,0c0,0,0.1,0,0.1,0c0,0,0,0,0.1,0c0,0,0,0,0,0c0,0,0,0,0,0l0,0h0c0,0,0,0,0.1,0c0.5,0,0.9,0,1.4,0
		c0.2,0,0.4,0,0.6,0c0,0,0,0,0.1,0c0,0,0,0,0.1,0c0.1,0,0.2,0,0.4,0c0.1,0,0.2,0,0.3,0c3.1,0,6.2,0,9.3,0c0.1,0,0.2,0,0.3,0
		c0.2,0,0.3,0,0.5,0c0.2,0,0.4,0,0.6,0c0.1,0,0.2,0,0.3,0c0.1,0,0.2,0,0.3,0c0.4,0,0.9,0,1.3,0c0.2,0,0.5,0,0.7,0s0.5,0,0.7,0
		c0,0,0.1,0,0.1,0c0.1-0.1,0.2-0.1,0.4-0.1c0.1-0.1,0.2-0.1,0.3-0.1c0,0,0,0,0,0c0,0,0,0,0.1,0l0,0c0,0,0,0,0,0c0,0,0,0,0,0
		c0.1-0.1,0.2-0.2,0.2-0.3c0,0,0,0,0,0l0,0c0,0,0,0,0,0l0,0c0.2-0.3,0.3-0.6,0.3-1C79.9,116,79.9,115.9,79.9,115.9z M64.8,114.2
		c-0.1,0.2-0.3,0.3-0.5,0.3c-0.1,0-0.2,0-0.4-0.1c-0.2-0.1-0.4-0.2-0.5-0.2c-0.4-0.2-0.7-0.4-1.1-0.6c-0.2-0.2-0.4-0.4-0.4-0.7l0,0
		c0-0.4,0.2-0.6,0.5-0.6c0,0,0.1,0,0.1,0c0.1,0,0.1,0,0.2,0.1c0.6,0.2,1.1,0.6,1.6,1c0.1,0.1,0.2,0.2,0.3,0.3
		c0.1,0.1,0.1,0.2,0.1,0.4C64.9,114,64.8,114.1,64.8,114.2z M73.7,114.2c-0.2,0.4-0.4,0.7-0.6,1l0,0c0,0,0,0.1,0,0.1c0,0,0,0,0,0
		c0,0,0,0,0,0.1c-0.1,0.1-0.1,0.1-0.2,0.1c-0.1,0-0.2,0-0.3,0c-0.9,0-1.7,0-2.6,0c-0.7,0-1.4,0-2.2,0c0,0-0.1,0-0.1,0
		c0,0-0.1,0-0.1,0c0,0,0,0-0.1,0c0,0-0.1,0-0.1-0.1c0,0,0,0,0-0.1l0,0c0,0-0.1-0.1-0.1-0.1c-0.1-0.1-0.2-0.2-0.2-0.4
		c0,0,0-0.1-0.1-0.1c-0.1-0.1-0.1-0.2-0.2-0.3c-0.1-0.1-0.1-0.2-0.2-0.3c0-0.1-0.1-0.2-0.1-0.2c0-0.2,0.2-0.4,0.4-0.4
		c0.4,0,0.7,0,1.1,0c0.4,0,0.9,0,1.3,0c0.4,0,0.9,0,1.3,0c0.4,0,0.9,0,1.3,0c0.4,0,0.9,0,1.3,0c0,0,0,0,0.1,0c0,0,0.1,0,0.1,0
		c0.2,0.1,0.3,0.2,0.3,0.4C73.7,114,73.7,114.1,73.7,114.2z M78.3,112.9c0,0.2-0.1,0.4-0.3,0.6c-0.5,0.5-1.2,0.7-1.8,1
		c-0.1,0-0.2,0-0.3,0.1c-0.4,0-0.6-0.2-0.6-0.6c0-0.1,0-0.1,0-0.2c0-0.2,0.1-0.3,0.3-0.4c0.4-0.3,0.7-0.6,1.2-0.8
		c0.2-0.1,0.5-0.3,0.7-0.4C78,112.1,78.3,112.4,78.3,112.9C78.3,112.9,78.3,112.9,78.3,112.9C78.3,112.9,78.3,112.9,78.3,112.9z"/>
	<path class="st29" d="M77.6,112.2c-0.3,0.1-0.5,0.2-0.7,0.4c-0.4,0.2-0.8,0.5-1.2,0.8c-0.1,0.1-0.2,0.2-0.3,0.4c0,0.1,0,0.1,0,0.1
		c0,0.3,0.2,0.6,0.6,0.6c0.1,0,0.2,0,0.3-0.1c0.6-0.3,1.2-0.5,1.8-1c0.2-0.2,0.3-0.4,0.3-0.6C78.3,112.4,78,112.1,77.6,112.2z"/>
	<path class="st29" d="M64.4,113.2c-0.5-0.4-1-0.7-1.6-1c-0.1,0-0.1,0-0.2-0.1c0,0-0.1,0-0.1,0c-0.3,0-0.5,0.3-0.5,0.6l0,0
		c0,0.3,0.2,0.5,0.4,0.7c0.3,0.3,0.7,0.5,1.1,0.6c0.2,0.1,0.4,0.2,0.5,0.2c0.1,0,0.2,0,0.4,0.1c0.2,0,0.4-0.1,0.5-0.3
		c0-0.1,0.1-0.2,0.1-0.2c0-0.1,0-0.3-0.1-0.4C64.6,113.4,64.5,113.3,64.4,113.2z"/>
	<path class="st20" d="M62.5,112.2c0,0,0.1,0,0.1,0C62.6,112.2,62.5,112.2,62.5,112.2z"/>
	<path class="st20" d="M64.9,113.9c0-0.1,0-0.3-0.1-0.4C64.8,113.7,64.9,113.8,64.9,113.9z"/>
	<path class="st20" d="M62,112.9c0,0.3,0.2,0.5,0.4,0.7C62.1,113.4,62,113.1,62,112.9z"/>
	<path class="st20" d="M64.3,114.5c0.2,0,0.4-0.1,0.5-0.3C64.7,114.4,64.5,114.5,64.3,114.5z"/>
	<path class="st20" d="M64,114.4c-0.2-0.1-0.4-0.2-0.5-0.2C63.6,114.3,63.8,114.3,64,114.4z"/>
	<path class="st29" d="M67.3,115.3C67.3,115.3,67.3,115.4,67.3,115.3C67.3,115.4,67.3,115.4,67.3,115.3c0,0.1,0.1,0.1,0.1,0.1
		c0,0,0,0,0.1,0c0,0,0.1,0,0.1,0c0,0-0.1,0-0.1,0c0,0,0.1,0,0.1,0l0,0c0,0,0.1,0,0.1,0c0.7,0,1.4,0,2.2,0c0.9,0,1.7,0,2.6,0
		c0.1,0,0.2,0,0.3,0c0,0,0,0,0,0c0,0,0,0,0,0c0.1,0,0.1,0,0.2-0.1c0,0,0,0,0-0.1l0,0c-0.7,0.1-1.4,0.1-2.2,0.1c-1,0-2,0-3,0
		C67.7,115.4,67.5,115.4,67.3,115.3L67.3,115.3C67.3,115.3,67.3,115.3,67.3,115.3L67.3,115.3z M67.4,115.5
		C67.4,115.5,67.5,115.5,67.4,115.5C67.5,115.5,67.4,115.5,67.4,115.5C67.4,115.5,67.4,115.4,67.4,115.5
		C67.4,115.4,67.4,115.5,67.4,115.5z"/>
	<path class="st29" d="M72.9,115.4C72.9,115.4,72.9,115.4,72.9,115.4C72.9,115.4,72.9,115.4,72.9,115.4
		C72.9,115.4,73,115.3,72.9,115.4L72.9,115.4C73,115.3,72.9,115.4,72.9,115.4z"/>
	<path class="st29" d="M67.4,115.5C67.4,115.5,67.5,115.5,67.4,115.5C67.5,115.5,67.4,115.5,67.4,115.5z"/>
	<path class="st29" d="M72.9,115.4c-0.1,0.1-0.1,0.1-0.2,0.1c0,0,0,0,0,0C72.8,115.5,72.8,115.5,72.9,115.4
		C72.9,115.4,72.9,115.4,72.9,115.4z"/>
	<path class="st29" d="M67.3,115.3L67.3,115.3C67.3,115.3,67.3,115.3,67.3,115.3C67.3,115.3,67.3,115.3,67.3,115.3
		C67.3,115.3,67.3,115.3,67.3,115.3L67.3,115.3C67.3,115.3,67.3,115.3,67.3,115.3C67.3,115.3,67.3,115.3,67.3,115.3
		C67.3,115.4,67.3,115.4,67.3,115.3C67.3,115.4,67.3,115.3,67.3,115.3z"/>
	<path class="st29" d="M67.4,115.5C67.4,115.5,67.4,115.4,67.4,115.5C67.4,115.4,67.4,115.5,67.4,115.5z"/>
	<path class="st29" d="M73.8,117.9c-3.1,0-6.1,0-9.2,0c-0.1,0-0.2,0-0.2,0c0.1,0,0.2,0,0.3,0C67.7,117.9,70.7,117.9,73.8,117.9
		c0.1,0,0.3,0,0.4-0.1c0,0,0,0,0,0C74,117.9,73.9,117.9,73.8,117.9z"/>
	<path class="st29" d="M64.6,117.8c-0.1,0-0.2,0-0.3,0c0,0,0,0,0.1,0C64.4,117.9,64.5,117.9,64.6,117.8c3.1,0.1,6.2,0.1,9.2,0.1
		c0.1,0,0.2,0,0.3-0.1c-0.1,0-0.1,0-0.2,0C70.8,117.8,67.7,117.8,64.6,117.8z"/>
	<path class="st29" d="M72.1,111.1L72.1,111.1L72.1,111.1c-2,0-4,0-5.9,0l0,0C68.2,111.1,70.2,111.1,72.1,111.1z"/>
	<path class="st29" d="M66.4,111.1c1.8,0,3.7,0,5.5,0c0.1,0,0.2,0,0.2,0h0c-2,0-4,0-5.9,0C66.3,111.2,66.4,111.1,66.4,111.1z"/>
	<path class="st29" d="M66.2,111.1C66.2,111.1,66.2,111.1,66.2,111.1L66.2,111.1C66.2,111.1,66.2,111.1,66.2,111.1L66.2,111.1z"/>
	<path class="st29" d="M72.2,111.1C72.2,111.1,72.2,111.1,72.2,111.1C72.2,111.1,72.2,111.1,72.2,111.1
		C72.2,111.1,72.2,111.1,72.2,111.1C72.2,111.1,72.2,111.1,72.2,111.1z"/>
	<path class="st29" d="M71.9,111.1c-1.8,0-3.7,0-5.5,0c-0.1,0-0.2,0-0.2,0c0,0,0,0,0,0c0.1,0.1,0.2,0,0.3,0
		C68.3,111.1,70.1,111.1,71.9,111.1c0.1,0,0.2,0,0.2,0h0C72.1,111.2,72,111.1,71.9,111.1z"/>
	<path class="st29" d="M78.2,117.9C78.2,117.9,78.2,117.9,78.2,117.9c0.1,0,0.2,0,0.2-0.1c0,0,0,0,0,0l0,0
		C78.4,117.8,78.3,117.9,78.2,117.9z"/>
	<path class="st29" d="M77.7,117.8c-0.1,0-0.2,0-0.3,0c-0.1,0-0.2,0-0.3,0c0,0,0,0,0,0c0,0,0,0,0,0c0.1,0,0.1,0.1,0.2,0.1
		c0.3,0,0.6,0,0.9,0c0.1,0,0.2,0,0.2-0.1l0,0C78.2,117.8,78,117.8,77.7,117.8C77.8,117.8,77.8,117.8,77.7,117.8z"/>
	<path class="st29" d="M77.7,117.8L77.7,117.8c-0.2,0-0.4,0-0.6,0c0.1,0,0.2,0,0.3,0C77.5,117.8,77.6,117.8,77.7,117.8z"/>
	<path class="st29" d="M77.4,117.8c-0.1,0-0.2,0-0.3,0c0,0,0,0,0,0C77.2,117.8,77.3,117.8,77.4,117.8z"/>
	<path class="st29" d="M77.7,117.8c-0.1,0-0.2,0-0.3,0C77.5,117.8,77.6,117.8,77.7,117.8z"/>
	<path class="st31" d="M63.2,117.8C63.2,117.8,63.2,117.8,63.2,117.8c-0.1,0-0.2,0.1-0.2,0.1c-0.3,0-0.6,0-0.9,0c0,0-0.1,0-0.1,0
		c0,0,0.1,0,0.2,0c0.3,0,0.6,0,0.9,0C63.1,117.9,63.1,117.9,63.2,117.8C63.2,117.8,63.2,117.8,63.2,117.8L63.2,117.8
		C63.2,117.8,63.2,117.8,63.2,117.8z"/>
	<path class="st31" d="M63,117.9c0.1,0,0.1,0,0.2-0.1c-0.4,0-0.9,0-1.3,0c0,0,0.1,0,0.1,0c0,0,0.1,0,0.1,0
		C62.4,117.9,62.7,117.9,63,117.9z"/>
	<path class="st31" d="M63.2,117.8L63.2,117.8c-0.2,0-0.4,0-0.6,0C62.7,117.8,63,117.8,63.2,117.8z"/>
	<path class="st31" d="M61.8,117.8c0.2,0,0.5,0,0.7,0C62.3,117.8,62.1,117.8,61.8,117.8z"/>
	<path class="st31" d="M63.2,117.8C63.2,117.8,63.2,117.8,63.2,117.8L63.2,117.8C63.2,117.8,63.2,117.8,63.2,117.8z"/>
	<path class="st31" d="M63.2,117.8L63.2,117.8c-0.2,0-0.4,0-0.6,0c-0.2,0-0.5,0-0.7,0C62.3,117.8,62.7,117.8,63.2,117.8z"/>
	<path class="st29" d="M65.4,111.1L65.4,111.1c-0.4,0-0.8,0-1.2,0l0,0C64.6,111.1,65,111.1,65.4,111.1z"/>
	<path class="st29" d="M65.2,111.1c0,0,0.1,0,0.1,0c0,0,0.1,0,0.1,0c0,0,0,0,0,0c-0.4,0-0.8,0-1.2,0
		C64.5,111.2,64.9,111.1,65.2,111.1z"/>
	<path class="st29" d="M64.1,111.1C64.2,111.1,64.2,111.1,64.1,111.1L64.1,111.1C64.2,111.1,64.2,111.1,64.1,111.1L64.1,111.1z"/>
	<path class="st29" d="M65.4,111.1C65.5,111.1,65.5,111.1,65.4,111.1C65.5,111.1,65.5,111.1,65.4,111.1
		C65.5,111.1,65.5,111.1,65.4,111.1L65.4,111.1L65.4,111.1z"/>
	<path class="st29" d="M65.5,111.1L65.5,111.1C65.5,111.1,65.5,111.1,65.5,111.1L65.5,111.1C65.5,111.1,65.5,111.1,65.5,111.1z"/>
	<path class="st29" d="M65.5,111.1L65.5,111.1L65.5,111.1L65.5,111.1z"/>
	<path class="st29" d="M65.5,111.1C65.5,111.1,65.5,111.1,65.5,111.1L65.5,111.1C65.4,111.1,65.4,111.1,65.5,111.1
		c-0.1,0-0.1,0-0.2,0c0,0-0.1,0-0.1,0c-0.3,0-0.7,0-1,0c0,0-0.1,0-0.1,0c0.3,0.1,0.7,0,1.1,0c0,0,0.1,0,0.1,0
		C65.3,111.2,65.4,111.2,65.5,111.1c-0.1,0-0.1,0-0.2,0l0,0C65.3,111.2,65.4,111.2,65.5,111.1C65.4,111.1,65.4,111.1,65.5,111.1
		L65.5,111.1C65.4,111.1,65.4,111.1,65.5,111.1C65.4,111.1,65.5,111.1,65.5,111.1z"/>
	<path class="st29" d="M65.3,111.2C65.3,111.2,65.3,111.2,65.3,111.2C65.3,111.2,65.3,111.2,65.3,111.2
		C65.3,111.2,65.3,111.2,65.3,111.2z"/>
	<path class="st29" d="M65.3,111.2L65.3,111.2c0,0,0.1,0,0.1,0C65.4,111.2,65.3,111.2,65.3,111.2z"/>
	<path class="st29" d="M65.5,111.1C65.5,111.1,65.5,111.1,65.5,111.1C65.5,111.1,65.5,111.1,65.5,111.1L65.5,111.1z"/>
	<path class="st29" d="M65.5,111.1C65.5,111.1,65.4,111.1,65.5,111.1C65.4,111.1,65.4,111.1,65.5,111.1
		C65.5,111.1,65.5,111.1,65.5,111.1L65.5,111.1L65.5,111.1z"/>
	<path class="st29" d="M74.6,117.8C74.6,117.8,74.6,117.8,74.6,117.8c0.4,0.1,0.8,0.1,1.2,0c0,0,0,0,0,0
		C75.4,117.9,75,117.9,74.6,117.8z"/>
	<path class="st29" d="M75.2,117.8c-0.2,0-0.4,0-0.6,0c0.4,0.1,0.7,0.1,1.1,0c-0.1,0-0.2,0-0.2,0C75.4,117.8,75.3,117.8,75.2,117.8z
		"/>
	<path class="st29" d="M74.6,117.8L74.6,117.8C74.6,117.8,74.6,117.8,74.6,117.8C74.6,117.8,74.6,117.8,74.6,117.8z"/>
	<path class="st29" d="M75.2,117.8c-0.2,0-0.4,0-0.6,0l0,0C74.8,117.8,75,117.8,75.2,117.8z"/>
	<path class="st31" d="M74.2,111.1L74.2,111.1c-0.2,0-0.4,0-0.6,0l0,0C73.8,111.1,74,111.1,74.2,111.1z"/>
	<path class="st31" d="M74.2,111.1c-0.2,0-0.4,0-0.6,0C73.8,111.2,74,111.2,74.2,111.1z"/>
	<path class="st31" d="M73.6,111.1C73.6,111.1,73.6,111.1,73.6,111.1L73.6,111.1C73.6,111.1,73.6,111.1,73.6,111.1L73.6,111.1z"/>
	<path class="st31" d="M74.2,111.1L74.2,111.1C74.2,111.1,74.2,111.1,74.2,111.1C74.2,111.1,74.2,111.1,74.2,111.1
		C74.2,111.1,74.2,111.1,74.2,111.1C74.2,111.1,74.2,111.1,74.2,111.1z"/>
	<path class="st31" d="M74.2,111.1c-0.2,0.1-0.4,0.1-0.6,0c0,0,0,0,0,0C73.8,111.2,74,111.2,74.2,111.1
		C74.2,111.1,74.2,111.1,74.2,111.1C74.2,111.1,74.2,111.1,74.2,111.1z"/>
	<path class="st29" d="M78.5,117.8c0.1,0,0.3,0.1,0.4-0.1C78.8,117.8,78.6,117.8,78.5,117.8z"/>
	<path class="st29" d="M78.5,117.8L78.5,117.8c0.1,0,0.3,0,0.4-0.1l0,0C78.8,117.7,78.6,117.7,78.5,117.8z"/>
	<path class="st31" d="M61.4,117.8c0,0,0.1,0,0.1,0C61.5,117.7,61.5,117.7,61.4,117.8C61.5,117.7,61.4,117.8,61.4,117.8z"/>
	<path class="st31" d="M61.5,117.7C61.5,117.7,61.4,117.7,61.5,117.7c-0.1,0-0.1,0-0.1,0C61.4,117.7,61.4,117.8,61.5,117.7
		C61.4,117.8,61.5,117.7,61.5,117.7C61.5,117.7,61.5,117.7,61.5,117.7C61.5,117.7,61.5,117.7,61.5,117.7
		C61.5,117.7,61.5,117.7,61.5,117.7z"/>
	<path class="st31" d="M61.5,117.7c0,0-0.1,0-0.1,0C61.4,117.7,61.4,117.7,61.5,117.7C61.4,117.7,61.5,117.7,61.5,117.7z"/>
	<path class="st31" d="M78.2,111.1C78.2,111.1,78.2,111.1,78.2,111.1C78.2,111.1,78.2,111.1,78.2,111.1
		C78.2,111.1,78.2,111.1,78.2,111.1L78.2,111.1z"/>
	<path class="st31" d="M78.5,111.1L78.5,111.1C78.5,111.1,78.5,111.1,78.5,111.1c-0.1,0-0.2,0-0.3,0l0,0
		C78.3,111.1,78.4,111.1,78.5,111.1z"/>
	<path class="st31" d="M78.2,111.1C78.2,111.1,78.2,111.1,78.2,111.1C78.2,111.1,78.2,111.1,78.2,111.1L78.2,111.1z"/>
	<path class="st31" d="M78.4,111.1C78.4,111.1,78.4,111.1,78.4,111.1c0.1,0,0.1,0,0.1,0c0,0,0,0,0,0l0,0c-0.1,0-0.2,0-0.3,0
		C78.3,111.1,78.3,111.1,78.4,111.1C78.3,111.1,78.4,111.1,78.4,111.1z"/>
	<path class="st31" d="M78.2,111.1L78.2,111.1C78.2,111.1,78.2,111.1,78.2,111.1L78.2,111.1C78.2,111.1,78.2,111.1,78.2,111.1z"/>
	<path class="st31" d="M78.5,111.1L78.5,111.1L78.5,111.1C78.5,111.1,78.5,111.1,78.5,111.1L78.5,111.1z"/>
	<path class="st31" d="M78.5,111.1C78.5,111.1,78.4,111.1,78.5,111.1c-0.1,0-0.1,0-0.1,0c0,0,0,0,0,0c0,0-0.1,0-0.1,0c0,0,0,0,0,0
		l0,0c0,0,0.1,0,0.1,0h0c0,0,0,0,0,0C78.4,111.2,78.4,111.2,78.5,111.1C78.4,111.1,78.5,111.1,78.5,111.1
		C78.5,111.1,78.5,111.1,78.5,111.1L78.5,111.1C78.5,111.1,78.5,111.1,78.5,111.1z"/>
	<path class="st31" d="M78.5,111.1C78.5,111.1,78.4,111.1,78.5,111.1C78.4,111.2,78.4,111.1,78.5,111.1z"/>
	<path class="st31" d="M78.5,111.1C78.4,111.1,78.4,111.1,78.5,111.1C78.4,111.1,78.5,111.1,78.5,111.1z"/>
	<path class="st31" d="M78.5,111.1L78.5,111.1L78.5,111.1L78.5,111.1z"/>
	<path class="st31" d="M78.5,111.1C78.5,111.1,78.5,111.1,78.5,111.1L78.5,111.1C78.5,111.1,78.5,111.1,78.5,111.1z"/>
	<path class="st31" d="M79.9,111.1C79.9,111.1,79.9,111.1,79.9,111.1C79.9,111.1,79.8,111.1,79.9,111.1
		C79.8,111.1,79.8,111.1,79.9,111.1z"/>
	<path class="st31" d="M79.9,111.1C79.8,111.1,79.8,111.1,79.9,111.1c-0.1,0-0.1,0-0.1,0C79.8,111.1,79.8,111.1,79.9,111.1z"/>
	<path class="st31" d="M79.9,111.1C79.9,111.1,79.9,111.1,79.9,111.1L79.9,111.1C79.9,111.1,79.9,111.1,79.9,111.1
		C79.9,111.1,79.9,111.1,79.9,111.1z"/>
	<path class="st31" d="M79.7,111.1L79.7,111.1c0,0,0.1,0,0.1,0l0,0C79.8,111.1,79.8,111.1,79.7,111.1z"/>
	<path class="st31" d="M73,115.3L73,115.3L73,115.3C73,115.3,73,115.3,73,115.3c0.1,0,0.1-0.1,0.1-0.1C73,115.2,73,115.3,73,115.3
		L73,115.3z"/>
	<path class="st31" d="M73,115.2L73,115.2L73,115.2L73,115.2z"/>
	<path class="st31" d="M73,115.2L73,115.2C73,115.2,73,115.2,73,115.2z"/>
	<path class="st31" d="M61.8,117.8C61.8,117.8,61.8,117.8,61.8,117.8C61.8,117.8,61.8,117.8,61.8,117.8
		C61.8,117.8,61.8,117.8,61.8,117.8C61.7,117.8,61.7,117.8,61.8,117.8C61.7,117.8,61.8,117.8,61.8,117.8z"/>
	<path class="st31" d="M61.7,117.8C61.7,117.8,61.7,117.8,61.7,117.8C61.7,117.8,61.7,117.8,61.7,117.8
		C61.7,117.8,61.8,117.8,61.7,117.8C61.7,117.8,61.7,117.8,61.7,117.8C61.7,117.8,61.7,117.8,61.7,117.8z"/>
	<path class="st31" d="M61.7,117.8C61.7,117.8,61.7,117.8,61.7,117.8C61.7,117.8,61.7,117.8,61.7,117.8z"/>
	<path class="st31" d="M61.8,117.8C61.8,117.8,61.8,117.8,61.8,117.8C61.8,117.8,61.8,117.8,61.8,117.8L61.8,117.8z"/>
	<path class="st31" d="M61.8,117.8C61.8,117.8,61.8,117.8,61.8,117.8L61.8,117.8z"/>
	<path class="st31" d="M61.7,117.8C61.7,117.8,61.7,117.8,61.7,117.8C61.7,117.8,61.7,117.8,61.7,117.8z"/>
	<path class="st31" d="M63.8,117.8C63.9,117.8,63.9,117.8,63.8,117.8L63.8,117.8C63.9,117.8,63.9,117.8,63.8,117.8
		C63.9,117.8,63.9,117.8,63.8,117.8z"/>
	<path class="st31" d="M63.8,117.8C63.8,117.8,63.8,117.8,63.8,117.8C63.8,117.8,63.8,117.8,63.8,117.8
		C63.8,117.8,63.8,117.8,63.8,117.8C63.8,117.8,63.8,117.8,63.8,117.8C63.9,117.8,63.9,117.8,63.8,117.8
		C63.9,117.8,63.9,117.8,63.8,117.8C63.9,117.8,63.9,117.8,63.8,117.8C63.8,117.8,63.8,117.8,63.8,117.8z"/>
	<path class="st31" d="M63.9,117.8C63.8,117.8,63.8,117.8,63.9,117.8C63.8,117.8,63.8,117.8,63.9,117.8z"/>
	<path class="st31" d="M63.8,117.8L63.8,117.8C63.8,117.8,63.8,117.8,63.8,117.8C63.8,117.8,63.8,117.8,63.8,117.8z"/>
	<path class="st31" d="M63.9,117.8C63.8,117.8,63.8,117.8,63.9,117.8L63.9,117.8C63.8,117.8,63.8,117.8,63.9,117.8z"/>
	<path class="st31" d="M79.5,117.2C79.6,117.2,79.6,117.2,79.5,117.2C79.6,117.1,79.6,117.1,79.5,117.2
		C79.6,117.2,79.5,117.2,79.5,117.2z"/>
	<path class="st31" d="M79.5,117.2C79.5,117.2,79.6,117.2,79.5,117.2C79.5,117.2,79.5,117.2,79.5,117.2z"/>
	<path class="st31" d="M79.3,117.5C79.3,117.5,79.3,117.5,79.3,117.5C79.3,117.4,79.3,117.4,79.3,117.5
		C79.3,117.5,79.3,117.5,79.3,117.5C79.3,117.5,79.3,117.5,79.3,117.5z"/>
	<path class="st31" d="M79.3,117.5C79.3,117.5,79.3,117.5,79.3,117.5C79.3,117.5,79.3,117.5,79.3,117.5
		C79.3,117.5,79.3,117.5,79.3,117.5z"/>
	<path class="st31" d="M79.2,117.5C79.2,117.5,79.2,117.5,79.2,117.5C79.2,117.5,79.2,117.5,79.2,117.5L79.2,117.5z"/>
	<path class="st31" d="M79.2,117.5C79.2,117.5,79.2,117.5,79.2,117.5C79.2,117.5,79.2,117.5,79.2,117.5L79.2,117.5z"/>
	<path class="st31" d="M79.2,117.5L79.2,117.5C79.2,117.5,79.2,117.5,79.2,117.5C79.2,117.5,79.2,117.5,79.2,117.5z"/>
	<path class="st31" d="M79.2,117.5L79.2,117.5C79.2,117.5,79.2,117.5,79.2,117.5C79.2,117.5,79.2,117.5,79.2,117.5
		C79.2,117.5,79.2,117.5,79.2,117.5z"/>
	<path class="st31" d="M79.2,117.5C79.2,117.5,79.2,117.5,79.2,117.5C79.2,117.5,79.2,117.5,79.2,117.5L79.2,117.5z"/>
	<path class="st29" d="M64.4,118.4c-0.6-0.1-1.2,0-1.8,0C63.2,118.4,63.8,118.3,64.4,118.4z"/>
	<path class="st29" d="M62.2,118.5c0,0,0.1-0.1,0.1-0.1C62.3,118.4,62.2,118.4,62.2,118.5z"/>
	<path class="st29" d="M65.6,118.5c-0.1-0.2-0.2-0.1-0.4-0.1c0,0,0,0-0.1,0c-0.1,0-0.3,0-0.4,0c-0.1,0-0.3,0-0.4,0
		c-0.6-0.1-1.2,0-1.8,0c-0.1,0-0.1,0-0.2,0c0,0-0.1,0-0.1,0.1c1,0,1.9,0,2.9,0C65.3,118.5,65.4,118.5,65.6,118.5z"/>
	<path class="st29" d="M64.8,118.4c0.1,0,0.3,0,0.4,0C65,118.4,64.9,118.4,64.8,118.4z"/>
	<path class="st29" d="M65.1,118.5c0.2,0,0.4,0,0.5,0C65.4,118.5,65.3,118.5,65.1,118.5z"/>
	<path class="st20" d="M84,100.5c0-0.1,0-0.1,0-0.2c0-0.2-0.1-0.4-0.3-0.5c-0.1-0.1-0.2-0.2-0.2-0.3c0-0.3-0.1-0.5-0.2-0.7
		c-0.3-0.4-0.7-0.7-1.2-0.9c-0.6-0.2-1.2-0.3-1.8-0.3c-0.3,0-0.3,0-0.3-0.3c0-0.4,0-0.8,0-1.2c0-0.9-0.7-1.7-1.4-1.8
		c-0.2-0.1-0.5-0.1-0.8-0.1c-3.4,0-6.7,0-10.1,0c-1.8,0-3.5,0-5.3,0c-0.7,0-1.5,0.4-1.8,1.2c-0.1,0.3-0.2,0.6-0.1,0.9
		c0,0.4,0,0.8,0,1.2c0,0.1,0,0.1,0,0.1c0,0.1-0.1,0.1-0.1,0.1c-0.1,0-0.2,0-0.4,0c-0.7,0-1.4,0.1-2.1,0.5c-0.4,0.2-0.7,0.5-0.8,0.9
		c-0.1,0.2-0.1,0.4-0.1,0.6c0,0.1,0,0.1,0,0.2c0,0-0.1,0.1-0.1,0.1c-0.1,0-0.2,0.1-0.3,0.2c0,0.1,0,0.1-0.1,0.2c0,0.1,0,0.2,0,0.3
		c0,0.4,0,0.9,0,1.3c0,0.5,0.1,1,0.4,1.4c0.3,0.5,0.8,0.6,1.3,0.6l0,0c0,0,0,0,0,0c0,0,0,0,0,0l0,0c0,0,0,0,0,0l0,0c0,0,0,0,0,0
		c0,0,0,0,0,0c0,0,0,0,0,0l0,0c0.1-0.4,0.1-0.9,0.1-1.3c0-0.8,0-1.6,0-2.3l0,0l0,0c0,0,0,0,0,0c0,0,0,0,0,0c0,0,0,0,0,0c0,0,0,0,0,0
		l0,0v0c0,0,0,0-0.1,0s0,0-0.1,0c-0.2-0.1-0.2-0.1-0.1-0.4c0,0,0,0,0,0c0,0,0,0,0,0l0,0c0,0,0,0,0,0l0,0c0,0,0,0,0,0c0,0,0,0,0,0
		c0,0,0,0,0-0.1c0,0,0,0,0,0c0,0,0,0,0,0c0,0,0,0,0,0c0,0,0,0,0,0c0,0,0,0,0,0c0,0,0,0,0,0c0,0,0,0,0,0l0,0c0,0,0,0,0,0l0,0l0,0l0,0
		l0,0c0,0,0,0,0,0c0,0,0,0,0.1-0.1c0,0,0,0,0,0c0,0,0,0,0,0c0,0,0,0,0,0c0,0,0,0,0,0c0,0,0.1,0,0.1,0c0,0,0,0,0,0c0,0,0,0,0,0
		c0,0,0,0,0.1,0c0,0,0,0,0,0c0,0,0,0,0,0c0,0,0.1,0,0.1,0c0,0,0,0,0.1,0c0.4-0.1,0.8-0.2,1.2-0.2c0.2,0,0.3,0,0.4,0.1
		c0,0.1,0,0.1,0,0.3c0,3.3,0,6.7,0,10c0,0.1,0,0.2,0,0.2c0,0,0.1,0.1,0.3,0.1c1.3,0,2.6,0,3.8,0c4.9,0,9.7,0,14.6,0
		c0.2,0,0.5,0,0.7,0c0.1,0,0.2,0,0.2-0.2c0-0.1,0-0.1,0-0.2c0-3.2,0-6.4,0-9.6c0-0.2,0-0.4,0-0.6c0-0.1,0.1-0.2,0.2-0.2
		c0.4,0,0.7,0,1.1,0.1c0.3,0.1,0.6,0.1,0.9,0.4c0.1,0,0.1,0.1,0.2,0.1c0.1,0.1,0.1,0.2,0.1,0.3c0,0.1,0,0.2-0.1,0.2
		c-0.3,0.1-0.3,0.4-0.3,0.7c0,0.8,0,1.5,0,2.3c0,0.3,0,0.6,0.2,0.9c0.1,0.2,0.2,0.2,0.4,0.2c0.9-0.1,1.4-0.7,1.5-1.6
		C84.1,101.7,84,101.1,84,100.5z M58.1,103.7C58.1,103.7,58.1,103.7,58.1,103.7C58.1,103.7,58.1,103.7,58.1,103.7
		C58.1,103.7,58.1,103.7,58.1,103.7z M58,103.8C58,103.8,58,103.8,58,103.8C58.1,103.8,58.1,103.8,58,103.8L58,103.8
		C58.1,103.8,58.1,103.8,58,103.8C58.1,103.8,58.1,103.8,58,103.8C58,103.8,58,103.8,58,103.8z M58.1,99.3
		C58.1,99.3,58.1,99.3,58.1,99.3L58.1,99.3L58.1,99.3C58.1,99.3,58.1,99.3,58.1,99.3C58,99.3,58,99.3,58.1,99.3
		C58.1,99.3,58.1,99.3,58.1,99.3L58.1,99.3L58.1,99.3C58.1,99.3,58.1,99.3,58.1,99.3z M58.2,99.1C58.2,99.1,58.2,99.1,58.2,99.1
		C58.3,99.1,58.2,99.1,58.2,99.1z M66,95.2c0-0.2,0.1-0.4,0.2-0.5c0.1-0.1,0.2-0.1,0.3-0.2c0.1,0,0.2,0,0.4,0c2.2,0,4.4,0,6.6,0
		c0.1,0,0.2,0,0.3,0c0.4,0.1,0.5,0.3,0.5,0.7c0,0.3,0,0.6,0,0.9c0,0.2-0.1,0.3-0.1,0.4c-0.1,0.1-0.2,0.2-0.4,0.2c-0.1,0-0.2,0-0.3,0
		c-1.1,0-2.2,0-3.4,0c-1.1,0-2.2,0-3.3,0c-0.1,0-0.2,0-0.3,0c-0.3,0-0.5-0.3-0.5-0.6C66,95.9,65.9,95.6,66,95.2z M78.1,107.3
		c-0.2,0.1-0.4,0.1-0.6,0.1c-2.5,0-4.9,0-7.4,0c-2.5,0-4.9,0-7.4,0c-0.4,0-0.7-0.1-0.9-0.4c-0.2-0.2-0.3-0.5-0.3-0.8
		c0-2.2,0-4.4,0-6.6c0-0.5,0.2-0.9,0.6-1.1c0.2-0.1,0.4-0.2,0.7-0.2c3.3,0,6.6,0,9.8,0c1.6,0,3.2,0,4.9,0c0.5,0,0.8,0.2,1.1,0.6
		c0.1,0.2,0.1,0.4,0.1,0.6c0,1.3,0,2.7,0,4c0,0.9,0,1.7,0,2.6C78.8,106.7,78.5,107.1,78.1,107.3z"/>
	<path class="st29" d="M66.5,96.8c0.1,0,0.2,0,0.3,0c1.1,0,2.2,0,3.3,0c1.1,0,2.2,0,3.4,0c0.1,0,0.2,0,0.3,0c0.2,0,0.3-0.1,0.4-0.2
		c-0.1,0.1-0.2,0.2-0.4,0.2c-0.1,0-0.2,0-0.3,0c-1.1,0-2.2,0-3.4,0c-1.1,0-2.2,0-3.3,0C66.7,96.8,66.6,96.8,66.5,96.8
		c-0.3-0.1-0.5-0.3-0.5-0.6c0-0.3,0-0.6,0-1c0-0.2,0.1-0.3,0.2-0.5C66.1,94.9,66,95,66,95.2c0,0.3,0,0.6,0,1
		C66,96.5,66.2,96.7,66.5,96.8z"/>
	<path class="st20" d="M66.8,96.2c0.1,0,0.1,0,0.2,0l0,0c2.1,0,4.1,0,6.2,0c0.1,0,0.2,0,0.2,0c0.1,0,0.2-0.1,0.2-0.2
		c0-0.2,0-0.4,0-0.5c0-0.1,0-0.2-0.1-0.2c0,0,0,0,0,0c-0.1,0-0.2,0-0.2,0c-1,0-2.1,0-3.1,0l0,0c-0.4,0-0.7,0-1.1,0
		c-0.4,0-0.7,0-1.1,0c-0.2,0-0.5,0-0.7,0c-0.6,0-0.6-0.1-0.6,0.3c0,0.1,0,0.2,0,0.4C66.6,96.1,66.7,96.2,66.8,96.2z"/>
	<path class="st32" d="M67,96.2c-0.1,0-0.1,0-0.2,0C66.9,96.2,67,96.2,67,96.2z"/>
	<path class="st32" d="M66.8,96.2c-0.2,0-0.2-0.1-0.2-0.3c0-0.2,0-0.3,0-0.4c0,0.1,0,0.2,0,0.4S66.7,96.2,66.8,96.2z"/>
	<path class="st32" d="M67.3,114.4c0,0,0,0.1,0.1,0.1c0.1,0.1,0.1,0.2,0.2,0.3l0,0h0c0,0,0,0,0,0c0,0,0,0,0,0l0,0c0,0,0,0,0,0
		c0,0,0,0,0,0c0,0,0,0,0,0c0.8,0,1.6,0,2.3,0c0.9,0,1.7,0,2.6,0h0c0,0,0,0,0,0c0,0,0,0,0,0c0,0,0,0,0,0c0,0,0-0.1,0-0.1c0,0,0,0,0,0
		c0,0,0-0.1,0.1-0.1c0,0,0,0,0,0c0,0,0,0,0,0c0,0,0,0,0,0c0,0,0,0,0,0c0,0,0.1-0.1,0.1-0.1s0.1-0.1,0.1-0.1c0-0.1,0.1-0.1,0.1-0.2
		c-2,0-3.9,0-5.9,0c0,0.1,0,0.1,0.1,0.2c0-0.1,0-0.1-0.1-0.2l0,0c0,0.1,0,0.1,0.1,0.2C67.3,114.4,67.3,114.4,67.3,114.4z"/>
	<path class="st32" d="M67.4,114.5c0,0,0-0.1-0.1-0.1c0.1,0.2,0.2,0.3,0.3,0.5l0,0l0,0C67.5,114.8,67.4,114.7,67.4,114.5z"/>
	<path class="st32" d="M67.2,114.1L67.2,114.1C67.2,114.1,67.2,114.1,67.2,114.1L67.2,114.1C67.2,114.1,67.2,114.1,67.2,114.1z"/>
	<path class="st32" d="M73.1,114.1C73.1,114.1,73.1,114.1,73.1,114.1c-2,0-3.9,0-5.9,0c0,0,0,0,0,0
		C69.1,114.1,71.1,114.1,73.1,114.1z"/>
	<path class="st32" d="M67.4,114.5c0.1,0.1,0.1,0.2,0.2,0.3C67.5,114.8,67.4,114.7,67.4,114.5z"/>
	<path class="st29" d="M72.7,114.9L72.7,114.9L72.7,114.9z"/>
	<path class="st29" d="M67.3,115.3C67.3,115.3,67.3,115.3,67.3,115.3c0.2,0.1,0.3,0.1,0.5,0.1l5.1-0.1c0,0,0-0.1,0.1-0.1
		c0-0.1,0-0.1,0-0.2c0,0,0,0,0,0c0,0,0-0.1,0-0.1c0,0,0,0,0,0c0,0-0.1-0.1-0.2-0.1c0,0,0,0,0,0c0,0,0,0,0,0c0,0-0.1,0-0.1,0.1
		c0,0,0,0,0,0c0,0,0,0,0,0c0,0,0,0.1-0.1,0.1l0,0l0,0c0,0,0,0-0.1,0.1c-0.1,0.1-0.1,0.1-0.2,0.1c-1.2-0.1-2.3,0-3.5,0
		c-0.3,0-0.6,0-1,0c-0.1,0-0.2,0-0.2-0.1c0,0,0,0,0,0c0,0,0,0,0,0c0,0,0,0-0.1-0.1l0,0c0,0,0,0,0,0s0,0,0,0c-0.1,0-0.2,0-0.3,0.1
		C67.3,115,67.3,115.1,67.3,115.3z"/>
	<path class="st29" d="M67.5,114.9c-0.1,0-0.2,0-0.2,0.1C67.3,114.9,67.4,114.9,67.5,114.9C67.5,114.9,67.5,114.9,67.5,114.9z"/>
	<path class="st29" d="M72.8,114.7C72.8,114.7,72.8,114.7,72.8,114.7c0.1,0.1,0.1,0.1,0.2,0.1c0,0,0,0,0,0c0,0,0,0,0,0.1
		c0,0,0,0,0,0c0,0,0,0,0-0.1c0,0,0-0.1,0-0.1c0,0,0,0,0,0c0,0,0,0-0.1-0.1C72.9,114.7,72.8,114.7,72.8,114.7z"/>
	<path class="st29" d="M73,115.2L73,115.2c0,0,0,0.1-0.1,0.1C73,115.3,73,115.2,73,115.2z"/>
	<path class="st29" d="M67.7,115c0,0.1,0.1,0.1,0.2,0.1c0.3-0.1,0.6,0,1,0c1.2,0,2.3,0,3.5,0c0.1,0,0.2,0,0.2-0.1
		c-0.9,0-1.7,0-2.6,0C69.2,114.9,68.5,115,67.7,115z"/>
	<path class="st29" d="M67.7,115c0.8,0,1.6,0,2.3,0C69.2,114.9,68.5,114.9,67.7,115z"/>
	<path class="st29" d="M67.7,115c0.8,0,1.6,0,2.3,0C69.2,114.9,68.5,114.9,67.7,115z"/>
	<path class="st31" d="M72.7,114.9C72.7,114.9,72.7,114.8,72.7,114.9C72.7,114.8,72.7,114.8,72.7,114.9
		C72.7,114.8,72.7,114.9,72.7,114.9z"/>
	<path class="st31" d="M72.7,114.9C72.7,114.9,72.7,114.8,72.7,114.9C72.7,114.8,72.7,114.8,72.7,114.9
		C72.7,114.8,72.7,114.9,72.7,114.9L72.7,114.9z"/>
	<path class="st31" d="M72.7,114.9C72.7,114.9,72.7,114.8,72.7,114.9C72.7,114.8,72.7,114.8,72.7,114.9z"/>
	<path class="st31" d="M67.6,114.9C67.6,114.9,67.6,114.9,67.6,114.9C67.6,114.9,67.6,114.9,67.6,114.9
		C67.6,114.9,67.6,114.9,67.6,114.9L67.6,114.9C67.6,114.9,67.6,114.9,67.6,114.9C67.6,114.9,67.6,114.9,67.6,114.9z"/>
	<path class="st31" d="M67.6,114.9C67.6,114.9,67.6,114.9,67.6,114.9C67.6,114.9,67.6,114.9,67.6,114.9
		C67.6,114.9,67.6,114.9,67.6,114.9C67.6,114.9,67.6,114.9,67.6,114.9z"/>
	<path class="st31" d="M72.7,114.9L72.7,114.9C72.7,114.9,72.7,114.9,72.7,114.9L72.7,114.9C72.7,114.9,72.6,114.9,72.7,114.9
		C72.6,114.9,72.6,114.9,72.7,114.9C72.6,114.9,72.6,114.9,72.7,114.9C72.6,114.9,72.6,114.9,72.7,114.9z"/>
	<path class="st31" d="M72.6,114.9C72.6,114.9,72.6,114.9,72.6,114.9C72.6,114.9,72.6,114.9,72.6,114.9L72.6,114.9
		C72.6,114.9,72.6,114.9,72.6,114.9C72.6,114.9,72.6,114.9,72.6,114.9C72.6,114.9,72.6,114.9,72.6,114.9L72.6,114.9
		C72.6,114.9,72.6,114.9,72.6,114.9z"/>
	<path class="st31" d="M72.7,114.9C72.7,114.9,72.6,114.9,72.7,114.9C72.6,114.9,72.7,114.9,72.7,114.9L72.7,114.9z"/>
	<path class="st31" d="M72.7,114.9L72.7,114.9L72.7,114.9L72.7,114.9C72.7,114.9,72.7,114.9,72.7,114.9z"/>
	<path class="st31" d="M72.7,114.9L72.7,114.9L72.7,114.9z"/>
	<path class="st31" d="M72.6,114.9L72.6,114.9C72.7,114.9,72.7,114.9,72.6,114.9C72.6,114.9,72.6,114.9,72.6,114.9z"/>
	<path class="st31" d="M72.6,114.9C72.6,114.9,72.6,114.9,72.6,114.9C72.6,114.9,72.6,114.9,72.6,114.9z"/>
	<path class="st31" d="M72.6,114.9C72.6,114.9,72.6,114.9,72.6,114.9C72.6,114.9,72.6,114.9,72.6,114.9z"/>
	<path class="st31" d="M72.6,114.9L72.6,114.9L72.6,114.9L72.6,114.9L72.6,114.9z"/>
	<path class="st31" d="M72.6,114.9L72.6,114.9L72.6,114.9z"/>
	<path class="st20" d="M126.3,75.8c7.4,0,13.8,4.6,16.9,11.4c0.4,0.8,1.4,1.2,2.2,0.9l0,0c0.9-0.4,1.4-1.4,1-2.3
		c-1.1-2.4-2.5-4.6-4.3-6.5c-4.2-4.6-9.8-7.2-15.8-7.2c-6,0-11.6,2.5-15.8,7.2c-1.8,2-3.2,4.2-4.3,6.6c-0.4,0.9,0,2,1,2.3l0,0
		c0.9,0.3,1.8-0.1,2.2-0.9C112.5,80.5,118.9,75.8,126.3,75.8z"/>
	<path class="st20" d="M126,83.1c4.6,0,8.5,2.7,10.6,6.8c0.4,0.8,1.3,1.1,2.1,0.8l0,0c0.9-0.4,1.4-1.4,0.9-2.3
		c-2.6-5.3-7.8-8.8-13.7-8.8c-5.8,0-10.9,3.5-13.5,8.6c-0.5,0.9,0,2,0.9,2.4l0,0c0.8,0.3,1.7,0,2.1-0.8
		C117.6,85.7,121.6,83.1,126,83.1z"/>
	<path class="st20" d="M126,90.4c1.5,0,2.9,0.9,3.6,2.2c0.4,0.7,1.3,1,2.1,0.7l0,0c0.9-0.4,1.4-1.5,0.9-2.4
		c-1.3-2.5-3.8-4.2-6.6-4.2c-2.7,0-5.1,1.6-6.4,3.9c-0.5,0.9-0.1,2.1,0.9,2.4h0c0.7,0.3,1.6,0,2-0.7C123.3,91.2,124.6,90.4,126,90.4
		z"/>
	<path class="st20" d="M56.4,125.9h117.9"/>
	<path class="st20" d="M172.7,128.8H58.5c-1,0-1.9-0.8-1.9-1.8l0,0c0-1,0.8-1.8,1.9-1.8h114.2c1,0,1.9,0.8,1.9,1.8l0,0
		C174.5,128,173.7,128.8,172.7,128.8z"/>
	<path class="st20" d="M56.3,143.8h118"/>
	<path class="st20" d="M172.7,144.5H58.5c-1,0-1.9-0.8-1.9-1.8l0,0c0-1,0.8-1.8,1.9-1.8h114.3c1,0,1.9,0.8,1.9,1.8l0,0
		C174.6,143.7,173.7,144.5,172.7,144.5z"/>
	<path class="st20" d="M67.7,136.5H61c-0.9,0-1.7-0.7-1.7-1.7l0,0c0-0.9,0.7-1.7,1.7-1.7h6.7c0.9,0,1.7,0.7,1.7,1.7l0,0
		C69.3,135.8,68.6,136.5,67.7,136.5z"/>
	<path class="st20" d="M83.9,136.5h-6c-0.9,0-1.7-0.7-1.7-1.7l0,0c0-0.9,0.7-1.7,1.7-1.7h6c0.9,0,1.7,0.7,1.7,1.7l0,0
		C85.6,135.8,84.8,136.5,83.9,136.5z"/>
	<path class="st20" d="M100.8,136.5h-6c-0.9,0-1.7-0.7-1.7-1.7l0,0c0-0.9,0.7-1.7,1.7-1.7h6c0.9,0,1.7,0.7,1.7,1.7l0,0
		C102.5,135.8,101.8,136.5,100.8,136.5z"/>
	<path class="st20" d="M117.8,136.5h-6c-0.9,0-1.7-0.7-1.7-1.7l0,0c0-0.9,0.7-1.7,1.7-1.7h6c0.9,0,1.7,0.7,1.7,1.7l0,0
		C119.4,135.8,118.7,136.5,117.8,136.5z"/>
	<path class="st20" d="M134.7,136.5h-6c-0.9,0-1.7-0.7-1.7-1.7l0,0c0-0.9,0.7-1.7,1.7-1.7h6c0.9,0,1.7,0.7,1.7,1.7l0,0
		C136.4,135.8,135.6,136.5,134.7,136.5z"/>
	<path class="st20" d="M151.6,136.5h-6c-0.9,0-1.7-0.7-1.7-1.7l0,0c0-0.9,0.7-1.7,1.7-1.7h6c0.9,0,1.7,0.7,1.7,1.7l0,0
		C153.3,135.8,152.6,136.5,151.6,136.5z"/>
	<path class="st20" d="M168.6,136.5h-6c-0.9,0-1.7-0.7-1.7-1.7l0,0c0-0.9,0.7-1.7,1.7-1.7h6c0.9,0,1.7,0.7,1.7,1.7l0,0
		C170.2,135.8,169.5,136.5,168.6,136.5z"/>
	<path class="st20" d="M90.2,118.5v-18h4.3c2.9,0,4.9,0.4,6.1,1.1c1.2,0.7,1.8,2,1.8,3.7c0,1-0.2,1.8-0.7,2.4
		c-0.5,0.6-1.2,1.1-2.1,1.5c1.1,0.3,1.9,0.8,2.4,1.5c0.5,0.7,0.8,1.6,0.8,2.7c0,0.8-0.2,1.6-0.5,2.2c-0.3,0.7-0.8,1.2-1.5,1.7
		c-0.6,0.5-1.4,0.8-2.3,1c-0.9,0.2-2.3,0.3-4.2,0.3H90.2z M94.5,107.9H95c1.1,0,2-0.2,2.5-0.5s0.8-0.9,0.8-1.7
		c0-0.8-0.3-1.4-0.8-1.8c-0.5-0.4-1.4-0.6-2.5-0.6h-0.4L94.5,107.9L94.5,107.9z M94.5,115.3c0.1,0,0.2,0,0.3,0c0.1,0,0.2,0,0.3,0
		c1.1,0,1.9-0.2,2.5-0.6c0.5-0.4,0.8-1,0.8-1.8c0-0.9-0.3-1.5-0.8-1.8s-1.4-0.6-2.5-0.6h-0.5L94.5,115.3L94.5,115.3z"/>
	<path class="st20" d="M103.5,118.5l5.1-18h4.6l4.9,18h-4.4l-0.7-3.2h-4.4l-0.7,3.2H103.5z M109.3,112.5h2.9c-0.3-1.3-0.6-2.6-0.8-4
		c-0.2-1.4-0.5-2.8-0.6-4.4c-0.2,1.3-0.5,2.7-0.7,4.1C109.9,109.7,109.6,111.1,109.3,112.5z"/>
	<path class="st20" d="M119.7,118.5v-18h4.3v6.7h4.9v-6.7h4.4v18H129v-7.8H124v7.8H119.7z"/>
	<path class="st20" d="M151.5,109.7c0,2.8-0.7,4.9-2.1,6.6c-1.4,1.6-3.3,2.4-5.6,2.4c-2.4,0-4.3-0.8-5.7-2.4c-1.4-1.6-2-3.9-2-6.8
		c0-2.9,0.7-5.2,2.1-6.8c1.4-1.6,3.3-2.5,5.7-2.5c2.4,0,4.3,0.8,5.7,2.5S151.5,106.8,151.5,109.7z M143.8,115.3c1.1,0,2-0.5,2.5-1.4
		c0.6-1,0.8-2.4,0.8-4.3c0-2-0.3-3.4-0.8-4.4c-0.6-1-1.4-1.4-2.5-1.4c-1.1,0-2,0.5-2.5,1.4c-0.6,1-0.8,2.4-0.8,4.4
		c0,2,0.3,3.4,0.8,4.4C141.8,114.8,142.7,115.3,143.8,115.3z"/>
	<path class="st20" d="M154.3,118.5v-18h4.4l4.4,9.7c0.1,0.3,0.3,0.8,0.6,1.4s0.5,1.4,0.8,2.3c-0.2-1.3-0.4-2.4-0.5-3.5
		c-0.1-1.1-0.2-2.1-0.2-3v-6.9h4.1v18h-4.1l-4.8-10.1c-0.1-0.1-0.3-0.8-0.6-1.8c-0.2-0.5-0.3-0.9-0.4-1.2c0.1,0.7,0.2,1.5,0.2,2.4
		s0.1,1.9,0.1,3.1v7.6H154.3z"/>
	<path class="st20" d="M124.4,95.4c0-1.1,0.9-1.9,1.9-1.9c1.1,0,1.9,0.9,1.9,1.9c0,0,0,0,0,0c0,1.1-0.9,1.9-1.9,1.9
		C125.2,97.3,124.4,96.5,124.4,95.4C124.4,95.4,124.4,95.4,124.4,95.4"/>
</g>
<rect x="20.2" y="22.8" class="st24" width="44.5" height="10.3"/>
<text transform="matrix(1 0 0 1 32.5151 28.75)" class="st20 st27 st26">00:38</text>
<rect x="163.8" y="22.8" class="st24" width="44.5" height="10.3"/>
<text transform="matrix(1 0 0 1 178.6272 28.75)" class="st20 st27 st26">85%</text>
<g>
	<g>
		<linearGradient id="SVGID_42_" gradientUnits="userSpaceOnUse" x1="194.9756" y1="26.0294" x2="206.7532" y2="26.0294">
			<stop  offset="3.603817e-03" style="stop-color:#0F4FA9"/>
			<stop  offset="0.9685" style="stop-color:#208FEB"/>
		</linearGradient>
		<path class="st33" d="M200.2,29.3c1.3,0,2.6,0,4,0c0.7,0,1.2-0.6,1.2-1.4c0-1.2,0-2.5,0-3.7c0-0.8-0.5-1.4-1.2-1.4
			c-2.6,0-5.3,0-7.9,0c-0.7,0-1.2,0.6-1.2,1.4c0,1.2,0,2.5,0,3.7c0,0.8,0.5,1.4,1.2,1.4C197.5,29.3,198.8,29.3,200.2,29.3z
			 M205.8,27.4c0.5-0.1,1-0.7,0.9-1.4c0-0.6-0.5-1.3-0.9-1.3C205.8,25.6,205.8,26.5,205.8,27.4z"/>
		<path class="st34" d="M200.2,29.3c-1.3,0-2.6,0-3.9,0c-0.7,0-1.2-0.6-1.2-1.4c0-1.2,0-2.5,0-3.7c0-0.8,0.5-1.4,1.2-1.4
			c2.6,0,5.3,0,7.9,0c0.7,0,1.2,0.6,1.2,1.4c0,1.2,0,2.5,0,3.7c0,0.8-0.5,1.4-1.2,1.4C202.8,29.3,201.5,29.3,200.2,29.3z
			 M200.2,23.3c-1.3,0-2.6,0-3.9,0c-0.5,0-0.8,0.3-0.8,0.9c0,1.2,0,2.5,0,3.7c0,0.5,0.3,0.9,0.8,0.9c2.6,0,5.3,0,7.9,0
			c0.5,0,0.8-0.3,0.8-0.9c0-1.2,0-2.5,0-3.7c0-0.6-0.3-0.9-0.8-0.9C202.8,23.3,201.5,23.3,200.2,23.3z"/>
		<path class="st20" d="M205.8,27.4c0-0.9,0-1.8,0-2.6c0.5,0,0.9,0.6,0.9,1.3C206.8,26.7,206.3,27.3,205.8,27.4z"/>
		<path class="st20" d="M200.2,23.3c1.3,0,2.6,0,3.9,0c0.5,0,0.8,0.3,0.8,0.9c0,1.2,0,2.5,0,3.7c0,0.6-0.3,0.9-0.8,0.9
			c-2.6,0-5.3,0-7.9,0c-0.5,0-0.8-0.3-0.8-0.9c0-1.2,0-2.5,0-3.7c0-0.5,0.3-0.9,0.8-0.9C197.5,23.3,198.8,23.3,200.2,23.3z
			 M202.5,23.8C202.5,23.8,202.4,23.8,202.5,23.8c-2.1,0-4.1,0-6.1,0c-0.3,0-0.5,0.2-0.5,0.6c0,1,0,2.1,0,3.1c0,0.5,0.2,0.7,0.6,0.7
			c2,0,3.9,0,5.9,0c0,0,0.1,0,0.1,0C202.5,26.8,202.5,25.3,202.5,23.8z"/>
		<path class="st34" d="M202.5,23.8c0,1.5,0,2.9,0,4.4c-0.1,0-0.1,0-0.1,0c-2,0-3.9,0-5.9,0c-0.4,0-0.6-0.2-0.6-0.7c0-1,0-2.1,0-3.1
			c0-0.4,0.2-0.6,0.5-0.6C198.4,23.8,200.4,23.8,202.5,23.8C202.4,23.8,202.5,23.8,202.5,23.8z"/>
	</g>
</g>
</svg>
