<?xml version="1.0" encoding="utf-8"?>
<!-- Generator: Adobe Illustrator 21.0.0, SVG Export Plug-In . SVG Version: 6.00 Build 0)  -->
<svg version="1.1" id="Layer_1" xmlns="http://www.w3.org/2000/svg" xmlns:xlink="http://www.w3.org/1999/xlink" x="0px" y="0px"
	 viewBox="0 0 127 81.5" style="enable-background:new 0 0 127 81.5;" xml:space="preserve">
<style type="text/css">
	.st0{fill:#3474BB;}
	.st1{fill:#015FC9;}
	.st2{fill:#FFFFFF;}
	.st3{fill:#1D98CD;}
	.st4{fill:#2C307C;}
	.st5{fill:#015FC7;}
	.st6{fill:#FAFDFF;}
</style>
<g>
	<g>
		<path class="st0" d="M18,39.3c-2.5,0-4.9,0-7.4,0c-0.4,0-0.7-0.1-0.9-0.4c-0.2-0.2-0.3-0.5-0.3-0.8c0-2.2,0-4.4,0-6.6
			c0-0.5,0.2-0.9,0.6-1.1c-0.3,0.2-0.6,0.6-0.6,1.1c0,2.2,0,4.4,0,6.6c0,0.3,0.1,0.6,0.3,0.8c0.3,0.3,0.6,0.4,0.9,0.4
			C13.1,39.3,15.5,39.3,18,39.3s4.9,0,7.4,0c0.2,0,0.4-0.1,0.6-0.1c-0.2,0.1-0.4,0.1-0.5,0.1C22.9,39.3,20.5,39.3,18,39.3z"/>
	</g>
	<g>
		<path class="st0" d="M20.4,46.8L20.4,46.8L20.4,46.8L20.4,46.8z"/>
	</g>
	<g>
		<path class="st0" d="M31.8,34.1c-0.1,0.9-0.6,1.5-1.5,1.6c-0.2,0-0.3,0-0.4-0.2l0,0c0.1,0.2,0.2,0.2,0.4,0.2
			C31.2,35.6,31.7,35,31.8,34.1c0.1-0.5,0.1-1.1,0-1.7C31.9,33,31.9,33.5,31.8,34.1z"/>
	</g>
	<g>
		<path class="st0" d="M15.4,46.8L15.4,46.8L15.4,46.8z"/>
	</g>
	<g>
		<path class="st0" d="M12.7,45.8c0,0.1,0,0.2-0.1,0.2C12.7,46,12.7,45.9,12.7,45.8z"/>
	</g>
	<g>
		<path class="st1" d="M27.4,49L27.4,49L27.4,49L27.4,49L27.4,49L27.4,49L27.4,49L27.4,49z"/>
	</g>
	<g>
		<path class="st0" d="M20.5,46.7L20.5,46.7L20.5,46.7L20.5,46.7L20.5,46.7L20.5,46.7L20.5,46.7L20.5,46.7L20.5,46.7L20.5,46.7z"/>
	</g>
	<g>
		<path class="st0" d="M24.8,52.9L24.8,52.9L24.8,52.9L24.8,52.9z"/>
	</g>
	<g>
		<path class="st0" d="M5.8,31.3L5.8,31.3L5.8,31.3L5.8,31.3L5.8,31.3c0,0.1,0,0.2,0,0.3C5.8,31.5,5.8,31.4,5.8,31.3L5.8,31.3
			C5.8,31.3,5.9,31.3,5.8,31.3C5.9,31.2,5.9,31.2,5.8,31.3C5.9,31.2,5.9,31.2,5.8,31.3C5.9,31.2,5.8,31.2,5.8,31.3z"/>
	</g>
	<g>
		<path class="st0" d="M21.4,43L21.4,43L21.4,43L21.4,43z"/>
	</g>
	<g>
		<path class="st0" d="M12.5,45.4c-0.1-0.1-0.2-0.2-0.3-0.3C12.4,45.2,12.5,45.3,12.5,45.4z"/>
	</g>
	<g>
		<path class="st0" d="M14.4,46c0-0.1-0.1-0.2-0.1-0.2C14.3,45.8,14.4,45.9,14.4,46z"/>
	</g>
	<g>
		<path class="st0" d="M20.8,47.2L20.8,47.2L20.8,47.2L20.8,47.2z"/>
	</g>
	<g>
		<path class="st0" d="M14.7,46.6c-0.1-0.1-0.1-0.2-0.2-0.3C14.6,46.4,14.7,46.5,14.7,46.6c0,0,0,0.1,0.1,0.1l0,0
			C14.8,46.7,14.8,46.7,14.7,46.6z"/>
	</g>
	<g>
		<path class="st0" d="M10.3,44.1c-0.3,0-0.6,0.3-0.5,0.6l0,0l0,0C9.8,44.3,10,44.1,10.3,44.1z"/>
	</g>
	<g>
		<path class="st0" d="M29.9,30.9c-0.3-0.2-0.6-0.3-0.9-0.4c-0.4-0.1-0.7-0.1-1.1-0.1c-0.1,0-0.2,0.1-0.2,0.2c0,0.2,0,0.4,0,0.6
			c0,3.2,0,6.4,0,9.6c0,0.1,0,0.1,0,0.2c0,0.1,0,0.2-0.2,0.2s-0.5,0-0.7,0c-4.8,0-9.7,0-14.6,0c-1.3,0-2.6,0-3.8,0
			c-0.2,0-0.2,0-0.3-0.1c0,0.1,0.1,0.1,0.3,0.1c1.3,0,2.6,0,3.8,0c4.8,0,9.7,0,14.6,0c0.2,0,0.5,0,0.7,0c0.1,0,0.2,0,0.2-0.2
			c0-0.1,0-0.1,0-0.2c0-3.2,0-6.4,0-9.6c0-0.2,0-0.4,0-0.6c0-0.1,0.1-0.2,0.2-0.2c0.4,0,0.7,0,1.1,0.1
			C29.3,30.7,29.6,30.8,29.9,30.9C30,31,30,31,30.1,31C30,31,29.9,31,29.9,30.9z"/>
	</g>
	<g>
		<path class="st0" d="M20.8,47.2L20.8,47.2L20.8,47.2L20.8,47.2z"/>
	</g>
	<g>
		<path class="st0" d="M21.3,45.4c0.2,0.1,0.3,0.2,0.3,0.4C21.6,45.6,21.5,45.4,21.3,45.4z"/>
	</g>
	<g>
		<path class="st0" d="M18,27.1c-0.4,0-0.7,0-1.1,0C17.2,27.1,17.6,27.1,18,27.1L18,27.1z"/>
	</g>
	<g>
		<path class="st0" d="M21.5,27.3c0,0.2,0,0.4,0,0.5S21.4,28,21.3,28c0.1,0,0.2-0.1,0.2-0.2C21.5,27.6,21.5,27.5,21.5,27.3
			c0-0.1,0-0.2-0.1-0.2C21.4,27.1,21.5,27.2,21.5,27.3z"/>
	</g>
	<g>
		<path class="st0" d="M25.9,50.4c-0.4,0-0.7,0-1.1,0l0,0C25.2,50.3,25.5,50.4,25.9,50.4L25.9,50.4c0,0.5,0,1,0,1.4
			c0,0.3-0.1,0.5-0.2,0.7c0.1-0.2,0.2-0.5,0.2-0.7C25.9,51.3,25.9,50.9,25.9,50.4L25.9,50.4z"/>
	</g>
	<g>
		<path class="st0" d="M7.8,30.5c-0.4,0-0.8,0-1.2,0.2c0,0,0,0-0.1,0H6.4l0,0l0,0c0,0,0,0-0.1,0l0,0l0,0H6.2l0,0l0,0l0,0l0,0l0,0
			C6,31,6,31,6,31l0,0l0,0l0,0l0,0l0,0l0,0l0,0l0,0l0,0l0,0l0,0l0,0l0,0l0,0c0.1,0,0.2,0,0.3-0.2l0,0c0.1,0,0.2,0,0.2-0.1
			c0,0,0,0,0.1,0C7,30.6,7.4,30.6,7.8,30.5c0.2,0,0.3,0,0.4,0.1C8.2,30.5,8.1,30.5,7.8,30.5z M6,31L6,31C6.1,31,6.1,31,6,31
			c0.1-0.1,0.1-0.1,0.1-0.1l0,0h0.1H6.1h0.1l0,0C6.2,31,6.1,31,6,31z M6.3,30.8C6.3,30.8,6.4,30.8,6.3,30.8c0.1-0.1,0.1-0.1,0.1-0.1
			l0,0h0.1C6.5,30.8,6.4,30.9,6.3,30.8z"/>
	</g>
	<g>
		<path class="st0" d="M27,49.4C27,49.4,27.1,49.4,27,49.4L27,49.4C27.1,49.4,27,49.4,27,49.4z"/>
	</g>
	<g>
		<path class="st0" d="M10.6,44.1c0.6,0.3,1.1,0.6,1.6,1C11.8,44.7,11.2,44.4,10.6,44.1z"/>
	</g>
	<g>
		<path class="st0" d="M10.4,44.1c0.1,0,0.1,0,0.2,0.1C10.6,44.1,10.5,44.1,10.4,44.1z"/>
	</g>
	<g>
		<path class="st0" d="M4.8,30.8c-0.1,0.2-0.1,0.4-0.1,0.6c0,0.1,0,0.1,0,0.1s0-0.1,0-0.2C4.7,31.2,4.7,31,4.8,30.8z"/>
	</g>
	<g>
		<path class="st0" d="M6,31.8L6,31.8L6,31.8L6,31.8L6,31.8L6,31.8v-0.1C6,31.7,6,31.7,6,31.8L6,31.8z"/>
	</g>
	<g>
		<path class="st0" d="M5.9,35.7L5.9,35.7L5.9,35.7L5.9,35.7c-0.6,0.1-1-0.1-1.4-0.5c-0.3-0.4-0.4-0.9-0.4-1.4c0-0.4,0-0.9,0-1.3
			c0-0.1,0-0.2,0-0.3s0-0.1,0.1-0.2c0,0.1-0.1,0.1-0.1,0.2c0,0.1,0,0.2,0,0.3c0,0.4,0,0.9,0,1.3c0,0.5,0.1,1,0.4,1.4
			C4.9,35.6,5.3,35.8,5.9,35.7L5.9,35.7L5.9,35.7L5.9,35.7L5.9,35.7L5.9,35.7z"/>
	</g>
	<g>
		<path class="st0" d="M26,43L26,43L26,43L26,43L26,43z"/>
	</g>
	<g>
		<path class="st0" d="M27.6,43C27.6,42.9,27.6,42.9,27.6,43C27.6,42.9,27.6,42.9,27.6,43L27.6,43L27.6,43z"/>
	</g>
	<g>
		<path class="st0" d="M5.3,37.5L5.3,37.5L5.3,37.5L5.3,37.5L5.3,37.5L5.3,37.5L5.3,37.5L5.3,37.5z"/>
	</g>
	<g>
		<path class="st0" d="M12.4,52.9c0.2,0,0.3,0,0.5-0.1C12.7,52.9,12.5,52.9,12.4,52.9L12.4,52.9z"/>
	</g>
	<g>
		<path class="st0" d="M20.4,46.8L20.4,46.8L20.4,46.8L20.4,46.8z"/>
	</g>
	<g>
		<path class="st0" d="M20.4,46.8L20.4,46.8C20.5,46.8,20.5,46.8,20.4,46.8C20.5,46.8,20.4,46.8,20.4,46.8z"/>
	</g>
	<g>
		<path class="st0" d="M27,49.4L27,49.4L27,49.4L27,49.4L27,49.4z"/>
	</g>
	<g>
		<path class="st0" d="M27,49.4L27,49.4L27,49.4L27,49.4z"/>
	</g>
	<g>
		<path class="st0" d="M6,35.6L6,35.6C5.9,35.6,5.9,35.6,6,35.6C5.9,35.7,5.9,35.7,6,35.6L6,35.6L6,35.6L6,35.6L6,35.6L6,35.6z"/>
	</g>
	<g>
		<path class="st0" d="M8.2,28.1c0-0.3,0-0.6,0.1-0.9C8.2,27.5,8.2,27.8,8.2,28.1c0,0.4,0,0.8,0,1.2v0.1v-0.1
			C8.2,28.9,8.2,28.5,8.2,28.1z"/>
	</g>
	<g>
		<path class="st0" d="M10.4,50.2c-0.1,0-0.1,0-0.2,0C10.2,50.2,10.3,50.2,10.4,50.2z"/>
	</g>
	<g>
		<path class="st0" d="M20.6,46.6L20.6,46.6L20.6,46.6L20.6,46.6z"/>
	</g>
	<g>
		<path class="st0" d="M6.1,30.9L6.1,30.9L6.1,30.9L6.1,30.9z"/>
	</g>
	<g>
		<path class="st0" d="M6,31.8L6,31.8L6,31.8L6,31.8z"/>
	</g>
	<g>
		<path class="st0" d="M15.5,46.8L15.5,46.8L15.5,46.8z"/>
	</g>
	<g>
		<path class="st0" d="M14.8,46.7L14.8,46.7C14.8,46.8,14.8,46.8,14.8,46.7C14.8,46.8,14.8,46.7,14.8,46.7z"/>
	</g>
	<g>
		<path class="st0" d="M15.2,47.3C15.1,47.3,15.1,47.2,15.2,47.3L15.2,47.3C15.1,47.2,15.1,47.3,15.2,47.3z"/>
	</g>
	<g>
		<path class="st0" d="M20.8,47.2L20.8,47.2L20.8,47.2z"/>
	</g>
	<g>
		<path class="st0" d="M23,49.6c0.1,0,0.2,0,0.3,0C23.2,49.6,23.1,49.6,23,49.6z"/>
	</g>
	<g>
		<path class="st0" d="M27.4,49L27.4,49L27.4,49z"/>
	</g>
	<g>
		<path class="st0" d="M6,31.8L6,31.8L6,31.8L6,31.8z"/>
	</g>
	<g>
		<path class="st0" d="M4.5,31.7c0.1,0,0.1,0,0.1-0.1L4.5,31.7c-0.1,0-0.2,0.1-0.3,0.2C4.3,31.8,4.3,31.7,4.5,31.7z"/>
	</g>
	<g>
		<path class="st0" d="M5.9,31.2L5.9,31.2L5.9,31.2L5.9,31.2z"/>
	</g>
	<g>
		<path class="st0" d="M5.9,35.7L5.9,35.7L5.9,35.7L5.9,35.7z"/>
	</g>
	<g>
		<path class="st0" d="M29.8,32.3c0-0.3,0-0.5,0.3-0.7c0.1,0,0.1-0.1,0.1-0.2s-0.1-0.2-0.1-0.3c0.1,0.1,0.1,0.2,0.1,0.3
			c0,0.1,0,0.2-0.1,0.2C29.8,31.7,29.8,32,29.8,32.3c0,0.7,0,1.5,0,2.3c0,0.3,0,0.6,0.2,0.9l0,0c-0.1-0.3-0.2-0.6-0.2-0.9
			C29.8,33.8,29.8,33,29.8,32.3z"/>
	</g>
	<g>
		<path class="st0" d="M8.2,30.9c0-0.2,0-0.3,0-0.3C8.2,30.7,8.2,30.8,8.2,30.9c0,3.3,0,6.7,0,10c0,0.1,0,0.2,0,0.3c0,0,0-0.1,0-0.2
			C8.2,37.6,8.2,34.3,8.2,30.9z"/>
	</g>
	<g>
		<path class="st0" d="M6.1,30.9C6.1,30.9,6.1,31,6.1,30.9C6.1,31,6.1,30.9,6.1,30.9z"/>
	</g>
	<g>
		<path class="st0" d="M5.9,35.7L5.9,35.7L5.9,35.7z"/>
	</g>
	<g>
		<path class="st0" d="M5.9,31.1L5.9,31.1L5.9,31.1L5.9,31.1L5.9,31.1z"/>
	</g>
	<g>
		<path class="st0" d="M5.9,31.2C5.8,31.2,5.8,31.2,5.9,31.2C5.8,31.2,5.8,31.2,5.9,31.2z"/>
	</g>
	<g>
		<path class="st0" d="M21.4,43L21.4,43L21.4,43L21.4,43L21.4,43L21.4,43z"/>
	</g>
	<g>
		<path class="st0" d="M27.7,43L27.7,43L27.7,43L27.7,43z"/>
	</g>
	<g>
		<path class="st0" d="M22,43c0.1,0.1,0.1,0,0.2,0c1.2,0,2.4,0,3.5,0c0.1,0,0.1,0,0.2,0h-0.1c-1.2,0-2.4,0-3.5,0
			C22.2,43,22.1,43,22,43C22.1,43,22,43,22,43L22,43L22,43z"/>
	</g>
	<g>
		<path class="st0" d="M26.1,43L26.1,43L26.1,43L26.1,43z"/>
	</g>
	<g>
		<path class="st0" d="M11.6,43c0.1,0,0.2,0,0.3,0l0,0l0,0H12h-0.1C11.9,43,11.7,43,11.6,43c-1,0-2,0-3.1,0c-0.1,0-0.2,0-0.3,0l0,0
			c0.1,0,0.2,0,0.3,0C9.5,43,10.6,43,11.6,43z"/>
	</g>
	<g>
		<path class="st0" d="M27.7,43L27.7,43L27.7,43L27.7,43L27.7,43c0,1.5,0,3,0,4.5c0,0.1,0,0.1,0,0.2c0,0.1,0,0.2,0,0.2
			c0-0.1,0-0.2,0-0.3c0,0,0-0.1,0-0.2C27.7,46,27.7,44.5,27.7,43L27.7,43L27.7,43z"/>
	</g>
	<g>
		<path class="st0" d="M9.6,49.6L9.6,49.6L9.6,49.6L9.6,49.6z"/>
	</g>
	<g>
		<path class="st0" d="M26.3,43L26.3,43C26.4,43,26.4,43,26.3,43C26.4,43,26.4,43,26.3,43c0.4,0.1,0.8,0,1.2,0l0,0
			C27.1,43,26.7,43,26.3,43L26.3,43L26.3,43L26.3,43z"/>
	</g>
	<g>
		<path class="st0" d="M27.7,43L27.7,43c-0.1,0-0.1,0-0.2,0l0,0l0,0l0,0l0,0C27.6,43,27.6,43,27.7,43z"/>
	</g>
	<g>
		<path class="st0" d="M14.9,46.9c0-0.1-0.1-0.1-0.1-0.2l0,0c0.1,0.1,0.1,0.2,0.2,0.4C15,47.1,15,47,14.9,46.9L14.9,46.9z"/>
	</g>
	<g>
		<path class="st0" d="M13.4,51.4c0-0.3,0-0.7,0-1C13.4,50.7,13.4,51,13.4,51.4z"/>
	</g>
	<g>
		<path class="st0" d="M10.1,50.3c0,0.5,0,1,0,1.5v0.1v-0.1C10,51.3,10,50.8,10.1,50.3z"/>
	</g>
	<g>
		<g>
			<path class="st2" d="M12.9,50.3c-1,0-1.9,0-2.9,0c0,0.5,0,1,0,1.5v0.1c0,0.1,0,0.2,0,0.2c0,0.1,0.1,0.2,0.1,0.3
				c0.2,0.3,0.6,0.5,0.9,0.5c0.2,0,0.4,0,0.6,0c0.2,0,0.4,0,0.6,0c0.2,0,0.3,0,0.5-0.1c0,0,0.1,0,0.1-0.1c0.1-0.1,0.3-0.2,0.3-0.4
				c0-0.1,0.1-0.1,0.1-0.2c0-0.1,0-0.2,0-0.4c0-0.1,0-0.2,0-0.4c0-0.4,0-0.7,0-1C13.3,50.3,13.1,50.3,12.9,50.3z"/>
		</g>
	</g>
	<g>
		<path class="st0" d="M24.8,52.9L24.8,52.9c-0.1,0-0.2,0-0.3,0C24.6,52.9,24.7,52.9,24.8,52.9z"/>
	</g>
	<g>
		<path class="st0" d="M22.5,51.8c0-0.4,0-0.8,0-1.2c0-0.2,0-0.2,0.2-0.2c0.7,0,1.4,0,2.1,0c-0.7,0-1.4,0-2.1,0
			c-0.2,0-0.2,0-0.2,0.2C22.5,51,22.5,51.4,22.5,51.8c0,0.7,0.4,1.1,1.1,1.1c0.1,0,0.2,0,0.3,0c-0.1,0-0.2,0-0.3,0
			C22.9,52.9,22.5,52.5,22.5,51.8z"/>
	</g>
	<g>
		<g>
			<path class="st2" d="M25.9,51.7c0-0.4,0-0.9,0-1.3c0,0,0,0,0-0.1c-0.4,0-0.7,0-1.1,0c-0.7,0-1.4,0-2.1,0c-0.2,0-0.2,0-0.2,0.2
				c0,0.4,0,0.8,0,1.2c0,0.7,0.4,1.1,1.1,1.1c0.1,0,0.2,0,0.3,0c0.2,0,0.4,0,0.6,0c0.1,0,0.2,0,0.3,0l0,0c0.3,0,0.6-0.1,0.8-0.4
				c0,0,0,0,0-0.1l0,0C25.8,52.3,25.9,52,25.9,51.7z"/>
		</g>
	</g>
	<g>
		<path class="st3" d="M5.3,37.5L5.3,37.5L5.3,37.5L5.3,37.5L5.3,37.5L5.3,37.5z"/>
	</g>
	<g>
		<path class="st3" d="M5.3,37.5L5.3,37.5L5.3,37.5L5.3,37.5L5.3,37.5L5.3,37.5z"/>
	</g>
	<g>
		<path class="st0" d="M6,31.7c0,0,0-0.1-0.1-0.1l0,0C5.9,31.5,5.9,31.6,6,31.7C6,31.6,6,31.6,6,31.7z"/>
	</g>
	<g>
		<path class="st0" d="M5.9,31.7C6,31.7,6,31.7,5.9,31.7L5.9,31.7L5.9,31.7C6,31.8,6,31.8,5.9,31.7C6,31.8,6,31.7,5.9,31.7
			c0-0.1,0-0.1,0-0.1s0,0,0-0.1s-0.1-0.1-0.1-0.2C5.7,31.6,5.7,31.6,5.9,31.7z"/>
	</g>
	<g>
		<path class="st0" d="M6,31.8L6,31.8L6,31.8L6,31.8z"/>
	</g>
	<g>
		<path class="st0" d="M6,31.8L6,31.8L6,31.8L6,31.8L6,31.8L6,31.8z"/>
	</g>
	<g>
		<path class="st0" d="M6,31.8L6,31.8C6,31.7,6,31.7,6,31.8c-0.2-0.2-0.3-0.2-0.2-0.4l0,0C5.7,31.6,5.7,31.6,6,31.8
			C5.9,31.7,6,31.7,6,31.8L6,31.8L6,31.8L6,31.8L6,31.8z"/>
	</g>
	<g>
		<path class="st3" d="M6.1,30.9L6.1,30.9L6.1,30.9C6.1,31,6.1,31,6.1,30.9C6,31,6,31,6,31c0.1,0,0.2,0,0.3-0.2l0,0
			C6.2,30.9,6.2,30.9,6.1,30.9z"/>
	</g>
	<g>
		<path class="st3" d="M6.1,30.9L6.1,30.9L6.1,30.9z"/>
	</g>
	<g>
		<path class="st3" d="M6.1,30.9L6.1,30.9L6.1,30.9z"/>
	</g>
	<g>
		<path class="st3" d="M6.4,30.8L6.4,30.8c-0.1,0-0.1,0.1-0.1,0.1C6.4,30.9,6.5,30.9,6.4,30.8C6.5,30.7,6.5,30.7,6.4,30.8L6.4,30.8z
			"/>
	</g>
	<g>
		<path class="st3" d="M6.4,30.8L6.4,30.8L6.4,30.8z"/>
	</g>
	<g>
		<path class="st3" d="M6,31.1L6,31.1L6,31.1L6,31.1L6,31.1L6,31.1L6,31.1z"/>
	</g>
	<g>
		<path class="st3" d="M5.9,31.1L5.9,31.1L5.9,31.1L5.9,31.1L5.9,31.1L5.9,31.1z"/>
	</g>
	<g>
		<path class="st3" d="M5.9,31.1L5.9,31.1L5.9,31.1z"/>
	</g>
	<g>
		<path class="st3" d="M5.9,31.2C5.8,31.2,5.8,31.2,5.9,31.2C5.8,31.3,5.8,31.3,5.9,31.2C5.8,31.3,5.8,31.3,5.9,31.2
			C5.8,31.2,5.8,31.2,5.9,31.2L5.9,31.2z"/>
	</g>
	<g>
		<path class="st3" d="M5.9,35.7L5.9,35.7L5.9,35.7L5.9,35.7L5.9,35.7z"/>
	</g>
	<g>
		<path class="st3" d="M5.9,35.7L5.9,35.7L5.9,35.7z"/>
	</g>
	<g>
		<path class="st3" d="M6,35.6L6,35.6L6,35.6z"/>
	</g>
	<g>
		<path class="st3" d="M6,35.6L6,35.6C5.9,35.6,5.9,35.6,6,35.6L6,35.6z"/>
	</g>
	<g>
		<path class="st3" d="M6,35.6L6,35.6L6,35.6z"/>
	</g>
	<g>
		<path class="st3" d="M6.1,31.9L6.1,31.9C6.1,31.9,6.1,31.8,6.1,31.9C6,31.8,6,31.8,6.1,31.9C6.1,31.8,6.1,31.9,6.1,31.9z"/>
	</g>
	<g>
		<path class="st3" d="M6,31.8L6,31.8L6,31.8L6,31.8L6,31.8z"/>
	</g>
	<g>
		<path class="st3" d="M6.1,31.9L6.1,31.9L6.1,31.9L6.1,31.9L6.1,31.9L6.1,31.9z"/>
	</g>
	<g>
		<path class="st3" d="M6.1,31.9L6.1,31.9L6.1,31.9L6.1,31.9z"/>
	</g>
	<g>
		<path class="st3" d="M6,31.8L6,31.8L6,31.8L6,31.8L6,31.8z"/>
	</g>
	<g>
		<path class="st3" d="M6.1,31.9L6.1,31.9C6.1,31.9,6.1,31.8,6.1,31.9L6.1,31.9C6.1,31.8,6.1,31.9,6.1,31.9z"/>
	</g>
	<g>
		<path class="st3" d="M6,31.8L6,31.8L6,31.8C6,31.8,6.1,31.8,6,31.8C6.1,31.8,6.1,31.8,6,31.8L6,31.8L6,31.8L6,31.8z"/>
	</g>
	<g>
		<path class="st3" d="M6.1,31.9L6.1,31.9L6.1,31.9L6.1,31.9z"/>
	</g>
	<g>
		<path class="st3" d="M6.1,31.9C6.1,31.9,6,31.8,6.1,31.9L6.1,31.9L6.1,31.9L6.1,31.9z"/>
	</g>
	<g>
		<path class="st3" d="M6,31.8L6,31.8L6,31.8L6,31.8z"/>
	</g>
	<g>
		<path class="st3" d="M6.1,31.8L6.1,31.8C6.1,31.8,6,31.8,6.1,31.8L6.1,31.8L6.1,31.8C6.1,31.9,6.1,31.8,6.1,31.8z"/>
	</g>
	<g>
		<path class="st3" d="M6.1,31.9L6.1,31.9L6.1,31.9L6.1,31.9z"/>
	</g>
	<g>
		<path class="st3" d="M6.1,31.9L6.1,31.9L6.1,31.9L6.1,31.9L6.1,31.9z"/>
	</g>
	<g>
		<path class="st3" d="M6.1,31.9L6.1,31.9L6.1,31.9L6.1,31.9L6.1,31.9z"/>
	</g>
	<g>
		<path class="st3" d="M6.1,31.9L6.1,31.9C6.1,31.9,6,31.8,6.1,31.9C6,31.8,6,31.8,6.1,31.9L6.1,31.9z"/>
	</g>
	<g>
		<path class="st3" d="M6,31.8L6,31.8L6,31.8z"/>
	</g>
	<g>
		<path class="st0" d="M15.1,47.2L15.1,47.2L15.1,47.2L15.1,47.2z"/>
	</g>
	<g>
		<path class="st0" d="M15.1,47.2L15,47.1C15.1,47.1,15.1,47.2,15.1,47.2L15.1,47.2L15.1,47.2z"/>
	</g>
	<g>
		<path class="st0" d="M21.2,45.4L21.2,45.4L21.2,45.4z"/>
	</g>
	<g>
		<path class="st0" d="M20.9,46.8C20.9,46.8,20.9,46.7,20.9,46.8C20.9,46.7,20.9,46.8,20.9,46.8z"/>
	</g>
	<g>
		<path class="st0" d="M15.1,47.2C15,47.1,15,47,14.9,46.9C14.9,47,15,47,15.1,47.2C15.1,47.1,15.1,47.2,15.1,47.2z"/>
	</g>
	<g>
		<path class="st0" d="M14.9,46.9c-0.1-0.1-0.1-0.2-0.2-0.3c0,0,0,0.1,0.1,0.1l0,0C14.8,46.8,14.9,46.9,14.9,46.9z"/>
	</g>
	<g>
		<path class="st0" d="M14.9,46.9L14.9,46.9L14.9,46.9z"/>
	</g>
	<g>
		<path class="st0" d="M15.1,47.2L15.1,47.2L15.1,47.2L15.1,47.2z"/>
	</g>
	<g>
		<path class="st0" d="M18.5,45.4c-0.4,0-0.9,0-1.3,0C17.6,45.4,18.1,45.4,18.5,45.4z"/>
	</g>
	<g>
		<path class="st0" d="M19.8,45.4c-0.4,0-0.9,0-1.3,0C18.9,45.4,19.4,45.4,19.8,45.4z"/>
	</g>
	<g>
		<path class="st0" d="M14.8,45.4c0.4,0,0.7,0,1.1,0C15.5,45.4,15.1,45.4,14.8,45.4z"/>
	</g>
	<g>
		<path class="st0" d="M21.2,45.4C21.2,45.4,21.1,45.4,21.2,45.4c-0.5,0-0.9,0-1.4,0C20.2,45.4,20.7,45.4,21.2,45.4
			C21.1,45.4,21.2,45.4,21.2,45.4z"/>
	</g>
	<g>
		<path class="st0" d="M15,47.1l0.1,0.1C15.1,47.2,15.1,47.1,15,47.1L15,47.1z"/>
	</g>
	<g>
		<path class="st0" d="M14.8,45.4c-0.3,0-0.5,0.2-0.4,0.4C14.3,45.5,14.5,45.4,14.8,45.4z"/>
	</g>
	<g>
		<path class="st0" d="M14.9,46.9L14.9,46.9c0,0.1,0.1,0.1,0.1,0.2l0,0C15,47.1,15,47,14.9,46.9z"/>
	</g>
	<g>
		<path class="st0" d="M14.9,46.9L14.9,46.9c0-0.1-0.1-0.1-0.1-0.2C14.8,46.8,14.9,46.9,14.9,46.9z"/>
	</g>
	<g>
		<path class="st0" d="M14.9,46.9L14.9,46.9L14.9,46.9L14.9,46.9L14.9,46.9z"/>
	</g>
	<g>
		<g>
			<path class="st2" d="M27.8,47.7c0-1.4-0.1-2.9-0.1-4.3c0-0.1,0-0.3,0-0.4c0-0.1-2.3,0-2.6,0c-0.9,0-1.8,0-2.7,0
				c-0.2,0-0.5,0-0.7,0s-0.5,0-0.7,0c-2.6,0-5.1,0-7.7,0c-0.4,0-5,0-5,0c0,0.6,0,1.2,0,1.8c0,1,0,2.1,0,3.1c0,0.4,0.1,0.7,0.4,1
				c0.2,0.2,0.4,0.3,0.6,0.5h0.1h0.1c0,0,0,0,0.1,0c0,0,0,0,0.1,0c0.5,0,0.9,0,1.4,0c0.2,0,0.4,0,0.6,0c0,0,0,0,0.1,0c0,0,0,0,0.1,0
				s0.2,0,0.4,0c0.1,0,0.2,0,0.3,0c2.6,0,5.2,0,7.7,0c1.3,0,2.6,0,3.9,0c0.6,0,1.3,0,1.9,0c0.5,0,1.2,0,1.5-0.6
				c0.1-0.2,0.1-0.4,0.1-0.7C27.8,48.1,27.8,47.9,27.8,47.7z M12.6,46c-0.1,0.2-0.3,0.3-0.5,0.3c-0.1,0-0.2,0-0.4-0.1
				S11.3,46,11.2,46c-0.4-0.2-0.7-0.4-1.1-0.6C10,45.2,9.8,45,9.8,44.7l0,0c0-0.4,0.2-0.6,0.5-0.6h0.1c0.1,0,0.1,0,0.2,0.1
				c0.6,0.2,1.1,0.6,1.6,1c0.1,0.1,0.2,0.2,0.3,0.3S12.6,45.7,12.6,46C12.7,45.9,12.7,46,12.6,46z M21.5,46.1c0,0.1-0.1,0.2-0.1,0.2
				c-0.1,0.2-0.3,0.4-0.4,0.7c-0.1,0.2-0.2,0.4-0.5,0.4s-0.7,0-1,0c-0.4,0-0.9,0-1.3,0c-0.9,0-1.7,0-2.6,0c-0.2,0-0.3,0-0.4-0.2
				c-0.3-0.3-0.5-0.8-0.7-1.1c0,0-0.2-0.2-0.2-0.3c0-0.2,0.2-0.4,0.4-0.4c0.4,0,0.7,0,1.1,0c1.7,0,3.4,0,5.1,0c0.1,0,0.2,0,0.3,0
				C21.5,45.5,21.6,45.9,21.5,46.1L21.5,46.1z M26.1,44.7c0,0.2-0.1,0.4-0.3,0.6c-0.5,0.5-1.2,0.7-1.8,1c-0.1,0-0.2,0-0.3,0.1
				c-0.4,0-0.6-0.2-0.6-0.6c0-0.1,0-0.1,0-0.2c0-0.2,0.1-0.3,0.3-0.4c0.4-0.3,0.7-0.6,1.2-0.8c0.2-0.1,0.5-0.3,0.7-0.4
				C25.8,44,26.1,44.2,26.1,44.7L26.1,44.7L26.1,44.7z"/>
		</g>
	</g>
	<g>
		<path class="st2" d="M10.3,44.1h0.1C10.4,44.1,10.3,44.1,10.3,44.1z"/>
	</g>
	<g>
		<path class="st2" d="M9.8,44.7c0,0.3,0.2,0.5,0.4,0.7C10,45.2,9.8,45,9.8,44.7z"/>
	</g>
	<g>
		<path class="st2" d="M12.1,46.3c0.2,0,0.4-0.1,0.5-0.3C12.5,46.3,12.3,46.3,12.1,46.3z"/>
	</g>
	<g>
		<path class="st2" d="M11.8,46.3c-0.2-0.1-0.4-0.2-0.5-0.2C11.4,46.1,11.6,46.2,11.8,46.3z"/>
	</g>
	<g>
		<path class="st0" d="M20.7,47.2C20.7,47.3,20.7,47.3,20.7,47.2C20.7,47.3,20.7,47.3,20.7,47.2C20.8,47.2,20.8,47.2,20.7,47.2
			L20.7,47.2C20.8,47.2,20.8,47.2,20.7,47.2z"/>
	</g>
	<g>
		<path class="st0" d="M15.1,47.2L15.1,47.2C15.2,47.2,15.2,47.2,15.1,47.2C15.2,47.2,15.2,47.2,15.1,47.2L15.1,47.2L15.1,47.2
			L15.1,47.2L15.1,47.2L15.1,47.2L15.1,47.2z"/>
	</g>
	<g>
		<path class="st1" d="M15.2,47.3L15.2,47.3L15.2,47.3z"/>
	</g>
	<g>
		<path class="st0" d="M20,43L20,43L20,43c-2,0-4,0-5.9,0l0,0C16,43,18,43,20,43z"/>
	</g>
	<g>
		<path class="st0" d="M14.3,43c1.8,0,3.7,0,5.5,0c0.1,0,0.2,0,0.2,0l0,0c-2,0-4,0-5.9,0C14.1,43,14.2,43,14.3,43z"/>
	</g>
	<g>
		<path class="st0" d="M14,43L14,43L14,43L14,43L14,43z"/>
	</g>
	<g>
		<path class="st0" d="M20,43L20,43L20,43L20,43L20,43z"/>
	</g>
	<g>
		<path class="st0" d="M26,49.7L26,49.7c0.1,0,0.2,0,0.2-0.1l0,0l0,0C26.2,49.7,26.1,49.7,26,49.7z"/>
	</g>
	<g>
		<path class="st0" d="M25.6,49.6L25.6,49.6c-0.2,0-0.4,0-0.6,0c0.1,0,0.2,0,0.3,0C25.4,49.6,25.5,49.6,25.6,49.6z"/>
	</g>
	<g>
		<path class="st0" d="M25.2,49.6c-0.1,0-0.2,0-0.3,0l0,0C25,49.6,25.1,49.6,25.2,49.6z"/>
	</g>
	<g>
		<path class="st4" d="M25.6,49.6c-0.1,0-0.2,0-0.3,0C25.4,49.6,25.5,49.6,25.6,49.6z"/>
	</g>
	<g>
		<path class="st3" d="M11,49.7L11,49.7L11,49.7L11,49.7z"/>
	</g>
	<g>
		<path class="st0" d="M13.3,43L13.3,43c-0.4,0-0.8,0-1.2,0l0,0C12.4,43,12.9,43,13.3,43z"/>
	</g>
	<g>
		<path class="st0" d="M13,43h0.1h0.1l0,0c-0.4,0-0.8,0-1.2,0C12.4,43,12.7,43,13,43z"/>
	</g>
	<g>
		<path class="st0" d="M12,43L12,43L12,43L12,43L12,43z"/>
	</g>
	<g>
		<path class="st0" d="M13.3,43L13.3,43L13.3,43L13.3,43L13.3,43L13.3,43z"/>
	</g>
	<g>
		<path class="st0" d="M13.3,43L13.3,43L13.3,43L13.3,43L13.3,43z"/>
	</g>
	<g>
		<path class="st0" d="M13.3,43L13.3,43L13.3,43L13.3,43z"/>
	</g>
	<g>
		<path class="st0" d="M13.1,43L13.1,43L13.1,43L13.1,43z"/>
	</g>
	<g>
		<path class="st0" d="M13.1,43L13.1,43h0.1C13.2,43,13.2,43,13.1,43z"/>
	</g>
	<g>
		<path class="st0" d="M13.3,43L13.3,43L13.3,43L13.3,43z"/>
	</g>
	<g>
		<path class="st0" d="M13.3,43L13.3,43L13.3,43L13.3,43L13.3,43L13.3,43z"/>
	</g>
	<g>
		<path class="st0" d="M22.4,49.7L22.4,49.7c0.4,0.1,0.8,0.1,1.2,0l0,0C23.2,49.8,22.8,49.8,22.4,49.7z"/>
	</g>
	<g>
		<path class="st0" d="M22.4,49.7L22.4,49.7L22.4,49.7L22.4,49.7z"/>
	</g>
	<g>
		<path class="st0" d="M23,49.6c-0.2,0-0.4,0-0.6,0l0,0C22.6,49.6,22.8,49.6,23,49.6z"/>
	</g>
	<g>
		<path class="st3" d="M22,43L22,43c-0.2,0-0.4,0-0.6,0l0,0C21.6,43,21.8,43,22,43z"/>
	</g>
	<g>
		<path class="st3" d="M22,43c-0.2,0-0.4,0-0.6,0C21.6,43,21.8,43,22,43z"/>
	</g>
	<g>
		<path class="st3" d="M21.4,43L21.4,43L21.4,43L21.4,43L21.4,43z"/>
	</g>
	<g>
		<path class="st3" d="M22,43L22,43L22,43L22,43L22,43L22,43z"/>
	</g>
	<g>
		<path class="st3" d="M9.2,49.6h0.1C9.3,49.6,9.3,49.6,9.2,49.6C9.3,49.6,9.3,49.6,9.2,49.6z"/>
	</g>
	<g>
		<path class="st3" d="M9.3,49.6C9.3,49.5,9.3,49.5,9.3,49.6c-0.1,0-0.1,0-0.1,0S9.2,49.6,9.3,49.6L9.3,49.6L9.3,49.6L9.3,49.6
			L9.3,49.6z"/>
	</g>
	<g>
		<path class="st3" d="M9.3,49.6H9.2C9.2,49.5,9.2,49.5,9.3,49.6C9.3,49.5,9.3,49.5,9.3,49.6z"/>
	</g>
	<g>
		<path class="st3" d="M26,43L26,43L26,43L26,43L26,43z"/>
	</g>
	<g>
		<path class="st3" d="M26.3,43L26.3,43L26.3,43c-0.1,0-0.2,0-0.3,0l0,0C26.2,43,26.2,43,26.3,43z"/>
	</g>
	<g>
		<path class="st3" d="M26,43L26,43L26,43L26,43z"/>
	</g>
	<g>
		<path class="st3" d="M26.2,43L26.2,43c0.1,0,0.1,0,0.1,0l0,0l0,0c-0.1,0-0.2,0-0.3,0C26.1,43,26.1,43,26.2,43L26.2,43z"/>
	</g>
	<g>
		<path class="st3" d="M26.1,43L26.1,43L26.1,43L26.1,43L26.1,43z"/>
	</g>
	<g>
		<path class="st3" d="M26.3,43L26.3,43L26.3,43L26.3,43L26.3,43z"/>
	</g>
	<g>
		<path class="st3" d="M26.3,43L26.3,43c-0.1,0-0.1,0-0.1,0l0,0h-0.1l0,0l0,0h0.1l0,0l0,0C26.2,43,26.2,43,26.3,43L26.3,43L26.3,43
			L26.3,43L26.3,43z"/>
	</g>
	<g>
		<path class="st3" d="M26.3,43L26.3,43L26.3,43z"/>
	</g>
	<g>
		<path class="st3" d="M26.3,43L26.3,43L26.3,43z"/>
	</g>
	<g>
		<path class="st3" d="M26.4,43L26.4,43L26.4,43L26.4,43z"/>
	</g>
	<g>
		<path class="st3" d="M26.3,43L26.3,43L26.3,43L26.3,43z"/>
	</g>
	<g>
		<path class="st3" d="M27.7,43L27.7,43C27.7,43,27.7,42.9,27.7,43C27.7,42.9,27.7,43,27.7,43z"/>
	</g>
	<g>
		<path class="st3" d="M27.7,43C27.7,43,27.7,42.9,27.7,43c-0.1,0-0.1,0-0.1,0S27.6,43,27.7,43z"/>
	</g>
	<g>
		<path class="st3" d="M27.7,43L27.7,43L27.7,43L27.7,43L27.7,43z"/>
	</g>
	<g>
		<path class="st3" d="M27.6,43L27.6,43h0.1l0,0C27.6,43,27.6,43,27.6,43z"/>
	</g>
	<g>
		<path class="st3" d="M20.8,47.1L20.8,47.1L20.8,47.1L20.8,47.1z"/>
	</g>
	<g>
		<path class="st3" d="M9.6,49.7C9.6,49.7,9.6,49.6,9.6,49.7C9.6,49.6,9.6,49.6,9.6,49.7C9.6,49.6,9.6,49.6,9.6,49.7
			C9.6,49.6,9.6,49.6,9.6,49.7C9.6,49.6,9.6,49.7,9.6,49.7z"/>
	</g>
	<g>
		<path class="st3" d="M9.5,49.6L9.5,49.6L9.5,49.6C9.6,49.6,9.6,49.6,9.5,49.6C9.6,49.6,9.6,49.6,9.5,49.6
			C9.6,49.6,9.5,49.6,9.5,49.6z"/>
	</g>
	<g>
		<path class="st3" d="M9.5,49.6C9.5,49.6,9.6,49.6,9.5,49.6C9.6,49.6,9.5,49.6,9.5,49.6z"/>
	</g>
	<g>
		<path class="st3" d="M9.6,49.7C9.6,49.6,9.6,49.6,9.6,49.7C9.6,49.6,9.6,49.6,9.6,49.7L9.6,49.7z"/>
	</g>
	<g>
		<path class="st3" d="M9.6,49.6L9.6,49.6L9.6,49.6z"/>
	</g>
	<g>
		<path class="st3" d="M9.6,49.6L9.6,49.6L9.6,49.6z"/>
	</g>
	<g>
		<path class="st3" d="M11.7,49.7L11.7,49.7L11.7,49.7L11.7,49.7L11.7,49.7z"/>
	</g>
	<g>
		<path class="st3" d="M11.7,49.7C11.6,49.7,11.6,49.7,11.7,49.7C11.6,49.7,11.6,49.7,11.7,49.7C11.6,49.7,11.6,49.7,11.7,49.7
			C11.6,49.7,11.7,49.7,11.7,49.7L11.7,49.7L11.7,49.7C11.7,49.6,11.7,49.6,11.7,49.7C11.7,49.6,11.7,49.6,11.7,49.7z"/>
	</g>
	<g>
		<path class="st3" d="M11.7,49.6L11.7,49.6L11.7,49.6z"/>
	</g>
	<g>
		<path class="st3" d="M11.7,49.7L11.7,49.7C11.6,49.7,11.6,49.7,11.7,49.7C11.6,49.7,11.6,49.7,11.7,49.7z"/>
	</g>
	<g>
		<path class="st3" d="M11.7,49.6L11.7,49.6L11.7,49.6L11.7,49.6z"/>
	</g>
	<g>
		<path class="st3" d="M27.4,49L27.4,49L27.4,49L27.4,49z"/>
	</g>
	<g>
		<path class="st3" d="M27.4,49L27.4,49L27.4,49z"/>
	</g>
	<g>
		<path class="st3" d="M27.1,49.4C27.1,49.3,27.1,49.3,27.1,49.4C27.1,49.3,27.1,49.3,27.1,49.4C27.1,49.3,27.1,49.3,27.1,49.4
			C27.1,49.3,27.1,49.3,27.1,49.4z"/>
	</g>
	<g>
		<path class="st3" d="M27.1,49.3L27.1,49.3L27.1,49.3L27.1,49.3z"/>
	</g>
	<g>
		<path class="st3" d="M27,49.4L27,49.4L27,49.4L27,49.4z"/>
	</g>
	<g>
		<path class="st3" d="M27,49.4L27,49.4L27,49.4L27,49.4z"/>
	</g>
	<g>
		<path class="st3" d="M27,49.4L27,49.4L27,49.4L27,49.4z"/>
	</g>
	<g>
		<path class="st3" d="M27,49.4L27,49.4L27,49.4C27,49.4,27.1,49.4,27,49.4L27,49.4z"/>
	</g>
	<g>
		<path class="st3" d="M27.1,49.4C27,49.4,27,49.4,27.1,49.4C27,49.4,27,49.4,27.1,49.4L27.1,49.4z"/>
	</g>
	<g>
		<path class="st2" d="M12.2,50.3c-0.6-0.1-1.2,0-1.8,0C11,50.2,11.6,50.2,12.2,50.3z"/>
	</g>
	<g>
		<path class="st5" d="M13.4,50.4c-0.1-0.2-0.2-0.1-0.4-0.1c0,0,0,0-0.1,0s-0.3,0-0.4,0c-0.1,0-0.3,0-0.4,0c-0.6-0.1-1.2,0-1.8,0
			c-0.1,0-0.1,0-0.2,0c0,0-0.1,0-0.1,0.1c1,0,1.9,0,2.9,0C13.1,50.3,13.3,50.3,13.4,50.4z"/>
	</g>
	<g>
		<path class="st0" d="M12.6,50.3c0.1,0,0.3,0,0.4,0C12.9,50.3,12.7,50.3,12.6,50.3z"/>
	</g>
	<g>
		<g>
			<path class="st2" d="M32.3,32.4c0-0.1,0-0.1,0-0.2c0-0.2-0.1-0.4-0.3-0.5c-0.1-0.1-0.2-0.2-0.2-0.3c0-0.3-0.1-0.5-0.2-0.7
				c-0.3-0.4-0.7-0.7-1.2-0.9c-0.6-0.2-1.2-0.3-1.8-0.3c-0.3,0-0.3,0-0.3-0.3c0-0.4,0-0.8,0-1.2c0-0.9-0.7-1.7-1.4-1.8
				C26.5,26,26.3,26,26,26c-3.4,0-6.7,0-10.1,0c-1.8,0-3.5,0-5.3,0c-0.7,0-1.5,0.4-1.8,1.2c-0.1,0.3-0.2,0.6-0.1,0.9
				c0,0.4,0,0.8,0,1.2c0,0.1,0,0.1,0,0.1c0,0.1-0.1,0.1-0.1,0.1c-0.1,0-0.2,0-0.4,0c-0.7,0-1.4,0.1-2.1,0.5
				c-0.4,0.2-0.7,0.5-0.8,0.9c-0.1,0.2-0.1,0.4-0.1,0.6c0,0.1,0,0.1,0,0.2l-0.1,0.1c-0.1,0-0.2,0.1-0.3,0.2c0,0.1,0,0.1-0.1,0.2
				c0,0.1,0,0.2,0,0.3c0,0.4,0,0.9,0,1.3c0,0.5,0.1,1,0.4,1.4c0.3,0.5,0.8,0.6,1.3,0.6l0,0l0,0l0,0l0,0l0,0l0,0l0,0l0,0l0,0l0,0
				c0.1-0.4,0.1-0.9,0.1-1.3c0-0.8,0-1.6,0-2.3l0,0l0,0l0,0l0,0l0,0l0,0l0,0l0,0c0,0,0,0-0.1,0s0,0-0.1,0c-0.2-0.1-0.2-0.1-0.1-0.4
				l0,0l0,0l0,0l0,0l0,0l0,0l0,0c0,0,0,0,0-0.1l0,0l0,0l0,0l0,0l0,0l0,0l0,0l0,0l0,0l0,0l0,0l0,0l0,0l0,0c0,0,0,0,0.1-0.1l0,0l0,0
				l0,0l0,0h0.1l0,0l0,0c0,0,0,0,0.1,0l0,0l0,0h0.1c0,0,0,0,0.1,0c0.4-0.1,0.8-0.2,1.2-0.2c0.2,0,0.3,0,0.4,0.1c0,0.1,0,0.1,0,0.3
				c0,3.3,0,6.7,0,10c0,0.1,0,0.2,0,0.2s0.1,0.1,0.3,0.1c1.3,0,2.6,0,3.8,0c4.9,0,9.7,0,14.6,0c0.2,0,0.5,0,0.7,0
				c0.1,0,0.2,0,0.2-0.2c0-0.1,0-0.1,0-0.2c0-3.2,0-6.4,0-9.6c0-0.2,0-0.4,0-0.6c0-0.1,0.1-0.2,0.2-0.2c0.4,0,0.7,0,1.1,0.1
				c0.3,0.1,0.6,0.1,0.9,0.4c0.1,0,0.1,0.1,0.2,0.1c0.1,0.1,0.1,0.2,0.1,0.3s0,0.2-0.1,0.2C30,32.5,30,32.8,30,33.1
				c0,0.8,0,1.5,0,2.3c0,0.3,0,0.6,0.2,0.9c0.1,0.2,0.2,0.2,0.4,0.2c0.9-0.1,1.4-0.7,1.5-1.6C32.4,33.5,32.4,33,32.3,32.4z
				 M6.5,35.6L6.5,35.6L6.5,35.6C6.4,35.6,6.4,35.6,6.5,35.6z M6.4,35.7L6.4,35.7L6.4,35.7L6.4,35.7L6.4,35.7L6.4,35.7L6.4,35.7z
				 M6.4,31.2C6.4,31.1,6.4,31.1,6.4,31.2L6.4,31.2L6.4,31.2C6.4,31.1,6.4,31.1,6.4,31.2C6.4,31.1,6.4,31.1,6.4,31.2
				C6.4,31.1,6.4,31.1,6.4,31.2L6.4,31.2L6.4,31.2C6.4,31.1,6.4,31.1,6.4,31.2z M6.6,31C6.6,31,6.6,30.9,6.6,31
				C6.6,30.9,6.6,31,6.6,31z M14.3,27.1c0-0.2,0.1-0.4,0.2-0.5c0.1-0.1,0.2-0.1,0.3-0.2c0.1,0,0.2,0,0.4,0c2.2,0,4.4,0,6.6,0
				c0.1,0,0.2,0,0.3,0c0.4,0.1,0.5,0.3,0.5,0.7c0,0.3,0,0.6,0,0.9c0,0.2-0.1,0.3-0.1,0.4c-0.1,0.1-0.2,0.2-0.4,0.2
				c-0.1,0-0.2,0-0.3,0c-1.1,0-2.2,0-3.4,0c-1.1,0-2.2,0-3.3,0c-0.1,0-0.2,0-0.3,0c-0.3,0-0.5-0.3-0.5-0.6
				C14.3,27.7,14.3,27.4,14.3,27.1z M26.4,39.2c-0.2,0.1-0.4,0.1-0.6,0.1c-2.5,0-4.9,0-7.4,0s-4.9,0-7.4,0c-0.4,0-0.7-0.1-0.9-0.4
				c-0.2-0.2-0.3-0.5-0.3-0.8c0-2.2,0-4.4,0-6.6c0-0.5,0.2-0.9,0.6-1.1c0.2-0.1,0.4-0.2,0.7-0.2c3.3,0,6.6,0,9.8,0
				c1.6,0,3.2,0,4.9,0c0.5,0,0.8,0.2,1.1,0.6C27,31,27,31.2,27,31.4c0,1.3,0,2.7,0,4c0,0.9,0,1.7,0,2.6C27.1,38.5,26.8,39,26.4,39.2
				z"/>
		</g>
	</g>
	<g>
		<path class="st2" d="M15.2,28c0.1,0,0.3,0,0.4,0c0.2,0,0.3,0,0.5,0c0.3,0,0.6,0,1,0c0.6,0,1.3,0,1.9,0c0.6,0,1.3,0,1.9,0
			c0.2,0,0.5,0,0.7,0c0.1,0,0.2,0,0.2,0c0.1,0,0.2-0.1,0.2-0.2c0-0.2,0-0.4,0-0.5s0-0.2-0.1-0.2s-0.2,0-0.2,0c-1,0-2.1,0-3.1,0
			c-0.4,0-0.7,0-1.1,0s-0.7,0-1.1,0c-0.2,0-0.5,0-0.7,0c-0.1,0-0.2,0-0.3,0c-0.1,0-0.1,0-0.2,0c-0.1,0-0.1,0.1-0.1,0.2
			c0,0.1,0,0.2,0,0.3c0,0.1,0,0.1,0,0.2c0,0-0.1,0.1-0.1,0.1c0,0,0,0,0,0.1c0,0,0.1,0,0.1,0C15.1,28,15.2,28,15.2,28z"/>
	</g>
	<g>
		<path class="st6" d="M14.8,28c-0.1,0-0.1,0-0.2,0C14.7,28,14.8,28,14.8,28z"/>
	</g>
	<g>
		<path class="st2" d="M15.1,46.3c0,0.1,0.1,0.2,0.2,0.3c0.7,0.4,1.5,0.2,2.2,0.2c0.4,0,1.6,0.1,2,0c0.4,0,0.2-0.1,0.6-0.2
			c0.1,0,0.7-0.3,0.4-0.5h-0.1c-1.3,0-2.5,0-3.8-0.1c-0.5,0-1,0-1.5,0C15,46,15,46,15,46.1"/>
	</g>
	<g>
		<path class="st6" d="M15.2,46.4c0,0,0-0.1-0.1-0.1c0.1,0.2,0.2,0.3,0.3,0.5l0,0l0,0C15.3,46.6,15.2,46.5,15.2,46.4z"/>
	</g>
	<g>
		<path class="st6" d="M15,46L15,46L15,46L15,46L15,46z"/>
	</g>
	<g>
		<path class="st6" d="M20.9,46L20.9,46c-2,0-3.9,0-5.9,0l0,0C17,46,18.9,46,20.9,46z"/>
	</g>
	<g>
		<path class="st0" d="M20.5,46.7L20.5,46.7L20.5,46.7z"/>
	</g>
	<g>
		<path class="st0" d="M15.5,46.8c0.8,0,1.6,0,2.3,0C17.1,46.8,16.3,46.8,15.5,46.8z"/>
	</g>
	<g>
		<path class="st3" d="M20.5,46.7L20.5,46.7L20.5,46.7L20.5,46.7z"/>
	</g>
	<g>
		<path class="st3" d="M20.5,46.7L20.5,46.7C20.6,46.7,20.6,46.7,20.5,46.7L20.5,46.7L20.5,46.7z"/>
	</g>
	<g>
		<path class="st3" d="M20.5,46.7L20.5,46.7L20.5,46.7z"/>
	</g>
	<g>
		<path class="st3" d="M15.4,46.8L15.4,46.8L15.4,46.8L15.4,46.8L15.4,46.8C15.5,46.8,15.5,46.8,15.4,46.8
			C15.5,46.8,15.4,46.8,15.4,46.8z"/>
	</g>
	<g>
		<path class="st3" d="M15.4,46.8C15.4,46.8,15.5,46.8,15.4,46.8C15.5,46.8,15.5,46.8,15.4,46.8C15.5,46.8,15.5,46.8,15.4,46.8
			C15.5,46.8,15.4,46.8,15.4,46.8z"/>
	</g>
	<g>
		<path class="st3" d="M20.5,46.7L20.5,46.7L20.5,46.7L20.5,46.7L20.5,46.7C20.5,46.8,20.5,46.8,20.5,46.7
			C20.5,46.8,20.5,46.8,20.5,46.7C20.5,46.8,20.5,46.7,20.5,46.7z"/>
	</g>
	<g>
		<path class="st3" d="M20.5,46.8L20.5,46.8L20.5,46.8L20.5,46.8L20.5,46.8C20.4,46.8,20.4,46.8,20.5,46.8L20.5,46.8L20.5,46.8
			L20.5,46.8z"/>
	</g>
	<g>
		<path class="st3" d="M20.5,46.7L20.5,46.7L20.5,46.7L20.5,46.7z"/>
	</g>
	<g>
		<path class="st3" d="M20.5,46.7L20.5,46.7L20.5,46.7L20.5,46.7L20.5,46.7z"/>
	</g>
	<g>
		<path class="st3" d="M20.5,46.7L20.5,46.7L20.5,46.7z"/>
	</g>
	<g>
		<path class="st3" d="M20.5,46.8L20.5,46.8C20.5,46.8,20.5,46.7,20.5,46.8C20.5,46.7,20.5,46.8,20.5,46.8z"/>
	</g>
	<g>
		<path class="st3" d="M20.5,46.8L20.5,46.8L20.5,46.8z"/>
	</g>
	<g>
		<path class="st3" d="M20.4,46.8L20.4,46.8L20.4,46.8z"/>
	</g>
	<g>
		<path class="st3" d="M20.4,46.8L20.4,46.8L20.4,46.8L20.4,46.8L20.4,46.8z"/>
	</g>
	<g>
		<path class="st3" d="M20.4,46.8L20.4,46.8L20.4,46.8z"/>
	</g>
	<g>
		<path class="st2" d="M4.2,57.7H122"/>
	</g>
	<g>
		<g>
			<path class="st2" d="M38.1,50.4v-18h4.3c2.9,0,4.9,0.4,6.1,1.1c1.2,0.7,1.8,2,1.8,3.7c0,1-0.2,1.8-0.7,2.4
				c-0.5,0.6-1.2,1.1-2.1,1.5c1.1,0.3,1.9,0.8,2.4,1.5s0.8,1.6,0.8,2.7c0,0.8-0.2,1.6-0.5,2.2c-0.3,0.7-0.8,1.2-1.5,1.7
				s-1.4,0.8-2.3,1c-0.9,0.2-2.3,0.3-4.2,0.3h-4.1V50.4z M42.3,39.8h0.5c1.1,0,2-0.2,2.5-0.5c0.5-0.4,0.8-0.9,0.8-1.7
				s-0.3-1.4-0.8-1.8c-0.5-0.4-1.4-0.6-2.5-0.6h-0.4L42.3,39.8L42.3,39.8z M42.3,47.1c0.1,0,0.2,0,0.3,0s0.2,0,0.3,0
				c1.1,0,1.9-0.2,2.5-0.6c0.5-0.4,0.8-1,0.8-1.8c0-0.9-0.3-1.5-0.8-1.8c-0.5-0.4-1.4-0.6-2.5-0.6h-0.5L42.3,47.1L42.3,47.1z"/>
		</g>
	</g>
	<g>
		<g>
			<path class="st2" d="M51.3,50.4l5.1-18H61l4.9,18h-4.4l-0.7-3.2h-4.4l-0.7,3.2H51.3z M57.2,44.4h2.9c-0.3-1.3-0.6-2.6-0.8-4
				s-0.5-2.8-0.6-4.4c-0.2,1.3-0.5,2.7-0.7,4.1C57.7,41.6,57.4,43,57.2,44.4z"/>
		</g>
	</g>
	<g>
		<g>
			<path class="st2" d="M67.5,50.4v-18h4.3V39h4.9v-6.7h4.4v18h-4.4v-7.8h-4.9v7.8h-4.3V50.4z"/>
		</g>
	</g>
	<g>
		<g>
			<path class="st2" d="M99.4,41.6c0,2.8-0.7,4.9-2.1,6.6c-1.4,1.6-3.3,2.4-5.6,2.4c-2.4,0-4.3-0.8-5.7-2.4c-1.4-1.6-2-3.9-2-6.8
				c0-2.9,0.7-5.2,2.1-6.8s3.3-2.5,5.7-2.5c2.4,0,4.3,0.8,5.7,2.5C98.7,36.3,99.4,38.6,99.4,41.6z M91.6,47.1c1.1,0,2-0.5,2.5-1.4
				c0.6-1,0.8-2.4,0.8-4.3c0-2-0.3-3.4-0.8-4.4c-0.6-1-1.4-1.4-2.5-1.4s-2,0.5-2.5,1.4c-0.6,1-0.8,2.4-0.8,4.4s0.3,3.4,0.8,4.4
				C89.7,46.7,90.5,47.1,91.6,47.1z"/>
		</g>
	</g>
	<g>
		<g>
			<path class="st2" d="M102.1,50.4v-18h4.4L111,42c0.1,0.3,0.3,0.8,0.6,1.4c0.2,0.6,0.5,1.4,0.8,2.3c-0.2-1.3-0.4-2.4-0.5-3.5
				s-0.2-2.1-0.2-3v-6.9h4.1v18h-4.1l-4.8-10.1c-0.1-0.1-0.3-0.8-0.6-1.8c-0.2-0.5-0.3-0.9-0.4-1.2c0.1,0.7,0.2,1.5,0.2,2.4
				s0.1,1.9,0.1,3.1v7.6h-4.1V50.4z"/>
		</g>
	</g>
</g>
</svg>
