<?xml version="1.0" encoding="utf-8"?>
<!-- Generator: Adobe Illustrator 21.0.0, SVG Export Plug-In . SVG Version: 6.00 Build 0)  -->
<svg version="1.1" id="Layer_1" xmlns="http://www.w3.org/2000/svg" xmlns:xlink="http://www.w3.org/1999/xlink" x="0px" y="0px"
	 viewBox="0 0 127 78.8" style="enable-background:new 0 0 127 78.8;" xml:space="preserve">
<style type="text/css">
	.st0{fill:#0C67C1;}
</style>
<rect x="3" y="10.3" width="119.3" height="48"/>
<g>
	<g>
		<g>
			<g>
				<g>
					<g>
						<path class="st0" d="M38.1,44.4v-18h4.3c2.9,0,4.9,0.4,6.1,1.1c1.2,0.7,1.8,2,1.8,3.7c0,1-0.2,1.8-0.7,2.4s-1.2,1.1-2.1,1.5
							c1.1,0.3,1.9,0.8,2.4,1.5s0.8,1.6,0.8,2.7c0,0.8-0.2,1.6-0.5,2.2c-0.3,0.7-0.8,1.2-1.5,1.7s-1.4,0.8-2.3,1
							c-0.9,0.2-2.3,0.3-4.2,0.3h-4.1V44.4z M42.3,33.8h0.5c1.1,0,2-0.2,2.5-0.5c0.5-0.4,0.8-0.9,0.8-1.7s-0.3-1.4-0.8-1.8
							s-1.4-0.6-2.5-0.6h-0.4L42.3,33.8L42.3,33.8z M42.3,41.1c0.1,0,0.2,0,0.3,0s0.2,0,0.3,0c1.1,0,1.9-0.2,2.5-0.6
							c0.5-0.4,0.8-1,0.8-1.8c0-0.9-0.3-1.5-0.8-1.8c-0.5-0.4-1.4-0.6-2.5-0.6h-0.5L42.3,41.1L42.3,41.1z"/>
					</g>
				</g>
			</g>
		</g>
		<g>
			<g>
				<g>
					<path class="st0" d="M51.3,44.4l5.1-18H61l4.9,18h-4.4l-0.7-3.2h-4.4l-0.7,3.2H51.3z M57.2,38.4h2.9c-0.3-1.3-0.6-2.6-0.8-4
						s-0.5-2.8-0.6-4.4c-0.2,1.3-0.5,2.7-0.7,4.1C57.7,35.6,57.4,37,57.2,38.4z"/>
				</g>
			</g>
		</g>
		<g>
			<g>
				<g>
					<path class="st0" d="M67.5,44.4v-18h4.3V33h4.9v-6.7h4.4v18h-4.4v-7.8h-4.9v7.8h-4.3V44.4z"/>
				</g>
			</g>
		</g>
		<g>
			<g>
				<g>
					<path class="st0" d="M99.4,35.6c0,2.8-0.7,4.9-2.1,6.6c-1.4,1.6-3.3,2.4-5.6,2.4c-2.4,0-4.3-0.8-5.7-2.4c-1.4-1.6-2-3.9-2-6.8
						c0-2.9,0.7-5.2,2.1-6.8s3.3-2.5,5.7-2.5c2.4,0,4.3,0.8,5.7,2.5C98.7,30.3,99.4,32.6,99.4,35.6z M91.6,41.1c1.1,0,2-0.5,2.5-1.4
						c0.6-1,0.8-2.4,0.8-4.3c0-2-0.3-3.4-0.8-4.4c-0.6-1-1.4-1.4-2.5-1.4s-2,0.5-2.5,1.4c-0.6,1-0.8,2.4-0.8,4.4s0.3,3.4,0.8,4.4
						C89.7,40.7,90.5,41.1,91.6,41.1z"/>
				</g>
			</g>
		</g>
		<g>
			<g>
				<g>
					<path class="st0" d="M102.1,44.4v-18h4.4L111,36c0.1,0.3,0.3,0.8,0.6,1.4c0.2,0.6,0.5,1.4,0.8,2.3c-0.2-1.3-0.4-2.4-0.5-3.5
						s-0.2-2.1-0.2-3v-6.9h4.1v18h-4.1l-4.8-10.1c-0.1-0.1-0.3-0.8-0.6-1.8c-0.2-0.5-0.3-0.9-0.4-1.2c0.1,0.7,0.2,1.5,0.2,2.4
						s0.1,1.9,0.1,3.1v7.6L102.1,44.4L102.1,44.4z"/>
				</g>
			</g>
		</g>
	</g>
</g>
<g>
	<path class="st0" d="M20.4,40.8L20.4,40.8L20.4,40.8L20.4,40.8z"/>
</g>
<g>
	<path class="st0" d="M31.8,28.1c-0.1,0.9-0.6,1.5-1.5,1.6c-0.2,0-0.3,0-0.4-0.2l0,0c0.1,0.2,0.2,0.2,0.4,0.2
		C31.2,29.6,31.7,29,31.8,28.1c0.1-0.5,0.1-1.1,0-1.7C31.9,27,31.9,27.5,31.8,28.1z"/>
</g>
<g>
	<path class="st0" d="M15.4,40.8L15.4,40.8L15.4,40.8z"/>
</g>
<g>
	<path class="st0" d="M12.7,39.8c0,0.1,0,0.2-0.1,0.2C12.7,40,12.7,39.9,12.7,39.8z"/>
</g>
<g>
	<path class="st0" d="M27.4,43L27.4,43L27.4,43L27.4,43L27.4,43L27.4,43L27.4,43L27.4,43z"/>
</g>
<g>
	<path class="st0" d="M20.5,40.7L20.5,40.7L20.5,40.7L20.5,40.7L20.5,40.7L20.5,40.7L20.5,40.7L20.5,40.7L20.5,40.7L20.5,40.7z"/>
</g>
<g>
	<path class="st0" d="M5.8,25.3L5.8,25.3L5.8,25.3L5.8,25.3L5.8,25.3c0,0.1,0,0.2,0,0.3C5.8,25.5,5.8,25.4,5.8,25.3L5.8,25.3
		C5.8,25.3,5.9,25.3,5.8,25.3C5.9,25.2,5.9,25.2,5.8,25.3C5.9,25.2,5.9,25.2,5.8,25.3C5.9,25.2,5.8,25.2,5.8,25.3z"/>
</g>
<g>
	<path class="st0" d="M21.4,37L21.4,37L21.4,37L21.4,37z"/>
</g>
<g>
	<path class="st0" d="M12.5,39.4c-0.1-0.1-0.2-0.2-0.3-0.3C12.4,39.2,12.5,39.3,12.5,39.4z"/>
</g>
<g>
	<path class="st0" d="M14.4,40c0-0.1-0.1-0.2-0.1-0.2C14.3,39.8,14.4,39.9,14.4,40z"/>
</g>
<g>
	<path class="st0" d="M20.8,41.2L20.8,41.2L20.8,41.2L20.8,41.2z"/>
</g>
<g>
	<path class="st0" d="M14.7,40.6c-0.1-0.1-0.1-0.2-0.2-0.3C14.6,40.4,14.7,40.5,14.7,40.6c0,0,0,0.1,0.1,0.1l0,0
		C14.8,40.7,14.8,40.7,14.7,40.6z"/>
</g>
<g>
	<path class="st0" d="M10.3,38.1c-0.3,0-0.6,0.3-0.5,0.6l0,0l0,0C9.8,38.3,10,38.1,10.3,38.1z"/>
</g>
<g>
	<path class="st0" d="M29.9,24.9c-0.3-0.2-0.6-0.3-0.9-0.4c-0.4-0.1-0.7-0.1-1.1-0.1c-0.1,0-0.2,0.1-0.2,0.2c0,0.2,0,0.4,0,0.6
		c0,3.2,0,6.4,0,9.6c0,0.1,0,0.1,0,0.2c0,0.1,0,0.2-0.2,0.2s-0.5,0-0.7,0c-4.8,0-9.7,0-14.6,0c-1.3,0-2.6,0-3.8,0
		c-0.2,0-0.2,0-0.3-0.1c0,0.1,0.1,0.1,0.3,0.1c1.3,0,2.6,0,3.8,0c4.8,0,9.7,0,14.6,0c0.2,0,0.5,0,0.7,0c0.1,0,0.2,0,0.2-0.2
		c0-0.1,0-0.1,0-0.2c0-3.2,0-6.4,0-9.6c0-0.2,0-0.4,0-0.6c0-0.1,0.1-0.2,0.2-0.2c0.4,0,0.7,0,1.1,0.1C29.3,24.7,29.6,24.8,29.9,24.9
		C30,25,30,25,30.1,25C30,25,29.9,25,29.9,24.9z"/>
</g>
<g>
	<path class="st0" d="M20.8,41.2L20.8,41.2L20.8,41.2L20.8,41.2z"/>
</g>
<g>
	<path class="st0" d="M21.3,39.4c0.2,0.1,0.3,0.2,0.3,0.4C21.6,39.6,21.5,39.4,21.3,39.4z"/>
</g>
<g>
	<path class="st0" d="M18,21.1c-0.4,0-0.7,0-1.1,0C17.2,21.1,17.6,21.1,18,21.1L18,21.1z"/>
</g>
<g>
	<path class="st0" d="M21.5,21.3c0,0.2,0,0.4,0,0.5S21.4,22,21.3,22c0.1,0,0.2-0.1,0.2-0.2C21.5,21.6,21.5,21.5,21.5,21.3
		c0-0.1,0-0.2-0.1-0.2C21.4,21.1,21.5,21.2,21.5,21.3z"/>
</g>
<g>
	<path class="st0" d="M7.8,24.5c-0.4,0-0.8,0-1.2,0.2c0,0,0,0-0.1,0H6.4l0,0l0,0c0,0,0,0-0.1,0l0,0l0,0H6.2l0,0l0,0l0,0l0,0l0,0
		C6,25,6,25,6,25l0,0l0,0l0,0l0,0l0,0l0,0l0,0l0,0l0,0l0,0l0,0l0,0l0,0l0,0c0.1,0,0.2,0,0.3-0.2l0,0c0.1,0,0.2,0,0.2-0.1
		c0,0,0,0,0.1,0C7,24.6,7.4,24.6,7.8,24.5c0.2,0,0.3,0,0.4,0.1C8.2,24.5,8.1,24.5,7.8,24.5z M6,25L6,25C6.1,25,6.1,25,6,25
		C6.1,24.9,6.1,24.9,6,25L6,25l0.2-0.1L6,25l0.2-0.1l0,0C6.2,25,6.1,25,6,25z M6.3,24.8C6.3,24.8,6.4,24.8,6.3,24.8
		C6.4,24.7,6.4,24.7,6.3,24.8L6.3,24.8l0.2-0.1C6.5,24.8,6.4,24.9,6.3,24.8z"/>
</g>
<g>
	<path class="st0" d="M27,43.4C27,43.4,27.1,43.4,27,43.4L27,43.4C27.1,43.4,27,43.4,27,43.4z"/>
</g>
<g>
	<path class="st0" d="M10.6,38.1c0.6,0.3,1.1,0.6,1.6,1C11.8,38.7,11.2,38.4,10.6,38.1z"/>
</g>
<g>
	<path class="st0" d="M10.4,38.1c0.1,0,0.1,0,0.2,0.1C10.6,38.1,10.5,38.1,10.4,38.1z"/>
</g>
<g>
	<path class="st0" d="M4.8,24.8c-0.1,0.2-0.1,0.4-0.1,0.6c0,0.1,0,0.1,0,0.1s0-0.1,0-0.2C4.7,25.2,4.7,25,4.8,24.8z"/>
</g>
<g>
	<path class="st0" d="M6,25.8L6,25.8L6,25.8L6,25.8L6,25.8L6,25.8L6,25.8C6,25.7,6,25.7,6,25.8L6,25.8z"/>
</g>
<g>
	<path class="st0" d="M26,37L26,37L26,37L26,37L26,37z"/>
</g>
<g>
	<path class="st0" d="M27.6,37C27.6,36.9,27.6,36.9,27.6,37C27.6,36.9,27.6,36.9,27.6,37L27.6,37L27.6,37z"/>
</g>
<g>
	<path class="st0" d="M5.3,31.5L5.3,31.5L5.3,31.5L5.3,31.5L5.3,31.5L5.3,31.5L5.3,31.5L5.3,31.5z"/>
</g>
<g>
	<path class="st0" d="M20.4,40.8L20.4,40.8L20.4,40.8L20.4,40.8z"/>
</g>
<g>
	<path class="st0" d="M20.4,40.8L20.4,40.8C20.5,40.8,20.5,40.8,20.4,40.8C20.5,40.8,20.4,40.8,20.4,40.8z"/>
</g>
<g>
	<path class="st0" d="M27,43.4L27,43.4L27,43.4L27,43.4L27,43.4z"/>
</g>
<g>
	<path class="st0" d="M27,43.4L27,43.4L27,43.4L27,43.4z"/>
</g>
<g>
	<path class="st0" d="M6,29.6L6,29.6C5.9,29.6,5.9,29.6,6,29.6C5.9,29.7,5.9,29.7,6,29.6L6,29.6L6,29.6L6,29.6L6,29.6L6,29.6z"/>
</g>
<g>
	<path class="st0" d="M10.4,44.2c-0.1,0-0.1,0-0.2,0C10.2,44.2,10.3,44.2,10.4,44.2z"/>
</g>
<g>
	<path class="st0" d="M20.6,40.6L20.6,40.6L20.6,40.6L20.6,40.6z"/>
</g>
<g>
	<path class="st0" d="M6.1,24.9L6.1,24.9L6.1,24.9L6.1,24.9z"/>
</g>
<g>
	<path class="st0" d="M6,25.8L6,25.8L6,25.8L6,25.8z"/>
</g>
<g>
	<path class="st0" d="M15.5,40.8L15.5,40.8L15.5,40.8z"/>
</g>
<g>
	<path class="st0" d="M14.8,40.7L14.8,40.7C14.8,40.8,14.8,40.8,14.8,40.7C14.8,40.8,14.8,40.7,14.8,40.7z"/>
</g>
<g>
	<path class="st0" d="M15.2,41.3C15.1,41.3,15.1,41.2,15.2,41.3L15.2,41.3C15.1,41.2,15.1,41.3,15.2,41.3z"/>
</g>
<g>
	<path class="st0" d="M20.8,41.2L20.8,41.2L20.8,41.2z"/>
</g>
<g>
	<path class="st0" d="M23,43.6c0.1,0,0.2,0,0.3,0C23.2,43.6,23.1,43.6,23,43.6z"/>
</g>
<g>
	<path class="st0" d="M27.4,43L27.4,43L27.4,43z"/>
</g>
<g>
	<path class="st0" d="M6,25.8L6,25.8L6,25.8L6,25.8z"/>
</g>
<g>
	<path class="st0" d="M5.9,25.2L5.9,25.2L5.9,25.2L5.9,25.2z"/>
</g>
<g>
	<path class="st0" d="M5.9,29.7L5.9,29.7L5.9,29.7L5.9,29.7z"/>
</g>
<g>
	<path class="st0" d="M8.2,24.9c0-0.2,0-0.3,0-0.3C8.2,24.7,8.2,24.8,8.2,24.9c0,3.3,0,6.7,0,10c0,0.1,0,0.2,0,0.3c0,0,0-0.1,0-0.2
		C8.2,31.6,8.2,28.3,8.2,24.9z"/>
</g>
<g>
	<path class="st0" d="M6.1,24.9C6.1,24.9,6.1,25,6.1,24.9C6.1,25,6.1,24.9,6.1,24.9z"/>
</g>
<g>
	<path class="st0" d="M5.9,29.7L5.9,29.7L5.9,29.7z"/>
</g>
<g>
	<path class="st0" d="M5.9,25.1L5.9,25.1L5.9,25.1L5.9,25.1L5.9,25.1z"/>
</g>
<g>
	<path class="st0" d="M5.9,25.2C5.8,25.2,5.8,25.2,5.9,25.2C5.8,25.2,5.8,25.2,5.9,25.2z"/>
</g>
<g>
	<path class="st0" d="M21.4,37L21.4,37L21.4,37L21.4,37L21.4,37L21.4,37z"/>
</g>
<g>
	<path class="st0" d="M27.7,37L27.7,37L27.7,37L27.7,37z"/>
</g>
<g>
	<path class="st0" d="M22,37c0.1,0.1,0.1,0,0.2,0c1.2,0,2.4,0,3.5,0c0.1,0,0.1,0,0.2,0h-0.1c-1.2,0-2.4,0-3.5,0
		C22.2,37,22.1,37,22,37C22.1,37,22,37,22,37L22,37L22,37z"/>
</g>
<g>
	<path class="st0" d="M26.1,37L26.1,37L26.1,37L26.1,37z"/>
</g>
<g>
	<path class="st0" d="M11.6,37c0.1,0,0.2,0,0.3,0l0,0l0,0H12h-0.1C11.9,37,11.7,37,11.6,37c-1,0-2,0-3.1,0c-0.1,0-0.2,0-0.3,0l0,0
		c0.1,0,0.2,0,0.3,0C9.5,37,10.6,37,11.6,37z"/>
</g>
<g>
	<path class="st0" d="M27.7,37L27.7,37L27.7,37L27.7,37L27.7,37c0,1.5,0,3,0,4.5c0,0.1,0,0.1,0,0.2c0,0.1,0,0.2,0,0.2
		c0-0.1,0-0.2,0-0.3c0,0,0-0.1,0-0.2C27.7,40,27.7,38.5,27.7,37L27.7,37L27.7,37z"/>
</g>
<g>
	<path class="st0" d="M9.6,43.6L9.6,43.6L9.6,43.6L9.6,43.6z"/>
</g>
<g>
	<path class="st0" d="M26.3,37L26.3,37C26.4,37,26.4,37,26.3,37C26.4,37,26.4,37,26.3,37c0.4,0.1,0.8,0,1.2,0l0,0
		C27.1,37,26.7,37,26.3,37L26.3,37L26.3,37L26.3,37z"/>
</g>
<g>
	<path class="st0" d="M27.7,37L27.7,37c-0.1,0-0.1,0-0.2,0l0,0l0,0l0,0l0,0C27.6,37,27.6,37,27.7,37z"/>
</g>
<g>
	<path class="st0" d="M14.9,40.9c0-0.1-0.1-0.1-0.1-0.2l0,0c0.1,0.1,0.1,0.2,0.2,0.4C15,41.1,15,41,14.9,40.9L14.9,40.9z"/>
</g>
<g>
	<path class="st0" d="M13.4,45.4c0-0.3,0-0.7,0-1C13.4,44.7,13.4,45,13.4,45.4z"/>
</g>
<g>
	<path class="st0" d="M10.1,44.3c0,0.5,0,1,0,1.5v0.1v-0.1C10,45.3,10,44.8,10.1,44.3z"/>
</g>
<g>
	<g>
		<g>
			<g>
				<path class="st0" d="M12.9,44.3c-1,0-1.9,0-2.9,0c0,0,0,1.8,0,1.9c0.2,0.6,0.8,0.7,1.3,0.7s1.3,0.1,1.7-0.4
					c0.3-0.4,0.2-0.9,0.2-1.3c0-0.1,0-0.9,0-0.9C13.3,44.3,13.1,44.3,12.9,44.3z"/>
			</g>
		</g>
	</g>
</g>
<g>
	<g>
		<g>
			<g>
				<path class="st0" d="M25.9,45.7c0.1-0.4,0-0.9,0-1.4c0,0-2.9,0-3.2,0c-0.2,0-0.2,0-0.2,0.2c0,0.4,0,0.8,0,1.2
					c0,1.1,1.3,1.2,2.1,1.1c0.5-0.1,0.9-0.4,1.1-0.8C25.8,45.9,25.9,45.8,25.9,45.7z"/>
			</g>
		</g>
	</g>
</g>
<g>
	<path class="st0" d="M5.3,31.5L5.3,31.5L5.3,31.5L5.3,31.5L5.3,31.5L5.3,31.5z"/>
</g>
<g>
	<path class="st0" d="M5.3,31.5L5.3,31.5L5.3,31.5L5.3,31.5L5.3,31.5L5.3,31.5z"/>
</g>
<g>
	<path class="st0" d="M6,25.7C6,25.7,6,25.6,6,25.7L6,25.7C5.9,25.5,5.9,25.6,6,25.7C6,25.6,6,25.6,6,25.7z"/>
</g>
<g>
	<path class="st0" d="M5.9,25.7C6,25.7,6,25.7,5.9,25.7L5.9,25.7L5.9,25.7C6,25.8,6,25.8,5.9,25.7C6,25.8,6,25.7,5.9,25.7
		C5.9,25.6,5.9,25.6,5.9,25.7c0-0.1,0-0.1,0-0.2s-0.1-0.1-0.1-0.2C5.7,25.6,5.7,25.6,5.9,25.7z"/>
</g>
<g>
	<path class="st0" d="M6,25.8L6,25.8L6,25.8L6,25.8z"/>
</g>
<g>
	<path class="st0" d="M6,25.8L6,25.8L6,25.8L6,25.8L6,25.8L6,25.8z"/>
</g>
<g>
	<path class="st0" d="M6,25.8L6,25.8C6,25.7,6,25.7,6,25.8c-0.2-0.2-0.3-0.2-0.2-0.4l0,0C5.7,25.6,5.7,25.6,6,25.8
		C5.9,25.7,6,25.7,6,25.8L6,25.8L6,25.8L6,25.8L6,25.8z"/>
</g>
<g>
	<path class="st0" d="M6.1,24.9L6.1,24.9L6.1,24.9C6.1,25,6.1,25,6.1,24.9C6,25,6,25,6.1,24.9c0,0.1,0.1,0.1,0.2-0.1l0,0
		C6.2,24.9,6.2,24.9,6.1,24.9z"/>
</g>
<g>
	<path class="st0" d="M6.1,24.9L6.1,24.9L6.1,24.9z"/>
</g>
<g>
	<path class="st0" d="M6.1,24.9L6.1,24.9L6.1,24.9z"/>
</g>
<g>
	<path class="st0" d="M6.4,24.8L6.4,24.8C6.3,24.8,6.3,24.9,6.4,24.8C6.4,24.9,6.5,24.9,6.4,24.8C6.5,24.7,6.5,24.7,6.4,24.8
		L6.4,24.8z"/>
</g>
<g>
	<path class="st0" d="M6.4,24.8L6.4,24.8L6.4,24.8z"/>
</g>
<g>
	<path class="st0" d="M6,25.1L6,25.1L6,25.1L6,25.1L6,25.1L6,25.1L6,25.1z"/>
</g>
<g>
	<path class="st0" d="M5.9,25.1L5.9,25.1L5.9,25.1L5.9,25.1L5.9,25.1L5.9,25.1z"/>
</g>
<g>
	<path class="st0" d="M5.9,25.1L5.9,25.1L5.9,25.1z"/>
</g>
<g>
	<path class="st0" d="M5.9,25.2C5.8,25.2,5.8,25.2,5.9,25.2C5.8,25.3,5.8,25.3,5.9,25.2C5.8,25.3,5.8,25.3,5.9,25.2
		C5.8,25.2,5.8,25.2,5.9,25.2L5.9,25.2z"/>
</g>
<g>
	<path class="st0" d="M5.9,29.7L5.9,29.7L5.9,29.7L5.9,29.7L5.9,29.7z"/>
</g>
<g>
	<path class="st0" d="M5.9,29.7L5.9,29.7L5.9,29.7z"/>
</g>
<g>
	<path class="st0" d="M6,29.6L6,29.6L6,29.6z"/>
</g>
<g>
	<path class="st0" d="M6,29.6L6,29.6C5.9,29.6,5.9,29.6,6,29.6L6,29.6z"/>
</g>
<g>
	<path class="st0" d="M6,29.6L6,29.6L6,29.6z"/>
</g>
<g>
	<path class="st0" d="M6.1,25.9L6.1,25.9C6.1,25.9,6.1,25.8,6.1,25.9C6,25.8,6,25.8,6.1,25.9C6.1,25.8,6.1,25.9,6.1,25.9z"/>
</g>
<g>
	<path class="st0" d="M6,25.8L6,25.8L6,25.8L6,25.8L6,25.8z"/>
</g>
<g>
	<path class="st0" d="M6.1,25.9L6.1,25.9L6.1,25.9L6.1,25.9L6.1,25.9L6.1,25.9z"/>
</g>
<g>
	<path class="st0" d="M6.1,25.9L6.1,25.9L6.1,25.9L6.1,25.9z"/>
</g>
<g>
	<path class="st0" d="M6,25.8L6,25.8L6,25.8L6,25.8L6,25.8z"/>
</g>
<g>
	<path class="st0" d="M6.1,25.9L6.1,25.9C6.1,25.9,6.1,25.8,6.1,25.9L6.1,25.9C6.1,25.8,6.1,25.9,6.1,25.9z"/>
</g>
<g>
	<path class="st0" d="M6,25.8L6,25.8L6,25.8C6,25.8,6.1,25.8,6,25.8C6.1,25.8,6.1,25.8,6,25.8L6,25.8L6,25.8L6,25.8z"/>
</g>
<g>
	<path class="st0" d="M6.1,25.9L6.1,25.9L6.1,25.9L6.1,25.9z"/>
</g>
<g>
	<path class="st0" d="M6.1,25.9C6.1,25.9,6,25.8,6.1,25.9L6.1,25.9L6.1,25.9L6.1,25.9z"/>
</g>
<g>
	<path class="st0" d="M6,25.8L6,25.8L6,25.8L6,25.8z"/>
</g>
<g>
	<path class="st0" d="M6.1,25.8L6.1,25.8C6.1,25.8,6,25.8,6.1,25.8L6.1,25.8L6.1,25.8C6.1,25.9,6.1,25.8,6.1,25.8z"/>
</g>
<g>
	<path class="st0" d="M6.1,25.9L6.1,25.9L6.1,25.9L6.1,25.9z"/>
</g>
<g>
	<path class="st0" d="M6.1,25.9L6.1,25.9L6.1,25.9L6.1,25.9L6.1,25.9z"/>
</g>
<g>
	<path class="st0" d="M6.1,25.9L6.1,25.9L6.1,25.9L6.1,25.9L6.1,25.9z"/>
</g>
<g>
	<path class="st0" d="M6.1,25.9L6.1,25.9C6.1,25.9,6,25.8,6.1,25.9C6,25.8,6,25.8,6.1,25.9L6.1,25.9z"/>
</g>
<g>
	<path class="st0" d="M6,25.8L6,25.8L6,25.8z"/>
</g>
<g>
	<path class="st0" d="M15.1,41.2L15.1,41.2L15.1,41.2L15.1,41.2z"/>
</g>
<g>
	<path class="st0" d="M15.1,41.2L15,41.1C15.1,41.1,15.1,41.2,15.1,41.2L15.1,41.2L15.1,41.2z"/>
</g>
<g>
	<path class="st0" d="M21.2,39.4L21.2,39.4L21.2,39.4z"/>
</g>
<g>
	<path class="st0" d="M20.9,40.8C20.9,40.8,20.9,40.7,20.9,40.8C20.9,40.7,20.9,40.8,20.9,40.8z"/>
</g>
<g>
	<path class="st0" d="M15.1,41.2C15,41.1,15,41,14.9,40.9C14.9,41,15,41,15.1,41.2C15.1,41.1,15.1,41.2,15.1,41.2z"/>
</g>
<g>
	<path class="st0" d="M14.9,40.9c-0.1-0.1-0.1-0.2-0.2-0.3c0,0,0,0.1,0.1,0.1l0,0C14.8,40.8,14.9,40.9,14.9,40.9z"/>
</g>
<g>
	<path class="st0" d="M14.9,40.9L14.9,40.9L14.9,40.9z"/>
</g>
<g>
	<path class="st0" d="M15.1,41.2L15.1,41.2L15.1,41.2L15.1,41.2z"/>
</g>
<g>
	<path class="st0" d="M18.5,39.4c-0.4,0-0.9,0-1.3,0C17.6,39.4,18.1,39.4,18.5,39.4z"/>
</g>
<g>
	<path class="st0" d="M19.8,39.4c-0.4,0-0.9,0-1.3,0C18.9,39.4,19.4,39.4,19.8,39.4z"/>
</g>
<g>
	<path class="st0" d="M14.8,39.4c0.4,0,0.7,0,1.1,0C15.5,39.4,15.1,39.4,14.8,39.4z"/>
</g>
<g>
	<path class="st0" d="M21.2,39.4C21.2,39.4,21.1,39.4,21.2,39.4c-0.5,0-0.9,0-1.4,0C20.2,39.4,20.7,39.4,21.2,39.4
		C21.1,39.4,21.2,39.4,21.2,39.4z"/>
</g>
<g>
	<path class="st0" d="M15,41.1l0.1,0.1C15.1,41.2,15.1,41.1,15,41.1L15,41.1z"/>
</g>
<g>
	<path class="st0" d="M14.9,40.9L14.9,40.9c0,0.1,0.1,0.1,0.1,0.2l0,0C15,41.1,15,41,14.9,40.9z"/>
</g>
<g>
	<path class="st0" d="M14.9,40.9L14.9,40.9c0-0.1-0.1-0.1-0.1-0.2C14.8,40.8,14.9,40.9,14.9,40.9z"/>
</g>
<g>
	<path class="st0" d="M14.9,40.9L14.9,40.9L14.9,40.9L14.9,40.9L14.9,40.9z"/>
</g>
<g>
	<g>
		<g>
			<g>
				<g>
					<g>
						<path class="st0" d="M27.8,41.7c0.1-0.6,0-1.2,0-1.8c0-1-0.2-1.9-0.1-2.9c0-0.1-2.4,0-2.6,0c-0.9,0-1.8,0-2.7,0
							c-0.2,0-0.5,0-0.7,0s-0.5,0-0.7,0c-2.6,0-5.1,0-7.7,0c-0.4,0-5,0-5,0c0,0.6,0,1.2,0,1.8c0,1,0,2.1,0,3.1
							c0,0.5,0.4,1.2,0.9,1.4c0.2,0.1,0.4,0.1,0.6,0.1c3.9,0.2,7.8,0,11.6,0c1.5,0,2.9,0,4.4,0c0.4,0,0.9,0.1,1.2-0.1
							C27.5,42.9,27.7,42.2,27.8,41.7z M12.6,40c-0.1,0.2-0.3,0.3-0.5,0.3c-0.3,0-0.6-0.2-0.9-0.3c-0.3-0.1-0.6-0.3-0.9-0.5
							c-0.3-0.2-0.5-0.6-0.5-0.9c0.1-1,1.3-0.2,1.7,0.1c0.3,0.2,0.7,0.4,0.9,0.7C12.4,39.5,12.6,39.8,12.6,40
							C12.6,39.9,12.6,40,12.6,40z M21.5,40.1c0,0.1,0,0.1-0.1,0.2c-0.1,0.2-0.2,0.4-0.3,0.6c-0.1,0.2-0.3,0.4-0.5,0.5
							c-0.3,0.1-0.7,0.1-1,0c-0.3,0-0.6,0-1-0.1c-0.4,0-0.7,0-1.1,0c-0.3,0-0.6,0-1,0c-0.3,0-0.7,0.1-1,0c-0.4-0.1-0.5-0.4-0.7-0.7
							c-0.1-0.1-0.1-0.3-0.2-0.4c-0.1-0.2-0.2-0.3-0.2-0.5c0-0.3,0.2-0.3,0.5-0.3c0.6,0,1.3,0,1.9,0s1.3,0,1.9,0c0.1,0,0.3,0,0.4,0
							c0.4,0,0.9,0,1.3,0c0.2,0,0.4,0,0.7,0c0.2,0,0.3,0.1,0.4,0.2C21.5,39.8,21.5,39.9,21.5,40.1z M26.1,38.7c0,0.1,0,0.1,0,0.2
							c-0.1,0.2-0.2,0.3-0.3,0.4c-0.4,0.4-2.1,1.5-2.6,0.8c-0.4-0.5,0.3-1,0.6-1.3c0.4-0.3,0.9-0.6,1.4-0.8
							C25.6,37.9,26.1,38.2,26.1,38.7z"/>
					</g>
				</g>
			</g>
		</g>
	</g>
</g>
<g>
	<path class="st0" d="M10.3,38.1h0.1C10.4,38.1,10.3,38.1,10.3,38.1z"/>
</g>
<g>
	<path class="st0" d="M9.8,38.7c0,0.3,0.2,0.5,0.4,0.7C10,39.2,9.8,39,9.8,38.7z"/>
</g>
<g>
	<path class="st0" d="M12.1,40.3c0.2,0,0.4-0.1,0.5-0.3C12.5,40.3,12.3,40.3,12.1,40.3z"/>
</g>
<g>
	<path class="st0" d="M11.8,40.3c-0.2-0.1-0.4-0.2-0.5-0.2C11.4,40.1,11.6,40.2,11.8,40.3z"/>
</g>
<g>
	<path class="st0" d="M20.7,41.2C20.7,41.3,20.7,41.3,20.7,41.2C20.7,41.3,20.7,41.3,20.7,41.2C20.8,41.2,20.8,41.2,20.7,41.2
		L20.7,41.2C20.8,41.2,20.8,41.2,20.7,41.2z"/>
</g>
<g>
	<path class="st0" d="M15.1,41.2L15.1,41.2C15.2,41.2,15.2,41.2,15.1,41.2C15.2,41.2,15.2,41.2,15.1,41.2L15.1,41.2L15.1,41.2
		L15.1,41.2L15.1,41.2L15.1,41.2L15.1,41.2z"/>
</g>
<g>
	<path class="st0" d="M15.2,41.3L15.2,41.3L15.2,41.3z"/>
</g>
<g>
	<path class="st0" d="M20,37L20,37L20,37c-2,0-4,0-5.9,0l0,0C16,37,18,37,20,37z"/>
</g>
<g>
	<g>
		<path class="st0" d="M14.3,37c1.8,0,3.7,0,5.5,0c0.1,0,0.2,0,0.2,0l0,0c-2,0-4,0-5.9,0C14.1,37,14.2,37,14.3,37z"/>
	</g>
</g>
<g>
	<path class="st0" d="M14,37L14,37L14,37L14,37L14,37z"/>
</g>
<g>
	<path class="st0" d="M20,37L20,37L20,37L20,37L20,37z"/>
</g>
<g>
	<path class="st0" d="M26,43.7L26,43.7c0.1,0,0.2,0,0.2-0.1l0,0l0,0C26.2,43.7,26.1,43.7,26,43.7z"/>
</g>
<g>
	<path class="st0" d="M25.6,43.6L25.6,43.6c-0.2,0-0.4,0-0.6,0c0.1,0,0.2,0,0.3,0C25.4,43.6,25.5,43.6,25.6,43.6z"/>
</g>
<g>
	<path class="st0" d="M25.2,43.6c-0.1,0-0.2,0-0.3,0l0,0C25,43.6,25.1,43.6,25.2,43.6z"/>
</g>
<g>
	<path class="st0" d="M25.6,43.6c-0.1,0-0.2,0-0.3,0C25.4,43.6,25.5,43.6,25.6,43.6z"/>
</g>
<g>
	<path class="st0" d="M11,43.7L11,43.7L11,43.7L11,43.7z"/>
</g>
<g>
	<path class="st0" d="M13.3,37L13.3,37c-0.4,0-0.8,0-1.2,0l0,0C12.4,37,12.9,37,13.3,37z"/>
</g>
<g>
	<path class="st0" d="M13,37h0.1h0.1l0,0c-0.4,0-0.8,0-1.2,0C12.4,37,12.7,37,13,37z"/>
</g>
<g>
	<path class="st0" d="M12,37L12,37L12,37L12,37L12,37z"/>
</g>
<g>
	<path class="st0" d="M13.3,37L13.3,37L13.3,37L13.3,37L13.3,37L13.3,37z"/>
</g>
<g>
	<path class="st0" d="M13.3,37L13.3,37L13.3,37L13.3,37L13.3,37z"/>
</g>
<g>
	<path class="st0" d="M13.3,37L13.3,37L13.3,37L13.3,37z"/>
</g>
<g>
	<path class="st0" d="M13.1,37L13.1,37L13.1,37L13.1,37z"/>
</g>
<g>
	<path class="st0" d="M13.1,37L13.1,37h0.1C13.2,37,13.2,37,13.1,37z"/>
</g>
<g>
	<path class="st0" d="M13.3,37L13.3,37L13.3,37L13.3,37z"/>
</g>
<g>
	<path class="st0" d="M13.3,37L13.3,37L13.3,37L13.3,37L13.3,37L13.3,37z"/>
</g>
<g>
	<path class="st0" d="M22.4,43.7L22.4,43.7c0.4,0.1,0.8,0.1,1.2,0l0,0C23.2,43.8,22.8,43.8,22.4,43.7z"/>
</g>
<g>
	<path class="st0" d="M22.4,43.7L22.4,43.7L22.4,43.7L22.4,43.7z"/>
</g>
<g>
	<path class="st0" d="M23,43.6c-0.2,0-0.4,0-0.6,0l0,0C22.6,43.6,22.8,43.6,23,43.6z"/>
</g>
<g>
	<path class="st0" d="M22,37L22,37c-0.2,0-0.4,0-0.6,0l0,0C21.6,37,21.8,37,22,37z"/>
</g>
<g>
	<path class="st0" d="M22,37c-0.2,0-0.4,0-0.6,0C21.6,37,21.8,37,22,37z"/>
</g>
<g>
	<path class="st0" d="M21.4,37L21.4,37L21.4,37L21.4,37L21.4,37z"/>
</g>
<g>
	<path class="st0" d="M22,37L22,37L22,37L22,37L22,37L22,37z"/>
</g>
<g>
	<path class="st0" d="M9.2,43.6h0.1C9.3,43.6,9.3,43.6,9.2,43.6C9.3,43.6,9.3,43.6,9.2,43.6z"/>
</g>
<g>
	<path class="st0" d="M9.3,43.6C9.3,43.5,9.3,43.5,9.3,43.6c-0.1,0-0.1,0-0.1,0S9.2,43.6,9.3,43.6L9.3,43.6L9.3,43.6L9.3,43.6
		L9.3,43.6z"/>
</g>
<g>
	<path class="st0" d="M26,37L26,37L26,37L26,37L26,37z"/>
</g>
<g>
	<path class="st0" d="M26.3,37L26.3,37L26.3,37c-0.1,0-0.2,0-0.3,0l0,0C26.2,37,26.2,37,26.3,37z"/>
</g>
<g>
	<path class="st0" d="M26,37L26,37L26,37L26,37z"/>
</g>
<g>
	<path class="st0" d="M26.2,37L26.2,37c0.1,0,0.1,0,0.1,0l0,0l0,0c-0.1,0-0.2,0-0.3,0C26.1,37,26.1,37,26.2,37L26.2,37z"/>
</g>
<g>
	<path class="st0" d="M26.1,37L26.1,37L26.1,37L26.1,37L26.1,37z"/>
</g>
<g>
	<path class="st0" d="M26.3,37L26.3,37L26.3,37L26.3,37L26.3,37z"/>
</g>
<g>
	<path class="st0" d="M26.3,37L26.3,37c-0.1,0-0.1,0-0.1,0l0,0h-0.1l0,0l0,0h0.1l0,0l0,0C26.2,37,26.2,37,26.3,37L26.3,37L26.3,37
		L26.3,37L26.3,37z"/>
</g>
<g>
	<path class="st0" d="M26.3,37L26.3,37L26.3,37z"/>
</g>
<g>
	<path class="st0" d="M26.3,37L26.3,37L26.3,37z"/>
</g>
<g>
	<path class="st0" d="M26.4,37L26.4,37L26.4,37L26.4,37z"/>
</g>
<g>
	<path class="st0" d="M26.3,37L26.3,37L26.3,37L26.3,37z"/>
</g>
<g>
	<path class="st0" d="M27.7,37L27.7,37C27.7,37,27.7,36.9,27.7,37C27.7,36.9,27.7,37,27.7,37z"/>
</g>
<g>
	<path class="st0" d="M27.7,37C27.7,37,27.7,36.9,27.7,37c-0.1,0-0.1,0-0.1,0S27.6,37,27.7,37z"/>
</g>
<g>
	<path class="st0" d="M27.7,37L27.7,37L27.7,37L27.7,37L27.7,37z"/>
</g>
<g>
	<path class="st0" d="M27.6,37L27.6,37h0.1l0,0C27.6,37,27.6,37,27.6,37z"/>
</g>
<g>
	<path class="st0" d="M20.8,41.1L20.8,41.1L20.8,41.1L20.8,41.1z"/>
</g>
<g>
	<path class="st0" d="M9.6,43.7C9.6,43.7,9.6,43.6,9.6,43.7C9.6,43.6,9.6,43.6,9.6,43.7C9.6,43.6,9.6,43.6,9.6,43.7
		C9.6,43.6,9.6,43.6,9.6,43.7C9.6,43.6,9.6,43.7,9.6,43.7z"/>
</g>
<g>
	<path class="st0" d="M9.5,43.6L9.5,43.6L9.5,43.6C9.6,43.6,9.6,43.6,9.5,43.6C9.6,43.6,9.6,43.6,9.5,43.6
		C9.6,43.6,9.5,43.6,9.5,43.6z"/>
</g>
<g>
	<path class="st0" d="M9.5,43.6C9.5,43.6,9.6,43.6,9.5,43.6C9.6,43.6,9.5,43.6,9.5,43.6z"/>
</g>
<g>
	<path class="st0" d="M9.6,43.7C9.6,43.6,9.6,43.6,9.6,43.7C9.6,43.6,9.6,43.6,9.6,43.7L9.6,43.7z"/>
</g>
<g>
	<path class="st0" d="M9.6,43.6L9.6,43.6L9.6,43.6z"/>
</g>
<g>
	<path class="st0" d="M9.6,43.6L9.6,43.6L9.6,43.6z"/>
</g>
<g>
	<path class="st0" d="M11.7,43.7L11.7,43.7L11.7,43.7L11.7,43.7L11.7,43.7z"/>
</g>
<g>
	<path class="st0" d="M11.7,43.7C11.6,43.7,11.6,43.7,11.7,43.7C11.6,43.7,11.6,43.7,11.7,43.7C11.6,43.7,11.6,43.7,11.7,43.7
		C11.6,43.7,11.7,43.7,11.7,43.7L11.7,43.7L11.7,43.7C11.7,43.6,11.7,43.6,11.7,43.7C11.7,43.6,11.7,43.6,11.7,43.7z"/>
</g>
<g>
	<path class="st0" d="M11.7,43.6L11.7,43.6L11.7,43.6z"/>
</g>
<g>
	<path class="st0" d="M11.7,43.7L11.7,43.7C11.6,43.7,11.6,43.7,11.7,43.7C11.6,43.7,11.6,43.7,11.7,43.7z"/>
</g>
<g>
	<path class="st0" d="M11.7,43.6L11.7,43.6L11.7,43.6L11.7,43.6z"/>
</g>
<g>
	<path class="st0" d="M27.4,43L27.4,43L27.4,43L27.4,43z"/>
</g>
<g>
	<path class="st0" d="M27.4,43L27.4,43L27.4,43z"/>
</g>
<g>
	<path class="st0" d="M27.1,43.4C27.1,43.3,27.1,43.3,27.1,43.4C27.1,43.3,27.1,43.3,27.1,43.4C27.1,43.3,27.1,43.3,27.1,43.4
		C27.1,43.3,27.1,43.3,27.1,43.4z"/>
</g>
<g>
	<path class="st0" d="M27.1,43.3L27.1,43.3L27.1,43.3L27.1,43.3z"/>
</g>
<g>
	<path class="st0" d="M27,43.4L27,43.4L27,43.4L27,43.4z"/>
</g>
<g>
	<path class="st0" d="M27,43.4L27,43.4L27,43.4L27,43.4z"/>
</g>
<g>
	<path class="st0" d="M27,43.4L27,43.4L27,43.4L27,43.4z"/>
</g>
<g>
	<path class="st0" d="M27,43.4L27,43.4L27,43.4C27,43.4,27.1,43.4,27,43.4L27,43.4z"/>
</g>
<g>
	<path class="st0" d="M27.1,43.4C27,43.4,27,43.4,27.1,43.4C27,43.4,27,43.4,27.1,43.4L27.1,43.4z"/>
</g>
<g>
	<path class="st0" d="M12.6,44.3c0.1,0,0.3,0,0.4,0C12.9,44.3,12.7,44.3,12.6,44.3z"/>
</g>
<g>
	<g>
		<g>
			<g>
				<path class="st0" d="M32.3,26.4c0-0.1,0-0.1,0-0.2c0-0.2-0.1-0.4-0.3-0.5c-0.1-0.1-0.2-0.2-0.2-0.3c0-0.3-0.1-0.5-0.2-0.7
					c-0.3-0.4-0.7-0.7-1.2-0.9c-0.6-0.2-1.2-0.3-1.8-0.3c-0.3,0-0.3,0-0.3-0.3c0-0.4,0-0.8,0-1.2c0-0.9-0.7-2.4-1.4-2.5
					c-0.4-0.2-0.6-0.2-0.9-0.2c-3.4,0-6.7,0-10.1,0c-1.8,0-3.5,0-5.3,0c-0.7,0-1.5,0.7-1.8,1.5c-0.1,0.3-0.2,1-0.1,1.3
					c0,0.4,0,0.8,0,1.2c0,0.1,0,0.1,0,0.1c0,0.1-0.1,0.1-0.1,0.1c-0.1,0-0.2,0-0.4,0c-0.7,0-1.4,0.1-2.1,0.5s-0.8,0.9-0.9,1.6v0.1
					l-0.1,0.1c-0.2,0.1-0.3,0.3-0.3,0.4c-0.1,0.5,0,1,0,1.5s0.1,1,0.4,1.4c0.3,0.5,0.8,0.6,1.3,0.6c0.1-0.4,0.1-0.9,0.1-1.3
					c0-0.8,0-1.5,0-2.3c-0.1,0-0.3,0-0.3-0.1c-0.1-0.2,0-0.5,0.2-0.5c0,0,0,0,0.1,0h0.1c0,0,0,0,0.1,0c0.4-0.1,0.8-0.2,1.2-0.2
					c0.2,0,0.3,0,0.4,0.1c0,0.1,0,0.1,0,0.3c0,3.3,0,6.7,0,10c0,0.1,0,0.2,0,0.2S8.5,36,8.7,36c1.3,0,2.6,0,3.8,0
					c4.9,0,9.7,0,14.6,0c0.2,0,0.5,0,0.7,0c0.1,0,0.2,0,0.2-0.2c0-0.1,0-0.1,0-0.2c0-3.2,0-6.4,0-9.6c0-0.2,0-0.4,0-0.6
					c0-0.1,0.1-0.2,0.2-0.2c0.4,0,0.7,0,1.1,0.1c0.3,0.1,0.6,0.1,0.9,0.4c0.1,0,0.1,0.1,0.2,0.1c0.1,0.1,0.1,0.2,0.1,0.3
					c0,0.1,0,0.2-0.1,0.2C30,26.5,30,26.8,30,27.1c0,0.8,0,1.5,0,2.3c0,0.3,0,0.6,0.2,0.9c0.1,0.2,0.2,0.2,0.4,0.2
					c0.9-0.1,1.4-0.7,1.5-1.6C32.4,27.5,32.4,27,32.3,26.4z M6.5,29.6L6.5,29.6L6.5,29.6C6.4,29.6,6.4,29.6,6.5,29.6z M6.4,29.7
					L6.4,29.7L6.4,29.7L6.4,29.7L6.4,29.7L6.4,29.7L6.4,29.7z M6.4,25.2C6.4,25.1,6.4,25.1,6.4,25.2L6.4,25.2L6.4,25.2
					C6.4,25.1,6.4,25.1,6.4,25.2C6.4,25.1,6.4,25.1,6.4,25.2C6.4,25.1,6.4,25.1,6.4,25.2L6.4,25.2L6.4,25.2
					C6.4,25.1,6.4,25.1,6.4,25.2z M6.6,25C6.6,25,6.6,24.9,6.6,25C6.6,24.9,6.6,25,6.6,25z M14.3,21.1c0-0.3,0.2-0.6,0.5-0.7
					s0.7-0.1,1-0.1c0.4,0,0.7,0,1.1,0c0.7,0,1.5,0,2.2,0c0.1,0,0.1,0,0.2,0c0.9,0,1.7,0,2.6,0c0.1,0,0.3,0,0.4,0
					c0.3,0.1,0.4,0.4,0.4,0.7c0,0.3,0,0.6,0,0.9s-0.2,0.6-0.6,0.6c-0.7,0-1.4,0-2.1,0s-1.5,0-2.2,0h-0.1c-0.1,0-0.2,0-0.2,0
					c-0.9,0-1.7,0-2.6,0c-0.3,0-0.5-0.3-0.5-0.6C14.3,21.7,14.3,21.4,14.3,21.1z M26.4,33.2c-0.2,0.1-0.4,0.1-0.6,0.1
					c-2.5,0-4.9,0-7.4,0s-4.9,0-7.4,0c-0.4,0-0.7-0.1-0.9-0.4c-0.2-0.2-0.3-0.5-0.3-0.8c0-2.2,0-4.4,0-6.6c0-0.5,0.2-0.9,0.6-1.1
					c0.2-0.1,0.4-0.2,0.7-0.2c3.3,0,6.6,0,9.8,0c1.6,0,3.2,0,4.9,0c0.5,0,0.8,0.2,1.1,0.6C27,25,27,25.2,27,25.4c0,1.3,0,2.7,0,4
					c0,0.9,0,1.7,0,2.6C27.1,32.5,26.8,33,26.4,33.2z"/>
			</g>
		</g>
	</g>
</g>
<g>
	<g>
		<path class="st0" d="M15.2,22c0.1,0,0.2,0,0.2,0c1.5,0,2.9,0,4.4,0c0.6,0,1.3,0,1.9,0c0.3,0,0.4-0.3,0.3-0.5c0-0.1,0-0.2,0-0.2
			v-0.1c-0.1-0.1-0.2,0-0.3,0c-1.5,0-2.9,0-4.4,0c-0.7,0-1.3,0-2,0c-0.3,0-0.3,0.4-0.3,0.6c0,0.1,0,0.2,0.1,0.3
			C15.1,22,15.2,22,15.2,22z"/>
	</g>
</g>
<g>
	<path class="st0" d="M14.8,22c-0.1,0-0.1,0-0.2,0C14.7,22,14.8,22,14.8,22z"/>
</g>
<g>
	<path class="st0" d="M15,40L15,40L15,40L15,40L15,40z"/>
</g>
<g>
	<path class="st0" d="M20.5,40.7L20.5,40.7L20.5,40.7z"/>
</g>
<g>
	<g>
		<path class="st0" d="M15.5,40.8c0.8,0,1.6,0,2.3,0C17.1,40.8,16.3,40.8,15.5,40.8z"/>
	</g>
</g>
<g>
	<path class="st0" d="M20.5,40.7L20.5,40.7L20.5,40.7L20.5,40.7z"/>
</g>
<g>
	<path class="st0" d="M20.5,40.7L20.5,40.7C20.6,40.7,20.6,40.7,20.5,40.7L20.5,40.7L20.5,40.7z"/>
</g>
<g>
	<path class="st0" d="M20.5,40.7L20.5,40.7L20.5,40.7z"/>
</g>
<g>
	<path class="st0" d="M15.4,40.8L15.4,40.8L15.4,40.8L15.4,40.8L15.4,40.8C15.5,40.8,15.5,40.8,15.4,40.8
		C15.5,40.8,15.4,40.8,15.4,40.8z"/>
</g>
<g>
	<path class="st0" d="M15.4,40.8C15.4,40.8,15.5,40.8,15.4,40.8C15.5,40.8,15.5,40.8,15.4,40.8C15.5,40.8,15.5,40.8,15.4,40.8
		C15.5,40.8,15.4,40.8,15.4,40.8z"/>
</g>
<g>
	<path class="st0" d="M20.5,40.7L20.5,40.7L20.5,40.7L20.5,40.7L20.5,40.7C20.5,40.8,20.5,40.8,20.5,40.7
		C20.5,40.8,20.5,40.8,20.5,40.7C20.5,40.8,20.5,40.7,20.5,40.7z"/>
</g>
<g>
	<path class="st0" d="M20.5,40.8L20.5,40.8L20.5,40.8L20.5,40.8L20.5,40.8C20.4,40.8,20.4,40.8,20.5,40.8L20.5,40.8L20.5,40.8
		L20.5,40.8z"/>
</g>
<g>
	<path class="st0" d="M20.5,40.7L20.5,40.7L20.5,40.7L20.5,40.7z"/>
</g>
<g>
	<path class="st0" d="M20.5,40.7L20.5,40.7L20.5,40.7L20.5,40.7L20.5,40.7z"/>
</g>
<g>
	<path class="st0" d="M20.5,40.7L20.5,40.7L20.5,40.7z"/>
</g>
<g>
	<path class="st0" d="M20.5,40.8L20.5,40.8C20.5,40.8,20.5,40.7,20.5,40.8C20.5,40.7,20.5,40.8,20.5,40.8z"/>
</g>
<g>
	<path class="st0" d="M20.5,40.8L20.5,40.8L20.5,40.8z"/>
</g>
<g>
	<path class="st0" d="M20.4,40.8L20.4,40.8L20.4,40.8z"/>
</g>
<g>
	<path class="st0" d="M20.4,40.8L20.4,40.8L20.4,40.8L20.4,40.8L20.4,40.8z"/>
</g>
<g>
	<path class="st0" d="M20.4,40.8L20.4,40.8L20.4,40.8z"/>
</g>
<polygon class="st0" points="16.1,40.1 20.2,40.1 19.4,40.6 16.7,40.6 "/>
</svg>
