<svg xmlns="http://www.w3.org/2000/svg" xmlns:android="http://schemas.android.com/apk/res/android" width="1374dp" height="1044dp" viewportWidth="1374" viewportHeight="1044">
	<path d="M203.8,460.4c-26.6,0 -53.1,0 -79.7,0c-4,0 -7.2,-1.1 -10,-4.2c-2.2,-2.4 -3.2,-5.1 -3.2,-8.4c0,-23.7 0.2,-47.5 -0.1,-71.2c-0.1,-5.1 2.5,-9.2 6.1,-11.6c-3.6,2.4 -6.4,6.6 -6.3,11.7c0.3,23.7 0.1,47.5 0.1,71.2c0,3.3 1,6 3.2,8.4c2.8,3 6.1,4.2 10,4.2c26.6,0 53.1,0 79.7,0c26.7,0 53.3,-0.1 80,0.1c2,0 4.1,-0.6 6,-1.6c-1.8,1 -3.8,1.5 -5.8,1.5C257.1,460.3 230.5,460.4 203.8,460.4z" fill="#1976D2"/>
	<path d="M172.3,328.3c-6.2,0 -6.9,-0.9 -6.9,3.1C165.5,327.5 166.1,328.4 172.3,328.3z" fill="#1976D2"/>
	<path d="M230.2,541.8C230.2,541.8 230.2,541.8 230.2,541.8C230.2,541.8 230.2,541.8 230.2,541.8L230.2,541.8z" fill="#1976D2"/>
	<path d="M353.2,404.3c-1.2,9.2 -6.5,16 -16,17.1c-2.2,0.2 -2.9,-0.1 -3.9,-2.2c0,0 0,0 0,0.1c1,2.2 1.7,2.6 4,2.3c9.4,-1 14.8,-7.9 16,-17.1c0.8,-6.1 0.5,-12.4 0,-18.5C353.7,392.1 354,398.3 353.2,404.3z" fill="#1976D2"/>
	<path d="M176,541.2c0.1,0.1 0.2,0.2 0.3,0.3C176.3,541.3 176.1,541.3 176,541.2z" fill="#1976D2"/>
	<path d="M146.5,530.7c0,0.9 -0.2,1.8 -0.6,2.7C146.3,532.5 146.5,531.6 146.5,530.7z" fill="#1976D2"/>
	<path d="M234.7,544.5c0.1,-0.9 0.2,-1.6 0.2,-2.2C234.9,542.9 234.8,543.5 234.7,544.5C234.7,544.5 234.7,544.5 234.7,544.5z" fill="#1976D2"/>
	<path d="M305.7,565.1c-0.1,0.1 -0.2,0.1 -0.2,0.1l-0.1,0.1c-0.1,0.1 -0.1,0.3 -0.1,0.4c-0.9,0.9 -1.8,1.9 -2.7,2.8c-0.2,0 -0.3,0 -0.4,0.1c-0.1,0.1 -0.2,0.2 -0.2,0.4l-0.1,0.1c-0.3,0.1 -0.5,0.2 -0.7,0.4c-0.1,0 -0.2,0.1 -0.2,0.2c-1.1,0.1 -2.1,0.7 -2.9,1.4c-1.5,0.3 -2.9,0.4 -4.2,1.3c-0.3,-0.4 -0.6,-0.2 -0.9,0c-2.4,-0.1 -4.9,-0.2 -7.3,-0.2c-2.4,0 -4.9,0 -7.3,0.2c-4.7,-0.3 -9.3,-0.3 -14,0c-1.1,-0.1 -2.1,-0.2 -3.2,-0.2c-1.1,-0.1 -2.1,-0.1 -3.2,-0.1c-2.2,0 -4.3,0.1 -6.4,0.3c-1.7,-0.3 -3.4,-0.3 -5.1,0c-0.9,-0.1 -1.9,-0.2 -2.8,-0.2c-33.6,0 -67.1,0 -100.7,0c-1,0 -2.1,0.1 -3.1,0.2c-1.3,-0.3 -2.5,-0.3 -3.8,0c-0.2,-0.1 -0.4,-0.1 -0.6,-0.1s-0.4,0 -0.6,0.1c-2.1,-0.3 -4.2,-0.3 -6.3,0c-4.9,-0.4 -9.8,-0.2 -14.7,-0.1c-0.3,-0.2 -0.5,-0.4 -0.7,0c0.1,0 0.3,0.1 0.4,0.2c0.4,0.3 0.9,0.5 1.3,0.6c-0.4,-0.1 -0.7,-0.3 -1,-0.5c2.5,-0.1 5,-0.2 7.4,-0.2c2.3,0 4.6,0.1 6.9,0.3c0,0 0.1,0 0.1,-0.1c2.1,-0.3 4.2,-0.3 6.3,0c0.2,0.2 0.5,0.3 0.8,0.3c-0.2,0 -0.3,-0.1 -0.5,-0.3c0.1,0 0.1,0 0.2,0c0.1,0 0.3,-0.1 0.5,-0.1c0.2,0 0.3,0 0.5,0.1c1.2,-0.3 2.4,-0.3 3.6,0c0.3,0.2 0.7,0.4 1,0.5c-0.3,-0.1 -0.5,-0.2 -0.7,-0.4c1,-0.1 2.1,-0.2 3.1,-0.2c33.6,-0.1 67.2,0 100.8,0c0.8,0 1.6,0.1 2.4,0.2c0,0 0.1,0 0.1,-0.1c1.7,-0.3 3.4,-0.3 5.1,0c0.1,0 0.2,0.1 0.3,0.1c2.1,-0.3 4.2,-0.3 6.3,-0.3c1.1,0 2.1,0 3.2,0.1c-1.1,-0.1 -2.1,-0.1 -3.2,-0.1c1.1,0 2.1,0 3.1,0.1c0.9,0.1 1.8,0.1 2.7,0.2c0.1,0 0.2,0 0.3,-0.1c4.7,-0.3 9.3,-0.3 14,0c0.7,0.4 1.4,0.7 2.1,0.7c0.1,0 0.1,0 0.2,0c-0.8,0 -1.5,-0.3 -2.1,-0.7c0.1,0 0.2,0 0.3,0c2.4,-0.2 4.8,-0.2 7.1,-0.2c0,0 -0.1,0 -0.1,0c0.1,0 0.1,0 0.2,0c2.3,0 4.8,0.1 7.1,0.2c0.3,-0.3 0.6,-0.4 0.9,0c0,0 0,0 0,0c0,0 0,0 0,0c1.3,-0.9 2.8,-1 4.2,-1.3c0,0 0,0 0,0c0,0 0,0 0,0c0.9,-0.7 1.8,-1.3 2.9,-1.4c0,-0.1 0.1,-0.2 0.2,-0.2c0.2,-0.3 0.4,-0.4 0.7,-0.4c0,0 0,0 0,0c0,0 0,0 0,0l0.1,-0.1c0,0 0,0 0,0c0,-0.1 0.1,-0.2 0.2,-0.3c0.1,0 0.2,0 0.3,-0.1c0,0 0.1,-0.1 0.1,-0.1c0.9,-0.9 1.8,-1.9 2.7,-2.8c0.1,-0.2 0.3,-0.3 0.4,-0.5l0.1,-0.2c2.5,-3.2 3.3,-6.9 3.2,-10.9c-0.1,3.8 -0.9,7.4 -3.3,10.6L305.7,565.1zM305.3,566c0,-0.2 0,-0.3 0.1,-0.4c0.1,-0.1 0.1,-0.1 0.1,-0.1l-0.1,0.1c0,-0.1 0.1,-0.1 0.1,-0.1s0,0 -0.1,0.1c0.2,-0.1 0.2,-0.1 0.3,-0.1C305.6,565.7 305.4,565.8 305.3,566z" fill="#1976D2"/>
	<path d="M230.8,541.1C230.8,541 230.9,541 230.8,541.1C230.9,541 230.8,541.1 230.8,541.1C230.8,541.1 230.9,541.1 230.8,541.1C230.9,541.1 230.9,541.1 230.8,541.1c0.1,-0.4 0.2,-0.6 0.5,-0.8c0,0 0.1,-0.1 0.1,-0.1c0,0 0,-0.1 0.1,-0.1c-0.1,0.1 -0.2,0.1 -0.3,0.2C231,540.5 230.8,540.8 230.8,541.1z" fill="#1976D2"/>
	<path d="M178.8,546.6c10.6,0 21.3,0.1 31.9,0c7.8,-0.1 15.6,0.5 23.3,-0.8l0.1,0.1c0,0 0,0 0,0l-0.1,-0.1c-7.7,1.3 -15.5,0.7 -23.3,0.8C200,546.6 189.4,546.5 178.8,546.6c-1.9,-0.1 -3.8,-0.2 -5.5,-0.7c-0.1,-0.1 -0.1,-0.2 -0.1,-0.3c-0.6,-2 -0.8,-2.9 -0.4,-3.5c-0.6,0.5 -0.4,1.5 0.3,3.6c0,0 0,0.1 0.1,0.1c0,0 0,0 0,0c-0.1,-0.1 -0.1,-0.2 -0.1,-0.3c0,0.1 0,0.2 0.1,0.3c0,0 0,0 0,0c0,0 0,0.1 0,0.1c0,0 0,0 0,0C175,546.5 176.9,546.6 178.8,546.6z" fill="#1976D2"/>
	<path d="M277.8,607.7c0.1,0 0.1,0 0.2,0C277.9,607.7 277.8,607.7 277.8,607.7C277.7,607.7 277.8,607.7 277.8,607.7z" fill="#1976D2"/>
	<path d="M72.4,373.5C72.4,373.5 72.4,373.5 72.4,373.5c0,0.1 0,0.2 0,0.3l-0.1,0.2c0,0.1 -0.1,0.2 -0.1,0.3c0,0.8 0.2,1.5 0.7,2.2c-0.4,-0.7 -0.6,-1.4 -0.6,-2.2l0.1,-0.2c0.1,-0.3 0.3,-0.6 0.5,-0.9c0,-0.1 0,-0.1 0,-0.2c-0.1,0 -0.2,0.1 -0.3,0.2C72.6,373.2 72.5,373.3 72.4,373.5z" fill="#1976D2"/>
	<path d="M240.5,500.2c-0.2,0.1 -0.3,0.1 -0.5,0.2C240.2,500.3 240.4,500.3 240.5,500.2C240.5,500.2 240.5,500.2 240.5,500.2z" fill="#1976D2"/>
	<path d="M145,526.5c-0.9,-1.2 -2,-2.3 -3.2,-3.2C142.9,524.2 144.1,525.3 145,526.5z" fill="#1976D2"/>
	<path d="M165,533.3c-0.5,-0.9 -0.7,-1.9 -0.7,-2.7C164.3,531.4 164.5,532.3 165,533.3z" fill="#1976D2"/>
	<path d="M234.1,545.8C234.1,545.8 234.1,545.8 234.1,545.8l-0.1,-0.1L234.1,545.8z" fill="#1976D2"/>
	<path d="M168.6,540c-0.7,-1.1 -1.3,-2.2 -1.9,-3.3C167.3,537.8 168,538.9 168.6,540c0.2,0.4 0.5,0.7 0.7,1.1c0,0 0,0 0,0C169.1,540.7 168.8,540.4 168.6,540z" fill="#1976D2"/>
	<path d="M120.7,512.2c-3.6,0.1 -6,2.9 -5.6,7c0,0 0,0 0,0c0,0 0,0 0,0C114.8,515.1 117.2,512.3 120.7,512.2z" fill="#1976D2"/>
	<path d="M284.2,512.4c-2.9,0.8 -5.5,2.4 -8.1,3.8c-4.5,2.4 -8.7,5 -12.5,8.5c-1.4,1.3 -2.3,2.7 -2.8,4.4c-0.2,0.6 -0.2,1.2 -0.3,1.7c0,-0.5 0.1,-1.1 0.3,-1.6c0.5,-1.8 1.5,-3.2 2.8,-4.4c3.8,-3.5 8.1,-6.2 12.5,-8.5C278.8,514.9 281.3,513.3 284.2,512.4c4.4,-1 7.6,1.7 7.7,6.8c0,0 0,0 0,-0.1C292,514 288.6,511.3 284.2,512.4z" fill="#1976D2"/>
	<path d="M332.4,370.2c-3,-2.2 -6.4,-3.1 -9.8,-3.8c-3.9,-0.8 -7.8,-0.9 -11.7,-0.9c-1.3,0 -1.9,0.6 -1.9,2c0.1,2.1 0.1,4.3 0.1,6.4c0,34.6 0,69.2 0,103.8c0,0.7 0,1.3 0,2c0.1,1.3 -0.5,1.8 -1.7,1.8c-2.4,0 -4.9,0 -7.3,0c-52.4,0 -104.9,0.1 -157.4,0.1c-13.9,0.1 -27.7,0.1 -41.6,0.1c-1.7,0 -2.5,0 -2.8,-0.6c0.3,0.7 1,0.8 2.9,0.8c13.9,-0.1 27.7,-0.1 41.6,-0.1c52.4,0 104.9,-0.1 157.4,-0.1c2.4,0 4.9,0 7.3,0c1.1,0 1.7,-0.5 1.7,-1.8c0,-0.7 0,-1.3 0,-2c0,-34.6 0,-69.2 0,-103.8c0,-2.1 0,-4.3 -0.1,-6.4c0,-1.5 0.6,-2 1.9,-2c3.9,0 7.8,0.1 11.7,0.9c3.5,0.7 6.9,1.6 9.8,3.8c0.6,0.4 1.1,0.9 1.6,1.4C333.6,371.2 333,370.7 332.4,370.2z" fill="#1976D2"/>
	<path d="M234.7,544.5C234.7,544.5 234.7,544.5 234.7,544.5L234.7,544.5c0,0.4 0,0.8 -0.3,1.1c-0.1,0.1 -0.2,0.1 -0.3,0.2c0,0 0,0 0,0l0,0.1c0.1,-0.1 0.2,-0.1 0.3,-0.2c0,0 -0.1,0.1 -0.3,0.2c-0.1,0.2 -0.3,0.4 -0.4,0.6c-0.3,0.3 -0.6,0.5 -0.9,0.7c-0.2,0.1 -0.4,0.2 -0.7,0.3c-0.1,0 -0.2,0.1 -0.3,0.1c-0.9,0.2 -1.9,0.2 -2.9,0.2c-9.4,0 -18.8,0 -28.2,0c-7.8,0 -15.6,0.1 -23.4,0.1c-0.5,0 -0.9,0 -1.3,0c0,0 0,0 0,0c0,0 0,0 0,0c0,0 0,0 0,0c-0.4,0 -0.7,0 -1.1,-0.1c-0.3,0 -0.5,-0.1 -0.7,-0.2c-0.4,-0.2 -0.7,-0.5 -1,-0.8c-0.1,-0.2 -0.3,-0.4 -0.4,-0.5c0,0 0,0 0,0c0.1,0.2 0.3,0.4 0.4,0.5c-0.2,-0.2 -0.3,-0.4 -0.4,-0.5c0,0 0,0 0,0l0,0c0.1,0.2 0.2,0.4 0.4,0.6c0.3,0.4 0.6,0.6 1,0.8c0.3,0.1 0.5,0.1 0.7,0.2c0.3,0 0.7,0.1 1.1,0.1c0.5,0 0.9,0 1.3,0c7.8,0 15.6,-0.1 23.4,-0.1c9.4,0 18.8,0 28.2,0c1,0 2,0 2.9,-0.2c0.7,-0.2 1.3,-0.5 1.9,-1.1c0.2,-0.2 0.3,-0.4 0.5,-0.7c0.1,0 0.2,-0.1 0.3,-0.2c0.2,-0.3 0.3,-0.6 0.3,-0.9l-0.1,-0.1C234.7,544.6 234.7,544.6 234.7,544.5z" fill="#1976D2"/>
	<path d="M234.1,545.9L234.1,545.9C234.1,545.9 234.1,545.9 234.1,545.9L234.1,545.9z" fill="#1976D2"/>
	<path d="M239.2,526.4c2.2,0.6 3.4,2.3 3.4,4.4C242.7,528.7 241.4,527 239.2,526.4z" fill="#1976D2"/>
	<path d="M167.7,321.5c23.9,0 47.8,0 71.7,0c1.1,0 2.2,0 3.2,0.2c3.8,0.8 5.7,3.2 5.7,7.3c0.1,3.1 0.1,6.3 0,9.4c0,2 -0.5,3.5 -1.5,4.7c1,-1.1 1.5,-2.7 1.6,-4.8c0,-3.1 0,-6.3 0,-9.4c-0.1,-4.1 -1.9,-6.5 -5.7,-7.3c-1.1,-0.2 -2.1,-0.2 -3.2,-0.2C215.6,321.4 191.7,321.4 167.7,321.5c-1.2,-0.1 -2.4,0 -3.7,0.3c-1.2,0.4 -2.3,0.9 -3.2,1.7c0.8,-0.7 1.9,-1.2 3.1,-1.6C165.2,321.5 166.4,321.5 167.7,321.5z" fill="#1976D2"/>
	<path d="M175.8,541.3c0.2,0.2 0.5,0.4 0.7,0.6c0.1,0 0.2,0 0.3,0c0,0.1 0.1,0.1 0.2,0.2c0.5,1 1.4,1.2 2.4,1c3.4,-0.9 6.9,-0.5 10.4,-0.5c12.6,0.2 25.3,-0.3 37.9,0.3c1,0 1.8,-0.2 2.5,-1c0.2,-0.2 0.4,-0.5 0.6,-0.7l0.1,-0.1c-0.1,0 -0.1,0 -0.1,0.1c-0.2,0.2 -0.3,0.4 -0.5,0.5c0,0.1 0,0.1 0,0.1s0,0 0,-0.1l-0.1,0.1c0,0 0,0 0,0c0,0 0,0 0,0c0,0 0,0 0,0c0,0 0,0 0,0c0,0 0.1,0 0.1,0s0,0 -0.1,0l0,0c0,0 0,0 0,0c0,0 0,0 0,0c0,0 0,0 0.1,-0.1c0,-0.1 0.1,-0.2 0.1,-0.3c0,0 0,0 0,0c0,0.1 -0.1,0.2 -0.2,0.4c0.1,-0.2 0.1,-0.3 0.2,-0.4c0,0 0.1,0 0.1,0c0,0 0,0 0,-0.1c0.1,-0.1 0.1,-0.1 0.2,-0.2c-0.1,0 -0.2,0.1 -0.3,0.2c-0.1,0.1 -0.2,0.3 -0.2,0.4c0,0 -0.1,0 -0.1,0c-0.7,0.8 -1.5,1.1 -2.5,1c-12.6,-0.7 -25.3,-0.2 -37.9,-0.3c-3.5,0 -7,-0.3 -10.4,0.5c-1,0.3 -1.9,0 -2.4,-1c0,-0.1 -0.1,-0.2 -0.2,-0.2c-0.1,0 -0.2,0 -0.2,0c0,0 0,0.1 0,0.1c-0.3,-0.2 -0.5,-0.4 -0.7,-0.6c0,0 -0.1,0 -0.1,0l-0.1,-0.1c-0.9,-1.6 -1.9,-3.2 -2.8,-5c-0.2,-0.4 -0.3,-0.7 -0.5,-1.1c-0.3,-0.6 -0.5,-1.4 -0.7,-2.1c0,0 0,0 -0.1,0c0.2,0.8 0.5,1.6 0.8,2.3c0.2,0.4 0.3,0.7 0.5,1.1c0.9,1.7 1.9,3.3 2.8,4.9c0,0 0.1,0 0.1,0L175.8,541.3zM176.9,542c0,-0.1 -0.1,-0.2 -0.2,-0.2C176.8,541.8 176.9,541.8 176.9,542z" fill="#1976D2"/>
	<path d="M131,533.4c-4.1,-2 -8,-4.2 -11.7,-7C122.9,529.3 126.9,531.4 131,533.4z" fill="#1976D2"/>
	<path d="M203.4,328.3c-3.9,0 -7.8,0 -11.7,0C195.6,328.3 199.5,328.3 203.4,328.3L203.4,328.3z" fill="#1976D2"/>
	<path d="M241.3,330.6c0,1.9 0,3.8 0,5.7c0,1.6 -0.9,2.4 -2.4,2.4c1.5,0 2.4,-0.7 2.4,-2.4C241.3,334.4 241.3,332.5 241.3,330.6c0,-1.3 -0.5,-2.1 -1.6,-2.3C240.8,328.5 241.3,329.3 241.3,330.6z" fill="#1976D2"/>
	<path d="M289.4,580.1c-4.1,0 -8.1,-0.1 -12.1,-0.1c0,0 -0.1,0 -0.1,0c4.1,0 8.1,0.1 12.1,0.1c0.1,0.2 0.2,0.4 0.1,0.7c0,4.8 -0.3,9.6 0,14.4c0.2,2.8 -0.7,5.6 -2.3,7.8c1.6,-2.2 2.5,-5 2.4,-7.8c-0.3,-4.8 0,-9.6 0.1,-14.4C289.5,580.6 289.5,580.3 289.4,580.1z" fill="#1976D2"/>
	<path d="M94.1,365.7c-4.4,0 -8.9,0.3 -13.1,1.9c-0.2,0.1 -0.4,0.1 -0.6,0.2c-0.5,0 -1,0.1 -1.4,0.3c-0.1,0 -0.1,0.1 -0.2,0.1c-0.2,0.1 -0.3,0.2 -0.5,0.3c-0.2,0.2 -0.4,0.3 -0.6,0.5c-0.2,-0.1 -0.4,0 -0.5,0.2c-0.1,0 -0.3,0.1 -0.4,0.1c-0.4,0.1 -0.8,0.3 -1.2,0.5c0,0.1 -0.1,0.1 -0.1,0.1c-0.1,0.1 -0.2,0.2 -0.3,0.2c0,-0.1 0.1,-0.1 0.2,-0.1c0,0 -0.1,0 -0.2,0.1c-0.1,0.1 -0.2,0.2 -0.3,0.3c-0.2,0.2 -0.4,0.4 -0.6,0.7c-0.2,0 -0.3,0.1 -0.3,0.3l-0.2,0.1l0,0c0,0 0,0 0,0l-0.1,0.2c-0.1,0.1 -0.3,0.2 -0.3,0.4c-0.1,0 -0.1,0 -0.2,0.1c-0.1,0.1 -0.1,0.2 -0.1,0.3c-0.2,0 -0.2,0.2 -0.2,0.3c0,-0.1 0.1,-0.1 0.2,-0.1c0.1,-0.1 0.2,-0.3 0.3,-0.4c0,-0.2 0.1,-0.4 0.3,-0.4c0.1,-0.1 0.2,-0.2 0.3,-0.3c0,-0.2 0.1,-0.3 0.3,-0.3c1.3,-0.1 2.5,-0.5 3,-1.9c0.1,-0.2 0.3,-0.2 0.5,-0.2c1.1,0.1 2,-0.2 2.7,-1.2c0.2,-0.1 0.4,-0.1 0.6,-0.2c4.2,-1.6 8.7,-1.9 13.1,-1.9c2.4,0 3.3,-0.2 3.7,0.6C97.6,365.5 96.8,365.7 94.1,365.7zM74.3,371.2c0.2,-0.3 0.4,-0.5 0.6,-0.7c0.1,-0.1 0.2,-0.2 0.3,-0.3c0.1,-0.1 0.2,-0.1 0.3,-0.2c0,0 0,-0.1 0.1,-0.1c0.4,-0.2 0.8,-0.4 1.2,-0.5c-0.4,0.1 -0.8,0.3 -1.2,0.5c0.4,-0.2 0.8,-0.4 1.3,-0.5c0.1,0 0.3,-0.1 0.4,-0.1C76.7,370.7 75.6,371.1 74.3,371.2zM77.7,369.1c0.2,-0.2 0.4,-0.4 0.6,-0.5c0.2,-0.1 0.3,-0.2 0.5,-0.3c0,0 0.1,-0.1 0.2,-0.1c0.4,-0.2 0.9,-0.3 1.4,-0.3C79.7,368.9 78.8,369.2 77.7,369.1z" fill="#1976D2"/>
	<path d="M301.5,569.7c0.2,-0.1 0.4,-0.2 0.5,-0.4c0,0 0,0 0,0C301.8,569.4 301.6,569.5 301.5,569.7z" fill="#1976D2"/>
	<path d="M124.4,513c6.2,2.8 12,6.1 17.4,10.3C136.4,519 130.6,515.7 124.4,513z" fill="#1976D2"/>
	<path d="M122.3,512.3c0.7,0.2 1.4,0.4 2.1,0.7C123.7,512.7 123,512.4 122.3,512.3z" fill="#1976D2"/>
	<path d="M233.4,536.8c-0.3,0.5 -0.6,1 -0.9,1.5c0,0.1 -0.1,0.3 -0.2,0.4s-0.1,0.3 -0.2,0.4c0,0 0.1,0 0.1,0c0.1,-0.2 0.2,-0.4 0.3,-0.6c0.3,-0.5 0.6,-1 0.9,-1.5s0.6,-1 0.9,-1.5c0.4,-0.8 0.7,-1.6 0.8,-2.6c0,0 0,0 0,0c-0.1,0.8 -0.4,1.7 -0.8,2.4C234,535.8 233.7,536.3 233.4,536.8zM233.5,536.7c0.3,-0.5 0.6,-1 0.9,-1.5C234.1,535.8 233.8,536.3 233.5,536.7z" fill="#1976D2"/>
	<path d="M61.1,369.1c-0.8,1.9 -1.3,4 -1.5,6.4c0,0.6 -0.2,1.2 -0.4,1.6c0.3,-0.4 0.5,-1 0.5,-1.8C59.8,373 60.3,371 61.1,369.1z" fill="#1976D2"/>
	<path d="M74.6,379.3C74.6,379.3 74.6,379.3 74.6,379.3C74.6,379.3 74.6,379.3 74.6,379.3C74.6,379.3 74.6,379.3 74.6,379.3c0,0 0,-0.1 0,-0.1C74.6,379.2 74.6,379.2 74.6,379.3c-0.1,-0.5 -0.2,-0.9 -0.4,-1.2C74.4,378.4 74.5,378.8 74.6,379.3C74.6,379.3 74.6,379.3 74.6,379.3z" fill="#1976D2"/>
	<path d="M73.2,421.3c-0.1,0 -0.1,0.1 -0.1,0.1c-0.1,0.1 -0.1,0.1 -0.1,0.2l-0.2,0.1c-5.8,0.5 -10.6,-1.4 -14.2,-6.3c-3.3,-4.4 -4.8,-9.4 -4.7,-15c0.1,-4.7 0,-9.4 0.1,-14.1c0,-1.3 0.1,-2.5 0.3,-3.7c0.1,-0.8 0.3,-1.5 0.6,-2.2c-0.3,0.7 -0.6,1.5 -0.7,2.4c-0.1,1.2 -0.3,2.5 -0.3,3.7c-0.1,4.7 0,9.4 -0.1,14.1c-0.1,5.6 1.4,10.6 4.7,15c3.6,4.9 8.4,6.8 14.2,6.3l0.2,-0.1c0.2,-0.1 0.4,-0.2 0.5,-0.4c0,-0.1 0,-0.2 0.1,-0.2C73.4,421.2 73.4,421.2 73.2,421.3L73.2,421.3z" fill="#1976D2"/>
	<path d="M290.8,500.2c0,0 -0.1,0 -0.1,0c-0.2,0.2 -0.4,0.3 -0.7,0.3C290.3,500.5 290.6,500.4 290.8,500.2C290.8,500.2 290.8,500.2 290.8,500.2z" fill="#1976D2"/>
	<path d="M307.2,500.3c0.3,-0.3 0.6,-0.4 0.8,-0.4c-0.3,-0.1 -0.7,0 -1,0.4c0,0 0.1,0 0.1,0C307.1,500.3 307.2,500.3 307.2,500.3z" fill="#1976D2"/>
	<path d="M66.9,440.7c-0.1,0 -0.3,0 -0.3,0c-0.1,0.2 -0.1,0.3 -0.1,0.5c0,0 0,0 0,0c0,-0.1 0,-0.2 0.1,-0.4c0,0 0.2,0 0.3,0c0.1,0 0.1,0 0.2,0.1C67.1,440.8 67,440.8 66.9,440.7z" fill="#1976D2"/>
	<path d="M143.1,607.6c1.8,0 3.6,-0.3 5.1,-1C146.7,607.3 144.9,607.6 143.1,607.6L143.1,607.6z" fill="#1976D2"/>
	<path d="M230.2,541.8L230.2,541.8C230.3,541.7 230.2,541.8 230.2,541.8C230.2,541.8 230.2,541.8 230.2,541.8z" fill="#1976D2"/>
	<path d="M230.4,541.4C230.4,541.4 230.4,541.4 230.4,541.4C230.5,541.4 230.5,541.4 230.4,541.4C230.5,541.4 230.4,541.4 230.4,541.4z" fill="#1976D2"/>
	<path d="M301.1,569.9C301.1,569.9 301.1,569.9 301.1,569.9c0,0 0.1,0 0.1,-0.1c0,0 0,0 0,0C301.2,569.9 301.1,569.9 301.1,569.9z" fill="#1976D2"/>
	<path d="M301.3,569.7c-0.1,0 -0.2,0.1 -0.2,0.2c0,0 0.1,0 0.1,-0.1C301.2,569.8 301.3,569.7 301.3,569.7z" fill="#1976D2"/>
	<path d="M154.7,580.1c-1,-1.9 -2.5,-1.6 -4,-1.4C152.1,578.5 153.7,578.3 154.7,580.1z" fill="#1976D2"/>
	<path d="M73.9,420.6c-0.1,0 -0.1,0.2 -0.1,0.3c-0.2,0 -0.3,0.1 -0.3,0.3c0,0 0.1,-0.1 0.2,-0.1c0.1,-0.1 0.3,-0.3 0.4,-0.5l0.1,-0.1c0,0 0,-0.1 0,-0.1l0,0C74.1,420.5 74,420.5 73.9,420.6z" fill="#1976D2"/>
	<path d="M112.7,572c-0.1,-0.1 -0.2,-0.1 -0.3,-0.1c-0.3,-0.1 -0.5,0 -0.8,0c-0.5,-0.1 -0.9,-0.2 -1.3,-0.3c-0.1,-0.1 -0.3,-0.2 -0.4,-0.3c-0.4,-0.3 -0.8,-0.3 -1.3,-0.4l-0.1,-0.1c-2.4,-1.2 -4.4,-2.9 -6.3,-4.9c-2.9,-3.2 -4.1,-7 -4.1,-11.3c0,-11.3 0,-22.6 0,-33.9c0,-6.6 0,-13.3 0,-19.9c-0.1,0 -0.2,0 -0.3,0c0,6.7 0,13.4 0,20.1c0,11.3 0,22.6 0,33.9c0,4.4 1.2,8.1 4.1,11.3c1.8,2 3.9,3.7 6.3,4.9l0.1,0.1c0.1,1 0.4,1.2 0.9,1.1c-0.3,-0.1 -0.5,-0.4 -0.5,-1.1c0.5,0.1 0.9,0.1 1.3,0.4c-0.2,-0.1 -0.4,-0.2 -0.6,-0.2c0.2,0.1 0.4,0.1 0.6,0.2s0.3,0.2 0.4,0.3c0,0 -0.1,0 -0.1,0.1c0.4,0.1 0.7,0.2 1,0.2c0.5,0.2 1,0.3 1.5,0.5c0,0 0,-0.1 0.1,-0.1c-0.4,-0.1 -0.8,-0.3 -1.3,-0.4c0.3,0 0.6,0 0.8,0c0.1,0 0.2,0 0.3,0.1c0.1,0.1 0.2,0.1 0.2,0.2c0,0 0.1,-0.1 0.1,-0.1c0,0 0,0 -0.1,-0.1C112.9,572.1 112.8,572.1 112.7,572z" fill="#1976D2"/>
	<path d="M98.1,339c-0.2,-3.5 0.4,-6.6 1.6,-9.5c-1.3,2.9 -1.9,6.1 -1.7,9.7c0.3,4.3 0.1,8.5 0.1,12.8c0,0.5 -0.1,0.9 -0.2,1.2c0.2,-0.3 0.3,-0.8 0.3,-1.4C98.1,347.5 98.4,343.2 98.1,339z" fill="#1976D2"/>
	<path d="M121.5,578.7c-0.8,-0.1 -1.6,-0.1 -2.3,0.2C119.9,578.7 120.7,578.7 121.5,578.7z" fill="#1976D2"/>
	<path d="M232.2,539.1C232.2,539.1 232.2,539.1 232.2,539.1C232.2,539.1 232.1,539.1 232.2,539.1C232.1,539.1 232.2,539.1 232.2,539.1z" fill="#1976D2"/>
	<path d="M75.5,369.9c0,0 -0.1,0.1 -0.1,0.1c0,0 -0.1,0 -0.2,0.1C75.3,370.1 75.4,370 75.5,369.9z" fill="#1976D2"/>
	<path d="M234.4,535.2c-0.3,0.5 -0.6,1 -0.9,1.5C233.8,536.3 234.1,535.8 234.4,535.2z" fill="#1976D2"/>
	<path d="M74.6,379.3C74.6,379.3 74.6,379.3 74.6,379.3C74.6,379.3 74.6,379.3 74.6,379.3C74.6,379.3 74.6,379.3 74.6,379.3z" fill="#1976D2"/>
	<path d="M176.9,542c0,-0.2 -0.1,-0.2 -0.2,-0.2C176.8,541.8 176.9,541.9 176.9,542z" fill="#1976D2"/>
	<path d="M210.7,546.5c7.8,-0.1 15.6,0.5 23.3,-0.8l-55.2,0.8C189.4,546.5 200,546.6 210.7,546.5z" fill="#1976D2"/>
	<path d="M169.3,541.1C169.3,541.1 169.3,541.1 169.3,541.1c0,0.1 0.1,0.1 0.1,0.2C169.3,541.2 169.3,541.1 169.3,541.1z" fill="#1976D2"/>
	<path d="M173.2,546.8c-0.1,-0.2 -0.3,-0.4 -0.4,-0.5c0,0 0,0 0,0C172.9,546.4 173,546.6 173.2,546.8z" fill="#1976D2"/>
	<path d="M234.1,545.9c0.2,-0.1 0.3,-0.2 0.3,-0.2C234.3,545.8 234.2,545.8 234.1,545.9z" fill="#1976D2"/>
	<path d="M248.3,329c0,-4.1 -1.9,-6.5 -5.7,-7.3c-1,-0.2 -2.1,-0.2 -3.2,-0.2c-23.9,0 -47.8,0 -71.7,0c-1.3,0 -2.5,0 -3.8,0.4c-1.2,0.3 -2.2,0.9 -3.1,1.6c-1.3,1.2 -2.1,2.8 -2.2,4.9c-0.2,3.5 -0.2,7 0.1,10.3c0.1,3.4 2.5,5.8 5.6,6.3c1.1,0.2 2.1,0.2 3.2,0.2c12,0 23.9,0 35.9,0c12.2,0 24.3,0 36.5,0c0.9,0 1.9,0 2.8,-0.1c1.8,-0.3 3.2,-1 4.1,-2c0.9,-1.1 1.4,-2.7 1.5,-4.7C248.4,335.3 248.4,332.1 248.3,329zM241.3,336.3c0,1.7 -0.9,2.4 -2.4,2.4c-0.8,0 -1.7,0 -2.5,0c-22.2,0 -44.4,0 -66.6,0h0c-0.6,0 -1.3,0.1 -1.9,0c-1.8,-0.2 -2.4,-0.7 -2.4,-2.7c0,-2 -0.1,-3.5 -0.1,-4.6c0,-4 0.7,-3.1 6.9,-3.1c2.6,0 5.2,0 7.8,0c3.9,0 7.8,0 11.6,0c3.9,0 7.8,0 11.7,0c11.1,0 22.2,0 33.3,0c0.8,0 1.7,0 2.5,0c0.2,0 0.3,0 0.5,0c1.1,0.2 1.6,1 1.6,2.3C241.3,332.5 241.3,334.4 241.3,336.3z" fill="#1976D2"/>
	<path d="M258.2,572.4c1.1,0 2.1,0 3.2,0.1C260.3,572.4 259.3,572.4 258.2,572.4z" fill="#1976D2"/>
	<path d="M305.4,565.6L305.4,565.6C305.5,565.5 305.5,565.5 305.4,565.6z" fill="#1976D2"/>
	<path d="M74.7,379.3L74.7,379.3c0,0.1 0,0.1 0,0.1C74.7,379.4 74.7,379.4 74.7,379.3z" fill="#1976D2"/>
	<path d="M57.7,378.1c0.7,-0.2 1.2,-0.5 1.5,-1c-0.3,0.4 -0.7,0.7 -1.4,0.8c-1.5,0.4 -2.4,1.3 -2.9,2.5C55.4,379.3 56.3,378.5 57.7,378.1z" fill="#1976D2"/>
	<path d="M70.2,359.6c6.9,-4.1 14.6,-5.1 22.3,-5.5c1.3,-0.1 2.5,-0.1 3.8,0c0.9,0 1.4,-0.3 1.6,-0.9c-0.3,0.5 -0.7,0.7 -1.5,0.7c-1.3,0 -2.5,0 -3.8,0c-7.8,0.4 -15.4,1.4 -22.3,5.5c-4.2,2.4 -7.5,5.5 -9.2,9.7C62.9,365 66.2,362 70.2,359.6z" fill="#1976D2"/>
	<path d="M75.4,380.6l-0.1,0.1l0.1,0.2c0.5,8.5 0.5,16.9 0.4,25.4c0,4.8 -0.2,9.5 -1.6,14.1l0.1,-0.1c1.4,-4.6 1.6,-9.4 1.6,-14.2C75.9,397.6 76,389.2 75.4,380.6v-0.1l0.1,-0.1c-0.1,0 -0.2,-0.1 -0.3,-0.1c0,0 0,0 0,0C75.3,380.4 75.3,380.5 75.4,380.6z" fill="#1976D2"/>
	<path d="M118.9,317c19,0.1 38.1,0 57.1,0c36.4,0 72.8,0 109.2,0c2.8,0 5.5,0.1 8.2,0.7c7.5,1.4 16,10.3 15.6,19.8c-0.2,4.4 0,8.7 0,13.1c0,3.6 0,3.3 3.1,3.4c6.7,0.1 13.3,0.9 19.7,3.1c5.4,1.9 9.9,5.1 13.2,9.9c1.6,2.3 2.2,5.1 2.5,7.9c0.1,1.6 0.6,2.7 2.1,3.3c2.5,1 3.5,3.2 3.6,5.8c0,0.7 0.1,1.3 0.1,2c0,-0.8 -0.1,-1.7 -0.1,-2.5c0,-2.3 -1,-4.6 -3.5,-5.5c-1.5,-0.6 -1.9,-1.6 -2.1,-3.3c-0.3,-2.8 -0.9,-5.5 -2.5,-7.9c-3.3,-4.9 -7.8,-8.1 -13.2,-9.9c-6.4,-2.2 -13,-3 -19.7,-3.1c-3.1,-0.1 -3.1,0.2 -3.1,-3.4c0,-4.4 -0.2,-8.7 0,-13.1c0.4,-9.5 -8.1,-18.5 -15.6,-19.8c-2.7,-0.5 -5.5,-0.7 -8.2,-0.7c-36.4,0 -72.8,0 -109.2,0c-19,0 -38.1,0.1 -57.1,0c-8.2,-0.1 -16.1,4.9 -19.3,12.7C103,321.8 110.8,316.9 118.9,317z" fill="#1976D2"/>
	<path d="M72.9,372.9C72.9,372.9 72.9,372.9 72.9,372.9C72.9,372.9 72.9,372.9 72.9,372.9C72.9,372.9 72.9,372.9 72.9,372.9z" fill="#1976D2"/>
	<path d="M73.5,421.2C73.5,421.2 73.5,421.2 73.5,421.2C73.5,421.2 73.5,421.2 73.5,421.2C73.5,421.2 73.5,421.2 73.5,421.2z" fill="#1976D2"/>
	<path d="M331.4,384.7c0,-3.1 0.5,-5.8 3.6,-7.2c1,-0.5 0.9,-1.4 0.7,-2.3c-0.3,-1.3 -0.8,-2.4 -1.6,-3.4c0.7,0.9 1.3,2 1.5,3.2c0.2,0.9 0.3,1.9 -0.7,2.3c-3.1,1.4 -3.6,4.1 -3.6,7.2c0,8.3 -0.2,16.6 0,24.8c0.1,3.3 0.4,6.7 1.9,9.8c0,0.1 0,0.1 0.1,0.1c-1.5,-3.1 -1.8,-6.5 -1.9,-9.7C331.3,401.2 331.4,392.9 331.4,384.7z" fill="#1976D2"/>
	<path d="M98.1,370c0,-1.9 0,-3 -0.2,-3.5c0.2,0.6 0.1,1.6 0.1,3.3c0,36.2 0,72.3 0,108.5c0,1.5 0,2.4 0.3,2.8c-0.2,-0.5 -0.2,-1.3 -0.2,-2.6C98.1,442.3 98.1,406.2 98.1,370z" fill="#1976D2"/>
	<path d="M75.1,370.1c-0.1,0.1 -0.2,0.2 -0.3,0.3C74.9,370.3 75.1,370.2 75.1,370.1z" fill="#1976D2"/>
	<path d="M73,421.2L73,421.2C73,421.1 73,421.1 73,421.2z" fill="#1976D2"/>
	<path d="M73.2,372c-0.1,0 -0.1,0 -0.2,0.1C73,372.1 73.1,372.1 73.2,372C73.1,372 73.1,372 73.2,372C73.2,372 73.2,372 73.2,372z" fill="#1976D2"/>
	<path d="M72.7,372.9c-0.3,0.1 -0.4,0.3 -0.5,0.6C72.3,373.2 72.5,373 72.7,372.9z" fill="#1976D2"/>
	<path d="M296.5,419c0,-14.3 0,-28.7 -0.1,-43c0,-2.4 -0.3,-4.6 -1.6,-6.7c-2.8,-4.6 -6.6,-6.5 -11.7,-6.5c-17.6,0.1 -35.1,0 -52.7,0c-35.5,0 -70.9,0.1 -106.4,-0.1c-2.5,0 -4.9,0.8 -7.1,2.3c2.1,-1.4 4.5,-2.2 6.9,-2.2c35.5,0.2 70.9,0.1 106.4,0.1c17.6,0 35.1,0.1 52.7,0c5.1,0 9,1.9 11.7,6.5c1.3,2.1 1.6,4.3 1.6,6.7c0,14.3 0,28.7 0.1,43c0,9.3 -0.3,18.6 0.1,27.9c0.4,5.4 -2.8,9.8 -6.8,12c4.2,-2.2 7.5,-6.6 7.2,-12.2C296.1,437.6 296.5,428.3 296.5,419z" fill="#1976D2"/>
	<path d="M225.5,500.3c3,0.9 6.1,0.2 9.1,0.3c1.7,0 3.6,0.4 5.4,-0.2c-1.7,0.5 -3.4,0.1 -5.1,0.1c-3.1,-0.1 -6.2,0.6 -9.3,-0.4C225.6,500.1 225.5,500.2 225.5,500.3C225.5,500.2 225.6,500.2 225.5,500.3C225.6,500.2 225.5,500.2 225.5,500.3z" fill="#1976D2"/>
	<path d="M240.7,500.2c0.2,0 0.3,0 0.5,0c-0.1,0 -0.3,-0.1 -0.4,-0.1c-0.1,0 -0.2,0.1 -0.3,0.1C240.6,500.2 240.6,500.2 240.7,500.2C240.7,500.2 240.7,500.2 240.7,500.2z" fill="#1976D2"/>
	<path d="M309,500.5C309,500.5 308.9,500.5 309,500.5c-0.1,0 0,0.1 0,0.1V500.5z" fill="#1976D2"/>
	<path d="M247.6,500.2c0.7,0.6 1.6,0.4 2.4,0.4c12.8,0 25.5,0 38.3,0c0.6,0 1.2,0.1 1.7,-0.1c-0.5,0 -1,0 -1.4,0c-12.8,0 -25.5,0 -38.3,0c-0.8,0 -1.7,0.2 -2.4,-0.4c-0.1,0 -0.3,0.1 -0.4,0.1c0.1,0 0.2,0 0.3,0C247.7,500.2 247.7,500.2 247.6,500.2z" fill="#1976D2"/>
	<path d="M153.3,500.2c-0.1,0 -0.1,0 -0.1,0.1c2.4,0.6 4.8,0.6 7.2,-0.1c0.1,0 0.2,0 0.3,0l0,0c0.1,0 0.2,0 0.3,0c-0.1,-0.1 -0.2,-0.1 -0.2,-0.2c-2.5,0.7 -5,0.7 -7.5,0c-0.1,0.1 -0.2,0.2 -0.4,0.2C153,500.2 153.1,500.2 153.3,500.2C153.2,500.2 153.3,500.2 153.3,500.2z" fill="#1976D2"/>
	<path d="M291,500.1c0,0 -0.1,0.1 -0.1,0.1c0.1,0 0.2,0 0.3,0C291.1,500.2 291.1,500.1 291,500.1z" fill="#1976D2"/>
	<path d="M134.8,500.6c1.1,0 2.3,0.4 3.4,-0.4c0.1,0 0.3,0 0.4,0c0,0 0,0 0,0c0.3,0 0.6,0 0.9,0c-0.3,-0.1 -0.6,-0.1 -1,-0.2c-1,0.8 -2.2,0.4 -3.4,0.4c-11.2,0 -22.3,0 -33.5,0c-1.2,0 -2.3,0.1 -3.5,0.2c0,0.1 0,0.1 0,0.2c1.1,-0.1 2.1,-0.2 3.2,-0.2C112.5,500.6 123.6,500.6 134.8,500.6z" fill="#1976D2"/>
	<path d="M309,500.6c-0.1,0 -0.1,0 -0.2,0c0,0 0,0 0,0v0.2l0.2,0.1c0,16.2 0,32.3 0,48.5c0,0.8 0,1.6 0,2.3c0.1,0.9 0.1,1.8 0.1,2.6c0,-1 0,-2 0,-3c0.1,-0.4 0.1,-1.2 0.1,-2c0,-16.2 0,-32.3 0,-48.5L309,500.6L309,500.6z" fill="#1976D2"/>
	<path d="M113.1,572.4c0,-0.1 0,-0.1 0.1,-0.1c0,0 -0.1,0 -0.1,0C113.1,572.3 113.1,572.3 113.1,572.4z" fill="#1976D2"/>
	<path d="M294.1,500.2C294.1,500.2 294.1,500.2 294.1,500.2c0.1,0 0.1,0 0.1,0C294.2,500.2 294.2,500.2 294.1,500.2c4.3,0.9 8.6,0.4 12.8,0.2c0,0 0.1,-0.1 0.1,-0.1c-4.3,0.2 -8.5,0.7 -12.8,-0.2C294.2,500.1 294.1,500.2 294.1,500.2C294.1,500.2 294.1,500.2 294.1,500.2C294.1,500.2 294.1,500.2 294.1,500.2z" fill="#1976D2"/>
	<path d="M308.8,500.6C308.8,500.6 308.8,500.6 308.8,500.6c-0.6,-0.1 -1.2,-0.1 -1.7,-0.2c0,0 0.1,-0.1 0.1,-0.1c0,0 -0.1,0 -0.1,0c0,0 -0.1,0 -0.1,0c0,0 -0.1,0.1 -0.1,0.1C307.5,500.5 308.2,500.5 308.8,500.6z" fill="#1976D2"/>
	<path d="M170.5,542.9c-0.4,-0.6 -0.8,-1.1 -1.1,-1.7c0,-0.1 -0.1,-0.1 -0.1,-0.2c0.8,1.3 1.6,2.6 2.6,3.9c-0.4,-0.5 -0.7,-1.1 -1.1,-1.7C170.7,543.2 170.6,543.1 170.5,542.9z" fill="#1976D2"/>
	<path d="M154.7,591.4c0,-3.7 0,-7.5 0,-11.3C154.7,583.9 154.6,587.6 154.7,591.4z" fill="#1976D2"/>
	<path d="M118,579.7c-0.5,5.2 -0.3,10.5 -0.4,15.7c0,0.5 0,0.9 0,1.4c0,-0.4 0,-0.9 0,-1.4C117.8,590.2 117.5,584.9 118,579.7z" fill="#1976D2"/>
	<path d="M149,579.9c-10.3,-0.1 -20.7,-0.1 -31,-0.2c-0.5,5.2 -0.2,10.5 -0.4,15.7c0,0.5 0,0.9 0,1.4c0.1,0.9 0.2,1.7 0.5,2.6c0.4,1.2 0.9,2.3 1.6,3.3c2.2,3.2 6,5.1 9.5,5c2.3,-0.1 4.6,-0.1 7,-0.1c2.3,0 4.6,0.1 6.9,0.1c1.8,0 3.6,-0.3 5.1,-1c0.5,-0.2 1,-0.5 1.5,-0.8c1.6,-1 2.8,-2.4 3.7,-4.2c0.4,-0.7 0.6,-1.5 0.9,-2.3c0.3,-1.2 0.5,-2.6 0.4,-4.1c0,-1.3 0,-2.5 0,-3.8c0,-3.8 0,-7.5 0,-11.3C152.8,579.8 150.9,580 149,579.9z" fill="#FFFFFF"/>
	<path d="M118.1,599.3c-0.2,-0.8 -0.4,-1.7 -0.5,-2.6C117.7,597.7 117.9,598.5 118.1,599.3z" fill="#1976D2"/>
	<path d="M278,607.7c3.4,0 6.4,-1.5 8.4,-3.8C284.4,606.2 281.5,607.7 278,607.7z" fill="#1976D2"/>
	<path d="M277.7,607.7C277.7,607.7 277.7,607.7 277.7,607.7c-1.1,0 -2.3,0 -3.4,0C275.4,607.7 276.5,607.7 277.7,607.7z" fill="#1976D2"/>
	<path d="M252.3,595.5c0,-4.4 0,-8.7 0.1,-13.1c0,-2.3 0.1,-2.4 2.4,-2.4c7.5,0 14.9,0 22.4,0c-7.5,0 -15,-0.1 -22.5,0c-2.3,0 -2.3,0.1 -2.4,2.4C252.2,586.8 252.2,591.1 252.3,595.5c0,7.6 4.2,12.1 11.4,12.2c1.2,0 2.4,0 3.6,0c-1.2,0 -2.3,0 -3.5,0C256.6,607.6 252.4,603.1 252.3,595.5z" fill="#1976D2"/>
	<path d="M289.4,595.2c-0.3,-4.8 0,-9.6 0,-14.4c0.1,-0.3 0,-0.5 -0.1,-0.7c-4,0 -8,-0.1 -12.1,-0.1c-7.5,0 -14.9,0 -22.4,0c-2.3,0 -2.4,0.1 -2.4,2.4c-0.1,4.4 -0.1,8.7 -0.1,13.1c0.1,7.6 4.3,12.1 11.5,12.2c1.2,0 2.3,0 3.5,0c2.3,0 4.7,0 7,-0.1c1.2,0 2.3,0 3.5,0c0.1,0 0.2,0 0.3,0c3.5,0 6.4,-1.5 8.4,-3.8c0.2,-0.2 0.3,-0.4 0.5,-0.6c0.1,-0.1 0.1,-0.2 0.2,-0.3C288.7,600.8 289.6,598 289.4,595.2z" fill="#FFFFFF"/>
	<path d="M66.5,441.2c0,0 0,0.1 0,0.1c0.2,0 0.3,0 0.5,0c0.1,-0.2 0.1,-0.3 0.1,-0.4c0,0.1 0,0.2 -0.1,0.3C66.8,441.2 66.7,441.2 66.5,441.2z" fill="#1798CC"/>
	<path d="M66.9,440.8c-0.1,0 -0.3,0 -0.3,0c-0.1,0.2 -0.1,0.3 -0.1,0.4c0.2,0 0.3,0 0.5,0c0,-0.1 0.1,-0.2 0.1,-0.3C67,440.8 67,440.8 66.9,440.8z" fill="#1798CC"/>
	<path d="M74.2,378.1c-0.2,-0.4 -0.5,-0.8 -0.9,-1.2c-0.2,-0.1 -0.3,-0.3 -0.4,-0.5c0.1,0.2 0.3,0.5 0.5,0.7C73.7,377.4 74,377.7 74.2,378.1z" fill="#1976D2"/>
	<path d="M73.5,378.4c0.2,0.2 0.4,0.3 0.6,0.5c0,0 0,0 0,0c0,0 -0.1,-0.1 -0.1,-0.1c0.2,0.2 0.4,0.3 0.6,0.5c-0.1,-0.4 -0.2,-0.8 -0.4,-1.2c-0.2,-0.4 -0.5,-0.7 -0.8,-1c-0.2,-0.2 -0.4,-0.4 -0.5,-0.7c-0.5,-0.6 -0.6,-1.4 -0.7,-2.2C71.3,376.8 71.4,376.9 73.5,378.4z" fill="#1976D2"/>
	<path d="M74.5,379.2c0,0 0.1,0.1 0.1,0.1c0,0 0,0 0,0C74.5,379.3 74.5,379.2 74.5,379.2z" fill="#1976D2"/>
	<path d="M74.6,379.3C74.6,379.3 74.6,379.3 74.6,379.3c-0.2,-0.2 -0.4,-0.3 -0.6,-0.5c0,0 0.1,0.1 0.1,0.1c0.1,0.1 0.2,0.2 0.3,0.3C74.5,379.2 74.5,379.3 74.6,379.3z" fill="#1976D2"/>
	<path d="M74.1,378.9C74.1,378.9 74.1,378.9 74.1,378.9c-0.2,-0.2 -0.4,-0.3 -0.6,-0.5c-2.1,-1.5 -2.2,-1.6 -1.3,-4.1c0,-0.1 0,-0.2 0,-0.3c-1.1,2.8 -1.1,2.8 1.2,4.4c0.2,0.2 0.4,0.3 0.6,0.5s0.4,0.3 0.6,0.5c0,0 0,-0.1 0,-0.1c0,0 -0.1,-0.1 -0.1,-0.1C74.4,379.1 74.2,379 74.1,378.9z" fill="#1976D2"/>
	<path d="M75.6,369.9C75.6,370 75.5,370 75.6,369.9c-0.2,0.2 -0.3,0.2 -0.4,0.3c-0.1,0.1 -0.2,0.2 -0.3,0.3c-0.2,0.2 -0.4,0.4 -0.6,0.7c1.3,-0.1 2.4,-0.5 3,-1.9c-0.1,0 -0.3,0.1 -0.4,0.1C76.4,369.5 76,369.7 75.6,369.9z" fill="#1998CC"/>
	<path d="M75.5,370L75.5,370C75.5,369.9 75.5,370 75.5,370z" fill="#1998CC"/>
	<path d="M75.6,369.9L75.6,369.9C75.5,370 75.6,370 75.6,369.9z" fill="#1998CC"/>
	<path d="M78.8,368.3c-0.2,0.1 -0.3,0.2 -0.5,0.3c-0.2,0.1 -0.4,0.3 -0.6,0.5c1.1,0.1 2,-0.2 2.7,-1.2c-0.5,0 -1,0.1 -1.4,0.3C78.9,368.2 78.9,368.3 78.8,368.3z" fill="#1998CC"/>
	<path d="M78.8,368.3c0.1,0 0.1,-0.1 0.2,-0.1C78.9,368.2 78.8,368.3 78.8,368.3z" fill="#1998CC"/>
	<path d="M73.8,371.5C73.8,371.5 73.9,371.4 73.8,371.5l-0.1,0l-0.1,0.2C73.7,371.6 73.7,371.6 73.8,371.5C73.8,371.5 73.8,371.5 73.8,371.5L73.8,371.5z" fill="#1998CC"/>
	<path d="M73.1,372.1C73.1,372.1 73.1,372.1 73.1,372.1c-0.1,0.1 -0.1,0.2 -0.1,0.3c0.1,-0.1 0.2,-0.2 0.3,-0.4C73.3,372 73.2,372 73.1,372.1C73.1,372 73.1,372 73.1,372.1z" fill="#1998CC"/>
	<path d="M73,372.1c-0.1,0.1 -0.1,0.2 -0.1,0.3C73,372.3 73,372.2 73,372.1z" fill="#1998CC"/>
	<path d="M72.7,372.9c-0.2,0.1 -0.4,0.3 -0.5,0.6c0,0.1 0,0.2 0,0.3c0.1,-0.1 0.1,-0.2 0.2,-0.3c0.1,-0.1 0.1,-0.3 0.2,-0.4C72.6,373 72.7,373 72.7,372.9z" fill="#1998CC"/>
	<path d="M73,421.2c-0.1,0.1 -0.1,0.1 -0.1,0.1c0,0.1 0,0.1 -0.1,0.2c0.2,-0.1 0.3,-0.3 0.5,-0.4C73.2,421.1 73.2,421.1 73,421.2z" fill="#1998CC"/>
	<path d="M72.8,421.5c0.1,-0.1 0.1,-0.1 0.1,-0.2C72.8,421.4 72.8,421.4 72.8,421.5z" fill="#1998CC"/>
	<path d="M73.7,420.4c0.1,-0.1 0.2,-0.1 0.3,-0.2C73.9,420.2 73.8,420.3 73.7,420.4z" fill="#1998CC"/>
	<path d="M74,420.2c-0.1,0.1 -0.2,0.1 -0.3,0.2c-0.1,0.1 -0.1,0.2 -0.1,0.3C73.8,420.6 73.9,420.4 74,420.2z" fill="#1998CC"/>
	<path d="M73.7,420.4c0.1,-0.1 0.2,-0.1 0.3,-0.2C73.9,420.3 73.8,420.3 73.7,420.4z" fill="#1998CC"/>
	<path d="M75.1,380.2c0,0 0.1,0 0.1,0.1c-0.2,-0.3 -0.3,-0.5 -0.5,-0.8c0,0.1 0,0.2 0,0.2C74.9,379.8 75,380 75.1,380.2z" fill="#1998CC"/>
	<path d="M74.7,379.4L74.7,379.4c0,-0.1 -0.1,-0.1 -0.1,-0.2C74.6,379.3 74.6,379.3 74.7,379.4C74.7,379.4 74.7,379.4 74.7,379.4z" fill="#1998CC"/>
	<path d="M75.2,380.2C75.2,380.2 75.2,380.2 75.2,380.2c0.1,0 0.1,0.1 0.1,0.1c0,0 0,0 0,0C75.2,380.2 75.2,380.2 75.2,380.2C75.2,380.2 75.2,380.2 75.2,380.2z" fill="#1998CC"/>
	<path d="M75.2,380.2C75.2,380.2 75.2,380.2 75.2,380.2C75.2,380.2 75.1,380.2 75.2,380.2C75.1,380.2 75.2,380.2 75.2,380.2z" fill="#1998CC"/>
	<path d="M74.6,379.3C74.6,379.3 74.6,379.3 74.6,379.3C74.6,379.3 74.6,379.3 74.6,379.3c0,-0.1 0,-0.1 0,-0.1C74.6,379.2 74.6,379.3 74.6,379.3z" fill="#1998CC"/>
	<path d="M75,380.1c0,0 0.1,0.1 0.1,0.1c-0.1,-0.2 -0.2,-0.4 -0.3,-0.5c0,0 0,0 0,0C74.8,379.8 74.9,380 75,380.1z" fill="#1998CC"/>
	<path d="M74.7,379.4c0,0.1 0,0.2 0,0.2v-0.1c0,0.1 0.1,0.1 0.1,0.2C74.8,379.6 74.8,379.5 74.7,379.4C74.7,379.4 74.7,379.4 74.7,379.4L74.7,379.4C74.7,379.4 74.7,379.4 74.7,379.4z" fill="#1998CC"/>
	<path d="M75.2,380.2C75.2,380.3 75.2,380.3 75.2,380.2C75.2,380.2 75.2,380.2 75.2,380.2C75.2,380.2 75.2,380.2 75.2,380.2z" fill="#1998CC"/>
	<path d="M75.1,380.2c-0.2,-0.1 -0.4,-0.3 -0.4,-0.4C74.8,380 74.9,380.2 75.1,380.2C75.2,380.2 75.2,380.2 75.1,380.2C75.2,380.2 75.1,380.2 75.1,380.2z" fill="#1998CC"/>
	<path d="M74.6,379.3c0,0.1 0,0.2 0.1,0.3C74.7,379.5 74.7,379.4 74.6,379.3C74.6,379.3 74.6,379.3 74.6,379.3z" fill="#1998CC"/>
	<path d="M74.8,379.7C74.8,379.7 74.8,379.7 74.8,379.7c0,-0.1 -0.1,-0.1 -0.1,-0.2L74.8,379.7c0,0.1 0.1,0.2 0.2,0.4C74.9,380 74.8,379.8 74.8,379.7z" fill="#1998CC"/>
	<path d="M75.4,380.3c-0.1,0 -0.1,0 -0.1,-0.1c0,0 0,0 0,0C75.3,380.3 75.4,380.3 75.4,380.3z" fill="#1998CC"/>
	<path d="M75.2,380.2c0,0 0.1,0 0.1,0c0,0 0,0 0,0C75.2,380.2 75.2,380.2 75.2,380.2C75.1,380.2 75.2,380.2 75.2,380.2z" fill="#1998CC"/>
	<path d="M75.1,380.2C75.1,380.2 75.2,380.2 75.1,380.2C75.2,380.2 75.1,380.2 75.1,380.2c-0.1,0 -0.1,-0.1 -0.1,-0.1C75,380.1 75.1,380.2 75.1,380.2z" fill="#1998CC"/>
	<path d="M75.1,380.2c0,0 -0.1,-0.1 -0.1,-0.1c-0.1,-0.1 -0.3,-0.3 -0.3,-0.5c0,0.1 0,0.1 0,0.2C74.8,380 74.9,380.1 75.1,380.2z" fill="#1998CC"/>
	<path d="M74.7,379.8c0,-0.1 0,-0.1 0,-0.2C74.7,379.7 74.7,379.7 74.7,379.8z" fill="#1998CC"/>
	<path d="M172.8,546.3C172.8,546.2 172.8,546.2 172.8,546.3C172.8,546.2 172.8,546.2 172.8,546.3C172.8,546.3 172.8,546.3 172.8,546.3z" fill="#1976D2"/>
	<path d="M172.8,546.2c-0.3,-0.4 -0.6,-0.8 -0.9,-1.2C172.2,545.4 172.5,545.9 172.8,546.2C172.8,546.3 172.8,546.3 172.8,546.2C172.8,546.2 172.8,546.2 172.8,546.2z" fill="#1976D2"/>
	<path d="M239.2,526.4c-0.3,-0.1 -0.6,-0.1 -1,-0.2c-0.2,0 -0.5,0 -0.7,0c-4.7,0 -9.4,0.1 -14.1,0.1s-9.4,0 -14.1,0s-9.4,0 -14.1,0c-4.7,0 -9.4,0 -14.1,0c-4,0 -8,0 -12,0c-3.1,0.1 -4.9,1.8 -4.8,4.3c0,0.8 0.3,1.7 0.7,2.7c0.6,1.2 1.1,2.3 1.7,3.4c0.6,1.1 1.2,2.2 1.9,3.3c0.2,0.4 0.5,0.7 0.7,1.1c-0.2,-0.4 -0.5,-0.8 -0.7,-1.2c0.6,1 1.2,2 1.9,3c0.1,0.1 0.2,0.3 0.3,0.4c0.7,1 1.3,2 2,2.9l0,0c0.1,-0.1 0.2,-0.2 0.3,-0.3c0.1,0 0.1,0 0.1,0c0,0 0,-0.1 0,-0.1c0,0 0,0 0,0s0,0 0,0c0,0 0,-0.1 -0.1,-0.1c-0.6,-2.1 -0.9,-3 -0.3,-3.6c0.4,-0.4 1.2,-0.6 2.7,-0.9c-0.9,-1.7 -1.9,-3.3 -2.8,-4.9c-0.2,-0.4 -0.3,-0.7 -0.5,-1.1c-0.3,-0.7 -0.6,-1.5 -0.8,-2.3c0,0 0,0 0.1,0c0,-0.1 0,-0.1 -0.1,-0.2c0,0 0,0 0,0c0,0 0,-0.1 0,-0.1c0,0 0,0.1 0,0.1c21.4,0 42.4,0 63.6,0c0,0.1 0,0.1 0,0.2c0,0 0,0 0,0c-0.1,1 -0.4,1.8 -0.8,2.6c-0.3,0.5 -0.6,1 -0.9,1.5s-0.6,1 -0.9,1.5c-0.1,0.2 -0.2,0.4 -0.3,0.6c1,0.5 1.6,0.9 2,1.3c0.2,0.2 0.3,0.3 0.4,0.5c0.2,0.2 0.3,0.5 0.3,0.8c0,0.2 0,0.4 0,0.6c0,0.5 -0.1,1.3 -0.2,2.2c0.1,0 0.1,0.1 0,0c0,0.1 0,0.1 0,0.2l0.1,0.1c0,-0.1 0,-0.1 0,-0.2c0,0 0,0 0,0c0,0 0,0 0,0c2.8,-3.3 4.9,-7.2 7,-11c0.5,-0.9 0.8,-1.9 0.8,-2.7C242.7,528.7 241.4,527 239.2,526.4zM234.6,540.8c0.2,0.2 0.3,0.5 0.3,0.8C234.9,541.3 234.8,541.1 234.6,540.8z" fill="#1976D2"/>
	<path d="M238.2,526.2c0.3,0 0.7,0.1 1,0.2C238.9,526.3 238.6,526.3 238.2,526.2z" fill="#1976D2"/>
	<path d="M233.4,539.8c0.3,0.2 0.6,0.4 0.8,0.6c-0.4,-0.4 -1.1,-0.8 -2,-1.3c0,0 0,0 0,0C232.6,539.4 233,539.6 233.4,539.8z" fill="#1976D2"/>
	<path d="M234.9,541.6c0,-0.3 -0.1,-0.6 -0.3,-0.8C234.8,541.1 234.9,541.3 234.9,541.6z" fill="#1976D2"/>
	<path d="M172.8,546.2c-0.7,-0.9 -1.4,-1.9 -2,-2.9c0.4,0.6 0.7,1.1 1.1,1.7C172.2,545.4 172.5,545.8 172.8,546.2z" fill="#1976D2"/>
	<path d="M170.5,542.9c-0.7,-1 -1.3,-2 -1.9,-3c0.2,0.4 0.4,0.8 0.7,1.2c0,0.1 0.1,0.1 0.1,0.2C169.7,541.8 170.1,542.4 170.5,542.9z" fill="#1976D2"/>
	<path d="M170.8,543.3c-0.1,-0.1 -0.2,-0.3 -0.3,-0.4C170.6,543.1 170.7,543.2 170.8,543.3z" fill="#1976D2"/>
	<path d="M172.8,546.3C172.8,546.2 172.8,546.2 172.8,546.3C172.8,546.2 172.8,546.2 172.8,546.3C172.8,546.3 172.8,546.3 172.8,546.3z" fill="#1976D2"/>
	<path d="M209.3,526.3c-4.7,0 -9.4,0 -14.1,0C199.9,526.3 204.6,526.3 209.3,526.3z" fill="#1976D2"/>
	<path d="M223.4,526.3c-4.7,0 -9.4,0 -14.1,0C214,526.3 218.7,526.3 223.4,526.3z" fill="#1976D2"/>
	<path d="M169.1,526.3c4,0 8,0 12,0C177.1,526.3 173.1,526.2 169.1,526.3z" fill="#1976D2"/>
	<path d="M238.2,526.2c-0.2,0 -0.5,0 -0.7,0c-4.7,0.1 -9.4,0.1 -14.1,0.1c4.7,0 9.4,-0.1 14.1,-0.1C237.8,526.2 238,526.2 238.2,526.2z" fill="#1976D2"/>
	<path d="M234.8,544.6c0,0.1 0,0.1 0,0.2l0,0c2.8,-3.3 4.9,-7.2 7,-11c0.5,-1 0.8,-2 0.8,-2.9c0,0.9 -0.3,1.8 -0.8,2.7C239.7,537.4 237.6,541.3 234.8,544.6z" fill="#1976D2"/>
	<path d="M171.9,545c0.3,0.4 0.6,0.9 0.9,1.3C172.5,545.9 172.2,545.4 171.9,545C171.9,545 171.9,545 171.9,545z" fill="#1976D2"/>
	<path d="M169.1,526.3c-3.1,0 -4.9,1.8 -4.8,4.3C164.2,528.1 166,526.4 169.1,526.3z" fill="#1976D2"/>
	<path d="M170.8,543.3C170.8,543.3 170.8,543.3 170.8,543.3c0.4,0.6 0.7,1.1 1.1,1.7c0,0 0,0 0,0C171.5,544.4 171.1,543.9 170.8,543.3z" fill="#1976D2"/>
	<path d="M170.5,542.9C170.5,542.9 170.5,542.9 170.5,542.9c-0.4,-0.6 -0.8,-1.1 -1.1,-1.7C169.7,541.8 170.1,542.4 170.5,542.9z" fill="#1976D2"/>
	<path d="M170.8,543.3C170.8,543.3 170.8,543.3 170.8,543.3c-0.1,-0.1 -0.2,-0.3 -0.3,-0.4c0,0 0,0 0,0C170.6,543.1 170.7,543.2 170.8,543.3z" fill="#1976D2"/>
	<path d="M288.9,525.4c-5.7,4.9 -12.4,7.9 -19.2,10.8c-0.9,0.4 -1.8,0.5 -2.8,0.6c-3.8,0.3 -6.5,-2.3 -6.4,-6c-0.2,3.7 2.5,6.4 6.4,6.1c0.9,-0.1 1.9,-0.3 2.8,-0.6C276.4,533.4 283.2,530.4 288.9,525.4c2,-1.6 2.9,-3.9 3,-6.1c0,0 0,-0.1 0,-0.1C291.8,521.4 290.9,523.7 288.9,525.4z" fill="#FFFFFF"/>
	<path d="M309,551.7c0,-0.7 0,-1.5 0,-2.3c0,-16.2 0,-32.3 0,-48.5l-0.2,-0.1v-0.2c-0.6,-0.1 -1.3,-0.1 -1.9,-0.2c-4.2,0.2 -8.5,0.7 -12.7,-0.2c-0.1,0.1 -0.3,0.2 -0.4,0.2c0.1,0 0.2,-0.1 0.4,-0.2c0,0 -0.1,0 -0.1,0c-0.1,0.1 -0.3,0.1 -0.4,0.2c-0.3,0.2 -0.5,0.3 -0.8,0.3c-0.1,0 -0.3,0 -0.4,0c-0.1,0 -0.3,0 -0.4,0c0,0 -0.1,0 -0.1,0c-0.4,-0.1 -0.8,-0.2 -1.2,-0.5c-0.3,0.2 -0.5,0.3 -0.8,0.3c-0.6,0.1 -1.2,0.1 -1.7,0.1c-12.8,0 -25.5,0 -38.3,0c-0.8,0 -1.7,0.3 -2.4,-0.4c-2.3,0.7 -4.6,0.6 -6.9,0c-0.1,0 -0.1,0 -0.2,0c-0.2,0.1 -0.4,0.1 -0.6,0.2c-1.8,0.6 -3.6,0.2 -5.4,0.2c-3,-0.1 -6.1,0.6 -9.1,-0.3c-0.8,0.6 -1.7,0.3 -2.6,0.3c-19.8,0 -39.6,0 -59.4,0c-1,0 -2,0.3 -2.8,-0.4c-0.1,0 -0.2,0 -0.3,0c-2.4,0.7 -4.8,0.7 -7.2,0.1c0,0 0,0 -0.1,0c0,0 -0.1,0.1 -0.1,0.1c0,0 -0.1,0 -0.1,0c-0.2,0.1 -0.3,0.2 -0.4,0.2c-0.4,0.1 -0.8,0.1 -1.2,0.1c0,0 0,0 0,0c0,0 -0.1,0 -0.1,0c0,0 0.1,0 0.1,0c-0.4,0 -0.8,-0.1 -1.2,-0.1c-3.9,-0.2 -7.8,0.6 -11.5,-0.4c-0.1,0 -0.3,0 -0.4,0c-1.1,0.8 -2.3,0.4 -3.4,0.4c-11.2,0 -22.3,0 -33.5,0c-1.1,0 -2.1,0.1 -3.2,0.2c0,6.6 0,13.3 0,19.9c0,11.3 0,22.6 0,33.9c0,4.3 1.2,8.1 4.1,11.3c1.9,2 3.9,3.7 6.3,4.9l0.1,0.1c0.5,0.1 0.9,0.1 1.3,0.4c0.1,0.1 0.3,0.2 0.4,0.3c0.4,0.1 0.8,0.2 1.3,0.3c0.3,0 0.5,-0.1 0.8,0c0.1,0 0.2,0 0.3,0.1c0.1,0.1 0.2,0.1 0.3,0.2c0,0 0.1,0.1 0.1,0.1c0,0 0.1,0 0.1,0c0.2,-0.3 0.5,-0.1 0.7,0c4.9,-0.1 9.8,-0.3 14.7,0.1c2.1,-0.3 4.2,-0.3 6.3,0c0.2,-0.1 0.4,-0.1 0.6,-0.1s0.4,0 0.6,0.1c1.3,-0.3 2.5,-0.3 3.8,0c1,-0.1 2.1,-0.2 3.1,-0.2c33.6,0 67.1,0 100.7,0c0.9,0 1.9,0.1 2.8,0.2c1.7,-0.3 3.4,-0.3 5.1,0c2.1,-0.2 4.2,-0.3 6.4,-0.3c1.1,0 2.1,0 3.2,0.1c1.1,0 2.1,0.1 3.2,0.2c4.7,-0.3 9.3,-0.3 14,0c2.4,-0.2 4.9,-0.2 7.3,-0.2c2.4,0 4.9,0.1 7.3,0.2c0.3,-0.2 0.6,-0.4 0.9,0c1.3,-0.9 2.7,-1 4.2,-1.3c0.8,-0.7 1.8,-1.3 2.9,-1.4c0,-0.1 0.1,-0.2 0.2,-0.2c0.2,-0.2 0.4,-0.3 0.7,-0.4l0.1,-0.1c0,-0.2 0.1,-0.3 0.2,-0.4c0.1,-0.1 0.2,-0.1 0.4,-0.1c0.9,-0.9 1.8,-1.9 2.7,-2.8c0,-0.1 0,-0.3 0.1,-0.4l0.1,-0.1c0,0 0.1,0 0.2,-0.1l0.1,-0.2c2.5,-3.2 3.2,-6.8 3.3,-10.6C309.1,553.5 309.1,552.6 309,551.7zM145.9,533.4c-1,2.4 -3.1,3.2 -5.4,3.3c-1.3,-0.2 -2.6,-0.2 -3.8,-0.7c-1.9,-0.9 -3.8,-1.7 -5.7,-2.6c-4.1,-1.9 -8.1,-4.1 -11.7,-7c-2.3,-1.8 -4,-4.1 -4.2,-7.2c0,0 0,0 0,0c-0.4,-4.1 2.1,-6.9 5.6,-7c0.5,0 1,0 1.6,0.1c0.7,0.1 1.4,0.4 2.1,0.7c6.2,2.7 12,6 17.4,10.3c1.2,0.9 2.3,2 3.2,3.2c1,1.3 1.5,2.7 1.5,4.2C146.5,531.6 146.3,532.5 145.9,533.4zM241.8,533.8c-2.1,3.8 -4.2,7.7 -7,11l0,0c0,0.3 -0.1,0.7 -0.3,0.9c-0.1,0.1 -0.2,0.2 -0.3,0.2c-0.2,0.3 -0.3,0.5 -0.5,0.7c-0.6,0.6 -1.2,0.9 -1.9,1.1c-0.9,0.2 -1.9,0.2 -2.9,0.2c-9.4,0 -18.8,0 -28.2,0c-7.8,0 -15.6,0.1 -23.4,0.1c-0.4,0 -0.8,0 -1.3,0c-0.4,0 -0.8,-0.1 -1.1,-0.1c-0.2,-0.1 -0.4,-0.1 -0.7,-0.2c-0.4,-0.2 -0.7,-0.4 -1,-0.8c-0.2,-0.2 -0.3,-0.4 -0.4,-0.6l0,0c-0.3,-0.4 -0.6,-0.9 -0.9,-1.3c-0.9,-1.3 -1.8,-2.6 -2.6,-3.9c-0.2,-0.4 -0.5,-0.7 -0.7,-1.1c-0.6,-1.1 -1.3,-2.2 -1.9,-3.3c-0.6,-1.1 -1.2,-2.2 -1.7,-3.4c-0.5,-1 -0.7,-1.9 -0.7,-2.7c-0.1,-2.5 1.8,-4.3 4.8,-4.3c4,-0.1 8,0 12,0c4.7,0 9.4,0 14.1,0c4.7,0 9.4,0 14.1,0c4.7,0 9.4,0 14.1,0c4.7,0 9.4,-0.1 14.1,-0.1c0.3,0 0.5,0 0.7,0c0.3,0 0.7,0.1 1,0.2c2.2,0.6 3.5,2.3 3.4,4.4C242.6,531.8 242.3,532.8 241.8,533.8zM291.9,519.3c-0.1,2.2 -1,4.5 -3,6.2c-5.7,4.9 -12.5,7.9 -19.2,10.8c-0.9,0.3 -1.9,0.5 -2.8,0.6c-3.9,0.4 -6.6,-2.4 -6.4,-6.1c0,-0.6 0.1,-1.1 0.3,-1.7c0.5,-1.7 1.4,-3.1 2.8,-4.4c3.8,-3.5 8,-6.1 12.5,-8.5c2.6,-1.4 5.2,-3 8.1,-3.8c4.4,-1.1 7.8,1.6 7.7,6.7c0,0 0,0 0,0.1C291.9,519.2 291.9,519.3 291.9,519.3z" fill="#FFFFFF"/>
	<path d="M284.2,512.5c-2.9,0.8 -5.4,2.4 -8.1,3.8c-4.4,2.3 -8.7,5 -12.5,8.5c-1.3,1.2 -2.3,2.6 -2.8,4.4c-0.1,0.6 -0.2,1.1 -0.3,1.6c-0.1,3.6 2.5,6.3 6.4,6c1,-0.1 1.9,-0.2 2.8,-0.6c6.8,-2.9 13.5,-5.9 19.2,-10.8c2,-1.7 2.9,-4 3,-6.2C291.8,514.1 288.6,511.4 284.2,512.5z" fill="#1976D2"/>
	<path d="M141.8,523.3c-5.4,-4.2 -11.2,-7.5 -17.4,-10.3c-0.7,-0.3 -1.4,-0.5 -2.1,-0.7c-0.5,-0.1 -1.1,-0.1 -1.6,-0.1c-3.5,0.1 -5.9,2.9 -5.6,7c0,0 0,0 0,0c0.3,3.1 1.9,5.4 4.2,7.2c3.6,2.8 7.6,5 11.7,7c1.9,0.9 3.8,1.8 5.7,2.6c1.2,0.5 2.5,0.5 3.8,0.7c2.3,-0.1 4.3,-0.9 5.4,-3.3c0.4,-0.9 0.6,-1.8 0.6,-2.7c0,-1.5 -0.5,-2.9 -1.5,-4.2C144.1,525.3 142.9,524.2 141.8,523.3z" fill="#1976D2"/>
	<path d="M120.7,512.2c0.5,0 1,0 1.6,0.1C121.7,512.2 121.2,512.2 120.7,512.2z" fill="#FFFFFF"/>
	<path d="M146.5,530.7c0,-1.5 -0.5,-2.9 -1.5,-4.2C146,527.8 146.5,529.2 146.5,530.7z" fill="#FFFFFF"/>
	<path d="M115.1,519.2c0.2,3.1 1.9,5.4 4.2,7.2C117,524.6 115.4,522.3 115.1,519.2z" fill="#FFFFFF"/>
	<path d="M140.5,536.7c2.3,-0.1 4.4,-0.9 5.4,-3.3C144.8,535.8 142.8,536.6 140.5,536.7z" fill="#FFFFFF"/>
	<path d="M136.7,536c-1.9,-0.9 -3.8,-1.7 -5.7,-2.6C132.9,534.3 134.8,535.1 136.7,536z" fill="#FFFFFF"/>
	<path d="M173.1,546c-0.1,0.1 -0.2,0.2 -0.3,0.3c0.1,0.2 0.3,0.4 0.4,0.5c0.3,0.3 0.6,0.6 1,0.8c0.2,0.1 0.4,0.2 0.7,0.2c0.4,0.1 0.7,0.1 1.1,0.1c-0.4,0 -0.8,-0.1 -1.1,-0.1c0.3,0 0.7,0.1 1.1,0.1c0,0 0,0 0,0c0.4,0 0.8,0 1.3,0c7.8,0 15.6,-0.1 23.4,-0.1c9.4,0 18.8,0 28.2,0c1,0 2,0 2.9,-0.2c0.1,0 0.2,-0.1 0.3,-0.1c-0.1,0 -0.2,0.1 -0.4,0.1c0.7,-0.2 1.3,-0.5 1.9,-1.1c0.2,-0.2 0.4,-0.4 0.5,-0.6l-0.1,-0.1c-7.7,1.3 -15.5,0.7 -23.3,0.8c-10.6,0.1 -21.3,0 -31.9,0c-1.9,0 -3.8,-0.1 -5.6,-0.7c0,0 0,0 0,0C173.2,545.9 173.2,546 173.1,546C173.1,546 173.1,546 173.1,546zM174.2,547.5c0.3,0.1 0.5,0.1 0.7,0.2C174.6,547.7 174.4,547.6 174.2,547.5c-0.4,-0.1 -0.7,-0.4 -1,-0.8C173.5,547.1 173.8,547.3 174.2,547.5z" fill="#1976D2"/>
	<path d="M233.6,546.5c-0.2,0.3 -0.5,0.5 -0.8,0.7C233.1,547 233.4,546.8 233.6,546.5c0.2,-0.2 0.4,-0.4 0.5,-0.6l0,0C234,546.1 233.8,546.3 233.6,546.5z" fill="#1976D2"/>
	<path d="M174.2,547.5c0.2,0.1 0.4,0.2 0.7,0.2C174.7,547.6 174.5,547.6 174.2,547.5z" fill="#1976D2"/>
	<path d="M233.6,546.5c-0.6,0.6 -1.2,0.9 -1.9,1.1c0.1,0 0.3,-0.1 0.4,-0.1c0.2,-0.1 0.5,-0.2 0.7,-0.3C233.1,547 233.4,546.8 233.6,546.5z" fill="#1976D2"/>
	<path d="M173.1,546C173.1,546 173.1,546 173.1,546c0.1,0 0.1,-0.1 0.1,-0.1c0,0 0,0 -0.1,0c-0.1,0.1 -0.2,0.2 -0.3,0.3l0,0C172.9,546.1 173,546 173.1,546c-0.1,0 -0.2,0.1 -0.3,0.2c0,0 0,0 0,0.1C172.9,546.2 173,546.1 173.1,546z" fill="#1976D2"/>
	<path d="M174.2,547.5c-0.4,-0.2 -0.7,-0.4 -1,-0.8C173.5,547.1 173.8,547.4 174.2,547.5z" fill="#1976D2"/>
	<path d="M242.8,573.3c-33.1,0 -66.2,0 -99.3,0c-0.9,0 -1.8,0 -2.7,-0.2c0.9,0.4 1.9,0.3 3,0.3c33.1,0 66.2,0 99.3,0c1.3,0 2.6,0.1 3.7,-0.7c-0.1,0 -0.3,0 -0.4,0C245.3,573.4 244.1,573.3 242.8,573.3z" fill="#1976D2"/>
	<path d="M143.2,572.5c-1,0 -2.1,0.1 -3.1,0.2c0.2,0.2 0.5,0.3 0.7,0.4c0.8,0.2 1.7,0.2 2.7,0.2c33.1,0 66.2,0 99.3,0c1.3,0 2.5,0.1 3.6,-0.6c-0.8,-0.1 -1.6,-0.2 -2.4,-0.2C210.4,572.5 176.8,572.4 143.2,572.5z" fill="#1976D2"/>
	<path d="M225.3,500.2c0,0 0.1,0 0.1,0c0,0 0,0 0,0c-21.4,0 -42.9,0 -64.4,0l0,0C182.4,500.2 203.8,500.2 225.3,500.2z" fill="#1976D2"/>
	<path d="M163.5,500.5c19.8,0 39.6,0 59.4,0c0.8,0 1.7,0.2 2.5,-0.3c0,0 -0.1,0 -0.1,0c-21.5,0 -42.9,0 -64.3,0C161.8,500.7 162.7,500.5 163.5,500.5z" fill="#1976D2"/>
	<path d="M160.7,500.2c0.1,0 0.2,0 0.3,0l0,0C160.9,500.2 160.8,500.2 160.7,500.2L160.7,500.2z" fill="#1976D2"/>
	<path d="M225.5,500.3C225.5,500.2 225.6,500.2 225.5,500.3C225.6,500.2 225.5,500.2 225.5,500.3c-0.1,0 -0.1,0 -0.1,0C225.5,500.2 225.5,500.2 225.5,500.3z" fill="#1976D2"/>
	<path d="M222.9,500.5c-19.8,0 -39.6,0 -59.4,0c-0.8,0 -1.7,0.2 -2.5,-0.3c-0.1,0 -0.2,0 -0.3,0c0.8,0.7 1.8,0.4 2.8,0.4c19.8,0 39.6,0 59.4,0c0.9,0 1.8,0.3 2.6,-0.3c0,0 -0.1,0 -0.1,0C224.6,500.7 223.7,500.5 222.9,500.5z" fill="#1976D2"/>
	<path d="M290.7,573.3c0.1,0 0.1,0 0.2,0c0.9,0 1.6,-0.3 2.4,-0.7c-0.1,0 -0.1,0 -0.2,0c0,0 0,0 0,0C292.4,573.1 291.6,573.3 290.7,573.3z" fill="#1976D2"/>
	<path d="M285.8,572.4c-1.2,0 -2.4,0 -3.6,0.1c-1.2,0 -2.4,0.1 -3.6,0.1c0.1,0 0.1,0 0.2,0c-0.1,0 -0.2,0 -0.3,0c0.6,0.4 1.3,0.7 2.1,0.7c3.4,0 6.8,0 10.1,0c0.9,0 1.7,-0.2 2.4,-0.7c0,0 0,0 0,0c-2.3,-0.1 -4.8,-0.2 -7.1,-0.2C285.9,572.4 285.9,572.4 285.8,572.4z" fill="#1976D2"/>
	<path d="M285.8,572.4c0,0 0.1,0 0.1,0c-2.3,0 -4.8,0 -7.1,0.2c1.2,0 2.3,-0.1 3.4,-0.1C283.4,572.4 284.6,572.4 285.8,572.4z" fill="#1976D2"/>
	<path d="M282.2,572.5c-1.2,0 -2.3,0.1 -3.4,0.1c-0.1,0 -0.1,0 -0.2,0C279.8,572.5 281,572.5 282.2,572.5z" fill="#1976D2"/>
	<path d="M285.8,572.4c-1.2,0 -2.4,0 -3.6,0.1C283.4,572.4 284.6,572.4 285.8,572.4z" fill="#1976D2"/>
	<path d="M128.6,572.7c-0.1,0 -0.2,0 -0.3,0c-0.7,0.4 -1.4,0.6 -2.3,0.6c-3.2,0 -6.5,0 -9.7,0c-0.5,0 -0.9,0 -1.4,-0.2c0.5,0.2 1.1,0.3 1.7,0.3c3.2,0 6.5,0 9.7,0C127.2,573.4 128,573.2 128.6,572.7c0,0 -0.2,0 -0.3,0c0,0 0,0 0,0C128.4,572.7 128.5,572.7 128.6,572.7z" fill="#1998CC"/>
	<path d="M126,573.3c0.8,0 1.6,-0.2 2.3,-0.6c-4.8,-0.4 -9.6,-0.2 -14.4,-0.1c0.3,0.2 0.7,0.4 1,0.5c0.4,0.1 0.9,0.2 1.4,0.2C119.5,573.3 122.8,573.3 126,573.3z" fill="#1998CC"/>
	<path d="M128.3,572.7C128.3,572.7 128.3,572.7 128.3,572.7c-2.3,-0.2 -4.6,-0.3 -6.9,-0.3C123.7,572.4 126,572.5 128.3,572.7z" fill="#1998CC"/>
	<path d="M113.9,572.6c2.5,-0.1 5,-0.2 7.4,-0.2C118.9,572.4 116.4,572.5 113.9,572.6z" fill="#1998CC"/>
	<path d="M128.6,572.7c-0.1,0 -0.2,0 -0.3,0c0,0 0,0 0,0C128.4,572.7 128.5,572.7 128.6,572.7z" fill="#1998CC"/>
	<path d="M128.3,572.7C128.3,572.7 128.3,572.7 128.3,572.7c-2.3,-0.2 -4.6,-0.3 -6.9,-0.3c-2.5,0 -4.9,0.1 -7.4,0.2C118.7,572.5 123.5,572.3 128.3,572.7z" fill="#1998CC"/>
	<path d="M152.9,500.2C152.9,500.2 152.9,500.2 152.9,500.2c-4.5,0 -9,0 -13.4,0c0,0 0,0 0,0C143.9,500.2 148.4,500.2 152.9,500.2z" fill="#1976D2"/>
	<path d="M150.1,500.4c0.4,0 0.8,0.1 1.2,0.1c0.4,0 0.8,0 1.2,-0.1c0.2,-0.1 0.2,-0.2 0.4,-0.2c-4.5,0 -9,0 -13.4,0C143,500.9 146.5,500.2 150.1,500.4z" fill="#1976D2"/>
	<path d="M138.6,500.2c0.3,0 0.6,0 0.9,0c0,0 0,0 0,0C139.2,500.2 138.9,500.2 138.6,500.2C138.6,500.2 138.6,500.2 138.6,500.2z" fill="#1976D2"/>
	<path d="M152.9,500.2c0.1,0 0.1,0 0.2,0.1c0,0 0.1,0 0.1,-0.1C153.1,500.2 153,500.2 152.9,500.2C152.9,500.2 152.9,500.2 152.9,500.2C152.9,500.2 152.9,500.2 152.9,500.2z" fill="#1976D2"/>
	<path d="M153.2,500.2C153.2,500.2 153.2,500.2 153.2,500.2C153.1,500.3 153.1,500.3 153.2,500.2C153.2,500.2 153.2,500.2 153.2,500.2C153.3,500.2 153.2,500.2 153.2,500.2z" fill="#1976D2"/>
	<path d="M153.1,500.3C153.1,500.3 153.1,500.3 153.1,500.3C153.1,500.3 153.1,500.3 153.1,500.3C153.1,500.3 153.1,500.3 153.1,500.3z" fill="#1976D2"/>
	<path d="M153.1,500.3c-0.1,0 -0.1,0 -0.2,-0.1c0,0 0,0 0,0c-0.2,0 -0.2,0.1 -0.4,0.2c-0.4,0.1 -0.8,0.1 -1.2,0.1c-0.4,0 -0.8,-0.1 -1.2,-0.1c-3.6,-0.2 -7.1,0.5 -10.6,-0.2c-0.3,0 -0.6,0 -0.9,0c3.7,1 7.6,0.2 11.5,0.4c0.4,0 0.8,0.1 1.2,0.1c0.4,0 0.7,0 1.1,-0.1c-0.3,0.1 -0.7,0.1 -1.1,0.1c0,0 0,0 0,0c0.4,0 0.8,0 1.2,-0.1c0.1,0 0.2,-0.1 0.4,-0.2c0,0 0.1,0 0.1,0c-0.1,0 -0.1,0 -0.2,0C152.9,500.4 153,500.3 153.1,500.3z" fill="#1976D2"/>
	<path d="M151.2,500.7C151.2,500.7 151.3,500.7 151.2,500.7C151.3,500.7 151.3,500.7 151.2,500.7C151.3,500.7 151.2,500.7 151.2,500.7z" fill="#1976D2"/>
	<path d="M151.3,500.7C151.3,500.7 151.3,500.7 151.3,500.7c0.5,0 0.8,0 1.1,-0.1C152,500.7 151.7,500.7 151.3,500.7z" fill="#1976D2"/>
	<path d="M153.2,500.2C153.2,500.2 153.1,500.2 153.2,500.2C153.1,500.3 153.1,500.3 153.2,500.2C153.2,500.2 153.2,500.2 153.2,500.2z" fill="#1976D2"/>
	<path d="M153.1,500.3c-0.1,0.1 -0.2,0.1 -0.3,0.1c0.1,0 0.1,0 0.2,0C153,500.3 153.1,500.3 153.1,500.3C153.1,500.3 153.1,500.3 153.1,500.3C153.1,500.3 153.1,500.3 153.1,500.3z" fill="#1976D2"/>
	<path d="M252,572.7c-0.1,0 -0.1,0 -0.2,0c4.2,1.2 8.5,1.2 12.7,0c-0.2,0 -0.3,0 -0.5,0C260,573.7 255.9,573.8 252,572.7z" fill="#1976D2"/>
	<path d="M258.2,572.4c-2,0 -4.1,0.1 -6.2,0.3c4,1.1 8.1,1 12,0c-0.9,-0.1 -1.8,-0.1 -2.7,-0.2C260.3,572.4 259.3,572.4 258.2,572.4z" fill="#1976D2"/>
	<path d="M251.9,572.7c0,0 -0.1,0 -0.1,0C251.9,572.7 251.9,572.7 251.9,572.7C252,572.7 251.9,572.7 251.9,572.7z" fill="#1976D2"/>
	<path d="M258.2,572.4c-2.1,0 -4.1,0 -6.3,0.3c0,0 0,0 0,0C254.1,572.5 256.2,572.4 258.2,572.4z" fill="#1976D2"/>
	<path d="M247.5,500.2C247.5,500.2 247.5,500.2 247.5,500.2c-2.1,0 -4.2,0 -6.3,0c0,0 0,0 0,0C243.3,500.2 245.4,500.2 247.5,500.2z" fill="#1998CC"/>
	<path d="M247.5,500.2c-2.1,0 -4.2,0 -6.3,0C243.3,500.8 245.4,500.8 247.5,500.2z" fill="#1998CC"/>
	<path d="M240.7,500.2c0.2,0 0.3,0 0.5,0c0,0 0,0 0,0C241,500.2 240.9,500.2 240.7,500.2C240.7,500.2 240.7,500.2 240.7,500.2z" fill="#1998CC"/>
	<path d="M247.6,500.2C247.6,500.2 247.6,500.2 247.6,500.2c0.1,0 0.1,0 0.2,0C247.7,500.2 247.6,500.2 247.6,500.2C247.5,500.2 247.5,500.2 247.6,500.2C247.5,500.2 247.6,500.2 247.6,500.2z" fill="#1998CC"/>
	<path d="M247.5,500.2c-2.1,0.6 -4.2,0.6 -6.3,0c-0.2,0 -0.3,0 -0.5,0c2.3,0.7 4.6,0.7 6.9,0C247.6,500.2 247.6,500.2 247.5,500.2C247.6,500.2 247.5,500.2 247.5,500.2z" fill="#1998CC"/>
	<path d="M294,572.6c1.6,0 3.2,0.6 4.2,-1.3C297.2,573.1 295.5,572.5 294,572.6z" fill="#1976D2"/>
	<path d="M294,572.6C294,572.6 294,572.6 294,572.6c1.5,-0.1 3.2,0.5 4.2,-1.3c0,0 0,0 0,0C296.8,571.6 295.3,571.7 294,572.6z" fill="#1976D2"/>
	<path d="M109.2,572.2c0.3,0.1 0.7,0 1.1,-0.4c-0.1,0 -0.2,0 -0.3,-0.1C109.7,572 109.5,572.2 109.2,572.2z" fill="#1998CC"/>
	<path d="M110,571.5c-0.2,-0.1 -0.4,-0.2 -0.6,-0.2c-0.2,-0.1 -0.4,-0.1 -0.7,-0.2c0,0.7 0.2,1 0.5,1.1c0.2,-0.1 0.5,-0.2 0.8,-0.4c0.1,0 0.2,0 0.3,0.1c0,0 0.1,0 0.1,-0.1C110.3,571.7 110.2,571.6 110,571.5z" fill="#1998CC"/>
	<path d="M110,571.5c-0.4,-0.3 -0.8,-0.3 -1.3,-0.4c0.3,0.1 0.5,0.1 0.7,0.2C109.6,571.3 109.8,571.4 110,571.5z" fill="#1998CC"/>
	<path d="M290.9,500.2C290.9,500.2 290.8,500.2 290.9,500.2C290.8,500.2 290.8,500.2 290.9,500.2C290.8,500.2 290.9,500.2 290.9,500.2C290.9,500.2 290.9,500.2 290.9,500.2z" fill="#1998CC"/>
	<path d="M294,500.2C294,500.2 294,500.2 294,500.2C294,500.2 294.1,500.2 294,500.2c-0.9,0 -1.9,0 -2.8,0c0,0 0,0 0,0C292.1,500.2 293.1,500.2 294,500.2z" fill="#1998CC"/>
	<path d="M290.9,500.2C290.9,500.2 290.8,500.2 290.9,500.2C290.8,500.2 290.8,500.2 290.9,500.2C290.9,500.2 290.9,500.2 290.9,500.2z" fill="#1998CC"/>
	<path d="M292.6,500.6c0.1,0 0.3,0 0.4,0c0.3,-0.1 0.5,-0.2 0.8,-0.3c0.1,0 0.2,0 0.2,-0.1c0,0 0,0 0,0c-0.9,0 -1.9,0 -2.8,0c0.3,0.2 0.7,0.3 1,0.4C292.3,500.6 292.5,500.6 292.6,500.6z" fill="#1998CC"/>
	<path d="M291.2,500.2C291.2,500.2 291.2,500.2 291.2,500.2c-0.1,0 -0.2,0 -0.3,0c0,0 0,0 0,0C291,500.2 291.1,500.2 291.2,500.2z" fill="#1998CC"/>
	<path d="M294.1,500.2C294.1,500.2 294.1,500.2 294.1,500.2C294.1,500.2 294.1,500.2 294.1,500.2C294.1,500.2 294,500.2 294.1,500.2C294.1,500.2 294.1,500.2 294.1,500.2z" fill="#1998CC"/>
	<path d="M293.8,500.3c-0.3,0.1 -0.5,0.2 -0.8,0.3c-0.1,0 -0.3,0 -0.4,0c-0.1,0 -0.3,0 -0.4,0c-0.3,-0.1 -0.7,-0.2 -1,-0.4c-0.1,0 -0.2,0 -0.3,0c0,0 0,0 0,0c0.4,0.3 0.8,0.4 1.2,0.5c0,0 0.1,0 0.1,0c0.1,0 0.3,0 0.4,0c0.1,0 0.3,0 0.4,0c0.3,-0.1 0.5,-0.2 0.8,-0.3c0.1,-0.1 0.3,-0.1 0.4,-0.2c0,0 0,0 0,0C294,500.3 293.9,500.3 293.8,500.3z" fill="#1998CC"/>
	<path d="M293.7,500.4c-0.2,0.1 -0.5,0.2 -0.8,0.3C293.2,500.7 293.4,500.6 293.7,500.4z" fill="#1998CC"/>
	<path d="M293.7,500.4c-0.3,0.1 -0.5,0.2 -0.8,0.3C293.2,500.6 293.5,500.5 293.7,500.4z" fill="#1998CC"/>
	<path d="M294.2,500.2C294.2,500.2 294.2,500.2 294.2,500.2C294.2,500.2 294.2,500.2 294.2,500.2C294.2,500.2 294.2,500.2 294.2,500.2z" fill="#1998CC"/>
	<path d="M293.8,500.4c0.1,0 0.3,-0.1 0.4,-0.2c0,0 0,0 0,0C294,500.3 293.9,500.4 293.8,500.4z" fill="#1998CC"/>
	<path d="M308.7,500.5c0.1,0 0.1,0 0.2,0c-0.3,-0.3 -0.6,-0.5 -0.9,-0.6C308.3,500 308.5,500.2 308.7,500.5z" fill="#1998CC"/>
	<path d="M308.7,500.5c-0.2,-0.3 -0.4,-0.5 -0.7,-0.5c-0.3,0 -0.5,0.1 -0.8,0.4C307.7,500.4 308.2,500.4 308.7,500.5z" fill="#1998CC"/>
	<path d="M308.8,500.6c0.1,0 0.1,0 0.2,0c0,0 -0.1,-0.1 -0.1,-0.1c-0.1,0 -0.1,0 -0.2,0C308.7,500.5 308.8,500.5 308.8,500.6z" fill="#1998CC"/>
	<path d="M307.2,500.3c0,0 -0.1,0.1 -0.1,0.1c0.5,0.1 1.1,0.1 1.7,0.2c0,0 -0.1,-0.1 -0.1,-0.1C308.2,500.4 307.7,500.4 307.2,500.3z" fill="#1998CC"/>
	<path d="M234.1,545.8L234.1,545.8L234.1,545.8c0.1,-0.1 0.2,-0.1 0.3,-0.2c0.3,-0.3 0.3,-0.7 0.3,-1.1c-0.2,0.4 -0.5,0.8 -0.7,1.2L234.1,545.8z" fill="#1998CC"/>
	<path d="M234.7,544.5C234.7,544.5 234.7,544.5 234.7,544.5C234.7,544.5 234.7,544.5 234.7,544.5C234.7,544.5 234.7,544.5 234.7,544.5z" fill="#1998CC"/>
	<path d="M234.7,544.5C234.7,544.5 234.7,544.5 234.7,544.5C234.8,544.6 234.8,544.5 234.7,544.5z" fill="#1998CC"/>
	<path d="M113.1,572.6C113.1,572.6 113.1,572.5 113.1,572.6c-0.1,-0.1 -0.1,-0.2 -0.1,-0.2c0,0 0,0 -0.1,0c0,0 -0.1,0.1 -0.1,0.2C112.9,572.5 113,572.6 113.1,572.6z" fill="#1998CC"/>
	<path d="M112.4,572.1c-0.2,0 -0.5,0 -0.8,0c0.4,0.2 0.8,0.3 1.3,0.4c0,-0.1 0.1,-0.1 0.1,-0.2c-0.1,-0.1 -0.2,-0.1 -0.2,-0.2C112.6,572.2 112.5,572.1 112.4,572.1z" fill="#1998CC"/>
	<path d="M112.4,572.1c0.1,0 0.2,0.1 0.3,0.1C112.6,572.1 112.5,572.1 112.4,572.1z" fill="#1998CC"/>
	<path d="M113.1,572.6c0,-0.1 0,-0.1 -0.1,-0.2C113,572.4 113,572.4 113.1,572.6C113.1,572.6 113.1,572.6 113.1,572.6z" fill="#1998CC"/>
	<path d="M113,572.4C113,572.4 113,572.5 113,572.4C113,572.4 113,572.4 113,572.4z" fill="#1998CC"/>
	<path d="M112.9,572.4c-0.1,-0.1 -0.2,-0.1 -0.2,-0.2C112.8,572.3 112.9,572.3 112.9,572.4z" fill="#1998CC"/>
	<path d="M135.5,572.9c0.3,0.1 0.6,0 0.8,-0.3c0,0 -0.1,0 -0.1,0c-0.1,0 -0.1,0 -0.2,0C135.8,572.8 135.7,572.8 135.5,572.9z" fill="#1998CC"/>
	<path d="M135.3,572.6c-0.1,0 -0.2,0 -0.2,0C135.1,572.6 135.2,572.6 135.3,572.6c-0.2,0 -0.2,0 -0.3,0c0.2,0.2 0.3,0.2 0.5,0.3c0.2,0 0.3,-0.1 0.5,-0.3c0.1,0 0.1,0 0.2,0c-0.2,-0.1 -0.3,-0.1 -0.5,-0.1C135.6,572.5 135.4,572.5 135.3,572.6z" fill="#1998CC"/>
	<path d="M135.7,572.5c-0.2,0 -0.3,0 -0.4,0.1C135.4,572.5 135.6,572.5 135.7,572.5z" fill="#1998CC"/>
	<path d="M135.3,572.6C135.3,572.6 135.3,572.6 135.3,572.6c-0.1,0 -0.2,0 -0.2,0C135.1,572.6 135.2,572.6 135.3,572.6z" fill="#1998CC"/>
	<path d="M135.7,572.5c-0.2,0 -0.3,0 -0.5,0.1c0,0 0.1,0 0.1,0C135.4,572.5 135.5,572.5 135.7,572.5z" fill="#1998CC"/>
	<path d="M305.3,566c0.1,-0.2 0.3,-0.3 0.4,-0.5c-0.1,0 -0.1,0 -0.3,0.1C305.4,565.7 305.3,565.8 305.3,566z" fill="#1998CC"/>
	<path d="M305.3,566c0,-0.2 0.1,-0.3 0.1,-0.4C305.3,565.7 305.3,565.8 305.3,566z" fill="#1998CC"/>
	<path d="M302.1,569.3c0.2,-0.2 0.4,-0.4 0.6,-0.5c-0.1,0 -0.1,0 -0.1,0c-0.1,0.1 -0.3,0.3 -0.4,0.3C302.1,569.2 302.1,569.2 302.1,569.3z" fill="#1998CC"/>
	<path d="M302.1,569.2c0.1,-0.1 0.3,-0.2 0.4,-0.3c-0.1,0 -0.2,0.1 -0.3,0.1C302.2,569 302.2,569.1 302.1,569.2z" fill="#1998CC"/>
	<path d="M301.2,569.8c0.1,-0.1 0.2,-0.1 0.3,-0.2C301.4,569.7 301.3,569.8 301.2,569.8C301.2,569.8 301.2,569.8 301.2,569.8z" fill="#1998CC"/>
	<path d="M301.1,569.9C301.2,569.9 301.2,569.9 301.1,569.9C301.2,569.9 301.2,569.9 301.1,569.9C301.1,569.9 301.1,569.9 301.1,569.9z" fill="#1998CC"/>
	<path d="M301.2,569.8C301.2,569.8 301.2,569.8 301.2,569.8C301.2,569.9 301.1,569.9 301.2,569.8C301.2,569.9 301.2,569.9 301.2,569.8z" fill="#1998CC"/>
	<path d="M301.3,569.7c0,0 -0.1,0.1 -0.1,0.1c0.1,-0.1 0.2,-0.1 0.3,-0.2c0.2,-0.1 0.4,-0.2 0.5,-0.4C301.7,569.4 301.5,569.5 301.3,569.7z" fill="#1998CC"/>
	<path d="M302,569.3c-0.3,0 -0.5,0.1 -0.7,0.4C301.5,569.5 301.7,569.4 302,569.3C302,569.3 302,569.3 302,569.3z" fill="#1998CC"/>
	<path d="M141.4,579.2c-6.6,-1 -13.2,-0.3 -19.9,-0.5C128.1,578.9 134.7,578.3 141.4,579.2z" fill="#1976D2"/>
	<path d="M118,579.7c0.4,-0.4 0.8,-0.6 1.2,-0.8C118.7,579 118.3,579.3 118,579.7z" fill="#1976D2"/>
	<path d="M154.7,580.1c-1,-1.8 -2.6,-1.6 -4,-1.4c-0.3,0.1 -0.5,0.1 -0.8,0.2c-1.4,0.3 -2.8,0.4 -4.3,0.5c-1.4,0.1 -2.8,0 -4.3,-0.2c-6.7,-0.9 -13.3,-0.3 -19.9,-0.5c-0.8,0 -1.6,0 -2.3,0.2c-0.4,0.2 -0.8,0.4 -1.2,0.8c10.3,0.1 20.7,0.1 31,0.2C150.9,579.9 152.8,579.7 154.7,580.1z" fill="#1976D2"/>
	<path d="M145.7,579.4c1.4,-0.1 2.9,-0.2 4.3,-0.5C148.5,579.2 147.1,579.3 145.7,579.4z" fill="#1976D2"/>
	<path d="M149,579.9c1.9,0.1 3.8,-0.1 5.7,0.2C152.8,579.7 150.9,579.9 149,579.9z" fill="#1976D2"/>
	<path d="M353.3,386c0,-0.7 -0.1,-1.3 -0.1,-2c-0.1,-2.6 -1.1,-4.8 -3.6,-5.8c-1.5,-0.6 -2,-1.7 -2.1,-3.3c-0.3,-2.8 -0.9,-5.6 -2.5,-7.9c-3.3,-4.8 -7.8,-8 -13.2,-9.9c-6.4,-2.2 -13,-3 -19.7,-3.1c-3.1,-0.1 -3.1,0.2 -3.1,-3.4c0,-4.4 -0.2,-8.7 0,-13.1c0.4,-9.5 -8.1,-18.4 -15.6,-19.8c-2.7,-0.6 -5.4,-0.7 -8.2,-0.7c-36.4,0 -72.8,0 -109.2,0c-19,0 -38.1,0.1 -57.1,0c-8.1,-0.1 -15.9,4.8 -19.2,12.5c-1.2,2.8 -1.8,6 -1.6,9.5c0.3,4.2 0,8.5 0.1,12.8c0,0.6 -0.1,1.1 -0.3,1.4c-0.2,0.6 -0.7,0.9 -1.6,0.9c-1.3,-0.1 -2.5,-0.1 -3.8,0c-7.7,0.4 -15.4,1.4 -22.3,5.5c-4,2.4 -7.3,5.4 -9.1,9.5c-0.8,1.8 -1.2,3.9 -1.4,6.2c-0.1,0.8 -0.2,1.4 -0.5,1.8c-0.3,0.5 -0.8,0.9 -1.5,1c-1.4,0.4 -2.3,1.2 -2.8,2.3c-0.3,0.6 -0.5,1.4 -0.6,2.2c-0.2,1.2 -0.3,2.4 -0.3,3.7c-0.1,4.7 0,9.4 -0.1,14.1c-0.1,5.6 1.4,10.6 4.7,15c3.6,4.9 8.4,6.8 14.2,6.3l0.2,-0.1c0,-0.1 0,-0.1 0.1,-0.2c0,0 0,-0.1 0.1,-0.1l0.1,-0.1c0.1,0 0.1,0 0.2,0c0,0 0,0 0,0c0,-0.2 0.1,-0.3 0.3,-0.3c0,-0.1 0,-0.3 0.1,-0.3c0.1,-0.1 0.2,-0.1 0.3,-0.2l0,0c1.4,-4.6 1.6,-9.3 1.6,-14.1c0.1,-8.5 0.1,-16.9 -0.4,-25.4l-0.1,-0.2l0.1,-0.1c-0.1,-0.1 -0.1,-0.2 -0.2,-0.4c-0.2,-0.1 -0.4,-0.3 -0.4,-0.5c0,-0.1 0,-0.1 0,-0.2c-0.1,-0.1 -0.1,-0.2 -0.1,-0.3c0,0 0,0 0,0c0,0 0,0.1 0,0.1c-0.2,-0.2 -0.4,-0.3 -0.6,-0.5s-0.4,-0.3 -0.6,-0.5c-2.3,-1.6 -2.3,-1.6 -1.2,-4.4c0,0.1 0,0.2 0,0.3c0,-0.1 0.1,-0.2 0.1,-0.3l0.1,-0.2c0,-0.1 0,-0.2 0,-0.3c0,0 0,0 0,0c-0.1,0.1 -0.1,0.2 -0.2,0.3c0,-0.1 0,-0.2 0,-0.3c0.1,-0.3 0.2,-0.5 0.5,-0.6c0,0.1 -0.1,0.1 -0.1,0.2c0.1,-0.1 0.1,-0.1 0.3,-0.2c0,0 0,0 0,-0.1c0,-0.2 0,-0.3 0.2,-0.3c0,-0.1 0,-0.2 0.1,-0.3c0.1,-0.1 0.1,-0.1 0.2,-0.1c0,-0.2 0.2,-0.3 0.3,-0.4l0.1,-0.2c-0.1,0.1 -0.1,0.1 -0.2,0.2l0.1,-0.2l0.2,-0.1c0,0 -0.1,0.1 -0.1,0.1l0.2,-0.1c0,-0.2 0.1,-0.3 0.3,-0.3c0.2,-0.3 0.4,-0.5 0.6,-0.7c0.1,-0.1 0.2,-0.2 0.3,-0.3c0,0 0.1,-0.1 0.2,-0.1c0,0 0.1,0 0.1,-0.1c0,0 0.1,0 0.1,-0.1c0.4,-0.2 0.8,-0.4 1.2,-0.5c0.1,0 0.3,-0.1 0.4,-0.1c0.1,-0.2 0.3,-0.3 0.5,-0.2c0.2,-0.2 0.4,-0.3 0.6,-0.5c0.2,-0.1 0.3,-0.2 0.5,-0.3c0.1,0 0.1,-0.1 0.2,-0.1c0.4,-0.2 0.9,-0.3 1.4,-0.3c0.2,-0.1 0.4,-0.1 0.6,-0.2c4.2,-1.6 8.7,-1.9 13.1,-1.9c2.7,0 3.5,-0.2 3.8,0.8c0.2,0.6 0.2,1.6 0.2,3.5c0,36.2 0,72.3 0,108.5c0,1.3 0,2.2 0.2,2.6c0.4,0.5 1.1,0.6 2.8,0.6c13.9,0 27.7,0 41.6,-0.1c52.5,0 105,-0.1 157.4,-0.1c2.4,0 4.9,0 7.3,0c1.2,0 1.8,-0.5 1.7,-1.8c0,-0.7 0,-1.3 0,-2c0,-34.6 0,-69.2 0,-103.8c0,-2.1 0,-4.3 -0.1,-6.4c0,-1.4 0.6,-2 1.9,-2c3.9,0 7.8,0.1 11.7,0.9c3.4,0.7 6.8,1.6 9.8,3.8c0.6,0.5 1.2,1 1.7,1.6c0.8,0.9 1.4,2 1.6,3.4c0.2,0.9 0.3,1.8 -0.7,2.3c-3.1,1.4 -3.6,4.1 -3.6,7.2c0,8.2 -0.1,16.5 0,24.8c0.1,3.3 0.4,6.7 1.9,9.7c1.1,2.1 1.7,2.4 3.9,2.2c9.5,-1.1 14.8,-7.9 16,-17.1C354,398.3 353.7,392.1 353.3,386zM73.7,420.4c0.1,-0.1 0.2,-0.2 0.3,-0.2c-0.1,0.2 -0.2,0.4 -0.4,0.5C73.6,420.6 73.6,420.5 73.7,420.4zM72.9,421.3c0,0 0,0 0.1,-0.1c0,-0.1 0,-0.1 0.1,-0.1l-0.1,0.1c0.2,-0.1 0.2,-0.1 0.3,-0.1c-0.2,0.1 -0.3,0.3 -0.5,0.4C72.8,421.4 72.8,421.4 72.9,421.3zM73,372.4c0,-0.1 0,-0.2 0.1,-0.3c0,0 0,0 0,0c0,0 -0.1,0 -0.1,0C73,372.2 73,372.3 73,372.4c-0.1,-0.1 -0.1,-0.2 0,-0.3c0.1,-0.1 0.1,-0.1 0.2,-0.1c0,0 0,0 0,0c0,0 0.1,0 0.1,0C73.2,372.2 73.1,372.3 73,372.4zM74.8,370.4c0.1,-0.1 0.2,-0.2 0.3,-0.3C75.1,370.2 74.9,370.3 74.8,370.4zM158.5,328.5c0.1,-2.1 1,-3.8 2.3,-5c0.8,-0.8 1.9,-1.3 3.2,-1.7c1.3,-0.3 2.5,-0.4 3.8,-0.4c23.9,0 47.8,0 71.7,0c1.1,0 2.1,0 3.2,0.2c3.8,0.8 5.6,3.2 5.7,7.3c0,3.1 0,6.3 0,9.4c-0.1,2.1 -0.6,3.6 -1.6,4.8c-0.9,1.1 -2.3,1.8 -4.2,2.1c-0.9,0.1 -1.9,0.1 -2.8,0.1c-12.2,0 -24.3,0 -36.5,0c-12,0 -23.9,0 -35.9,0c-1.1,0 -2.2,0 -3.2,-0.2c-3.1,-0.5 -5.4,-2.9 -5.7,-6.2C158.4,335.4 158.3,332 158.5,328.5zM289.6,459c-1.9,1 -3.9,1.6 -6,1.6c-26.7,-0.2 -53.3,-0.1 -80,-0.1c-26.6,0 -53.1,0 -79.7,0c-3.9,0 -7.2,-1.2 -10,-4.2c-2.2,-2.4 -3.2,-5.1 -3.2,-8.4c0,-23.7 0.2,-47.5 -0.1,-71.2c-0.1,-5.2 2.7,-9.4 6.3,-11.7c2.2,-1.5 4.6,-2.3 7.1,-2.3c35.5,0.2 70.9,0.1 106.4,0.1c17.6,0 35.1,0.1 52.7,0c5.1,0 8.9,1.9 11.7,6.5c1.3,2.1 1.6,4.3 1.6,6.7c0.1,14.3 0.1,28.7 0.1,43c0,9.3 -0.4,18.6 0.3,27.8C297.1,452.4 293.8,456.8 289.6,459z" fill="#FFFFFF"/>
	<path d="M164.2,345.1c1,0.2 2.1,0.2 3.2,0.2c12,0 23.9,0 35.9,0c12.2,0 24.3,0 36.5,0c0.9,0 1.9,0 2.8,-0.1c1.9,-0.3 3.3,-1 4.2,-2.1c-0.9,1.1 -2.3,1.7 -4.1,2c-0.9,0.1 -1.9,0.1 -2.8,0.1c-12.2,0 -24.3,0 -36.5,0c-12,0 -23.9,0 -35.9,0c-1.1,0 -2.1,0 -3.2,-0.2c-3.1,-0.5 -5.5,-2.9 -5.6,-6.3c-0.3,-3.3 -0.3,-6.8 -0.1,-10.3c0.1,-2.1 0.9,-3.7 2.2,-4.9c-1.4,1.2 -2.2,2.9 -2.3,5c-0.2,3.5 -0.1,6.9 0,10.4C158.8,342.2 161.1,344.6 164.2,345.1z" fill="#1976D2"/>
	<path d="M167.9,338.7c0.6,0 1.3,0 1.9,0h0c22.2,0 44.4,0 66.6,0c0.8,0 1.7,0 2.5,0c1.5,0 2.4,-0.8 2.4,-2.4c0,-1.9 0,-3.8 0,-5.7c0,-1.3 -0.5,-2.1 -1.6,-2.3c-0.2,0 -0.3,0 -0.5,0c-0.8,0 -1.7,0 -2.5,0c-11.1,0 -22.2,0 -33.3,0h0c-3.9,0 -7.8,0 -11.7,0c-3.9,0 -7.8,0 -11.6,0c-2.6,0 -5.2,0 -7.8,0c-6.2,0.1 -6.8,-0.8 -6.9,3.1c0,1.1 0.1,2.6 0.1,4.5C165.5,337.9 166.1,338.5 167.9,338.7z" fill="#FFFFFF"/>
	<path d="M169.8,338.7c-0.6,0 -1.3,0 -1.9,0C168.5,338.8 169.2,338.7 169.8,338.7z" fill="#FAFDFD"/>
	<path d="M167.9,338.7c-1.8,-0.2 -2.4,-0.8 -2.4,-2.8c0,-1.9 -0.1,-3.4 -0.1,-4.5c0,1.1 0.1,2.6 0.1,4.6C165.5,338 166.1,338.5 167.9,338.7z" fill="#FAFDFD"/>
	<path d="M172.8,536.1c0.2,0.4 0.5,0.9 0.7,1.3c0.7,1.2 1.5,2.5 2.1,3.7l0.1,0.1c0,0 0.1,0 0.1,0c0.1,0 0.1,0 0.2,0c0.1,0.1 0.3,0.1 0.3,0.3c0,0 0.1,0.1 0.1,0.1c0,0 0,0 0.1,0.1c0.1,0 0.2,0 0.2,0c0.1,0 0.2,0.1 0.2,0.2c8.5,-0.1 16.9,-0.2 25.4,-0.2c9.3,0 18.5,0 27.8,0c0,0 0.1,0 0.1,0c0,-0.1 0.1,-0.3 0.2,-0.4c0.1,-0.1 0.2,-0.1 0.3,-0.2c0,0 0.1,0 0.1,-0.1c0,-0.3 0.2,-0.6 0.4,-0.8c0.1,-0.1 0.2,-0.1 0.3,-0.2c0,-0.5 0.1,-0.9 0.6,-1c0.1,-0.2 0.1,-0.3 0.2,-0.4s0.2,-0.3 0.2,-0.4c0,0.2 -0.1,0.3 -0.2,0.4c0.1,-0.1 0.2,-0.3 0.2,-0.4c0.3,-0.5 0.6,-1 0.9,-1.5s0.6,-1 0.9,-1.5c0.4,-0.7 0.6,-1.6 0.8,-2.4c-21.2,0 -42.1,0 -63.5,0c0.2,0.7 0.4,1.4 0.7,2c-0.3,-0.6 -0.5,-1.3 -0.7,-2c0,0 0,0 0,0c0.2,0.7 0.5,1.5 0.7,2.1C172.5,535.4 172.6,535.7 172.8,536.1z" fill="#FAFDFD"/>
	<path d="M173.5,537.4c-0.2,-0.4 -0.5,-0.8 -0.7,-1.3c0.9,1.8 1.9,3.4 2.8,5l0.1,0.1l-0.1,-0.1C174.9,539.8 174.2,538.6 173.5,537.4z" fill="#FAFDFD"/>
	<path d="M171.5,532.7C171.5,532.7 171.5,532.7 171.5,532.7c0,0.1 0,0.1 0,0.2c0,0 0,0 0,0C171.6,532.8 171.5,532.8 171.5,532.7z" fill="#FAFDFD"/>
	<path d="M235.1,532.9c0,-0.1 0,-0.1 0,-0.2c-21.2,0 -42.2,0 -63.6,0c0,0.1 0,0.1 0.1,0.2C192.9,532.9 213.9,532.9 235.1,532.9z" fill="#FAFDFD"/>
	<path d="M173.5,537.4c0.7,1.2 1.4,2.5 2.1,3.7C175,539.8 174.2,538.6 173.5,537.4z" fill="#FAFDFD"/>
	<path d="M230.9,541.1l0,0l0,0z" fill="#1976D2"/>
	<path d="M173.2,545.6c0,0.1 0,0.2 0.1,0.3c1.7,0.5 3.6,0.6 5.5,0.6l55.2,-0.8c0.2,-0.4 0.5,-0.8 0.7,-1.2c0.1,-1 0.2,-1.6 0.2,-2.2c0,-0.2 0,-0.3 0,-0.4c0,-0.3 -0.1,-0.6 -0.3,-0.8c-0.1,-0.2 -0.2,-0.4 -0.4,-0.5c-0.5,-0.4 -1.1,-0.8 -2.1,-1.3c0,-0.1 0.1,-0.1 0.1,-0.2c0,0 0,0 -0.1,0c-0.5,0.1 -0.6,0.5 -0.6,1c0,0 0,0.1 -0.1,0.1c0.1,0 0.1,-0.1 0.2,-0.1c-0.2,0.3 -0.5,0.7 -0.7,1c0,0 0,0 0,0l-0.1,0.1c-0.2,0.2 -0.4,0.5 -0.6,0.7c-0.7,0.8 -1.5,1 -2.5,1c-12.6,-0.6 -25.3,-0.1 -37.9,-0.3c-3.5,0 -7,-0.4 -10.4,0.5c-1,0.2 -1.9,0 -2.4,-1c-0.1,-0.1 -0.2,-0.1 -0.2,-0.2c-0.1,0 -0.2,0 -0.3,0c-0.2,-0.2 -0.5,-0.4 -0.7,-0.6l-0.1,-0.1c-0.1,0 -0.1,0 -0.1,0c0,0 0,0 0,0.1c-1.5,0.3 -2.3,0.4 -2.8,0.8C172.4,542.7 172.6,543.6 173.2,545.6z" fill="#1976D2"/>
	<path d="M175.6,541.2c-1.5,0.3 -2.3,0.5 -2.7,0.9C173.3,541.7 174.1,541.6 175.6,541.2C175.6,541.3 175.6,541.3 175.6,541.2z" fill="#1976D2"/>
	<path d="M232.2,539.1c0,0.1 -0.1,0.1 -0.1,0.2c1,0.5 1.6,0.9 2.1,1.3c0.2,0.1 0.3,0.3 0.4,0.5c0.2,0.2 0.3,0.5 0.3,0.8c0,0.1 0,0.3 0,0.4c0,-0.2 0,-0.4 0,-0.6c0,-0.3 -0.1,-0.6 -0.3,-0.8c-0.1,-0.2 -0.2,-0.3 -0.4,-0.5c-0.2,-0.2 -0.5,-0.4 -0.8,-0.6C233,539.6 232.6,539.4 232.2,539.1z" fill="#1976D2"/>
	<path d="M234.7,544.5L234.7,544.5c-0.2,0.4 -0.5,0.8 -0.7,1.2C234.2,545.3 234.5,544.9 234.7,544.5z" fill="#1976D2"/>
	<path d="M176.9,541.9c0.5,1 1.4,1.3 2.4,1c3.4,-0.8 6.9,-0.5 10.4,-0.5c12.6,0.1 25.3,-0.4 37.9,0.3c1,0.1 1.8,-0.2 2.5,-1c-9.3,0 -18.5,0 -27.8,0C193.9,541.8 185.4,541.9 176.9,541.9z" fill="#1976D2"/>
	<path d="M176.9,541.9c8.5,0 17,-0.1 25.4,-0.2C193.8,541.8 185.4,541.8 176.9,541.9z" fill="#1976D2"/>
	<path d="M176.9,541.9c8.5,-0.1 16.9,-0.1 25.4,-0.2C193.8,541.7 185.4,541.8 176.9,541.9z" fill="#1976D2"/>
	<path d="M230.9,541.1c0.2,-0.3 0.4,-0.6 0.5,-0.9c0,0 -0.1,0 -0.1,0.1C231.1,540.5 230.9,540.8 230.9,541.1z" fill="#1998CC"/>
	<path d="M230.9,541.1c0.2,-0.3 0.5,-0.7 0.7,-1c-0.1,0.1 -0.1,0.1 -0.2,0.1C231.3,540.5 231.1,540.8 230.9,541.1C230.9,541.1 230.9,541.1 230.9,541.1z" fill="#1998CC"/>
	<path d="M230.9,541.1c0,-0.3 0.2,-0.6 0.4,-0.8C231,540.5 230.9,540.7 230.9,541.1z" fill="#1998CC"/>
	<path d="M176.3,541.5c-0.1,-0.1 -0.2,-0.2 -0.3,-0.3c-0.1,0 -0.1,0 -0.2,0c0.2,0.2 0.4,0.4 0.7,0.6c0,0 0,-0.1 0,-0.1c0,0 0,0 -0.1,0C176.4,541.6 176.3,541.6 176.3,541.5z" fill="#1998CC"/>
	<path d="M176.3,541.5c0,0.1 0.1,0.1 0.1,0.2c0,0 0,0 0.1,0c0,-0.1 -0.1,-0.1 -0.1,-0.1C176.4,541.6 176.3,541.5 176.3,541.5z" fill="#1998CC"/>
	<path d="M230.8,541.1c0,0 0.1,-0.1 0.1,-0.1C230.9,541 230.8,541 230.8,541.1C230.8,541.1 230.8,541.1 230.8,541.1C230.8,541.1 230.7,541.1 230.8,541.1c-0.2,0.1 -0.2,0.1 -0.3,0.2c0.1,-0.1 0.1,-0.1 0.2,-0.1C230.7,541.2 230.7,541.1 230.8,541.1z" fill="#1998CC"/>
	<path d="M230.5,541.3C230.5,541.3 230.5,541.4 230.5,541.3C230.5,541.4 230.5,541.3 230.5,541.3C230.5,541.3 230.5,541.3 230.5,541.3C230.5,541.4 230.5,541.4 230.5,541.3c-0.1,0.2 -0.2,0.3 -0.2,0.4c0.2,-0.2 0.3,-0.4 0.5,-0.5c0,0 -0.1,0 -0.1,0C230.6,541.2 230.6,541.2 230.5,541.3z" fill="#1998CC"/>
	<path d="M230.8,541.1c0,0 -0.1,0 -0.1,0.1C230.7,541.1 230.8,541.1 230.8,541.1C230.8,541.1 230.8,541.1 230.8,541.1z" fill="#1998CC"/>
	<path d="M230.8,541.1C230.8,541.1 230.8,541.1 230.8,541.1c0,0 0.1,0 0.1,0l0,0C230.9,541.1 230.8,541.1 230.8,541.1z" fill="#1998CC"/>
	<path d="M230.9,541.1l0,0l0,0z" fill="#1998CC"/>
	<path d="M230.7,541.2C230.7,541.2 230.7,541.2 230.7,541.2c0.1,0 0.1,-0.1 0.1,-0.1C230.7,541.1 230.7,541.2 230.7,541.2z" fill="#1998CC"/>
	<path d="M230.5,541.3c0.1,-0.1 0.1,-0.1 0.2,-0.1C230.6,541.2 230.6,541.2 230.5,541.3z" fill="#1998CC"/>
	<path d="M230.4,541.4c-0.1,0.1 -0.1,0.2 -0.2,0.4C230.3,541.6 230.4,541.5 230.4,541.4z" fill="#1998CC"/>
	<path d="M230.2,541.8C230.2,541.8 230.2,541.8 230.2,541.8C230.2,541.8 230.2,541.8 230.2,541.8C230.2,541.8 230.2,541.8 230.2,541.8C230.2,541.8 230.2,541.8 230.2,541.8z" fill="#1998CC"/>
	<path d="M230.2,541.8l0,0l0,0z" fill="#1998CC"/>
	<path d="M810.9,118.2c79.6,0 148.7,50.2 182.4,123.3c4.2,9 14.7,13.3 24,9.7l0,0c10.1,-3.9 14.8,-15.4 10.4,-25.3c-11.6,-25.9 -27.1,-49.7 -46.2,-70.7c-45.6,-50 -106.1,-77.5 -170.6,-77.5s-125,27.5 -170.6,77.5c-19.2,21.1 -34.8,45.1 -46.4,71.1c-4.4,9.9 0.4,21.5 10.6,25.3l0,0c9.3,3.5 19.7,-0.7 23.8,-9.7C661.9,168.6 731.2,118.2 810.9,118.2z" fill="#FFFFFF"/>
	<path d="M808,197.1c49.3,0 92.3,29.5 115,73.1c4.3,8.3 14.2,12 22.9,8.6v0c10,-3.9 14.6,-15.5 9.8,-25.1c-28.4,-56.9 -83.9,-95.7 -147.6,-95.7c-62.8,0 -117.6,37.7 -146.4,93.3c-5,9.7 -0.5,21.6 9.8,25.5l0,0c8.6,3.3 18.3,-0.4 22.6,-8.5C716.8,225.8 759.4,197.1 808,197.1z" fill="#FFFFFF"/>
	<path d="M807.8,276.5c16.7,0 31.3,9.6 39.4,23.9c4.5,7.9 14.1,11.3 22.6,8h0c10.2,-4 14.7,-15.9 9.6,-25.5c-14.1,-27.1 -41,-45.5 -71.7,-45.5c-29.3,0 -55.1,16.8 -69.7,41.9c-5.7,9.8 -1.3,22.4 9.3,26.4l0.1,0c8.1,3.1 17.3,0 22,-7.4C777.8,285.2 791.9,276.5 807.8,276.5z" fill="#FFFFFF"/>
	<path d="M54.6,660L1328.7,660" fill="#FFFFFF"/>
	<path d="M1312,692H77.9c-11,0 -20,-9 -20,-20l0,0c0,-11 9,-20 20,-20H1312c11,0 20,9 20,20l0,0C1332,683 1323.1,692 1312,692z" fill="#FFFFFF"/>
	<path d="M54.1,854L1329.3,854" fill="#FFFFFF"/>
	<path d="M1312.6,862H77.3c-11,0 -20,-9 -20,-20l0,0c0,-11 9,-20 20,-20h1235.2c11,0 20,9 20,20l0,0C1332.6,853 1323.6,862 1312.6,862z" fill="#FFFFFF"/>
	<path d="M176.8,775h-72.5c-9.9,0 -18,-8.1 -18,-18l0,0c0,-9.9 8.1,-18 18,-18h72.5c9.9,0 18,8.1 18,18l0,0C194.8,766.9 186.8,775 176.8,775z" fill="#FFFFFF"/>
	<path d="M352.5,775h-65.2c-9.9,0 -18,-8.1 -18,-18l0,0c0,-9.9 8.1,-18 18,-18h65.2c9.9,0 18,8.1 18,18l0,0C370.5,766.9 362.5,775 352.5,775z" fill="#FFFFFF"/>
	<path d="M535.5,775h-65.2c-9.9,0 -18,-8.1 -18,-18l0,0c0,-9.9 8.1,-18 18,-18h65.2c9.9,0 18,8.1 18,18l0,0C553.5,766.9 545.5,775 535.5,775z" fill="#FFFFFF"/>
	<path d="M718.6,775h-65.2c-9.9,0 -18,-8.1 -18,-18l0,0c0,-9.9 8.1,-18 18,-18h65.2c9.9,0 18,8.1 18,18l0,0C736.6,766.9 728.5,775 718.6,775z" fill="#FFFFFF"/>
	<path d="M901.6,775h-65.2c-9.9,0 -18,-8.1 -18,-18l0,0c0,-9.9 8.1,-18 18,-18h65.2c9.9,0 18,8.1 18,18l0,0C919.6,766.9 911.5,775 901.6,775z" fill="#FFFFFF"/>
	<path d="M1084.6,775h-65.2c-9.9,0 -18,-8.1 -18,-18l0,0c0,-9.9 8.1,-18 18,-18h65.2c9.9,0 18,8.1 18,18l0,0C1102.6,766.9 1094.5,775 1084.6,775z" fill="#FFFFFF"/>
	<path d="M1267.6,775h-65.2c-9.9,0 -18,-8.1 -18,-18l0,0c0,-9.9 8.1,-18 18,-18h65.2c9.9,0 18,8.1 18,18l0,0C1285.6,766.9 1277.5,775 1267.6,775z" fill="#FFFFFF"/>
	<path d="M420.8,580.1V385h46.4c31.1,0 53.1,4 66,12c12.9,8 19.3,21.3 19.3,40c0,10.6 -2.4,19.3 -7.3,26.2c-4.9,6.9 -12.5,12.3 -22.9,16.4c11.5,3.4 20,8.7 25.5,16c5.5,7.3 8.2,16.8 8.2,28.7c0,8.8 -1.8,16.8 -5.4,24c-3.6,7.2 -8.8,13.3 -15.7,18.2c-6.9,4.9 -15.1,8.4 -24.7,10.5c-9.6,2.1 -24.8,3.1 -45.5,3.1H420.8zM466.8,466h5.1c12.2,0 21.1,-2 26.8,-5.9c5.7,-3.9 8.6,-10 8.6,-18.2c0,-8.6 -2.9,-15 -8.7,-19.1c-5.8,-4.1 -14.8,-6.1 -27,-6.1h-4.7V466zM466.8,545.4c0.8,0 1.9,0 3.3,0.1c1.5,0.1 2.6,0.1 3.3,0.1c12.2,0 21,-2 26.5,-6c5.5,-4 8.2,-10.4 8.2,-19.1c0,-9.4 -2.8,-16 -8.3,-20c-5.5,-4 -14.7,-6 -27.4,-6h-5.7V545.4z" fill="#FFFFFF"/>
	<path d="M563.8,580.1L619.3,385h49.8l52.9,195.1h-47.5l-8,-34.2h-47.8l-7.3,34.2H563.8zM627.3,515.5h31.7c-3.3,-13.6 -6.2,-27.9 -8.8,-42.8c-2.6,-14.9 -4.9,-30.7 -6.9,-47.2c-2.4,14.6 -4.9,29.4 -7.6,44.4C633,484.9 630.2,500.1 627.3,515.5z" fill="#FFFFFF"/>
	<path d="M739.2,580.1V385h47v72.2h53.2V385H887v195.1h-47.5v-84.9h-53.2v84.9H739.2z" fill="#FFFFFF"/>
	<path d="M1083.6,485.3c0,29.8 -7.6,53.4 -22.9,70.9c-15.2,17.5 -35.6,26.3 -61,26.3c-26.3,0 -46.8,-8.8 -61.5,-26.4c-14.7,-17.6 -22,-42.1 -22,-73.4c0,-31.3 7.4,-55.8 22.3,-73.6s35.3,-26.7 61.3,-26.7c26.1,0 46.6,9.1 61.5,27.3C1076.2,427.9 1083.6,453.1 1083.6,485.3zM999.7,545.4c12.2,0 21.3,-5.2 27.3,-15.6c6,-10.4 9.1,-26.1 9.1,-47c0,-21.1 -3,-36.9 -9.1,-47.3s-15.2,-15.6 -27.3,-15.6c-12.2,0 -21.3,5.2 -27.3,15.6c-6,10.4 -9,26.2 -9,47.4c0,21.1 3,36.8 9,47.2C978.5,540.2 987.6,545.4 999.7,545.4z" fill="#FFFFFF"/>
	<path d="M1113,580.1V385h48.1l48.1,105c1.4,3.4 3.4,8.6 6,15.6c2.6,7 5.5,15.2 8.7,24.7c-2.5,-13.8 -4.4,-26.5 -5.5,-38c-1.2,-11.5 -1.8,-22.3 -1.8,-32.3v-75h44.1v195.1h-44.1l-52.2,-109.2c-0.9,-1.6 -3.2,-8.2 -6.9,-19.9c-1.7,-5.3 -3.1,-9.5 -4.1,-12.6c1.1,7.6 1.9,16.1 2.4,25.6c0.5,9.5 0.8,20.8 0.8,34v82.1H1113z" fill="#FFFFFF"/>
	<path d="M810.8,330.5m-20.8,0a20.8,20.8 0,1 1,41.6 0a20.8,20.8 0,1 1,-41.6 0" fill="#FFFFFF"/>
</svg>
