<?xml version="1.0" encoding="utf-8"?>
<!-- Generator: Adobe Illustrator 21.0.0, SVG Export Plug-In . SVG Version: 6.00 Build 0)  -->
<svg version="1.1" id="Layer_1" xmlns="http://www.w3.org/2000/svg" xmlns:xlink="http://www.w3.org/1999/xlink" x="0px" y="0px"
	 viewBox="0 0 1344 336.4" style="enable-background:new 0 0 1344 336.4;" xml:space="preserve">
<style type="text/css">
	.st0{fill:#1976D2;}
	.st1{fill:#015FC9;}
	.st2{fill:#FAFDFD;}
	.st3{fill:#1798CC;}
	.st4{fill:#1998CC;}
	.st5{fill:#2A3A5F;}
	.st6{fill:#FFFFFF;}
</style>
<g>
	<path class="st0" d="M74.8,81.4c0.1-0.1,0.2-0.2,0.3-0.3C75.1,81.2,74.9,81.3,74.8,81.4z"/>
	<path class="st0" d="M234.2,251.4c-0.4-0.4-1.1-0.7-2.1-1.3c0.1-0.3,0.3-0.5,0.4-0.8c-0.1,0.3-0.3,0.5-0.4,0.8
		C233.1,250.6,233.8,251,234.2,251.4z"/>
	<path class="st0" d="M75.2,81.1c0.1-0.1,0.2-0.1,0.3-0.2C75.4,81,75.3,81.1,75.2,81.1z"/>
	<path class="st0" d="M234,256.7c0.2-0.4,0.5-0.8,0.7-1.2l0,0l0,0C234.5,255.9,234.2,256.3,234,256.7L234,256.7z"/>
	<path class="st0" d="M173.2,256.8C173.1,256.8,173.1,256.8,173.2,256.8C173.1,256.8,173.1,256.8,173.2,256.8L173.2,256.8z"/>
	<path class="st0" d="M174.9,258.7c-0.2-0.1-0.4-0.1-0.7-0.2C174.4,258.6,174.6,258.7,174.9,258.7z"/>
	<path class="st0" d="M234.4,246.2c-0.3,0.5-0.6,1-0.9,1.5C233.8,247.3,234.1,246.8,234.4,246.2z"/>
	<path class="st0" d="M233.6,257.5c-0.6,0.6-1.2,0.9-1.9,1.1C232.4,258.5,233.1,258.1,233.6,257.5z"/>
	<path class="st0" d="M75.6,80.9L75.6,80.9L75.6,80.9z"/>
	<path class="st0" d="M234.6,251.8c0.2,0.2,0.3,0.5,0.3,0.8C234.9,252.3,234.8,252.1,234.6,251.8z"/>
	<path class="st0" d="M73,132.2l0.1-0.1C73,132.1,73,132.1,73,132.2z"/>
	<polygon class="st0" points="175.7,252.2 175.6,252.1 175.6,252.1 	"/>
	<path class="st0" d="M73,83.1c0.1-0.1,0.1-0.1,0.2-0.1C73.2,83.1,73.1,83.1,73,83.1z"/>
	<path class="st0" d="M230.4,252.4C230.5,252.4,230.5,252.3,230.4,252.4C230.5,252.3,230.5,252.4,230.4,252.4z"/>
	<path class="st0" d="M74.6,90.3L74.6,90.3c-0.2-0.2-0.4-0.3-0.6-0.5C74.2,90,74.4,90.2,74.6,90.3z"/>
	<path class="st0" d="M176.3,252.5c-0.1-0.1-0.2-0.2-0.3-0.3C176.1,252.3,176.2,252.4,176.3,252.5z"/>
	<path class="st0" d="M72.2,84.5c0.1-0.3,0.2-0.5,0.5-0.6C72.5,84,72.3,84.2,72.2,84.5z"/>
	<path class="st0" d="M176.7,252.8c0.1,0,0.2,0.1,0.2,0.2l0,0C176.9,252.8,176.8,252.8,176.7,252.8z"/>
	<path class="st1" d="M210.8,258c7.8-0.1,15.5,0,23.2-1.3l-55.2,0.8C189.4,257.5,200.1,258.2,210.8,258z"/>
	<path class="st0" d="M172.8,257.2c-1.5-2-2.9-4.1-4.2-6.3C169.8,253.1,171.2,255.2,172.8,257.2c0.1,0.2,0.3,0.4,0.4,0.6
		C173,257.6,172.9,257.4,172.8,257.2L172.8,257.2z"/>
	<path class="st1" d="M642.9,125.1c-2.4,14.3-4.9,28.9-7.6,43.6c-2.7,14.7-5.4,29.6-8.4,44.8h31.5c-3.2-13.4-6.2-27.4-8.8-42
		C647.2,156.8,644.9,141.3,642.9,125.1z"/>
	<path class="st1" d="M499.1,159c5.7-3.8,8.5-9.8,8.5-17.8c0-8.5-2.9-14.7-8.7-18.7s-14.8-6-26.9-6h-4.7v48.4h5
		C484.5,164.8,493.4,162.9,499.1,159z"/>
	<path class="st0" d="M234.1,256.9c0.1-0.1,0.2-0.1,0.3-0.2C234.4,256.7,234.3,256.8,234.1,256.9L234.1,256.9z"/>
	<path class="st1" d="M500.3,198.6c-5.5-3.9-14.6-5.9-27.3-5.9h-5.7v49.9c0.8,0,1.9,0,3.3,0.1c1.5,0.1,2.6,0.1,3.3,0.1
		c12.1,0,20.9-2,26.4-5.9s8.2-10.2,8.2-18.7C508.6,209.1,505.8,202.5,500.3,198.6z"/>
	<path class="st0" d="M73.7,131.4c0.1-0.1,0.2-0.1,0.3-0.2C73.9,131.3,73.8,131.3,73.7,131.4z"/>
	<path class="st0" d="M72.9,132.3C72.9,132.3,72.9,132.2,72.9,132.3C72.9,132.2,72.9,132.3,72.9,132.3z"/>
	<path class="st1" d="M997.8,119.4c-12.1,0-21.2,5.1-27.1,15.3c-6,10.2-8.9,25.7-8.9,46.5c0,20.7,3,36.1,8.9,46.3
		c6,10.1,15,15.2,27.1,15.2s21.2-5.1,27.2-15.3s9-25.6,9-46.1c0-20.7-3-36.2-9-46.4C1019,124.6,1009.9,119.4,997.8,119.4z"/>
	<path class="st1" d="M164.2,56.1c1,0.2,2.1,0.2,3.2,0.2c12,0,23.9,0,35.9,0l0,0c12.2,0,24.3,0,36.5,0c0.9,0,1.9,0,2.8-0.1
		c3.8-0.6,5.6-2.8,5.7-6.8c0.1-3.1,0.1-6.3,0-9.4c0-4.1-1.9-6.5-5.7-7.3c-1-0.2-2.1-0.2-3.2-0.2c-23.9,0-47.8,0-71.7,0
		c-1.3,0-2.5,0-3.8,0.4c-3.2,0.9-5.2,3.2-5.4,6.6c-0.2,3.5-0.1,6.9,0,10.4C158.8,53.2,161.1,55.6,164.2,56.1z M172.3,39.3
		c10.4-0.1,20.7,0,31.1,0l0,0c11.1,0,22.2,0,33.3,0c0.8,0,1.7,0,2.5,0c1.4,0,2.1,0.8,2.1,2.3c0,1.9,0,3.8,0,5.7
		c0,1.7-0.9,2.4-2.4,2.4c-0.8,0-1.7,0-2.5,0c-22.2,0-44.4,0-66.6,0c-0.6,0-1.3,0-1.9,0c-1.8-0.2-2.4-0.8-2.4-2.8
		C165.5,37.9,164.4,39.3,172.3,39.3z"/>
	<path class="st1" d="M67,152.2c-0.2,0-0.3,0-0.5,0c0-0.2,0-0.3,0.1-0.5c0,0,0.2,0,0.3,0C67.1,151.8,67.1,152,67,152.2z
		 M143.1,318.6c-4.6-0.1-9.3-0.2-13.9,0c-5.7,0.2-11.8-4.7-11.6-12.2c0.2-5.2-0.1-10.5,0.4-15.7l0,0c1-1.1,2.3-1.1,3.5-1
		c6.6,0.2,13.2-0.4,19.9,0.5c2.8,0.4,5.7,0.2,8.5-0.3c1.7-0.3,3.6-1,4.8,1.2l0,0c0,5-0.1,10,0,15.1
		C154.9,314.1,149.6,318.7,143.1,318.6z M289.5,306.2c0.3,6.4-4.6,12.6-11.7,12.5c-4.6-0.1-9.3,0.1-14,0
		c-7.2-0.1-11.4-4.6-11.5-12.2c0-4.4,0-8.7,0.1-13.1c0-2.3,0.1-2.4,2.4-2.4c7.5,0,15,0,22.5,0c4,0,8,0.1,12.1,0.1
		c0.1,0.2,0.1,0.5,0.2,0.7C289.5,296.6,289.2,301.4,289.5,306.2z M305.9,276.2l-0.1,0.2c-0.1,0.2-0.3,0.3-0.4,0.5l0,0
		c-0.9,0.9-1.8,1.9-2.7,2.8c-0.2,0.2-0.4,0.4-0.6,0.5l0,0l-0.1,0.1c-0.3,0.2-0.6,0.4-0.9,0.6c0-0.1,0.1-0.2,0.2-0.2
		c-0.1,0.1-0.1,0.2-0.2,0.2c-1.1,0.1-2,0.7-2.9,1.4c-1,1.8-2.7,1.2-4.2,1.3c-0.3-0.4-0.6-0.3-0.9,0c-0.7,0.5-1.5,0.7-2.4,0.7
		c-3.4,0-6.8,0-10.3,0c-0.7,0-1.4-0.3-2.1-0.7l0,0c-4.7-0.3-9.3-0.3-14,0c-4.2,1.1-8.5,1.2-12.7,0l0,0c-1.7-0.3-3.4-0.3-5.1,0
		c-1.1,0.8-2.4,0.7-3.7,0.7c-33.1,0-66.2,0-99.3,0c-1.3,0-2.6,0.1-3.7-0.7l0,0c-1.3-0.3-2.5-0.3-3.8,0c-0.4,0.4-0.9,0.4-1.3,0l0,0
		c-2.1-0.3-4.2-0.3-6.3,0c-0.7,0.5-1.5,0.7-2.4,0.7c-3.2,0-6.5,0-9.7,0c-1,0-1.9-0.2-2.7-0.8l0,0c-0.3-0.3-0.6-0.4-0.8,0.1l0,0
		c-0.5-0.2-1-0.3-1.5-0.5l0,0c-0.4-0.1-0.8-0.2-1.3-0.3c-0.9,0.7-1.6,0.7-1.7-0.7l0,0l-0.1-0.1c-2.4-1.2-4.5-2.9-6.3-4.9
		c-2.9-3.2-4.1-6.9-4.1-11.3c0-11.3,0-22.6,0-33.9c0-6.7,0-13.4,0-20.1c1.2-0.1,2.3-0.2,3.5-0.2c11.2,0,22.3,0,33.5,0
		c1.1,0,2.3,0.4,3.4-0.4c4.9,0,9.8,0,14.7,0l0,0l0,0l0,0l0,0c2.5,0.7,5,0.7,7.5,0c21.6,0,43.2,0,64.9,0c3.1,1,6.2,0.3,9.3,0.4
		c1.9,0,4,0.5,5.9-0.4c2.4,0,4.7,0,7.1,0c0.7,0.7,1.6,0.4,2.4,0.4c12.8,0,25.5,0,38.3,0c0.8,0,1.7,0.2,2.4-0.4c1.1,0,2.2,0,3.3,0
		l0,0l0,0l0,0l0,0c4.3,0.9,8.6,0.4,12.9,0.2c0.7-0.7,1.3-0.7,1.9,0.2c-0.6-0.1-1.3-0.1-1.9-0.2c0.6,0.1,1.3,0.1,1.9,0.2v0.2l0.2,0.1
		c0,16.2,0,32.3,0,48.5c0,0.8,0,1.6,0,2.3C309.4,267.6,309,272.3,305.9,276.2z M353.3,115.5c-1.2,9.2-6.6,16.1-16,17.1
		c-2.3,0.3-3-0.1-4-2.3c-1.5-3.1-1.8-6.5-1.9-9.8c-0.1-8.3,0-16.6,0-24.8c0-3.1,0.5-5.8,3.6-7.2c1-0.5,0.9-1.4,0.7-2.3
		c-0.4-2.1-1.5-3.6-3.2-4.8c-2.9-2.2-6.3-3.1-9.8-3.8c-3.9-0.8-7.8-0.9-11.7-0.9c-1.3,0-1.9,0.5-1.9,2c0.1,2.1,0.1,4.3,0.1,6.4
		c0,34.6,0,69.2,0,103.8c0,0.7,0,1.3,0,2c0,1.3-0.6,1.8-1.7,1.8c-2.4,0-4.9,0-7.3,0c-52.5,0-105,0.1-157.4,0.1
		c-13.9,0-27.7,0-41.6,0.1c-3.1,0-3.1,0-3.1-3.4c0-36.2,0-72.3,0-108.5c0-4.7,0.2-4.1-3.9-4.1c-4.4,0-8.9,0.3-13.1,1.9
		c-0.2,0.1-0.4,0.1-0.6,0.2c-0.7,1-1.6,1.3-2.7,1.2l0,0c-0.2,0-0.4,0-0.5,0.2c-0.5,1.4-1.7,1.8-3,1.9l0,0c-0.2,0-0.3,0.1-0.3,0.3
		c-0.1,0.1-0.2,0.2-0.3,0.3l0,0c-0.2,0-0.3,0.2-0.3,0.4c-0.1,0.1-0.2,0.3-0.3,0.4l0,0c-0.2,0.1-0.3,0.2-0.2,0.4
		c-0.2,0.3-0.4,0.6-0.5,0.9l0,0l-0.1,0.2c0,1.1,0.3,2.1,1.1,2.9c0.7,0.6,1.2,1.5,1.3,2.5v-0.1c0.2,0.4,0.5,0.7,0.7,1.1l0,0l0,0l0,0
		l0,0l-0.1,0.1l0.1,0.2c0.5,8.5,0.5,16.9,0.4,25.4c0,4.8-0.2,9.6-1.6,14.2l-0.1,0.1c-0.1,0.2-0.3,0.4-0.4,0.5l0,0
		c-0.2,0-0.3,0.1-0.3,0.3c-0.1,0.2-0.3,0.3-0.5,0.4l0,0l-0.2,0.1c-5.8,0.5-10.6-1.4-14.2-6.3c-3.3-4.4-4.8-9.4-4.7-15
		c0.1-4.7,0-9.4,0.1-14.1c0-1.2,0.2-2.5,0.3-3.7c0.3-2.3,1.2-4,3.5-4.7c1.3-0.3,1.8-1.2,1.9-2.6c0.4-7.6,4.7-12.4,10.6-15.9
		c6.9-4.1,14.6-5.1,22.3-5.5c1.3-0.1,2.5-0.1,3.8,0c1.4,0,1.8-0.7,1.8-2.1c0-4.3,0.2-8.5-0.1-12.8c-0.8-13,9.8-22.3,20.9-22.2
		c19,0.1,38.1,0,57.1,0c36.4,0,72.8,0,109.2,0c2.8,0,5.5,0.1,8.2,0.7c7.5,1.4,16,10.3,15.6,19.8c-0.2,4.4,0,8.7,0,13.1
		c0,3.6,0,3.3,3.1,3.4c6.7,0.1,13.3,0.9,19.7,3.1c5.4,1.9,9.9,5.1,13.2,9.9c1.6,2.3,2.2,5.1,2.5,7.9c0.1,1.6,0.6,2.7,2.1,3.3
		c2.5,1,3.5,3.2,3.6,5.8C353.7,101.7,354.2,108.7,353.3,115.5z M550.8,245.4c-3.6,7-8.8,13-15.6,17.9c-6.8,4.8-15,8.2-24.6,10.3
		c-9.6,2.1-24.7,3.1-45.2,3.1h-43.9V85.4h46.1c31,0,52.9,3.9,65.7,11.7s19.3,20.9,19.3,39.2c0,10.4-2.4,19-7.3,25.7
		c-4.9,6.7-12.5,12.1-22.7,16.1c11.5,3.3,20,8.5,25.4,15.7c5.5,7.1,8.2,16.5,8.2,28.1C556.2,230.6,554.4,238.4,550.8,245.4z
		 M674,276.7l-8-33.5h-47.6l-7.3,33.5h-47.3L619,85.4h49.6l52.6,191.3H674z M885.5,276.7h-47.3v-83.2h-53v83.2h-46.8V85.4h46.8v70.8
		h53V85.4h47.3V276.7z M1058.5,253.3c-15.2,17.2-35.4,25.8-60.8,25.8c-26.2,0-46.6-8.6-61.2-25.9s-21.9-41.3-21.9-72
		s7.4-54.7,22.2-72.1s35.1-26.1,61-26.1c26,0,46.4,8.9,61.2,26.7s22.3,42.5,22.3,74.2C1081.3,213,1073.7,236.1,1058.5,253.3z
		 M1257.5,276.7h-43.9l-52-107.1c-0.9-1.6-3.1-8.1-6.8-19.5c-1.7-5.2-3.1-9.3-4.1-12.3c1.1,7.4,1.9,15.8,2.4,25.1s0.8,20.4,0.8,33.4
		v80.5h-43.5V85.4h47.9l47.9,103c1.4,3.3,3.4,8.4,5.9,15.3s5.4,14.9,8.7,24.2c-2.5-13.5-4.3-26-5.5-37.3s-1.8-21.9-1.8-31.6V85.5
		h43.9L1257.5,276.7L1257.5,276.7z"/>
	<path class="st0" d="M258.2,283.4c1.1,0,2.1,0,3.2,0.1C260.3,283.4,259.3,283.4,258.2,283.4z"/>
	<path class="st0" d="M80.4,78.9c-0.5,0-1,0.1-1.4,0.3C79.4,79,79.9,78.9,80.4,78.9z"/>
	<path class="st0" d="M305.4,276.6l0.1-0.1C305.5,276.5,305.5,276.5,305.4,276.6z"/>
	<path class="st0" d="M112.4,283.1c0.1,0,0.2,0,0.3,0.1C112.6,283.2,112.5,283.1,112.4,283.1z"/>
	<path class="st1" d="M296.5,130c0-14.3,0-28.7-0.1-43c0-2.4-0.3-4.6-1.6-6.7c-2.8-4.6-6.6-6.5-11.7-6.5c-17.6,0.1-35.1,0-52.7,0
		c-35.5,0-70.9,0.1-106.4-0.1c-6.5,0-13.3,5.7-13.2,13.9c0.3,23.7,0.1,47.5,0.1,71.2c0,3.3,1,6,3.2,8.4c2.8,3.1,6,4.2,10,4.2
		c26.6,0,53.1,0,79.7,0l0,0c26.7,0,53.3-0.1,80,0.1c6.4,0,13.4-5.7,13-13.7C296.1,148.6,296.5,139.3,296.5,130z"/>
	<path class="st0" d="M78.3,79.6c0.2-0.1,0.3-0.2,0.5-0.3C78.6,79.4,78.5,79.5,78.3,79.6z"/>
	<path class="st0" d="M292.5,211.7c-0.1,0-0.3,0-0.4,0C292.3,211.7,292.4,211.7,292.5,211.7z"/>
	<path class="st2" d="M75.3,91.3L75.3,91.3L75.3,91.3z"/>
	<path class="st2" d="M349.7,89c-1.5-0.6-1.9-1.6-2.1-3.3c-0.3-2.8-0.9-5.5-2.5-7.9c-3.3-4.9-7.8-8.1-13.2-9.9
		c-6.4-2.2-13-3-19.7-3.1c-3.1-0.1-3.1,0.2-3.1-3.4c0-4.4-0.2-8.7,0-13.1c0.4-9.5-8.1-18.5-15.6-19.8c-2.7-0.5-5.5-0.7-8.2-0.7
		c-36.4,0-72.8,0-109.2,0c-19,0-38.1,0.1-57.1,0C107.8,27.7,97.3,37,98.1,50c0.3,4.2,0,8.5,0.1,12.8c0,1.4-0.4,2.1-1.8,2.1
		c-1.3,0-2.5,0-3.8,0c-7.8,0.4-15.4,1.4-22.3,5.5c-6,3.5-10.2,8.3-10.6,15.9c-0.1,1.5-0.6,2.3-1.9,2.6c-2.3,0.6-3.2,2.4-3.5,4.7
		C54.1,94.8,54,96,54,97.3c-0.1,4.7,0,9.4-0.1,14.1c-0.1,5.6,1.4,10.6,4.7,15c3.6,4.9,8.4,6.8,14.2,6.3l0.2-0.1c0-0.1,0-0.1,0.1-0.2
		c0,0,0-0.1,0.1-0.1l0,0l0.1-0.1c0.1,0,0.1,0,0.2,0c0-0.2,0.1-0.3,0.3-0.3c0-0.1,0-0.3,0.1-0.3c0.1-0.1,0.2-0.1,0.3-0.2l0.1-0.1
		c1.4-4.6,1.6-9.4,1.6-14.2c0-8.5,0.1-16.9-0.4-25.4l-0.1-0.2l0.1-0.1c-0.4-0.1-0.6-0.4-0.7-0.7c0-0.1,0-0.2-0.1-0.4v0.1l0,0l0,0
		l0,0c-0.2-0.2-0.4-0.3-0.6-0.5s-0.4-0.3-0.6-0.5c-2.2-1.6-2.2-1.6-1.2-4.4l0.1-0.2c0-0.1,0-0.2,0-0.3c0.1-0.3,0.2-0.5,0.5-0.6
		c0-0.2,0-0.4,0.2-0.4c0-0.1,0-0.2,0.1-0.3c0.1-0.1,0.1-0.1,0.2-0.1c0-0.2,0.2-0.3,0.3-0.4l0.1-0.2l0.2-0.1c0-0.2,0.1-0.3,0.3-0.3
		c0.2-0.3,0.4-0.5,0.6-0.7c0.1-0.1,0.2-0.2,0.3-0.3l0,0c0.1-0.1,0.2-0.1,0.3-0.2c0,0,0.1,0,0.1-0.1l0,0c0.4-0.2,0.8-0.4,1.2-0.5
		c0.1,0,0.3-0.1,0.4-0.1c0.1-0.2,0.3-0.3,0.5-0.2c0.2-0.2,0.4-0.3,0.6-0.5c0.2-0.1,0.3-0.2,0.5-0.3c0.1,0,0.1-0.1,0.2-0.1
		c0.4-0.2,0.9-0.3,1.4-0.3c0.2-0.1,0.4-0.1,0.6-0.2c4.2-1.6,8.7-1.9,13.1-1.9c4.2,0,3.9-0.6,3.9,4.1c0,36.2,0,72.3,0,108.5
		c0,3.4,0,3.4,3.1,3.4c13.9,0,27.7,0,41.6-0.1c52.5,0,105-0.1,157.4-0.1c2.4,0,4.9,0,7.3,0c1.2,0,1.8-0.5,1.7-1.8c0-0.7,0-1.3,0-2
		c0-34.6,0-69.2,0-103.8c0-2.1,0-4.3-0.1-6.4c0-1.4,0.6-2,1.9-2c3.9,0,7.8,0.1,11.7,0.9c3.4,0.7,6.8,1.6,9.8,3.8
		c1.6,1.2,2.8,2.8,3.2,4.8c0.2,0.9,0.3,1.9-0.7,2.3c-3.1,1.4-3.6,4.1-3.6,7.2c0,8.3-0.2,16.6,0,24.8c0.1,3.3,0.4,6.7,1.9,9.8
		c1.1,2.2,1.7,2.5,4,2.3c9.5-1.1,14.8-7.9,16-17.1c0.9-6.8,0.4-13.9,0-20.8C353.2,92.2,352.2,89.9,349.7,89z M158.6,39.4
		c0.2-3.4,2.2-5.7,5.4-6.6c1.3-0.3,2.5-0.4,3.8-0.4c23.9,0,47.8,0,71.7,0c1.1,0,2.1,0,3.2,0.2c3.8,0.8,5.6,3.2,5.7,7.3
		c0,3.1,0,6.3,0,9.4c-0.1,4-1.9,6.2-5.7,6.8c-0.9,0.1-1.9,0.1-2.8,0.1c-12.2,0-24.3,0-36.5,0l0,0c-12,0-23.9,0-35.9,0
		c-1.1,0-2.1,0-3.2-0.2c-3.1-0.5-5.5-2.9-5.6-6.3C158.4,46.4,158.4,42.9,158.6,39.4z M283.6,171.6c-26.7-0.2-53.3-0.1-80-0.1l0,0
		c-26.6,0-53.1,0-79.7,0c-3.9,0-7.2-1.2-10-4.2c-2.2-2.4-3.2-5.1-3.2-8.4c0-23.7,0.2-47.5-0.1-71.2c-0.1-8.2,6.8-13.9,13.2-13.9
		c35.5,0.2,70.9,0.1,106.4,0.1c17.6,0,35.1,0.1,52.7,0c5.1,0,9,1.9,11.7,6.5c1.3,2.1,1.6,4.3,1.6,6.7c0,14.3,0,28.7,0.1,43
		c0,9.3-0.3,18.6,0.1,27.9C297,165.9,290,171.6,283.6,171.6z"/>
	<path class="st2" d="M307.8,260.8c0-16.2,0-32.3,0-48.5l-0.2-0.1V212c-0.6-0.1-1.3-0.1-1.9-0.2c-4.3,0.2-8.6,0.7-12.9-0.2
		c-0.1,0.1-0.3,0.2-0.4,0.2c-0.3,0.1-0.5,0.2-0.8,0.3c-0.1,0-0.3,0-0.4,0s-0.3,0-0.4,0c-0.4-0.1-0.8-0.2-1.2-0.5
		c-0.7,0.7-1.6,0.4-2.4,0.4c-12.8,0-25.5,0-38.3,0c-0.8,0-1.7,0.2-2.4-0.4c-2.4,0.7-4.7,0.7-7.1,0c-1.9,0.9-3.9,0.4-5.9,0.4
		c-3.1-0.1-6.2,0.6-9.3-0.4c-0.8,0.7-1.8,0.4-2.7,0.4c-19.8,0-39.6,0-59.4,0c-0.9,0-1.9,0.3-2.7-0.5c-2.5,0.7-5,0.7-7.5,0
		c-0.1,0.1-0.2,0.2-0.4,0.2s-0.2,0.1-0.4,0.2c-0.4,0.1-0.8,0.1-1.2,0.1s-0.8-0.1-1.2-0.1c-3.9-0.2-7.8,0.6-11.6-0.4
		c-1,0.8-2.2,0.4-3.4,0.4c-11.2,0-22.3,0-33.5,0c-1.2,0-2.3,0.1-3.5,0.2c0,6.7,0,13.4,0,20.1c0,11.3,0,22.6,0,33.9
		c0,4.3,1.2,8.1,4.1,11.3c1.9,2,3.9,3.7,6.3,4.9l0.1,0.1c0.5,0.1,0.9,0.1,1.3,0.4c0.1,0.1,0.3,0.2,0.4,0.3c0.4,0.1,0.8,0.2,1.3,0.3
		c0.3,0,0.5-0.1,0.8,0c0.1,0,0.2,0,0.3,0.1c0.1,0.1,0.2,0.1,0.3,0.2c0.1,0.1,0.1,0.1,0.1,0.2l0,0l0,0c0.2-0.5,0.5-0.3,0.8-0.1l0,0
		l0,0c4.9-0.1,9.8-0.3,14.7,0.1c2.1-0.3,4.2-0.3,6.3,0c0.2-0.1,0.4-0.1,0.6-0.1s0.4,0,0.6,0.1c1.3-0.3,2.5-0.3,3.8,0
		c1-0.1,2.1-0.2,3.1-0.2c33.6,0,67.1,0,100.7,0c0.9,0,1.9,0.1,2.8,0.2c1.7-0.3,3.4-0.3,5.1,0c2.1-0.2,4.2-0.3,6.4-0.3
		c1.1,0,2.1,0,3.2,0.1c1.1,0,2.1,0.1,3.2,0.2c4.7-0.3,9.3-0.3,14,0c2.4-0.2,4.9-0.2,7.3-0.2s4.9,0.1,7.3,0.2c0.3-0.2,0.6-0.4,0.9,0
		c1.3-0.9,2.7-1,4.2-1.3c0.8-0.7,1.8-1.3,2.9-1.4c0-0.1,0.1-0.2,0.2-0.2c0.2-0.2,0.4-0.3,0.7-0.4l0.1-0.1l0,0l0,0
		c0-0.2,0.1-0.3,0.2-0.4s0.2-0.1,0.4-0.1c0.9-0.9,1.8-1.9,2.7-2.8c0-0.1,0-0.3,0.1-0.4l0.1-0.1c0,0,0.1,0,0.2-0.1l0.1-0.2
		c3.1-4,3.5-8.7,3.3-13.6C307.8,262.4,307.8,261.6,307.8,260.8z M144.5,244.9c-1.1,2.4-3.1,3.2-5.4,3.3c-1.3-0.2-2.6-0.2-3.8-0.7
		c-6-2.7-12.1-5.4-17.4-9.6c-2.3-1.8-3.9-4.1-4.2-7.2c-0.4-4.7,2.8-7.7,7.2-6.9c0.7,0.1,1.4,0.4,2.1,0.7c6.2,2.7,12,6,17.4,10.3
		c1.2,0.9,2.3,2,3.2,3.2C145.2,240.1,145.6,242.5,144.5,244.9z M240.4,245.1c-2.1,3.8-4.2,7.7-7,11c0,0.4-0.1,0.8-0.3,1.1
		c-0.1,0.1-0.2,0.2-0.3,0.2c-0.2,0.3-0.3,0.5-0.5,0.7c-0.6,0.6-1.2,0.9-1.9,1.1c-0.9,0.2-1.9,0.2-2.9,0.2c-9.4,0-18.8,0-28.2,0
		c-7.8,0-15.6,0.1-23.4,0.1c-0.4,0-0.8,0-1.3,0c-0.4,0-0.8-0.1-1.1-0.1c-0.2-0.1-0.4-0.1-0.7-0.2c-0.4-0.2-0.7-0.4-1-0.8
		c-0.2-0.2-0.3-0.4-0.4-0.6c-1.5-2-2.9-4.1-4.2-6.3s-2.5-4.4-3.6-6.7c-1.9-3.8,0-6.9,4.1-7c4,0,8,0,12,0c18.8,0,37.6,0.1,56.4-0.1
		C240.4,237.7,242.5,241.3,240.4,245.1z M287.5,236.9c-5.7,4.9-12.4,7.9-19.2,10.8c-0.9,0.4-1.8,0.5-2.8,0.6
		c-4.4,0.4-7.3-3.2-6.1-7.7c0.5-1.7,1.4-3.1,2.8-4.4c3.8-3.5,8-6.1,12.5-8.5c2.6-1.4,5.2-3,8.1-3.8c4.4-1.1,7.8,1.6,7.7,6.7
		C290.4,232.9,289.5,235.2,287.5,236.9z"/>
	<path class="st2" d="M294.2,211.2L294.2,211.2L294.2,211.2z"/>
	<path class="st2" d="M153.2,211.2L153.2,211.2L153.2,211.2z"/>
	<path class="st2" d="M154.7,291.1c-1.9-0.4-3.8-0.2-5.7-0.2c-10.3-0.1-20.7-0.1-31-0.2l0,0c-0.5,5.2-0.3,10.5-0.4,15.7
		c-0.2,7.5,5.9,12.4,11.6,12.2c4.6-0.2,9.3-0.1,13.9,0c6.5,0.1,11.8-4.5,11.6-12.4C154.6,301.2,154.7,296.2,154.7,291.1z"/>
	<path class="st2" d="M289.3,291.1c-4,0-8-0.1-12.1-0.1c-7.5,0-15-0.1-22.5,0c-2.3,0-2.3,0.1-2.4,2.4c-0.1,4.4-0.1,8.7-0.1,13.1
		c0.1,7.6,4.3,12.1,11.5,12.2c4.7,0.1,9.3-0.1,14,0c7.1,0.2,12.1-6,11.7-12.5c-0.3-4.8,0-9.6,0-14.4
		C289.5,291.5,289.4,291.3,289.3,291.1z"/>
	<path class="st3" d="M66.9,151.8c-0.1,0-0.3,0-0.3,0c-0.1,0.2-0.1,0.3-0.1,0.5c0.2,0,0.3,0,0.5,0C67.1,152,67.1,151.8,66.9,151.8z"
		/>
	<path class="st2" d="M73.4,89.4c0.2,0.2,0.4,0.3,0.6,0.5s0.4,0.3,0.6,0.5l0,0c-0.1-1-0.6-1.8-1.3-2.5c-0.9-0.8-1.1-1.8-1.1-2.9
		C71.1,87.8,71.1,87.8,73.4,89.4z"/>
	<path class="st0" d="M74.6,90.3L74.6,90.3L74.6,90.3z"/>
	<path class="st2" d="M75.6,80.9L75.6,80.9L75.6,80.9c-0.2,0.2-0.3,0.2-0.4,0.3l0,0c-0.1,0.1-0.2,0.2-0.3,0.3
		c-0.2,0.2-0.4,0.4-0.6,0.7l0,0l0,0c1.3-0.1,2.4-0.5,3-1.9c-0.1,0-0.3,0.1-0.4,0.1C76.4,80.5,76,80.7,75.6,80.9z"/>
	<path class="st4" d="M74.8,81.4c-0.2,0.2-0.4,0.4-0.6,0.7l0,0C74.4,81.8,74.6,81.6,74.8,81.4z"/>
	<path class="st4" d="M75.6,80.9c0.4-0.2,0.8-0.4,1.2-0.5C76.4,80.5,76,80.7,75.6,80.9z"/>
	<path class="st4" d="M75.5,81C75.5,81,75.6,81,75.5,81C75.5,80.9,75.5,81,75.5,81z"/>
	<path class="st4" d="M75.2,81.2L75.2,81.2L75.2,81.2z"/>
	<path class="st4" d="M78.8,79.3c-0.2,0.1-0.3,0.2-0.5,0.3c-0.2,0.1-0.4,0.3-0.6,0.5l0,0l0,0c1.1,0.1,2-0.2,2.7-1.2
		c-0.5,0-1,0.1-1.4,0.3C78.9,79.2,78.8,79.3,78.8,79.3z"/>
	<path class="st4" d="M78.3,79.6c-0.2,0.1-0.4,0.3-0.6,0.5l0,0C77.9,79.9,78.1,79.7,78.3,79.6z"/>
	<path class="st2" d="M78.8,79.3c0.1,0,0.1-0.1,0.2-0.1C78.9,79.2,78.8,79.3,78.8,79.3z"/>
	<path class="st4" d="M73.6,82.7L73.6,82.7L73.6,82.7c0.1-0.1,0.2-0.2,0.3-0.3l-0.2,0.1L73.6,82.7z"/>
	<path class="st4" d="M73.7,82.4l-0.1,0.2l0,0L73.7,82.4z"/>
	<path class="st4" d="M73,83.4L73,83.4L73,83.4c0.1-0.1,0.2-0.2,0.3-0.4c-0.1,0-0.2,0-0.2,0.1C73,83.2,73,83.3,73,83.4z"/>
	<path class="st4" d="M73,83.1c-0.1,0.1-0.1,0.2-0.1,0.3l0,0C73,83.3,73,83.2,73,83.1z"/>
	<path class="st4" d="M72.2,84.5c0,0.1,0,0.2,0,0.3l0,0l0,0c0.2-0.3,0.4-0.6,0.5-0.9C72.5,84,72.3,84.2,72.2,84.5z"/>
	<path class="st4" d="M72.2,84.5c0,0.1,0,0.2,0,0.3l0,0C72.2,84.7,72.2,84.6,72.2,84.5z"/>
	<path class="st4" d="M73,132.2C72.9,132.2,72.9,132.2,73,132.2c-0.1,0.1-0.1,0.1-0.1,0.1c0,0.1,0,0.1-0.1,0.2l0,0l0,0
		c0.2-0.1,0.3-0.3,0.5-0.4C73.2,132.1,73.2,132.1,73,132.2C73,132.1,73,132.1,73,132.2z"/>
	<path class="st4" d="M72.9,132.2L72.9,132.2L72.9,132.2z"/>
	<path class="st4" d="M72.9,132.3c0,0.1,0,0.1-0.1,0.2l0,0C72.8,132.4,72.8,132.4,72.9,132.3z"/>
	<path class="st4" d="M73.6,131.7L73.6,131.7L73.6,131.7c0.2-0.1,0.3-0.3,0.4-0.5c-0.1,0-0.2,0.1-0.3,0.2
		C73.6,131.5,73.6,131.6,73.6,131.7z"/>
	<path class="st4" d="M73.7,131.4c-0.1,0.1-0.1,0.2-0.1,0.3l0,0C73.6,131.6,73.6,131.5,73.7,131.4z"/>
	<path class="st4" d="M75.3,91.3L75.3,91.3L75.3,91.3z"/>
	<path class="st4" d="M75.3,91.3c-0.2-0.4-0.5-0.7-0.7-1.1c0,0.1,0,0.3,0.1,0.4C74.7,90.9,74.9,91.2,75.3,91.3z"/>
	<path class="st4" d="M74.7,90.6c0.1,0.3,0.3,0.6,0.7,0.7l0,0l0,0C74.9,91.2,74.7,90.9,74.7,90.6z"/>
	<path class="st1" d="M237.5,237.2c-18.8,0.2-37.6,0.1-56.4,0.1c-4,0-8-0.1-12,0c-4.1,0-6,3.2-4.1,7c1.1,2.3,2.3,4.5,3.6,6.7
		s2.7,4.3,4.2,6.3c0.1-0.1,0.2-0.2,0.3-0.3c0,0,0,0,0.1,0c0-0.1,1.1,0.3,1,0.2c-1.1-3.6-2.1-4.3,1.4-4.9l0,0l0,0
		c-0.9-1.7-1.9-3.3-2.8-5c-0.2-0.4-0.3-0.7-0.5-1.1c-0.3-0.7-0.6-1.5-0.8-2.3c21.4,0,42.4,0,63.6,0c-0.1,1-0.4,1.8-0.8,2.6
		c-0.3,0.5-0.6,1-0.9,1.5s-0.6,1-0.9,1.5c-0.1,0.3-0.3,0.5-0.4,0.8c1,0.5,1.6,0.9,2.1,1.3c0.2,0.1,0.3,0.3,0.4,0.5
		c0.2,0.2,0.3,0.5,0.3,0.8c0.1,0.6,0,1.5-0.2,2.8l0,0l0.1,0.1c2.8-3.3,4.9-7.2,7-11C243.9,240.8,241.8,237.2,237.5,237.2z"/>
	<path class="st1" d="M284.2,223.5c-2.9,0.8-5.4,2.4-8.1,3.8c-4.4,2.3-8.7,5-12.5,8.5c-1.3,1.2-2.3,2.6-2.8,4.4
		c-1.2,4.5,1.7,8.1,6.1,7.7c0.9-0.1,1.9-0.3,2.8-0.6c6.7-2.9,13.5-5.9,19.2-10.8c2-1.7,2.9-4,3-6.2
		C291.9,225.1,288.6,222.4,284.2,223.5z"/>
	<path class="st1" d="M141.8,234.3c-5.4-4.2-11.2-7.5-17.4-10.3c-0.7-0.3-1.4-0.5-2.1-0.7c-4.4-0.8-7.5,2.2-7.2,6.9
		c0.2,3.1,1.9,5.4,4.2,7.2c5.3,4.1,11.3,6.9,17.4,9.6c1.2,0.5,2.5,0.5,3.8,0.7c2.3-0.1,4.4-0.9,5.4-3.3c1.1-2.4,0.7-4.9-0.9-6.9
		C144.1,236.3,142.9,235.2,141.8,234.3z"/>
	<path class="st0" d="M234,256.7L234,256.7L234,256.7z"/>
	<path class="st1" d="M234.1,256.9l-0.1-0.1l0,0c-7.7,1.3-15.5,0.7-23.3,0.8c-10.6,0.1-21.3-0.8-31.9-0.8c-1.9,0-3.8,0.7-5.6,0.1
		c0,0,0,0-0.1,0c-0.1,0.1-0.2,0.2-0.3,0.3l0,0l0,0c0.1,0.2,0.3,0.4,0.4,0.6c0.3,0.3,0.6,0.6,1,0.8c0.2,0.1,0.4,0.2,0.7,0.2
		c0.4,0.1,0.7,0.1,1.1,0.1s0.8,0,1.3,0c7.8,0,15.6-0.1,23.4-0.1c9.4,0,18.8,0,28.2,0c1,0,2,0,2.9-0.2c0.7-0.2,1.3-0.5,1.9-1.1
		C233.8,257.3,234,257.1,234.1,256.9L234.1,256.9L234.1,256.9L234.1,256.9z"/>
	<path class="st0" d="M176,258.9c-0.4,0-0.8-0.1-1.1-0.1C175.2,258.8,175.6,258.9,176,258.9z"/>
	<path class="st0" d="M233.6,257.5c0.2-0.2,0.4-0.4,0.5-0.7l0,0C234,257.1,233.8,257.3,233.6,257.5z"/>
	<path class="st0" d="M174.2,258.5c-0.4-0.2-0.7-0.4-1-0.8C173.5,258.1,173.8,258.4,174.2,258.5z"/>
	<path class="st0" d="M173.1,256.9c-0.1,0.1-0.2,0.2-0.3,0.3l0,0C172.9,257.1,173,257,173.1,256.9z"/>
	<path class="st2" d="M143.2,283.5c-1,0-2.1,0.1-3.1,0.2l0,0l0,0c1.1,0.8,2.4,0.7,3.7,0.7c33.1,0,66.2,0,99.3,0
		c1.3,0,2.6,0.1,3.7-0.7c-0.9-0.1-1.9-0.2-2.8-0.2C210.4,283.5,176.8,283.4,143.2,283.5z"/>
	<path class="st0" d="M143.2,283.5c-1,0-2.1,0.1-3.1,0.2l0,0C141.1,283.6,142.2,283.5,143.2,283.5z"/>
	<path class="st0" d="M163.5,211.6c19.8,0,39.6,0,59.4,0c0.9,0,1.9,0.3,2.7-0.4c-21.6,0-43.2,0-64.9,0
		C161.5,211.9,162.5,211.6,163.5,211.6z"/>
	<path class="st2" d="M278.5,283.6L278.5,283.6L278.5,283.6c0.6,0.4,1.3,0.7,2.1,0.7c3.4,0,6.8,0,10.3,0c0.9,0,1.6-0.3,2.4-0.7
		c-2.4-0.1-4.9-0.2-7.3-0.2C283.4,283.4,281,283.5,278.5,283.6z"/>
	<path class="st5" d="M285.9,283.4c-2.4,0-4.9,0-7.3,0.2l0,0C281,283.5,283.4,283.4,285.9,283.4z"/>
	<path class="st2" d="M113.9,283.6c0.8,0.6,1.7,0.8,2.7,0.8c3.2,0,6.5,0,9.7,0c0.9,0,1.7-0.2,2.4-0.7
		C123.8,283.3,118.9,283.4,113.9,283.6z"/>
	<path class="st4" d="M113.9,283.6L113.9,283.6c4.9-0.1,9.8-0.3,14.7,0.1C123.8,283.3,118.9,283.4,113.9,283.6z"/>
	<path class="st0" d="M153.2,211.2L153.2,211.2L153.2,211.2z"/>
	<path class="st0" d="M150.1,211.6c0.4,0,0.8,0.1,1.2,0.1s0.8,0,1.2-0.1c0.1,0,0.2-0.1,0.4-0.2c0.1-0.1,0.2-0.1,0.4-0.2
		c-4.9,0-9.8,0-14.7,0C142.3,212.2,146.2,211.4,150.1,211.6z"/>
	<path class="st0" d="M152.4,211.6c-0.4,0.1-0.8,0.1-1.2,0.1C151.7,211.7,152.1,211.7,152.4,211.6z"/>
	<path class="st0" d="M153.2,211.2L153.2,211.2L153.2,211.2c-0.1,0.1-0.2,0.2-0.4,0.2C152.9,211.4,153,211.3,153.2,211.2z"/>
	<path class="st2" d="M258.2,283.4c-2.1,0-4.2,0.1-6.4,0.3l0,0l0,0c4.2,1.2,8.5,1.2,12.7,0c-1.1-0.1-2.1-0.1-3.2-0.2
		C260.3,283.4,259.3,283.4,258.2,283.4z"/>
	<path class="st5" d="M258.2,283.4c-2.1,0-4.2,0.1-6.4,0.3l0,0C254,283.4,256.1,283.4,258.2,283.4z"/>
	<path class="st4" d="M247.8,211.2c-2.4,0-4.7,0-7.1,0C243.1,211.9,245.4,211.9,247.8,211.2z"/>
	<path class="st2" d="M298.2,282.3c-1.4,0.3-2.9,0.4-4.2,1.3C295.6,283.6,297.2,284.2,298.2,282.3z"/>
	<path class="st4" d="M108.7,282.1L108.7,282.1L108.7,282.1c0.1,1.4,0.8,1.4,1.7,0.7c-0.1-0.1-0.2-0.2-0.4-0.3
		C109.6,282.3,109.2,282.2,108.7,282.1z"/>
	<path class="st5" d="M110,282.5c-0.4-0.3-0.8-0.3-1.3-0.4l0,0C109.2,282.2,109.6,282.3,110,282.5z"/>
	<path class="st4" d="M292.5,211.7c0.1,0,0.3,0,0.4,0c0.3,0,0.5-0.1,0.8-0.3c0.1-0.1,0.3-0.1,0.4-0.2c-1.1,0-2.2,0-3.3,0
		c0.4,0.3,0.8,0.4,1.2,0.5C292.3,211.7,292.4,211.7,292.5,211.7z"/>
	<path class="st4" d="M294.2,211.2L294.2,211.2L294.2,211.2z"/>
	<path class="st4" d="M293.7,211.4c-0.3,0.1-0.5,0.2-0.8,0.3C293.2,211.6,293.5,211.5,293.7,211.4z"/>
	<path class="st4" d="M292.9,211.7c-0.1,0-0.3,0-0.4,0C292.7,211.7,292.8,211.7,292.9,211.7z"/>
	<path class="st4" d="M294.2,211.2L294.2,211.2L294.2,211.2c-0.1,0.1-0.3,0.2-0.4,0.2C293.9,211.4,294,211.3,294.2,211.2z"/>
	<path class="st4" d="M307.1,211.4c0.6,0.1,1.3,0.1,1.9,0.2C308.4,210.8,307.8,210.7,307.1,211.4z"/>
	<path class="st1" d="M234.7,255.5c-0.2,0.4-0.5,0.8-0.7,1.2l-1.3,1.3l1.4-1.2c0.1-0.1,0.2-0.1,0.3-0.2
		C234.7,256.3,234.7,255.9,234.7,255.5C234.8,255.6,234.8,255.5,234.7,255.5L234.7,255.5z"/>
	<path class="st4" d="M234.8,255.6L234.8,255.6C234.8,255.5,234.8,255.6,234.8,255.6z"/>
	<polygon class="st4" points="234.1,256.9 234.1,256.9 234.1,256.9 234,256.7 234,256.7 	"/>
	<path class="st4" d="M112.7,283.2c-0.1-0.1-0.2-0.1-0.3-0.1c-0.2,0-0.5,0-0.8,0l0,0l0,0c0.5,0.2,1,0.3,1.5,0.5
		c0-0.1-0.1-0.2-0.1-0.2C112.9,283.3,112.8,283.3,112.7,283.2z"/>
	<path class="st4" d="M113,283.4c0.1,0.1,0.1,0.1,0.1,0.2l0,0C113.1,283.6,113.1,283.5,113,283.4z"/>
	<path class="st4" d="M112.7,283.2c0.1,0.1,0.2,0.1,0.3,0.2C112.9,283.3,112.8,283.3,112.7,283.2z"/>
	<path class="st4" d="M112.4,283.1c-0.2,0-0.5,0-0.8,0l0,0C111.9,283.1,112.1,283.1,112.4,283.1z"/>
	<path class="st4" d="M135,283.6L135,283.6L135,283.6c0.4,0.4,0.9,0.4,1.3,0c-0.2-0.1-0.4-0.1-0.6-0.1
		C135.4,283.5,135.2,283.6,135,283.6z"/>
	<path class="st4" d="M135.7,283.5c-0.2,0-0.4,0-0.6,0.1l0,0C135.2,283.6,135.4,283.5,135.7,283.5z"/>
	<path class="st4" d="M305.4,276.6c-0.1,0.1-0.1,0.2-0.1,0.4l0,0l0,0c0.1-0.2,0.3-0.3,0.4-0.5C305.6,276.5,305.6,276.5,305.4,276.6
		C305.5,276.5,305.5,276.5,305.4,276.6z"/>
	<path class="st4" d="M305.4,276.6c-0.1,0.1-0.1,0.2-0.1,0.4l0,0C305.3,276.8,305.4,276.7,305.4,276.6z"/>
	<path class="st4" d="M302.1,280.3c0.2-0.2,0.4-0.4,0.6-0.5c-0.2,0-0.3,0.1-0.4,0.1C302.2,280,302.1,280.1,302.1,280.3z"/>
	<path class="st4" d="M302.1,280.3L302.1,280.3c0-0.2,0.1-0.3,0.2-0.4C302.2,280,302.1,280.1,302.1,280.3z"/>
	<path class="st4" d="M301.1,280.9c0.3-0.2,0.6-0.4,0.9-0.6c-0.3,0-0.5,0.1-0.7,0.4C301.2,280.8,301.2,280.9,301.1,280.9z"/>
	<path class="st4" d="M301.3,280.7c0.2-0.2,0.4-0.3,0.7-0.4C301.7,280.4,301.5,280.5,301.3,280.7z"/>
	<path class="st2" d="M154.7,291.1L154.7,291.1L154.7,291.1c-1.2-2.1-3.2-1.5-4.8-1.2c-2.8,0.5-5.7,0.7-8.5,0.3
		c-6.6-1-13.2-0.3-19.9-0.5c-1.3,0-2.6-0.1-3.5,1c10.3,0.1,20.7,0.1,31,0.2C150.9,291,152.8,290.8,154.7,291.1z"/>
	<path class="st0" d="M154.7,291.1L154.7,291.1L154.7,291.1z"/>
	<path class="st2" d="M167.9,49.7c0.6,0.1,1.3,0,1.9,0c22.2,0,44.4,0,66.6,0c0.8,0,1.7,0,2.5,0c1.5,0,2.4-0.8,2.4-2.4
		c0-1.9,0-3.8,0-5.7c0-1.5-0.7-2.3-2.1-2.3c-0.8,0-1.7,0-2.5,0c-11.1,0-22.2,0-33.3,0l0,0c-10.4,0-20.7-0.1-31.1,0
		c-7.9,0.1-6.8-1.4-6.8,7.7C165.5,49,166.1,49.5,167.9,49.7z"/>
	<path class="st2" d="M176,252.2c0.1,0.1,0.3,0.1,0.3,0.3c0,0.1,0.1,0.1,0.1,0.2c0.1,0,0.2,0,0.3,0s0.2,0.1,0.2,0.2
		c8.5-0.1,16.9-0.1,25.4-0.2c9.3,0,18.6,0,27.9,0c0-0.1,0.1-0.3,0.2-0.4l0,0c0.1-0.1,0.2-0.2,0.4-0.2c0-0.3,0.2-0.6,0.4-0.8
		c0.1-0.1,0.2-0.1,0.3-0.2c0-0.5,0.1-0.9,0.6-1c0.1-0.3,0.3-0.5,0.4-0.8c0.3-0.5,0.6-1,0.9-1.5s0.6-1,0.9-1.5
		c0.4-0.8,0.7-1.7,0.8-2.6c-21.2,0-42.2,0-63.6,0c0.2,0.8,0.5,1.6,0.8,2.3c0.2,0.4,0.3,0.7,0.5,1.1c0.9,1.8,1.9,3.4,2.8,5l0.1,0.1
		C175.8,252.2,175.9,252.2,176,252.2z"/>
	<path class="st2" d="M172.3,245.9c-0.3-0.7-0.6-1.5-0.8-2.3C171.7,244.4,172,245.2,172.3,245.9z"/>
	<path class="st2" d="M175.6,252.1L175.6,252.1c-0.9-1.7-1.9-3.3-2.8-5C173.7,248.8,174.8,250.4,175.6,252.1z"/>
	<path class="st1" d="M178.8,257.5l53.9,0.5l1.3-1.3l0,0c0.2-0.4,0.6-0.5,0.8-0.9c0.2-1.4,2-2.5,1.9-3.1c0-0.3-2-0.6-2.2-0.8
		c-0.1-0.2-0.2-0.3-0.4-0.5c-0.4-0.4-1.1-0.7-2.1-1.3c-0.5,0.1-0.6,0.5-0.6,1c-0.2,0.3-0.4,0.7-0.6,1l0,0l-0.1,0.1l0,0l0,0l0,0
		c-0.2,0.2-0.4,0.5-0.6,0.7l0,0l0,0l0,0l0,0c-0.7,0.8-1.5,1-2.5,1c-12.6-0.6-25.3-0.1-37.9-0.3c-3.5,0-7-0.4-10.4,0.5
		c-1,0.2-1.9,0-2.4-1c-0.1-0.1-0.2-0.1-0.2-0.2c-0.1,0-0.2,0-0.3,0c-0.2-0.2-0.5-0.4-0.7-0.6l-0.1-0.1c-3.5,0.6-3.6,0.8-2.5,4.4
		c0,0.1,0,0.2,0.1,0.3l0,0l0,0C175,257.4,176.9,257.5,178.8,257.5z"/>
	<path class="st0" d="M230.9,252.1L230.9,252.1L230.9,252.1z"/>
	<path class="st0" d="M173.1,256.5c0,0.1,0,0.2,0.1,0.3l0,0C173.1,256.7,173.1,256.6,173.1,256.5z"/>
	<ellipse class="st0" cx="234" cy="256.7" rx="0" ry="0"/>
	<path class="st0" d="M230.9,252.1L230.9,252.1L230.9,252.1L230.9,252.1L230.9,252.1z"/>
	<path class="st0" d="M230.2,252.8L230.2,252.8L230.2,252.8z"/>
	<path class="st0" d="M230.9,252.1L230.9,252.1L230.9,252.1z"/>
	<path class="st1" d="M202.3,252.7c-8.5,0-16.9,0.1-25.4,0.2l0,0l0,0c0.5,1,1.5,2.4,2.5,2.1c3.4-0.8,7.8,1.5,11.3,1.5
		c12.6,0.1,24.9-2.8,37.5-2.1c1,0.1,2.1-0.9,2.8-1.7h-0.8C220.9,252.7,211.6,252.7,202.3,252.7z"/>
	<path class="st0" d="M202.3,252.7c-8.5,0-16.9,0.1-25.4,0.2l0,0C185.4,252.9,193.9,252.8,202.3,252.7z"/>
	<path class="st4" d="M230.9,252.1L230.9,252.1c0.2-0.3,0.5-0.7,0.7-1c-0.1,0.1-0.2,0.1-0.3,0.2C231,251.5,230.9,251.7,230.9,252.1z
		"/>
	<path class="st4" d="M231.3,251.3c-0.2,0.2-0.4,0.5-0.4,0.8l0,0C230.9,251.7,231,251.5,231.3,251.3z"/>
	<path class="st4" d="M230.9,252.1L230.9,252.1L230.9,252.1L230.9,252.1L230.9,252.1z"/>
	<path class="st4" d="M230.9,252.1L230.9,252.1L230.9,252.1L230.9,252.1z"/>
	<path class="st4" d="M176,252.2c-0.1,0-0.2,0-0.2,0l0,0C175.8,252.2,175.9,252.2,176,252.2z"/>
	<path class="st4" d="M230.2,252.8L230.2,252.8L230.2,252.8z"/>
	<path class="st4" d="M230.5,252.3C230.5,252.3,230.5,252.4,230.5,252.3c-0.1,0.2-0.2,0.3-0.2,0.4l0,0l0,0c0.2-0.2,0.4-0.5,0.6-0.7
		l0,0C230.7,252.1,230.6,252.2,230.5,252.3z"/>
	<path class="st4" d="M230.9,252.1c-0.2,0.1-0.3,0.1-0.4,0.2C230.6,252.2,230.7,252.1,230.9,252.1L230.9,252.1z"/>
	<polygon class="st4" points="230.2,252.8 230.2,252.8 230.2,252.8 230.3,252.7 	"/>
	<path class="st4" d="M230.4,252.4c-0.1,0.1-0.1,0.2-0.2,0.4l0,0C230.3,252.6,230.4,252.5,230.4,252.4z"/>
	<path class="st4" d="M230.9,252.1L230.9,252.1L230.9,252.1z"/>
	<path class="st4" d="M230.2,252.8L230.2,252.8L230.2,252.8L230.2,252.8L230.2,252.8z"/>
	<path class="st4" d="M230.2,252.8C230.2,252.8,230.3,252.7,230.2,252.8C230.3,252.8,230.3,252.8,230.2,252.8L230.2,252.8z"/>
	<path class="st4" d="M230.9,252.1L230.9,252.1L230.9,252.1L230.9,252.1z"/>
	<path class="st4" d="M230.3,252.7L230.3,252.7C230.2,252.8,230.2,252.8,230.3,252.7C230.2,252.8,230.2,252.8,230.3,252.7
		C230.2,252.8,230.2,252.8,230.3,252.7z"/>
	<path class="st4" d="M230.3,252.7L230.3,252.7C230.2,252.8,230.2,252.8,230.3,252.7C230.3,252.8,230.3,252.8,230.3,252.7z"/>
	<path class="st4" d="M230.9,252.1L230.9,252.1L230.9,252.1L230.9,252.1L230.9,252.1z"/>
	<path class="st4" d="M230.9,252.1L230.9,252.1L230.9,252.1L230.9,252.1L230.9,252.1z"/>
	<ellipse class="st4" cx="230.9" cy="252.1" rx="0" ry="0"/>
	<path class="st4" d="M230.9,252.1L230.9,252.1L230.9,252.1L230.9,252.1L230.9,252.1z"/>
	<path class="st6" d="M522.6,178.2c10.3-4,17.9-9.4,22.7-16.1c4.9-6.7,7.3-15.3,7.3-25.7c0-18.3-6.4-31.4-19.3-39.2
		c-12.8-7.8-34.7-11.7-65.7-11.7h-46.1v191.3h43.9c20.6,0,35.7-1,45.2-3.1c9.6-2.1,17.8-5.5,24.6-10.3c6.8-4.9,12-10.9,15.6-17.9
		s5.4-14.9,5.4-23.5c0-11.6-2.7-21-8.2-28.1C542.5,186.7,534,181.5,522.6,178.2z M467.3,116.4h4.7c12.1,0,21.1,2,26.9,6
		s8.7,10.3,8.7,18.7c0,8-2.8,14-8.5,17.8s-14.6,5.8-26.7,5.8h-5v-48.3C467.4,116.4,467.3,116.4,467.3,116.4z M500.4,237
		c-5.5,3.9-14.3,5.9-26.4,5.9c-0.8,0-1.9,0-3.3-0.1c-1.5-0.1-2.6-0.1-3.3-0.1v-49.9h5.7c12.7,0,21.8,2,27.3,5.9s8.3,10.5,8.3,19.7
		C508.6,226.8,505.9,233.1,500.4,237z"/>
	<path class="st6" d="M619.1,85.4l-55.2,191.3h47.3l7.3-33.5H666l8,33.5h47.3L668.7,85.4H619.1L619.1,85.4z M627,213.4
		c2.9-15.1,5.7-30,8.4-44.8c2.7-14.7,5.2-29.2,7.6-43.6c1.9,16.3,4.2,31.7,6.8,46.3c2.6,14.6,5.5,28.6,8.8,42H627V213.4z"/>
	<polygon class="st6" points="838.2,156.1 785.3,156.1 785.3,85.4 738.5,85.4 738.5,276.7 785.3,276.7 785.3,193.5 838.2,193.5 
		838.2,276.7 885.5,276.7 885.5,85.4 838.2,85.4 	"/>
	<path class="st6" d="M997.8,82.9c-25.9,0-46.2,8.7-61,26.1s-22.2,41.5-22.2,72.1c0,30.8,7.3,54.8,21.9,72
		c14.6,17.3,35,25.9,61.2,25.9c25.3,0,45.6-8.6,60.8-25.8s22.7-40.3,22.7-69.5c0-31.6-7.4-56.4-22.3-74.2
		C1044.2,91.8,1023.8,82.9,997.8,82.9z M1025,227.3c-6,10.2-15.1,15.3-27.2,15.3s-21.2-5.1-27.1-15.2c-6-10.1-8.9-25.6-8.9-46.3
		c0-20.8,3-36.3,8.9-46.5c6-10.2,15-15.3,27.1-15.3s21.2,5.1,27.2,15.3s9,25.7,9,46.4S1031,217.1,1025,227.3z"/>
	<path class="st6" d="M1213.7,158.9c0,9.8,0.6,20.3,1.8,31.6c1.2,11.3,3,23.7,5.5,37.3c-3.2-9.3-6.1-17.3-8.7-24.2
		c-2.5-6.9-4.5-11.9-5.9-15.3l-47.9-103h-47.9v191.3h43.5v-80.5c0-12.9-0.3-24-0.8-33.4c-0.5-9.3-1.4-17.7-2.4-25.1
		c1,3,2.3,7.1,4.1,12.3c3.7,11.4,6,18,6.8,19.5l52,107.1h43.9V85.4h-43.9L1213.7,158.9L1213.7,158.9z"/>
</g>
</svg>
